<svg width="278" height="356" viewBox="0 0 278 356" fill="none" xmlns="http://www.w3.org/2000/svg">
<g clip-path="url(#clip0)">
<path d="M137.696 354.67C127.936 352.409 124.735 348.92 122.661 338.278C120.023 324.744 122.95 314.804 132.457 305.014C135.408 301.976 138.78 297.916 139.953 295.991C141.125 294.066 144.269 289.161 146.94 285.091C149.611 281.022 151.427 277.322 150.975 276.87C150.523 276.418 147.463 275.398 144.174 274.603C140.571 273.732 139.189 273.089 140.696 272.984C142.868 272.833 142.736 272.678 139.696 271.8C137.771 271.244 133.046 270.208 129.196 269.498C122.385 268.242 122.317 268.201 126.696 267.973C131 267.749 130.892 267.688 124.196 266.567C110.233 264.23 75.7886 267.026 56.6957 272.047C48.0551 274.319 33.0506 280.444 29.571 283.12C27.2376 284.914 27.2334 284.947 29.3348 284.969C30.5114 284.981 32.5218 285.839 33.8023 286.876C35.7985 288.493 35.9395 288.992 34.7907 290.376C32.1465 293.562 13.2809 291.562 6.95844 287.425C3.86999 285.405 0.934473 279.273 0.121421 273.144C-0.675341 267.137 2.57435 255.406 6.20364 251.187L8.36843 248.67L12.2621 250.58C17.2217 253.014 22.3039 259.714 23.1961 264.994C23.6203 267.505 24.3354 268.909 25.0421 268.616C25.6765 268.354 33.1706 265.879 41.6956 263.115C63.0455 256.194 92.4273 250.991 110.156 250.991C113.753 250.991 116.696 250.631 116.696 250.191C116.696 249.751 118.765 246.547 121.295 243.07C125.844 236.818 133.654 223.297 133.682 221.626C133.689 221.151 130.799 223.471 127.259 226.783C123.719 230.094 117.081 234.863 112.509 237.379C105.416 241.282 103.975 242.839 108.196 242.038C111.047 241.496 106.583 243.938 102.196 245.319C92.8674 248.255 90.1067 248.402 87.7893 246.085C85.0834 243.379 85.0331 239.336 87.6947 238.491C89.2888 237.985 89.4922 237.48 88.6983 235.996C86.8739 232.587 88.4894 230.991 93.7631 230.991C96.6225 230.991 99.1465 231.562 99.9061 232.381C101.497 234.097 103.848 233.023 114.409 225.755C130.648 214.581 140.696 196.514 140.696 178.49C140.696 173.881 140.26 169.84 139.728 169.511C138.561 168.79 124.014 172.982 101.73 180.463C92.6734 183.503 84.272 185.991 83.06 185.991C80.6843 185.991 79.7808 183.836 76.1424 169.491C73.0659 157.361 62.5187 129.413 52.3064 106.329C47.1429 94.6574 47.3386 93.2397 54.9456 87.2043C66.5468 77.9997 88.2072 64.107 117.507 47.0779C124.707 42.8932 124.806 42.78 124.007 39.6596C122.739 34.7093 123.391 24.4351 125.217 20.587C126.279 18.3483 128.991 15.7315 132.776 13.2933C137.618 10.1739 138.68 8.9969 138.687 6.74089C138.706 1.03885 146.339 -2.27024 150.041 1.81963C153.593 5.74523 150.591 11.9957 144.939 12.4403C143.192 12.5777 141.185 13.1324 140.479 13.6729C139.773 14.2134 137.692 15.2527 135.854 15.9823C133.982 16.726 131.376 19.0278 129.925 21.2205C127.708 24.5703 127.355 26.1442 127.467 32.1792C127.539 36.0551 127.854 39.4831 128.168 39.7969C128.482 40.1107 133.117 38.1882 138.467 35.5246C163.465 23.0805 192.401 12.6743 206.696 10.9872C210.271 10.5653 222.456 9.9029 233.775 9.51526L254.355 8.81046L255.959 13.1507C259.613 23.0363 265.905 51.6127 268.256 69.0045C270.051 82.2847 270.563 119.239 269.018 124.057C268.566 125.468 265.271 129.172 261.696 132.288C258.121 135.404 251.371 141.268 246.696 145.319L238.196 152.685L229.207 153.41C224.264 153.808 220.068 154.285 219.884 154.469C219.699 154.654 220.288 156.237 221.193 157.987C225.89 167.068 232.42 190.245 233.318 201.021L233.983 208.991H237.905C240.062 208.991 242.697 208.525 243.761 207.956C247.169 206.132 246.044 209.658 241.723 214.345L237.75 218.655L240.78 220.895C242.446 222.127 245.433 223.399 247.417 223.721L251.025 224.306L248.846 226.07C247.647 227.041 243.619 228.62 239.894 229.579L233.122 231.324L233.16 258.156C233.178 272.914 233.469 284.989 233.803 284.99C235.13 284.992 241.809 296.552 242.833 300.619C244.881 308.75 241.786 312.313 234.794 309.875C231.283 308.651 229.696 306.374 229.696 302.557C229.696 299.265 227.895 299.217 227.216 302.491C225.482 310.839 225.924 310.253 221.902 309.541C215.829 308.465 215.053 308.068 213.848 305.425C211.286 299.8 214.16 289.686 219.068 287.06C221.112 285.966 221.502 284.815 222.058 278.245C223.324 263.27 222.767 257.643 220.119 258.659C219.343 258.957 218.97 259.624 219.29 260.142C219.609 260.66 218.045 261.801 215.812 262.678C213.579 263.555 211.991 264.659 212.283 265.132C212.576 265.604 212.168 265.991 211.378 265.991C210.588 265.991 209.429 266.608 208.803 267.363C208.177 268.117 204.859 269.74 201.43 270.969C198.002 272.198 189.967 276.083 183.574 279.603L171.952 286.003L168.58 297.247C165.46 307.647 165.207 309.524 165.202 322.24C165.198 335.309 165.296 335.992 167.196 336.035C168.745 336.069 168.519 336.391 166.196 337.455L163.196 338.828L165.887 338.91C169.024 339.004 170.565 340.827 168.575 342.087C167.817 342.568 167.646 342.971 168.196 342.984C168.746 342.995 173.246 343.455 178.196 344.001C195.434 345.904 200.987 350.242 190.446 353.572C183.425 355.789 145.903 356.57 137.696 354.67ZM151.635 348.642C156.861 346.06 162.237 338.954 163.316 333.203C163.694 331.189 163.448 326.854 162.77 323.57C160.379 311.997 155.603 305.892 146.978 303.385C141.625 301.828 141.524 301.839 137.729 304.35C132.491 307.816 128.318 312.454 125.675 317.746C121.325 326.458 124.566 346.702 130.852 350.079C136.758 353.252 143.209 352.806 151.635 348.642ZM160.696 304.116C160.696 300.793 160.247 300.107 156.81 298.175C152.608 295.813 144.975 295.236 141.63 297.026C139.19 298.332 139.125 299.991 141.514 299.991C145.735 299.991 153.734 303.211 156.32 305.951C159.663 309.493 160.696 309.06 160.696 304.116ZM220.696 306.022C220.696 305.49 220.021 305.313 219.196 305.629C218.371 305.946 217.696 306.382 217.696 306.598C217.696 306.814 218.371 306.991 219.196 306.991C220.021 306.991 220.696 306.555 220.696 306.022ZM238.696 306.192C238.696 305.752 237.121 305.576 235.196 305.801C233.271 306.026 231.696 306.386 231.696 306.6C231.696 306.815 233.271 306.991 235.196 306.991C237.121 306.991 238.696 306.631 238.696 306.192ZM220.077 300.836C220.424 299.101 221.261 297.014 221.938 296.199C222.615 295.383 223.175 293.187 223.182 291.317C223.193 288.54 222.848 287.97 221.296 288.204C217.426 288.788 213.356 298.056 215.041 302.447C216.136 305.301 219.392 304.26 220.077 300.836ZM237.505 300.817C237.927 297.16 236.066 290.669 233.787 287.856C232.188 285.881 231.491 285.678 229.154 286.511C227.641 287.05 225.906 288.301 225.299 289.292C224.383 290.787 224.738 291.552 227.39 293.792C229.508 295.582 230.812 297.772 231.261 300.295C231.863 303.677 232.231 304.066 234.567 303.795C236.577 303.562 237.268 302.861 237.505 300.817ZM226.696 290.491C226.696 289.574 227.179 288.985 227.771 289.182C228.362 289.379 228.846 289.968 228.846 290.491C228.846 291.013 228.362 291.602 227.771 291.799C227.179 291.996 226.696 291.407 226.696 290.491ZM226.806 297.386C228.968 296.188 229.005 296.06 227.196 296.042C224.222 296.012 222.926 297.172 222.218 300.501C221.585 303.474 221.589 303.477 222.999 301.101C223.778 299.786 225.491 298.115 226.806 297.386ZM159.737 289.588C156.606 286.457 148.23 286.613 145.607 289.852C144.556 291.15 143.695 292.5 143.694 292.852C143.693 293.203 146.118 293.34 149.082 293.155C153.905 292.854 154.825 293.135 157.833 295.834L161.196 298.849L161.515 295.267C161.747 292.668 161.26 291.11 159.737 289.588ZM162.696 287.213C162.696 286.786 161.995 285.436 161.139 284.213C159.168 281.4 152.794 281.12 150.42 283.742C148.931 285.388 149.088 285.475 153.015 285.177C155.664 284.975 157.928 285.421 159.196 286.393C161.413 288.094 162.696 288.395 162.696 287.213ZM14.6616 281.391C18.1434 274.503 14.7002 257.19 9.12168 253.534C6.6301 251.902 6.61913 251.909 4.49519 256.694C0.248551 266.262 0.868082 278.481 5.83506 283.121C9.39402 286.446 12.4052 285.855 14.6616 281.391ZM230.442 283.577C230.659 283.361 231.097 279.722 231.417 275.49C232.046 267.176 231.455 265.932 227.246 266.736C224.632 267.236 223.726 270.6 223.707 279.866L223.695 285.241L226.872 284.605C228.62 284.256 230.226 283.793 230.442 283.577ZM20.5023 278.941C22.2632 275.544 22.6676 273.545 22.2117 270.491C21.0252 262.543 19.5528 258.915 16.1219 255.484C12.0741 251.436 9.60279 250.786 12.5615 254.547C15.9979 258.916 17.8972 266.334 17.4771 273.745C17.267 277.455 16.7083 281.34 16.2359 282.377C14.3992 286.411 18.2291 283.326 20.5023 278.941ZM35.3336 274.296C34.7041 273.666 24.158 277.267 23.461 278.35C21.7965 280.935 23.0175 280.814 29.1636 277.783C32.7209 276.029 35.4974 274.459 35.3336 274.296ZM172.562 274.72C174.205 271.844 178.083 263.866 181.178 256.991C190.655 235.938 194.43 211.991 193.059 181.622L192.388 166.752L180.792 167.361C174.414 167.696 163.121 168.256 155.696 168.605L142.196 169.241L142.083 183.366C141.886 208.043 137.958 221.861 126.092 239.609C122.574 244.87 119.696 249.545 119.696 249.998C119.696 251.219 128.225 257.168 136.196 261.507C145.227 266.423 162.515 276.807 165.563 279.147C166.865 280.146 168.3 280.735 168.752 280.456C169.204 280.177 170.918 277.596 172.562 274.72ZM165.159 259.063C166.532 256.353 168.815 250.841 170.232 246.813C172.063 241.607 172.623 240.647 172.17 243.491C171.534 247.484 164.346 263.991 163.244 263.991C162.924 263.991 163.786 261.773 165.159 259.063ZM130.696 245.729C130.696 245.434 132.263 242.864 134.178 240.018C136.093 237.172 138.18 233.105 138.817 230.981L139.974 227.118L145.085 227.645C152.613 228.421 170.381 232.639 169.564 233.456C169.334 233.686 165.332 233.024 160.67 231.985C156.008 230.947 149.658 229.699 146.559 229.213L140.923 228.329L138.729 233.624C136.876 238.094 130.696 247.407 130.696 245.729ZM172.854 236.991C172.854 235.616 173.08 235.053 173.358 235.741C173.635 236.428 173.635 237.553 173.358 238.241C173.081 238.928 172.854 238.366 172.854 236.991ZM169.775 236.408C169.823 235.243 170.06 235.006 170.379 235.803C170.668 236.525 170.632 237.388 170.3 237.72C169.968 238.052 169.731 237.462 169.775 236.408ZM140.696 231.991C140.696 231.441 141.172 230.991 141.755 230.991C142.337 230.991 142.536 231.441 142.196 231.991C141.856 232.541 141.379 232.991 141.137 232.991C140.894 232.991 140.696 232.541 140.696 231.991ZM145.577 219.241C145.512 218.278 145.547 216.867 145.652 216.105C145.782 215.171 145.251 214.927 144.021 215.358C142.307 215.957 142.301 215.914 143.93 214.644C144.884 213.901 145.489 213.113 145.274 212.892C145.059 212.671 146.754 212.434 149.039 212.364C151.325 212.295 152.633 212.445 151.945 212.698C149.686 213.529 150.619 215.149 152.945 214.434C156.056 213.478 156.368 213.028 154.666 211.952C153.67 211.322 153.599 211.017 154.445 211.006C155.133 210.998 155.695 210.525 155.695 209.956C155.695 209.243 155.091 209.244 153.756 209.959C152.466 210.649 151.609 210.661 151.197 209.994C150.852 209.435 151.6 208.984 152.886 208.976C154.744 208.963 154.902 208.771 153.695 207.991C152.362 207.129 152.362 207.026 153.695 207.062C155.706 207.115 160.041 212.66 158.713 213.48C158.153 213.826 157.695 214.951 157.695 215.979C157.695 217.381 156.343 218.242 152.291 219.42C145.606 221.364 145.721 221.367 145.577 219.241ZM151.644 218.631C155.854 217.372 158.406 214.984 155.529 214.996C152.187 215.01 146.696 217.212 146.696 218.538C146.696 219.337 146.808 219.984 146.946 219.976C147.083 219.968 149.197 219.362 151.644 218.631ZM149.196 214.991C149.535 214.441 149.112 213.991 148.255 213.991C147.397 213.991 146.696 214.441 146.696 214.991C146.696 215.541 147.119 215.991 147.637 215.991C148.154 215.991 148.856 215.541 149.196 214.991ZM158.464 195.266C160.261 195.044 162.961 195.048 164.464 195.276C165.966 195.505 164.494 195.687 161.196 195.681C157.896 195.675 156.666 195.489 158.464 195.266ZM173.446 194.285C174.683 194.047 176.708 194.047 177.946 194.285C179.183 194.523 178.171 194.719 175.696 194.719C173.221 194.719 172.208 194.524 173.446 194.285ZM147.982 189.491C147.989 186.741 148.184 185.735 148.413 187.255C148.643 188.775 148.637 191.025 148.398 192.255C148.161 193.485 147.973 192.241 147.98 189.491H147.982ZM153.508 193.308C154.23 193.019 155.093 193.054 155.425 193.387C155.757 193.719 155.166 193.955 154.112 193.912C152.947 193.864 152.71 193.627 153.508 193.308ZM159.946 192.302C160.908 192.05 162.483 192.05 163.446 192.302C164.408 192.553 163.621 192.759 161.696 192.759C159.771 192.759 158.983 192.553 159.946 192.302ZM153.508 191.308C154.23 191.019 155.093 191.054 155.425 191.387C155.757 191.719 155.166 191.955 154.112 191.912C152.947 191.864 152.71 191.627 153.508 191.308ZM172.253 191.084C171.945 190.585 172.659 190.43 173.84 190.739C175.731 191.233 175.925 190.972 175.463 188.552C174.993 186.096 175.099 185.965 176.453 187.32C177.287 188.154 177.697 189.546 177.364 190.413C176.713 192.11 173.175 192.575 172.253 191.084ZM159.446 190.285C160.683 190.047 162.708 190.047 163.946 190.285C165.183 190.523 164.171 190.719 161.696 190.719C159.221 190.719 158.208 190.524 159.446 190.285ZM161.446 188.329C162.133 188.051 163.258 188.051 163.946 188.329C164.633 188.606 164.071 188.833 162.696 188.833C161.321 188.833 160.758 188.606 161.446 188.329ZM152.696 184.613C152.696 184.326 155.42 183.556 158.749 182.901C163.135 182.038 164.658 181.335 164.28 180.35C163.993 179.603 164.194 178.991 164.727 178.991C165.861 178.991 166.047 182.669 164.946 183.307C163.735 184.008 152.696 185.185 152.696 184.613ZM146.775 181.408C146.823 180.243 147.06 180.006 147.379 180.803C147.668 181.525 147.632 182.388 147.3 182.72C146.968 183.052 146.731 182.462 146.775 181.408ZM171.696 182.102C171.696 181.613 172.483 181.276 173.446 181.352C174.54 181.439 175.144 180.839 175.059 179.752C174.983 178.795 175.321 178.259 175.809 178.561C176.297 178.862 176.696 179.982 176.696 181.05C176.696 182.454 176.004 182.991 174.196 182.991C172.821 182.991 171.696 182.591 171.696 182.102ZM155.508 175.308C156.23 175.019 157.093 175.054 157.425 175.387C157.757 175.719 157.166 175.955 156.112 175.912C154.947 175.864 154.71 175.627 155.508 175.308ZM161.446 174.329C162.133 174.051 163.258 174.051 163.946 174.329C164.633 174.606 164.071 174.833 162.696 174.833C161.321 174.833 160.758 174.606 161.446 174.329ZM168.457 173.284C169.701 173.044 171.501 173.054 172.457 173.304C173.413 173.554 172.396 173.75 170.196 173.739C167.996 173.728 167.213 173.523 168.457 173.284ZM177.446 172.329C178.133 172.051 179.258 172.051 179.946 172.329C180.633 172.606 180.071 172.833 178.696 172.833C177.321 172.833 176.758 172.606 177.446 172.329ZM208.446 261.259C218.722 256.792 221.696 255.076 221.696 253.614C221.696 250.15 218.506 231.504 217.74 230.491C216.532 228.892 214.585 219.98 215.219 218.953C216.216 217.34 213.936 211.006 211.71 209.203C208.556 206.649 208.049 200.083 210.742 196.659C213.187 193.551 217.997 193.049 220.823 195.606C221.805 196.495 223.814 200.882 225.288 205.356C226.762 209.83 228.11 213.657 228.284 213.86C228.458 214.063 229.361 213.468 230.292 212.538C231.714 211.115 231.89 209.527 231.396 202.532C231.073 197.959 230.085 191.353 229.199 187.854C227.763 182.175 220.854 160.939 220.202 160.199C220.061 160.039 217.977 160.702 215.571 161.673C213.164 162.645 207.596 164.362 203.196 165.49L195.196 167.54L195.12 190.516C195.006 224.791 192.276 238.377 180.576 262.882C176.792 270.808 173.696 277.376 173.696 277.477C173.696 277.578 178.533 275.266 184.446 272.339C190.358 269.413 201.158 264.426 208.446 261.259ZM204.235 233.741C205.116 228.513 206.489 224.828 206.751 226.991C206.85 227.816 207.276 227.141 207.696 225.491L208.459 222.491L208.577 225.634C208.646 227.462 208.123 228.996 207.328 229.302C205.717 229.92 204.567 234.794 205.846 235.584C206.918 236.247 205.978 237.991 204.549 237.991C203.893 237.991 203.779 236.451 204.235 233.741ZM208.775 232.408C208.823 231.243 209.06 231.006 209.379 231.803C209.668 232.525 209.632 233.388 209.3 233.72C208.968 234.052 208.731 233.462 208.775 232.408ZM206.866 219.491C206.881 218.391 207.255 216.366 207.696 214.991L208.496 212.491L208.527 214.991C208.542 216.366 208.169 218.391 207.697 219.491L206.837 221.491L206.867 219.491H206.866ZM35.6957 272.138C43.4121 269.689 44.2248 269.19 44.5121 266.716C44.6863 265.217 44.461 264.027 44.0121 264.071C43.5631 264.115 38.9207 265.578 33.6957 267.321C25.769 269.966 24.1428 270.864 23.8761 272.741C23.4631 275.649 24.8568 275.578 35.6957 272.138ZM62.0223 265.072C67.4269 264.027 72.0934 262.927 72.3923 262.628C72.6913 262.329 72.6614 260.991 72.3266 259.656L71.7171 257.227L64.3694 258.615C55.9788 260.199 46.5148 263.218 46.6229 264.276C46.663 264.669 46.6958 265.867 46.6958 266.939C46.6958 268.629 47.0594 268.76 49.4458 267.93C50.9583 267.404 56.6177 266.118 62.0223 265.072ZM231.696 256.988C231.696 248.588 231.185 247.792 226.382 248.71C223.873 249.19 223.696 249.57 223.696 254.482C223.696 257.375 223.958 261.052 224.279 262.655C224.807 265.299 225.179 265.533 228.279 265.171L231.696 264.772V256.988ZM89.6957 261.458C103.285 260.615 103.696 260.485 103.696 257.031C103.696 255.424 103.251 253.834 102.707 253.498C101.754 252.909 79.0218 255.484 75.4457 256.586C74.2804 256.945 73.6957 258.143 73.6957 260.17C73.6957 263.057 73.8631 263.183 76.9457 262.631C78.7332 262.31 84.4707 261.783 89.6957 261.458ZM116.696 259.538C116.696 258.068 114.274 254.133 113.619 254.539C113.187 254.805 112.551 254.566 112.206 254.007C111.287 252.52 104.693 252.726 104.709 254.241C104.762 259.072 105.817 259.991 111.312 259.991C114.273 259.991 116.696 259.787 116.696 259.538ZM229.575 247.005C231.895 246.991 231.937 246.839 231.265 240.898C230.885 237.546 230.142 233.664 229.612 232.271C228.759 230.028 228.235 229.804 225.048 230.321C223.068 230.642 221.221 231.132 220.944 231.41C220.666 231.687 221.008 235.568 221.702 240.034C222.872 247.553 223.122 248.112 225.081 247.586C226.244 247.274 228.266 247.012 229.575 247.005ZM96.1486 243.83C98.2343 242.88 98.6957 241.974 98.6957 238.83C98.6957 236.719 98.4912 234.991 98.2411 234.991C97.9913 234.991 96.6616 236.116 95.2866 237.491C93.9116 238.866 91.6411 239.991 90.2411 239.991C88.8411 239.991 87.6957 240.49 87.6957 241.1C87.6957 242.244 92.428 241.944 96.1957 240.562C98.1671 239.838 98.1679 239.85 96.2546 241.409C95.187 242.279 92.8245 242.991 91.0047 242.991C89.1847 242.991 87.6957 243.441 87.6957 243.991C87.6957 245.355 93.0244 245.254 96.1486 243.83ZM106.114 238.384C107.477 237.861 108.496 232.991 107.243 232.991C105.261 232.991 101.696 235.665 101.696 237.151C101.696 239.028 103.282 239.47 106.114 238.384ZM92.6957 235.598C92.6957 234.832 92.0207 233.946 91.1957 233.629C89.6921 233.052 89.0776 235.04 90.3624 236.324C91.4836 237.445 92.6957 237.068 92.6957 235.598ZM114.552 234.064C119.807 231.383 121.109 229.631 119.742 227.078C118.669 225.073 118.563 225.091 113.613 228.137C110.237 230.214 108.76 231.717 109.136 232.695C109.444 233.498 109.696 234.568 109.696 235.073C109.696 236.366 110.277 236.245 114.552 234.064ZM98.4248 233.387C98.0926 233.054 97.2301 233.019 96.5082 233.308C95.7105 233.627 95.9474 233.864 97.1123 233.912C98.1665 233.955 98.7571 233.719 98.4248 233.387ZM126.658 224.241C128.883 221.556 129.605 219.837 129.199 218.19C128.752 216.377 129.01 215.952 130.414 216.19C131.737 216.413 132.283 215.722 132.535 213.506C132.853 210.701 132.483 210.936 126.375 217.415C120.778 223.353 120.036 224.564 121.027 226.15C122.613 228.69 123.11 228.522 126.658 224.241ZM225.5 211.638C225.333 210.469 224.491 209.377 223.629 209.213C221.436 208.796 216.696 212.754 216.696 215.003C216.696 216.779 216.916 216.794 221.251 215.318C224.954 214.056 225.748 213.368 225.5 211.638ZM222.783 207.991C224.476 207.991 224.506 207.678 223.217 203.396C220.889 195.66 217.343 193.19 213.524 196.646C211.229 198.723 211.239 199.032 213.82 206.113L215.945 211.94L218.455 209.965C219.836 208.879 221.783 207.991 222.783 207.991ZM105.247 177.02C116.938 173.186 132.509 168.504 139.85 166.615C155.204 162.665 209.735 153.226 226.624 151.595L238.053 150.491L238.987 147.491C240.31 143.242 240.162 120.832 238.711 105.491C236.996 87.3762 232.569 72.6131 222.816 52.4909C215.374 37.1376 204.357 16.4065 202.708 14.6535C201.796 13.6831 186.066 17.7957 174.882 21.9288C162.91 26.3529 138.979 37.2124 130.696 41.9796C126.571 44.3536 118.921 48.7342 113.696 51.7142C108.471 54.6942 99.1148 60.3121 92.9049 64.1983L81.6141 71.2641L82.7518 80.4909L81.0939 76.6837C80.1821 74.5897 78.9206 73.0743 78.2906 73.3161C74.3182 74.8404 49.6956 93.5846 49.6956 95.0843C49.6956 95.655 51.3188 99.58 53.3028 103.806C63.3931 125.303 75.1009 156.688 79.3393 173.602C80.771 179.316 82.4033 183.991 82.9665 183.991C83.5298 183.991 93.5561 180.854 105.247 177.02ZM92.7719 165.691C92.2814 164.401 90.7216 158.203 89.3058 151.918L86.7318 140.491L88.931 138.823C92.7493 135.926 115.562 126.355 132.696 120.46C167.671 108.428 179.622 104.584 180.216 105.178C180.555 105.517 181.694 111.663 182.747 118.836C183.8 126.009 185.133 133.979 185.708 136.547C186.911 141.916 186.116 143.52 181.778 144.473C179.068 145.068 179.025 145.183 180.065 149.08C181.345 153.877 180.13 156.491 176.619 156.491C174.724 156.491 173.949 155.606 172.681 151.991C171.369 148.251 170.688 147.508 168.649 147.589C164.879 147.741 128.884 157.292 113.196 162.303C93.6603 168.544 93.8448 168.513 92.7719 165.691ZM101.072 164.378C103.674 163.492 105.585 162.547 105.317 162.279C104.712 161.674 97.5404 163.913 96.2457 165.112C94.9224 166.336 95.6501 166.226 101.072 164.378ZM118.804 156.194C137.881 149.989 139.352 149.342 138.606 147.491C138.162 146.391 136.341 140.832 134.559 135.137C132.777 129.443 130.774 124.574 130.107 124.318C129.097 123.931 106.062 132.291 104.878 133.475C104.669 133.684 105.92 138.433 107.659 144.028C109.397 149.623 110.595 154.425 110.321 154.699C109.919 155.101 107.082 146.52 104.065 135.778C103.628 134.22 103.074 134.291 97.9399 136.562C94.8354 137.935 92.1529 139.2 91.9787 139.375C91.8045 139.549 92.8272 144.526 94.2513 150.435C95.6753 156.345 96.6275 161.392 96.3672 161.653C96.1068 161.913 94.9265 157.933 93.7439 152.808C90.7503 139.836 90.6716 139.615 89.467 140.82C88.7604 141.526 89.323 145.316 91.2598 152.891C93.8241 162.921 94.2708 163.885 96.1391 163.415C97.2702 163.13 107.469 159.881 118.804 156.194ZM136.539 153.082C141.85 151.482 151.772 148.974 158.587 147.509C172.394 144.541 172.826 144.636 174.436 150.989C175.48 155.11 178.705 156.497 178.681 152.814C178.673 151.536 178.061 148.466 177.322 145.991C175.962 141.438 173.741 139.878 171.392 141.828C170.728 142.379 162.537 144.874 153.19 147.373C137.207 151.645 124.149 155.754 126.039 155.918C126.503 155.958 131.228 154.682 136.539 153.082ZM153.196 145.912C159.246 144.244 165.317 142.651 166.687 142.372C168.057 142.093 169.896 141.214 170.774 140.42C171.854 139.443 173.419 139.186 175.613 139.624C177.814 140.065 178.438 140.532 177.554 141.078C175.364 142.432 178.963 143.22 182.023 142.056C185.152 140.867 185.081 141.317 183.283 134.135C182.506 131.031 181.343 123.766 180.698 117.991C180.053 112.216 179.391 107.356 179.226 107.19C178.976 106.938 145.775 118.042 134.884 122.02C132.819 122.774 131.765 123.729 132.083 124.558C133.927 129.363 137.801 141.18 138.7 144.741C139.29 147.078 140.318 148.981 140.984 148.968C141.651 148.956 147.146 147.58 153.196 145.912ZM161.292 131.268C159.817 125.891 158.348 120.591 158.029 119.491C157.709 118.391 157.751 117.776 158.122 118.125C159.018 118.967 164.896 140.124 164.377 140.642C164.156 140.864 162.767 136.646 161.292 131.268ZM74.1956 127.991C73.4135 126.725 74.7373 126.725 76.6957 127.991C77.9884 128.826 77.9619 128.962 76.5048 128.976C75.5748 128.984 74.5356 128.541 74.1956 127.991ZM72.5564 123.915C71.258 122.773 70.823 122.164 71.5897 122.563C72.3564 122.961 74.8314 123.865 77.0897 124.572C81.0913 125.824 81.1158 125.859 78.0564 125.924C76.225 125.963 73.9337 125.126 72.5564 123.915ZM77.9279 122.889C73.0437 121.447 68.6898 114.924 68.7176 109.091C68.7562 100.988 74.1833 92.6344 81.1091 90.0171C85.5207 88.3499 93.8499 92.6915 97.197 98.4029C102.022 106.636 99.7878 116.763 92.1923 121.09C88.2897 123.313 82.0344 124.102 77.9279 122.889ZM83.9922 119.941C78.2587 118.809 75.7735 117.326 74.6478 114.365C73.4599 111.24 73.4334 103.953 74.6032 102.106C75.143 101.254 75.2819 102.48 74.9645 105.297C74.681 107.813 74.7416 111.038 75.0991 112.462C76.0251 116.152 81.1979 118.983 87.0225 118.987C91.0704 118.99 92.3407 118.5 94.8928 115.948C97.7045 113.136 97.9014 112.486 97.4801 107.406C96.9724 101.284 94.8815 97.7632 89.6312 94.1906C86.8983 92.331 85.479 92.0166 82.2231 92.5495C80.008 92.912 77.3445 93.9471 76.3044 94.8498C73.2924 97.4634 70.7414 104.08 70.7176 109.341C70.6987 113.538 71.1534 114.649 74.0956 117.591C77.1587 120.654 78.0258 120.98 82.8456 120.881L88.1956 120.772L83.9922 119.941ZM76.6957 97.6133C76.6957 97.4057 77.4831 96.6182 78.4456 95.8633C80.0317 94.6195 80.0671 94.6548 78.8232 96.2409C77.5169 97.9066 76.6957 98.4364 76.6957 97.6133ZM147.196 102.056C140.516 100.43 132.681 94.5689 129.673 88.9493C128.986 87.6643 128.213 82.7605 127.956 78.0519C127.567 70.9271 127.854 68.5259 129.665 63.7388C132.552 56.1071 138.54 48.7185 145.513 44.1857C150.478 40.9572 151.953 40.4934 157.196 40.5106C162.364 40.5276 164.063 41.0582 169.454 44.3379C176.44 48.5885 179.108 51.7126 183.247 60.4909C186.985 68.4176 187.174 78.306 183.724 85.4318C180.487 92.1199 171.999 100.536 167.127 101.888C162.773 103.097 151.85 103.189 147.196 102.056ZM169.711 97.483C178.228 93.1671 183.958 83.78 184.048 73.9966C184.149 62.9314 177.036 50.2702 168.357 46.0688C152.988 38.629 136.632 53.1732 134.707 75.9909L133.99 84.4909L133.843 77.7761C133.72 72.1731 133.364 70.884 131.696 69.9909C129.779 68.9649 129.696 69.2304 129.696 76.3906C129.696 85.6771 130.517 87.8647 136.098 93.4456C141.328 98.6758 144.196 99.5995 155.952 99.8396C163.553 99.9948 165.368 99.684 169.711 97.483ZM144.203 97.0023C143.852 96.4355 144.254 96.2678 145.144 96.6093C146.876 97.2741 147.193 97.9909 145.755 97.9909C145.237 97.9909 144.539 97.546 144.203 97.0023ZM138.312 91.988C136.323 89.7864 134.709 87.4239 134.726 86.738C134.741 86.0521 135.252 86.3909 135.858 87.4909C136.463 88.5909 138.338 90.9534 140.024 92.7409C141.709 94.5284 142.827 95.9909 142.508 95.9909C142.189 95.9909 140.301 94.1896 138.312 91.988ZM135.606 64.7409C138.29 55.4451 146.497 46.6083 155.394 43.4348C158.507 42.3242 158.743 42.0747 156.696 42.0567C152.715 42.022 145.562 45.7427 140.86 50.2941C135.271 55.7051 130.086 65.5514 131.763 67.5718C133.611 69.7993 134.29 69.2995 135.606 64.7409ZM186.66 90.0582C187.229 88.9952 188.157 86.9078 188.723 85.4195C189.289 83.9312 189.983 82.9447 190.265 83.2274C191.025 83.9873 187.634 91.9909 186.552 91.9909C186.02 91.9909 186.066 91.1671 186.66 90.0582ZM183.696 90.4412C183.696 90.1389 184.456 88.4514 185.385 86.6912C186.313 84.931 187.382 81.6909 187.759 79.4909L188.445 75.4909L188.57 79.2807C188.639 81.3651 187.786 84.8526 186.675 87.0307C184.851 90.6061 183.696 91.9289 183.696 90.4412ZM251.227 138.733C255.094 135.3 260.205 130.88 262.585 128.912L266.911 125.332L267.754 114.412C268.739 101.639 268.175 86.2885 266.104 69.4909C264.665 57.8213 258.247 26.5778 255.138 16.1075L253.596 10.9147L237.896 11.6006C229.261 11.9778 221.914 12.718 221.571 13.2454C221.182 13.8421 220.701 13.8089 220.299 13.1576C219.755 12.2771 206.01 12.5993 204.889 13.5189C204.721 13.6571 206.887 17.7574 209.702 22.6305C218.427 37.7321 231.332 65.0209 234.593 75.2673C238.536 87.654 240.367 98.6133 241.63 117.376C242.181 125.562 242.845 132.474 243.106 132.735C243.367 132.996 244.913 132.26 246.543 131.1C248.172 129.94 249.885 128.998 250.35 129.008C250.815 129.017 249.714 129.973 247.904 131.132C244.244 133.476 244.213 134.798 247.86 133.005C250.107 131.9 250.101 131.934 247.696 133.902C244.877 136.207 243.217 136.617 244.297 134.741C244.692 134.053 244.757 133.716 244.439 133.991C244.122 134.266 243.787 134.941 243.694 135.491C243.601 136.041 243.112 136.989 242.607 137.598C241.654 138.746 242.47 144.997 243.571 144.983C243.915 144.979 247.36 142.166 251.227 138.733ZM245.937 104.457C246.345 104.027 246.222 103.125 245.664 102.453C245.106 101.781 243.505 94.5394 242.107 86.3609C240.553 77.2757 237.883 66.5357 235.245 58.7535C230.461 44.6403 230.779 42.3986 235.74 55.2594C239.357 64.6331 241.82 74.182 244.248 88.2409C245.855 97.5453 247.033 99.8811 248.367 96.406C249.73 92.8518 241.704 62.0425 236.132 49.4427C234.364 45.4448 233.184 43.9909 231.708 43.9909C227.054 43.9909 230.323 42.0799 239.182 39.6225C244.399 38.1751 249.103 36.9909 249.635 36.9909C251.865 36.9909 262.696 77.4121 262.696 85.7348C262.696 88.1503 262.215 89.6979 261.446 89.7627C260.758 89.8205 258.408 90.3206 256.224 90.8741C254.039 91.4275 252.115 91.7436 251.948 91.5765C251.781 91.4094 250.986 87.2018 250.181 82.2264C249.376 77.251 247.072 67.8501 245.06 61.3355C239.737 44.0972 239.749 44.6662 244.658 42.738L248.792 41.114L249.805 43.7782C250.362 45.2435 253.014 54.5533 255.698 64.4667C258.381 74.38 260.604 81.8873 260.636 81.1495C260.701 79.6904 253.485 50.038 251.45 43.4002L250.196 39.3096L243.7 40.6376C234.107 42.5988 234.444 42.2518 236.827 47.7022C241.919 59.3504 248.832 82.7601 249.907 91.9909C250.146 94.0449 250.694 94.4565 252.978 94.2983C254.508 94.1923 257.168 93.4029 258.89 92.5439C260.612 91.685 262.265 91.2274 262.565 91.527C263.466 92.4276 260.036 97.4076 257.664 98.644C255.617 99.7106 255.592 99.8333 257.324 100.278C258.624 100.612 258.356 100.794 256.446 100.875C254.933 100.939 253.696 101.411 253.696 101.924C253.696 102.436 252.683 103.147 251.446 103.503C246.045 105.055 245.238 105.195 245.937 104.457ZM258.907 85.386C258.612 82.4348 254.808 66.8047 252.032 57.1409C249.343 47.7768 248.71 53.0653 251.153 64.4909C255.043 82.684 256.879 89.0979 258.077 88.6755C258.692 88.4586 259.066 86.9783 258.907 85.386ZM234.696 24.4749C232.771 23.1559 229.171 20.2098 226.696 17.928L222.196 13.7794L226.358 16.8994C229.263 19.0776 230.673 19.6378 231.029 18.7551C231.355 17.944 231.566 18.0833 231.617 19.1439C231.66 20.053 233.383 22.1755 235.446 23.8604C239.917 27.5132 239.559 27.8071 234.696 24.4749ZM125.804 34.421C125.059 29.313 124.925 29.0454 124.831 32.4909C124.772 34.6909 124.999 37.5212 125.336 38.7805C126.434 42.8768 126.689 40.493 125.804 34.421ZM140.196 11.9909C140.535 11.4409 140.364 10.9909 139.814 10.9909C139.264 10.9909 138.536 11.4409 138.196 11.9909C137.856 12.5409 138.028 12.9909 138.578 12.9909C139.128 12.9909 139.856 12.5409 140.196 11.9909ZM147.736 9.1596C149.486 7.74201 149.846 6.72546 149.327 4.6596C148.386 0.910343 143.465 0.886904 141.019 4.62003C139.351 7.1664 139.369 7.30808 141.607 9.12003C144.467 11.4357 144.921 11.4386 147.736 9.1596ZM250.594 268.802C248.608 265.091 249.152 259.199 251.734 256.451C254.904 253.076 258.262 253.252 260.143 256.89C261.453 259.422 262.373 259.874 267.419 260.464C273.844 261.216 279.229 263.484 276.696 264.372C275.871 264.662 272.496 265.664 269.196 266.6C265.896 267.535 263.761 268.495 264.452 268.731C267.467 269.764 264.058 270.991 258.172 270.991C252.605 270.991 251.613 270.704 250.594 268.802ZM257.381 267.817C259.074 266.227 259.692 264.547 259.68 261.567C259.661 256.419 258.546 254.586 255.937 255.414C253.745 256.11 253.452 259.015 255.446 260.291C257.388 261.533 256.92 262.991 254.579 262.991C252.972 262.991 252.585 263.461 252.973 264.943C253.254 266.017 253.003 267.056 252.413 267.252C251.097 267.69 252.382 269.991 253.94 269.991C254.56 269.991 256.108 269.012 257.381 267.817ZM265.696 265.374C265.696 265.163 264.571 264.991 263.196 264.991C261.821 264.991 260.696 265.379 260.696 265.852C260.696 266.326 261.821 266.499 263.196 266.236C264.571 265.973 265.696 265.585 265.696 265.374ZM266.696 262.991C266.696 262.441 266.507 261.991 266.277 261.991C266.047 261.991 265.142 261.716 264.266 261.38C263.1 260.932 262.839 261.2 263.291 262.38C263.963 264.129 266.696 264.62 266.696 262.991ZM272.696 262.991C272.696 262.441 271.796 261.991 270.696 261.991C269.596 261.991 268.696 262.441 268.696 262.991C268.696 263.541 269.596 263.991 270.696 263.991C271.796 263.991 272.696 263.541 272.696 262.991ZM109.696 241.991C109.696 241.441 110.172 240.991 110.755 240.991C111.337 240.991 111.536 241.441 111.196 241.991C110.856 242.541 110.379 242.991 110.137 242.991C109.894 242.991 109.696 242.541 109.696 241.991Z" fill="#FFEB39"/>
</g>
<defs>
<clipPath id="clip0">
<rect width="277.335" height="355.744" fill="white"/>
</clipPath>
</defs>
</svg>
