<svg width="277" height="356" viewBox="0 0 277 356" fill="none" xmlns="http://www.w3.org/2000/svg">
<path d="M142.994 355.471C129.186 352.008 125.935 348.078 124.583 333.217C123.395 320.149 126.313 311.424 134.628 303.183C138.24 299.603 144.224 291.795 147.926 285.831C155.181 274.146 154.762 272.697 144.043 272.387C141.652 272.317 140.278 271.68 140.989 270.971C141.7 270.262 137.99 268.483 132.744 267.017C120.872 263.701 90.0158 263.591 72.8424 266.805C60.1477 269.181 30.5719 278.939 30.5719 280.753C30.5719 281.29 31.9098 282.706 33.5448 283.898C41.0809 289.393 25.6668 292.531 12.4031 288.202C2.69492 285.033 -0.00746279 280.637 1.54667e-05 268.026C1.54667e-05 254.564 4.75556 245.057 10.6961 246.606C15.5113 247.862 23.377 257.185 23.377 261.636C23.377 263.533 23.7918 265.086 24.2962 265.086C24.7993 265.086 34.313 262.345 45.4318 258.996C66.1934 252.742 80.2873 250.125 104.955 247.943L119.079 246.693L126.989 234.5C131.34 227.793 134.899 221.758 134.899 221.089C134.899 220.42 132.044 222.372 128.553 225.428C125.064 228.484 118.79 232.712 114.613 234.823C110.436 236.935 106.614 239.24 106.119 239.947C105.623 240.653 103.452 242.159 101.291 243.293C91.0308 248.679 84.3058 242.784 89.306 232.789C91.9622 227.48 92.7535 227.083 99.0202 227.921C106.435 228.913 113.933 225.035 125.609 214.168C136.649 203.893 143.893 186.354 143.893 169.898C143.893 163.506 144.07 163.485 113.314 173.572C86.1774 182.473 82.821 183.202 81.9576 180.378C74.1551 154.869 66.1595 132.231 58.1558 112.99C52.7 99.8747 48.6644 88.0308 49.1879 86.6706C52.1907 78.867 124.289 34.2889 156.93 20.0533C190.507 5.40993 204.411 1.96789 234.199 0.925575L260.649 0L263.348 8.33025C272.895 37.7965 277 63.8913 277 95.1073V119.056L260.574 133.776C244.759 147.948 243.82 148.496 235.391 148.496C230.575 148.496 226.635 149.006 226.635 149.629C226.635 150.252 229.266 158.121 232.481 167.117L238.327 183.473L239.442 281.521L244.731 290.093C250.073 298.75 251.567 306.97 248.178 309.058C244.482 311.336 235.871 308 235.069 303.98L234.289 300.063L232.952 304.099C231.458 308.606 223.567 309.736 219.802 305.982C216.11 302.3 217.291 292.684 222.14 286.937C225.958 282.413 226.637 279.793 226.637 269.583V257.559L220.791 261.441C217.576 263.576 212.113 266.489 208.65 267.913C205.187 269.338 196.548 273.509 189.451 277.183L176.547 283.863L172.579 297.188C169.466 307.646 168.847 313.029 169.706 322.199C170.304 328.626 171.696 334.436 172.791 335.111C173.886 335.786 174.712 336.853 174.627 337.482C174.131 341.17 175.446 341.861 185.004 342.939C190.795 343.593 197.006 345.201 198.807 346.513C201.891 348.762 201.795 349.084 197.13 352.132C193.148 354.734 187.726 355.464 169.387 355.87C156.85 356.147 144.974 355.967 142.996 355.471H142.994ZM154.177 348.187C162.935 344.043 167.665 336.026 166.739 326.896C165.596 315.614 160.334 306.262 153.534 303.429C145.033 299.887 143.386 300.243 136.238 307.166C128.213 314.938 125.151 323.772 126.765 334.502C129.033 349.584 139.831 354.975 154.177 348.187ZM163.679 301.928C163.679 298.359 162.348 297.118 156.712 295.434C152.201 294.087 148.674 293.95 146.71 295.046C144.215 296.438 144.935 297.116 150.766 298.858C154.665 300.023 158.861 302.183 160.088 303.658C163.135 307.319 163.679 307.057 163.679 301.928ZM226.185 296.104C230.018 287.875 228.444 283.73 223.397 288.762C221.05 291.103 220.395 300.968 222.588 300.945C223.33 300.939 224.949 298.759 226.185 296.104ZM242.824 297.456C242.824 291.628 238.849 284.816 235.447 284.816C230.319 284.816 229.203 288.776 233.524 291.637C235.67 293.059 237.428 295.738 237.428 297.591C237.428 299.444 238.642 300.959 240.126 300.959C241.61 300.959 242.824 299.383 242.824 297.456ZM232.031 288.404C232.031 287.417 232.841 286.61 233.83 286.61C234.819 286.61 235.629 287.417 235.629 288.404C235.629 289.39 234.819 290.197 233.83 290.197C232.841 290.197 232.031 289.39 232.031 288.404ZM164.764 289.137C163.537 285.946 149.096 286.211 148.031 289.445C147.644 290.626 149.347 291.107 152.389 290.677C155.136 290.288 159.003 291.175 160.981 292.649C164.752 295.457 166.553 293.785 164.764 289.137ZM165.478 283.023C165.478 282.036 163.657 281.286 161.43 281.355C157.569 281.475 157.549 281.552 160.982 283.023C162.961 283.87 164.782 284.621 165.03 284.69C165.274 284.759 165.478 284.009 165.478 283.023ZM14.5807 278.09C16.9588 271.939 15.633 260.977 11.8055 255.152C7.96307 249.304 6.14453 249.583 3.76645 256.385C0.960061 264.414 1.32313 274.382 4.59249 279.036C8.37649 284.424 12.2746 284.054 14.5807 278.09ZM236.327 275.509C238.074 266.795 237.665 265.086 233.83 265.086C230.716 265.086 230.233 266.282 230.233 273.998C230.233 280.863 230.804 282.691 232.729 281.955C234.102 281.429 235.721 278.529 236.327 275.509ZM21.0711 266.281C20.5476 260.527 18.9609 256.305 16.3591 253.726L12.4399 249.839L15.3734 255.731C17.33 259.661 18.1023 264.9 17.6937 271.465C17.1634 279.976 17.4082 280.878 19.4728 278.13C21.0032 276.095 21.5783 271.83 21.0711 266.281ZM27.9212 274.401C27.3705 273.848 25.9163 274.399 24.696 275.625C22.9325 277.397 23.1392 277.603 25.7029 276.629C27.4773 275.956 28.4752 274.953 27.9212 274.401ZM181.38 262.395C192.412 240.082 197.856 212.596 197.856 179.212V162.301L178.689 163.47C168.147 164.113 156.411 164.639 152.607 164.639H145.691V180.075C145.691 202.663 139.971 221.132 126.451 242.197C123.673 246.524 123.614 247.418 125.948 249.693C128.421 252.1 163.218 272.26 164.9 272.26C165.322 272.26 166.523 269.798 167.576 266.788C168.628 263.778 169.803 261.629 170.188 262.013C170.576 262.397 169.964 265.349 168.837 268.575C167.189 273.29 167.276 274.741 169.279 275.976C172.61 278.029 174.943 275.41 181.378 262.395H181.38ZM219.169 255.707L226.994 252.678L225.689 243.187C224.971 237.967 223.28 230.064 221.932 225.625C220.583 221.185 219.471 215.432 219.46 212.84C219.46 210.248 218.313 207.195 216.937 206.055C212.705 202.554 212.396 197.219 216.147 192.463C224.331 182.088 229.827 188.611 234.477 214.221L237.036 228.315L237.219 213.069C237.403 197.702 233.279 175.787 227.723 162.627L224.981 156.13L200.099 163.436L199.192 193.185C198.215 225.206 194.285 243.771 184.343 263.336C181.882 268.179 179.868 272.545 179.868 273.038C179.868 273.532 186.951 270.515 195.607 266.335C204.264 262.155 214.866 257.372 219.169 255.707ZM37.6545 268.703C45.8567 266.501 47.9167 262.252 40.0156 263.834C31.693 265.501 25.176 268.478 25.176 270.614C25.176 271.731 26.3392 272.199 27.7614 271.655C29.1836 271.111 33.6352 269.783 37.6545 268.703ZM61.1504 262.395C71.0816 260.558 73.7418 259.585 73.7418 257.79C73.7418 255.312 66.6219 255.756 56.0279 258.893C50.8121 260.438 47.1437 262.459 47.7583 263.45C48.3634 264.43 50.2105 264.856 51.8584 264.396C53.5064 263.936 57.688 263.036 61.1504 262.395ZM237.428 256.264C237.428 248.904 235.76 245.418 232.782 246.557C231.186 247.168 230.233 250.144 230.233 254.516C230.233 260.303 230.852 261.498 233.83 261.498C236.606 261.498 237.428 260.303 237.428 256.264ZM103.84 256.932C105.076 256.554 105.56 254.959 104.934 253.33C104.023 250.964 102.227 250.626 95.5205 251.559C78.4953 253.927 75.5406 254.765 75.5406 257.227C75.5406 259.236 78.1145 259.521 88.5813 258.671C95.7543 258.088 102.621 257.306 103.84 256.932ZM114.702 256.771C117.931 255.908 118.356 255.162 116.73 253.208C113.564 249.405 107.918 250.12 107.918 254.324C107.918 258.207 108.516 258.423 114.702 256.771ZM236.373 236.836C234.804 228.159 234.312 227.419 230.126 227.419C226.386 227.419 225.995 229.158 227.76 237.957C228.647 242.382 229.8 243.562 233.237 243.562C237.285 243.562 237.505 243.09 236.373 236.836ZM96.6382 240.685C96.0399 240.089 94.4892 240.025 93.1907 240.543C91.7563 241.116 92.1818 241.541 94.2778 241.627C96.1738 241.705 97.2364 241.281 96.6382 240.685ZM98.8721 236.457C103.154 233.757 100.233 233.186 95.3267 235.765C92.848 237.067 92.041 238.128 93.5279 238.127C95.012 238.126 97.4166 237.375 98.8721 236.457ZM109.717 232.458C109.717 230.101 105.628 231.577 104.732 234.258C104.29 235.569 105.113 235.97 106.868 235.3C108.435 234.7 109.717 233.422 109.717 232.458ZM118.829 229.149C120.743 228.128 122.308 226.065 122.308 224.564C122.308 222.221 121.544 222.285 116.912 225.014C108.798 229.793 110.548 233.568 118.829 229.149ZM233.165 221.589C232.567 219.37 232.069 216.545 232.056 215.311C232.056 212.903 225.602 212.177 224.209 214.425C223.747 215.17 223.794 217.995 224.311 220.703C225.04 224.507 226.276 225.625 229.751 225.625C233.537 225.625 234.077 224.987 233.164 221.589H233.165ZM131.302 216.316C131.302 212.627 131.193 212.61 127.704 215.76C125.726 217.545 124.106 220.12 124.106 221.482C124.106 223.402 124.915 223.526 127.704 222.038C129.683 220.982 131.302 218.407 131.302 216.316ZM229.407 209.363C230.06 208.31 230.223 207.081 229.767 206.63C228.513 205.379 223.034 207.856 223.034 209.674C223.034 211.919 227.969 211.678 229.404 209.363L229.407 209.363ZM226.57 204.179C230.036 201.993 227.005 192.735 222.545 191.878C218.421 191.086 216.674 196.072 219.165 201.525C221.336 206.275 222.554 206.712 226.57 204.179ZM118.805 168.469C149.169 159.118 180.107 152.728 219.164 147.742C231.379 146.183 242.028 144.503 242.829 144.009C247.984 140.832 245.759 99.1088 239.137 74.8106C234.031 56.0729 209.344 6.79548 205.062 6.79548C192.569 6.79548 135.084 32.7805 100.723 53.9598C88.0892 61.7473 85.3324 64.2605 84.849 68.4318C84.312 73.0733 84.0747 73.2204 81.9025 70.2582C79.6999 67.2545 78.6455 67.6551 66.2981 76.1854C59.015 81.217 52.7898 86.6558 52.4642 88.2716C52.1378 89.8872 56.3066 101.476 61.727 114.023C72.1245 138.094 77.0955 151.641 81.8374 168.831C83.7273 175.681 85.5024 179.003 86.9729 178.44C88.2089 177.967 102.534 173.48 118.805 168.469ZM94.5647 161.273C93.598 159.714 88.2095 138.051 88.1585 135.518C88.0905 132.952 109.306 123.597 141.242 112.091C159.024 105.685 176.135 99.9063 179.268 99.2492C184.946 98.0579 184.97 98.084 186.994 107.807C188.111 113.172 189.19 122.252 189.393 127.987L189.76 138.414L160.08 145.903C143.757 150.022 123.682 155.52 115.468 158.119C99.3786 163.213 96.0739 163.711 94.5634 161.273H94.5647ZM135.054 146.68C152.282 141.549 166.661 137.087 167.008 136.764C167.355 136.442 165.843 130.147 163.648 122.776L159.658 109.374L149.527 112.812C143.955 114.702 138.444 116.596 137.28 117.02C135.756 117.574 136.134 120.337 138.629 126.885C140.535 131.887 142.03 137.787 141.952 139.996C141.837 143.352 141.517 143.127 140.037 138.631C139.062 135.672 137.064 129.895 135.597 125.794L132.931 118.337L121.852 122.667C115.757 125.048 110.077 127.689 109.229 128.535C108.37 129.391 109.038 134.193 110.73 139.355C112.404 144.46 113.314 149.095 112.751 149.656C112.187 150.217 110.409 146.15 108.796 140.618C105.677 129.919 105.097 129.467 98.3929 132.513L94.0949 134.465L96.8679 146.02C98.5574 153.062 100.439 157.269 101.685 156.792C102.81 156.362 117.826 151.811 135.054 146.68ZM182.117 132.983C186.045 132.127 187.063 130.895 187.063 126.993C187.063 121.953 183.901 103.49 182.859 102.452C181.936 101.532 163.924 107.189 162.993 108.692C162.53 109.438 163.887 115.922 166.007 123.101C169.405 134.607 170.295 136.03 173.516 135.107C175.526 134.532 179.396 133.576 182.117 132.983ZM90.1675 110.736C88.3917 105.657 87.7961 105.348 81.8971 106.452C76.6909 107.426 75.5406 107.101 75.5406 104.658C75.5406 102.968 77.8372 100.876 80.8387 99.8325C85.5548 98.1931 85.9498 97.5011 84.4358 93.5312C82.1243 87.4679 82.2779 86.2766 85.5337 85.0308C87.5025 84.2775 88.8927 85.5657 90.2252 89.3765C91.9065 94.1867 92.8304 94.7367 98.4799 94.291C106.757 93.6382 108.378 97.6748 100.885 100.279C94.5096 102.496 94.7632 101.943 97.195 108.322C98.6037 112.015 98.4928 113.583 96.7463 114.689C93.0357 117.037 92.1947 116.531 90.1688 110.736H90.1675ZM163.702 83.1079C162.429 78.5732 160.776 74.4866 160.029 74.0265C159.283 73.5661 154.971 74.5579 150.448 76.2294C141.396 79.5749 140.598 79.3499 139.885 73.2487C139.477 69.7413 140.691 68.6433 147.49 66.3877C151.943 64.9107 155.883 63.4485 156.247 63.1384C156.614 62.8286 155.446 58.5177 153.658 53.5594C150.095 43.6803 150.264 42.9745 156.366 42.2594C159.761 41.8615 160.986 43.0808 163.047 48.9037C164.435 52.826 166.202 56.6645 166.973 57.4337C167.745 58.2029 172.22 57.5265 176.917 55.93C181.616 54.3338 185.754 53.3221 186.115 53.6816C186.475 54.0409 187.298 56.4326 187.944 58.9958C189.029 63.3064 188.494 63.8292 180.848 65.9644C176.301 67.2341 172.211 68.8685 171.76 69.5965C171.311 70.3246 172.229 74.6969 173.807 79.313C175.385 83.929 176.38 88 176.019 88.3595C175.659 88.7188 173.26 89.5398 170.691 90.183C166.368 91.2649 165.843 90.7342 163.702 83.1079ZM262.456 128.318L273.402 118.901L273.334 94.686C273.334 81.3679 272.486 64.8212 271.493 57.9155C269.367 43.1469 261.315 8.73273 259.185 5.31821C258.013 3.43723 252.841 3.20775 234.289 4.21339L210.873 5.48275L224.132 31.6991C240.158 63.3887 246.312 83.4528 247.689 108.502L248.696 126.803L253.96 124.088C259.058 121.459 259.162 121.489 257.262 125.029C256.183 127.039 253.7 129.538 251.744 130.582C248.167 132.491 246.766 137.734 249.833 137.734C250.738 137.734 256.404 133.497 262.424 128.318H262.456Z" fill="#FFEB39"/>
</svg>
