<svg width="258" height="231" viewBox="0 0 258 231" fill="none" xmlns="http://www.w3.org/2000/svg">
<path fill-rule="evenodd" clip-rule="evenodd" d="M76.5097 231H75.5356C76.0131 228.577 80.413 225.095 83.2065 225.095H86.1884L85.6352 205.776L82.7343 206.064C81.1391 206.222 79.0722 207.274 78.1416 208.403C77.2109 209.529 76.4497 210.028 76.4497 209.507C76.4497 208.003 79.5942 205.605 82.4926 204.9C84.8764 204.319 85.1499 203.818 85.146 200.061C85.144 198.29 84.9755 196.478 84.6821 194.768L84.6464 194.771L84.6128 194.773C83.0141 194.918 80.5532 188.72 79.6215 183.175C79.3501 182.283 79.1357 181.296 79.0122 180.306L78.4311 175.64L79.393 176.585C79.9213 172.332 82.0503 169.319 88.5986 162.575C92.4126 158.647 94.8647 155.774 94.0473 156.191C93.2299 156.608 93.9736 155.612 95.6997 153.979C98.9311 150.921 102.144 146.038 100.09 147.308C98.2963 148.416 98.8505 145.259 101.127 141.4C104.523 135.645 103.552 125.385 98.1601 110.056C95.4467 102.342 92.0268 96.6626 89.1811 95.1453C86.4126 93.669 77.1894 93.731 71.6406 95.2632C68.1162 96.2365 67.6152 96.1144 65.3271 93.7232C63.9604 92.2948 63.3994 91.4357 64.0805 91.8141C64.7612 92.1926 65.3188 92.0302 65.3188 91.4531C65.3188 90.8761 64.6977 90.404 63.9384 90.404C62.1025 90.404 61.06 87.4965 62.3418 85.9517C63.0629 85.083 62.9209 84.3567 61.8574 83.4742C61.0302 82.7875 60.3618 81.0566 60.372 79.6276C60.3828 78.1987 60.353 76.3609 60.3066 75.5436C60.2597 74.7263 60.5288 73.0544 60.9043 71.8285C61.4614 70.0093 61.2055 69.5994 59.5131 69.5994C58.3725 69.5994 56.729 68.5152 55.8603 67.1901C54.3295 64.853 54.4399 64.58 59.5527 58.0723L64.8232 51.3638V43.8875C64.8232 34.1584 67.9257 25.7494 74.0131 18.9781C79.3046 13.0926 83.1987 10.9532 93.3574 8.35068C103.005 5.87909 114.092 6.83539 123.205 10.9252C132.058 14.8985 139.509 23.9316 141.478 33.0795C142.843 39.4185 144.301 41.0172 150.266 42.7195C152.582 43.3803 154.477 44.4734 154.477 45.1487C154.477 45.8733 158.841 47.5383 165.126 49.2115C183.673 54.1492 193.45 57.668 196.456 60.4871C202.18 65.8561 204.44 75.0545 202.069 83.3248C200.619 88.3808 195.18 94.8275 191.183 96.2282C182.341 99.3261 176.59 100.345 171.317 99.7457C163.838 98.8964 159.915 97.0739 154.339 91.8578C147.394 85.3613 142.848 84.1517 134.297 86.5261C131.392 87.3327 130.741 87.8686 131.611 88.7381C132.242 89.3693 133.482 89.8909 134.367 89.8972C135.251 89.9046 137.261 91.9988 138.833 94.5536C141.22 98.4334 141.496 99.51 140.51 101.09C139.529 102.66 139.8 103.847 142.107 108.085C145.225 113.814 147.109 114.416 150.329 110.713C153.4 107.181 154.852 107.601 158.336 113.029C162.054 118.823 162.109 119.622 158.935 121.702C156.698 123.167 155.199 125.973 157.369 124.632C158.536 123.911 161.469 127.64 163.799 132.808C165.47 136.514 165.884 136.811 168.851 136.431C171.972 136.031 172.123 136.177 173.254 140.666C174.284 144.758 174.221 145.464 172.725 146.558C171.79 147.242 170.642 147.564 170.174 147.274C169.706 146.985 169.043 147.474 168.703 148.361C168.274 149.479 167.586 148.511 166.459 145.204C164.232 138.669 160.734 134.747 158.296 136.052C155.628 137.48 155.754 144.287 158.483 146.199C160.387 147.532 160.402 147.665 158.731 148.394C157.753 148.82 156.631 149.103 156.237 149.021C155.537 148.876 156.344 154.837 157.149 155.761C157.886 156.606 159.398 153.362 159.445 150.836C159.482 148.771 159.648 148.631 160.444 149.993C161.057 151.044 161.046 153.479 160.414 156.816C158.9 164.799 159.374 165.891 161.351 158.975C162.331 155.55 163.384 152.496 163.693 152.187C164.903 150.977 165.569 159.232 164.905 167.208C164.257 174.978 163.294 177.407 162.067 174.365C161.792 173.684 161.553 174.019 161.534 175.108C161.475 178.607 163.735 182.597 165.239 181.648C166.907 180.596 169.163 163.994 168.723 156.017C168.505 152.067 168.681 150.944 169.299 152.322C170.67 155.378 170.477 164.334 168.841 173.622C166.781 185.318 166.805 185.511 170.327 185.511C173.125 185.511 173.299 185.739 173.299 189.403C173.299 191.62 172.629 193.965 171.742 194.851L171.537 195.057C170.827 195.77 170.442 196.156 169.989 196.271C169.455 196.407 168.824 196.167 167.451 195.643L167.114 195.514C164.788 194.63 164.734 194.76 162.013 207.65C160.5 214.817 159.048 221.46 158.784 222.414C158.404 223.792 158.929 224.148 161.345 224.148C164.326 224.148 164.383 224.24 164.383 229.044V231H136.759C136.76 230.988 136.762 230.976 136.763 230.963C136.75 230.975 136.738 230.988 136.725 231H86.0986L85.8271 226.085H83.142C81.2656 226.085 79.7114 227.055 77.9804 229.305C77.4316 230.018 76.9223 230.6 76.5097 231ZM81.0634 178.224C80.8232 177.338 80.5908 176.842 80.4433 176.99C80.3798 177.053 80.3383 177.229 80.3183 177.493L81.0634 178.224ZM135.644 208.802C135.767 209.311 135.898 209.843 136.039 210.402C136.562 212.484 136.903 214.981 137.067 217.812C136.937 218.177 136.802 218.443 136.667 218.578C135.55 219.695 135.315 218.629 135.636 213.881C135.759 212.055 135.443 211.282 134.75 211.71C132.977 212.806 133.534 210.711 135.485 208.945L135.644 208.802ZM139.428 195.69C138.99 195.985 138.58 196.235 138.213 196.426C137.952 196.563 137.706 196.697 137.474 196.832C137.519 196.692 137.565 196.551 137.614 196.408L139.122 191.95L139.428 195.69ZM149.329 185.893L145.842 189.951C145.464 190.391 145.045 190.845 144.6 191.299C144.891 187.931 147.212 182.538 148.482 182.538C149.419 182.538 149.736 184.553 149.329 185.893ZM165.152 184.52C165.573 184.52 165.751 186.303 165.543 188.483C165.335 190.662 164.989 192.445 164.774 192.445C164.559 192.445 164.383 190.662 164.383 188.483C164.383 186.303 164.729 184.52 165.152 184.52ZM151.746 169.423L151.745 169.428C151.481 170.371 151.185 171.434 150.853 172.631C149.087 178.997 148.801 179.438 147.924 177.151C146.504 173.452 149.954 147.864 151.872 147.864C152.733 147.864 152.298 155.05 150.971 162.725C150.391 166.081 150.426 166.128 152.053 164.211C152.247 163.982 152.423 163.765 152.579 163.573C152.981 163.077 153.251 162.746 153.356 162.791C153.569 162.884 153.115 164.512 151.746 169.423ZM122.537 143.744C123.493 142.788 124.031 142.779 124.956 143.703C126.562 145.31 124.762 147.111 122.776 145.883C121.605 145.159 121.557 144.724 122.537 143.744ZM117.881 137.957C118.394 137.957 118.813 138.403 118.813 138.948C118.813 139.493 118.118 139.939 117.269 139.939C116.419 139.939 116 139.493 116.337 138.948C116.673 138.403 117.369 137.957 117.881 137.957ZM97.5966 104.407C96.7705 103.07 97.6015 101.553 98.6084 102.56C98.9375 102.89 99.019 103.722 98.7895 104.41C98.4541 105.417 98.2207 105.417 97.5966 104.407ZM194.069 76.6511C194.03 83.024 192.227 85.6289 185.929 88.4151C180.763 90.7001 172.043 91.6242 167.734 90.3429C166.035 89.8379 161.957 87.0254 158.671 84.093C154.206 80.1085 151.408 78.4524 147.6 77.5388C142.965 76.4269 134.419 76.7086 129.495 78.1357C127.977 78.5756 127.915 78.2752 128.925 75.3524C130.162 71.7767 136.898 60.2833 139.456 57.3863C140.69 55.988 142.188 55.6458 146.032 55.8843C148.769 56.054 151.455 55.9161 152 55.5776C152.907 55.014 163.567 57.6839 180.421 62.6959C184.777 63.9912 188.257 65.8068 190.576 67.993C193.781 71.0166 194.099 71.8044 194.069 76.6511ZM138.918 55.6439C137.84 56.8019 135.438 60.4024 133.582 63.6449C131.725 66.8874 129.872 69.5548 129.463 69.5698C128.41 69.6115 128.539 67.8465 129.638 67.1672C130.587 66.5807 131.78 63.2578 133.655 55.9772C134.755 51.7084 136.464 50.7415 139.505 52.6677C140.635 53.3833 140.531 53.913 138.918 55.6439ZM140.666 41.8598C141.243 41.8598 141.439 42.3056 141.103 42.8505C140.766 43.3954 140.294 43.8412 140.054 43.8412C139.813 43.8412 139.617 43.3954 139.617 42.8505C139.617 42.3056 140.089 41.8598 140.666 41.8598ZM135.732 40.2912C135.78 39.1371 136.015 38.9024 136.331 39.6927C136.617 40.4078 136.582 41.2624 136.253 41.5916C135.924 41.9207 135.689 41.3356 135.732 40.2912ZM138.131 29.9715C138.96 29.2835 139.617 29.1762 139.617 29.7289C139.617 30.2737 138.948 31.2745 138.131 31.9529C137.302 32.6409 136.645 32.7482 136.645 32.1955C136.645 31.6506 137.313 30.6498 138.131 29.9715Z" fill="#556FE5"/>
<path fill-rule="evenodd" clip-rule="evenodd" d="M51.8498 0L0 231H75.65C76.1276 228.577 80.5274 225.095 83.321 225.095H85.2457L84.7496 207.776L81.8489 208.064C80.2535 208.222 78.1868 209.274 77.2561 210.403C76.3255 211.529 75.5641 212.028 75.5641 211.507C75.5641 210.97 75.9648 210.319 76.612 209.672C76.5806 209.638 76.564 209.584 76.564 209.507C76.564 208.003 79.7088 205.605 82.6071 204.9C83.2908 204.733 83.8008 204.573 84.1806 204.341C84.2448 203.753 84.2616 203.011 84.2607 202.061C84.2584 200.29 84.0904 198.478 83.7967 196.768L83.761 196.771L83.7273 196.773C82.1286 196.918 79.6677 190.719 78.7359 185.175C78.4645 184.283 78.2502 183.297 78.1268 182.306L77.5455 177.64L78.5077 178.585C78.5656 178.118 78.6427 177.667 78.7428 177.224L78.5455 175.64L79.0434 176.129C79.3424 175.209 79.7588 174.302 80.3278 173.346C81.4893 170.455 83.9148 167.516 88.7132 162.575C90.4345 160.802 91.8783 159.244 92.8694 158.107C92.9811 157.886 93.3251 157.472 93.8598 156.919C94.3261 156.318 94.4565 156.041 94.1618 156.191C93.3445 156.608 94.0882 155.612 95.8143 153.979C97.3518 152.524 98.8853 150.656 99.8492 149.234C99.8255 149.046 99.6257 149.047 99.2045 149.308C97.4876 150.369 97.9221 147.522 99.959 143.892C100.254 143.214 100.624 142.475 101.066 141.703C103.422 135.721 102.172 125.98 97.2747 112.056C94.5615 104.342 91.1414 98.6626 88.2957 97.1453C85.527 95.6691 76.3041 95.731 70.7553 97.2632C67.2308 98.2365 66.7299 98.1144 64.4418 95.7232C63.0749 94.2948 62.5138 93.4357 63.1949 93.8141C63.876 94.1926 64.4332 94.0302 64.4332 93.4531C64.4332 92.8761 63.8122 92.404 63.0532 92.404C61.2172 92.404 60.1744 89.4965 61.4564 87.9517C62.1773 87.083 62.0353 86.3567 60.972 85.4742C60.1447 84.7875 59.4763 83.0566 59.4867 81.6276C59.4972 80.1987 59.4676 78.3609 59.4211 77.5436C59.3745 76.7263 59.6436 75.0544 60.019 73.8285C60.5761 72.0093 60.3203 71.5994 58.6277 71.5994C57.487 71.5994 55.8433 70.5153 54.9751 69.1901C53.9379 67.607 53.654 66.971 55.1679 64.7027C55.4335 63.505 56.7184 61.8256 59.6672 58.0723L63.9378 52.6366V45.8875C63.9378 39.21 65.3993 33.1543 68.2843 27.8232C69.7542 24.6287 71.7045 21.6736 74.1279 18.9781C79.4193 13.0926 83.3134 10.9532 93.4718 8.35067C103.119 5.8791 114.206 6.83539 123.319 10.9252C132.172 14.8985 139.623 23.9316 141.593 33.0795C142.958 39.4185 144.415 41.0172 150.381 42.7195C152.696 43.3803 154.591 44.4734 154.591 45.1487C154.591 45.8733 158.955 47.5383 165.24 49.2116C183.787 54.1492 193.565 57.668 196.57 60.4871C202.294 65.8561 204.555 75.0545 202.183 83.3248C201.84 84.5217 201.273 85.7965 200.555 87.0639C198.535 91.7593 193.847 96.9841 190.297 98.2282C181.456 101.326 175.705 102.345 170.432 101.746C162.953 100.896 159.03 99.0739 153.454 93.8578C146.509 87.3613 141.962 86.1517 133.412 88.5261C132.854 88.6808 132.38 88.8256 131.983 88.9647C132.655 89.4895 133.705 89.8916 134.481 89.8971C135.366 89.9046 137.376 91.9989 138.948 94.5536C141.335 98.4334 141.611 99.51 140.624 101.09C139.644 102.66 139.915 103.847 142.221 108.085C145.339 113.814 147.224 114.416 150.443 110.713C153.514 107.181 154.967 107.601 158.45 113.029C161.566 117.885 162.109 119.232 160.335 120.766C160.413 121.945 159.633 122.664 158.049 123.702C157.487 124.07 156.972 124.522 156.55 124.972C156.703 125.022 157.003 124.929 157.484 124.632C158.65 123.911 161.583 127.64 163.914 132.808C165.585 136.514 165.998 136.811 168.966 136.431C172.086 136.031 172.238 136.177 173.368 140.666C174.344 144.542 174.339 145.38 173.064 146.388C173.074 147.444 172.686 147.939 171.839 148.558C170.905 149.242 169.757 149.564 169.288 149.274C168.82 148.985 168.158 149.474 167.818 150.361C167.389 151.479 166.7 150.511 165.574 147.204C163.347 140.669 159.849 136.747 157.411 138.052C157.164 138.185 156.94 138.363 156.741 138.58C156.064 141.188 156.704 144.872 158.598 146.199C160.501 147.532 160.516 147.665 158.846 148.394C158.64 148.484 158.428 148.567 158.218 148.642C159.479 149.574 159.31 149.755 157.846 150.394C157.263 150.648 156.629 150.851 156.129 150.956C156.277 152.741 156.771 155.195 157.264 155.761C157.482 156.011 157.767 155.903 158.063 155.563C158.345 154.705 158.543 153.726 158.559 152.836C158.596 150.848 158.751 150.644 159.472 151.847C159.522 151.505 159.553 151.165 159.559 150.836C159.597 148.771 159.763 148.631 160.558 149.993C161.172 151.044 161.161 153.479 160.528 156.816C159.76 160.867 159.504 163.143 159.696 163.499C159.919 162.827 160.177 161.987 160.466 160.975C161.445 157.55 162.499 154.496 162.808 154.187C162.876 154.118 162.943 154.08 163.008 154.07C163.376 153.028 163.668 152.326 163.808 152.187C165.018 150.977 165.684 159.232 165.019 167.208C164.558 172.745 163.936 175.57 163.173 175.635C162.814 177.196 162.405 177.846 161.949 177.578C162.597 180.166 164.154 182.309 165.302 181.679C166.752 176.847 168.198 164.544 167.838 158.017C167.62 154.067 167.795 152.944 168.414 154.322C168.566 154.663 168.699 155.076 168.814 155.555C168.635 151.981 168.82 150.999 169.414 152.322C170.784 155.378 170.592 164.334 168.956 173.622C166.895 185.318 166.919 185.511 170.442 185.511C173.239 185.511 173.413 185.739 173.413 189.403C173.413 191.566 172.776 193.85 171.921 194.784C171.647 195.687 171.276 196.432 170.857 196.851L170.651 197.057C169.941 197.77 169.557 198.156 169.104 198.271C168.569 198.407 167.939 198.167 166.567 197.643L166.566 197.643L166.229 197.514C165.452 197.219 164.929 197.037 164.475 197.405C163.914 199.207 163.246 202.35 162.128 207.65C160.615 214.817 159.162 221.46 158.899 222.414C158.518 223.792 159.043 224.148 161.459 224.148C164.44 224.148 164.498 224.24 164.498 229.044V231H257.229L205.379 0H51.8498ZM82.3211 227.095C81.3508 227.095 80.1868 227.515 79.0606 228.165C80.4247 226.723 81.7346 226.085 83.2566 226.085H85.274L85.303 227.095H82.3211ZM82.8488 206.064L83.6078 205.988C83.2139 206.435 82.5899 206.66 81.6072 206.9C80.4775 207.175 79.3104 207.707 78.3066 208.343C79.2598 207.237 81.2817 206.219 82.8488 206.064ZM97.1077 106.968C96.8669 106.375 96.6223 105.797 96.3748 105.238C96.3664 105.596 96.4656 106.009 96.7113 106.406C96.8645 106.655 96.9943 106.842 97.1077 106.968ZM138.245 31.9529C138.401 31.8233 138.552 31.6821 138.694 31.5344C138.543 31.218 137.958 31.3804 137.245 31.9715C137.089 32.101 136.939 32.2423 136.797 32.3899C136.948 32.7065 137.533 32.544 138.245 31.9529ZM138.766 29.6003C138.947 30.002 139.119 30.4059 139.281 30.8116C139.558 30.4011 139.731 30.006 139.731 29.7289C139.731 29.2988 139.333 29.2684 138.766 29.6003ZM85.1027 231L84.9416 228.085H82.2566C80.4672 228.085 78.971 228.967 77.3351 231H85.1027ZM129.577 69.5698C129.204 69.5846 128.979 69.3721 128.894 69.0613C129.268 68.7323 129.681 67.9912 130.157 66.769C131.041 65.5961 132.151 62.2606 133.77 55.9772C133.885 55.5312 134.006 55.1213 134.135 54.7469C135.189 53.3854 136.615 53.3981 138.62 54.6677C138.979 54.8948 139.213 55.1032 139.314 55.3372C139.226 55.435 139.133 55.5372 139.033 55.6438C137.954 56.8019 135.552 60.4024 133.696 63.6449C131.839 66.8873 129.986 69.5548 129.577 69.5698ZM193.184 78.6511C193.171 80.7469 192.967 82.4352 192.476 83.8565C191.234 85.6634 189.205 87.0164 186.044 88.4151C180.878 90.7001 172.158 91.6242 167.848 90.3429C166.15 89.8379 162.071 87.0254 158.785 84.093C154.32 80.1085 151.523 78.4524 147.715 77.5388C143.08 76.4269 134.534 76.7086 129.609 78.1357C128.091 78.5756 128.029 78.2752 129.04 75.3525C129.216 74.844 129.503 74.1754 129.873 73.3942C132.412 68.5196 136.658 61.5516 138.57 59.3863C139.804 57.988 141.303 57.6458 145.146 57.8843C147.884 58.0541 150.57 57.9161 151.114 57.5776C152.022 57.014 162.682 59.6838 179.536 64.6959C183.892 65.9912 187.372 67.8068 189.69 69.993C192.896 73.0166 193.214 73.8044 193.184 78.6511ZM124.07 145.703C123.319 144.953 122.824 144.817 122.152 145.305C122.305 145.487 122.55 145.673 122.89 145.883C123.468 146.24 124.03 146.341 124.496 146.265C124.397 146.078 124.256 145.89 124.07 145.703ZM150.859 171.428L150.859 171.428L150.856 171.44L150.593 172.381C150.4 173.073 150.192 173.822 149.967 174.631C149.515 176.261 149.16 177.502 148.868 178.409C148.603 178.462 148.36 177.99 148.038 177.151C146.862 174.086 149.028 155.996 150.896 149.882C150.916 149.875 150.935 149.869 150.954 149.867C150.965 149.865 150.975 149.864 150.986 149.864C151.848 149.864 151.413 157.05 150.086 164.724C149.506 168.081 149.54 168.128 151.167 166.211C151.36 165.983 151.535 165.768 151.69 165.577L151.693 165.573L151.693 165.573C152.096 165.077 152.365 164.746 152.471 164.791C152.684 164.884 152.23 166.512 150.859 171.427L150.859 171.428ZM134.939 211.542L134.967 211.655C134.934 211.67 134.9 211.689 134.865 211.71C134.191 212.127 133.854 212.083 133.801 211.771C134.032 211.496 134.299 211.217 134.599 210.945C134.653 210.897 134.706 210.849 134.759 210.802L134.813 211.026L134.875 211.278L134.939 211.542ZM136.128 218.984C135.645 218.977 135.529 217.807 135.681 215.011C135.877 216.238 136.026 217.566 136.128 218.984ZM137.728 196.408L138.299 194.72L138.434 196.37C138.398 196.389 138.363 196.408 138.328 196.426C138.067 196.563 137.82 196.697 137.588 196.832C137.633 196.692 137.68 196.551 137.728 196.408ZM145.957 189.951L148.612 186.86C148.665 185.709 148.311 184.538 147.596 184.538C147.195 184.538 146.689 185.077 146.175 185.92C145.45 187.639 144.853 189.698 144.715 191.299C145.16 190.845 145.579 190.391 145.957 189.951ZM164.658 190.483C164.807 188.915 164.757 187.553 164.561 186.911C164.52 187.394 164.497 187.925 164.497 188.483C164.497 189.48 164.534 190.395 164.595 191.094C164.617 190.894 164.638 190.69 164.658 190.483Z" fill="#FFEB39"/>
</svg>
