<svg width="148" height="224" viewBox="0 0 148 224" fill="none" xmlns="http://www.w3.org/2000/svg">
<path fill-rule="evenodd" clip-rule="evenodd" d="M21.5097 224H20.5356C21.0131 221.577 25.413 218.095 28.2065 218.095H31.1884L30.6352 198.776L27.7343 199.064C26.1391 199.222 24.0722 200.274 23.1416 201.403C22.2109 202.529 21.4497 203.028 21.4497 202.507C21.4497 201.003 24.5942 198.605 27.4926 197.9C29.8764 197.319 30.1499 196.818 30.146 193.061C30.144 191.29 29.9755 189.478 29.6821 187.768L29.6464 187.771L29.6128 187.773C28.0141 187.918 25.5532 181.72 24.6215 176.175C24.3501 175.283 24.1357 174.296 24.0122 173.306L23.4311 168.64L24.393 169.585C24.9213 165.332 27.0503 162.319 33.5986 155.575C37.4126 151.647 39.8647 148.774 39.0473 149.191C38.2299 149.608 38.9736 148.612 40.6997 146.979C43.9311 143.921 47.1445 139.038 45.0898 140.308C43.2963 141.416 43.8505 138.259 46.1274 134.4C49.5229 128.645 48.5517 118.385 43.1601 103.056C40.4467 95.3422 37.0268 89.6626 34.1811 88.1453C31.4126 86.669 22.1894 86.731 16.6406 88.2632C13.1162 89.2365 12.6152 89.1143 10.3271 86.7232C8.96041 85.2948 8.39937 84.4357 9.08053 84.8141C9.76119 85.1926 10.3188 85.0302 10.3188 84.4531C10.3188 83.8761 9.69771 83.404 8.93844 83.404C7.1025 83.404 6.06002 80.4965 7.34176 78.9517C8.06295 78.083 7.92086 77.3567 6.85738 76.4742C6.03023 75.7875 5.36177 74.0566 5.37203 72.6276C5.38277 71.1987 5.35299 69.3609 5.3066 68.5436C5.25972 67.7263 5.52877 66.0544 5.90426 64.8285C6.46138 63.0093 6.20552 62.5994 4.51314 62.5994C3.37252 62.5994 1.72896 61.5152 0.86031 60.1901C-0.670451 57.853 -0.5601 57.58 4.55269 51.0723L9.8232 44.3638V36.8875C9.8232 27.1584 12.9257 18.7494 19.0131 11.9781C24.3046 6.09259 28.1987 3.95319 38.3574 1.35068C48.0048 -1.12091 59.0918 -0.16461 68.2046 3.9252C77.0576 7.8985 84.5088 16.9316 86.4785 26.0795C87.8432 32.4185 89.3007 34.0172 95.2661 35.7195C97.582 36.3802 99.4765 37.4734 99.4765 38.1487C99.4765 38.8733 103.841 40.5383 110.126 42.2115C128.673 47.1492 138.45 50.668 141.456 53.4871C147.18 58.8561 149.44 68.0545 147.069 76.3248C145.619 81.3808 140.18 87.8275 136.183 89.2282C127.341 92.326 121.59 93.3445 116.317 92.7457C108.838 91.8964 104.915 90.0739 99.3393 84.8578C92.3945 78.3613 87.8476 77.1517 79.2973 79.5261C76.3921 80.3327 75.7412 80.8686 76.6108 81.7381C77.2421 82.3693 78.4824 82.8909 79.3667 82.8972C80.2514 82.9046 82.2612 84.9988 83.833 87.5536C86.2202 91.4334 86.4961 92.51 85.5097 94.0898C84.5293 95.6602 84.8003 96.847 87.1069 101.085C90.2246 106.814 92.1088 107.416 95.3286 103.713C98.3999 100.181 99.8525 100.601 103.336 106.029C107.054 111.823 107.109 112.622 103.935 114.702C101.698 116.167 100.199 118.973 102.369 117.632C103.536 116.911 106.469 120.64 108.799 125.808C110.47 129.514 110.884 129.811 113.851 129.431C116.972 129.031 117.123 129.177 118.254 133.666C119.284 137.758 119.221 138.464 117.725 139.558C116.79 140.242 115.642 140.564 115.174 140.274C114.706 139.985 114.043 140.474 113.703 141.361C113.274 142.479 112.586 141.511 111.459 138.204C109.232 131.669 105.734 127.747 103.296 129.052C100.628 130.48 100.754 137.287 103.483 139.199C105.387 140.532 105.402 140.665 103.731 141.394C102.753 141.82 101.631 142.103 101.237 142.021C100.537 141.876 101.344 147.837 102.149 148.761C102.886 149.606 104.398 146.362 104.445 143.836C104.482 141.771 104.648 141.631 105.444 142.993C106.057 144.044 106.046 146.479 105.414 149.816C103.9 157.799 104.374 158.891 106.351 151.975C107.331 148.55 108.384 145.496 108.693 145.187C109.903 143.977 110.569 152.232 109.905 160.208C109.257 167.978 108.294 170.407 107.067 167.365C106.792 166.684 106.553 167.019 106.534 168.108C106.475 171.607 108.735 175.597 110.239 174.648C111.907 173.596 114.163 156.994 113.723 149.017C113.505 145.067 113.681 143.944 114.299 145.322C115.67 148.378 115.477 157.334 113.841 166.622C111.781 178.318 111.805 178.511 115.327 178.511C118.125 178.511 118.299 178.739 118.299 182.403C118.299 184.62 117.629 186.965 116.742 187.851L116.537 188.057C115.827 188.77 115.442 189.156 114.989 189.271C114.455 189.407 113.824 189.167 112.451 188.643L112.114 188.514C109.788 187.63 109.734 187.76 107.013 200.65C105.5 207.817 104.048 214.46 103.784 215.414C103.404 216.792 103.929 217.148 106.345 217.148C109.326 217.148 109.383 217.24 109.383 222.044V224H81.7592C81.7602 223.988 81.7617 223.976 81.7627 223.963C81.7505 223.975 81.7378 223.988 81.7251 224H31.0986L30.8271 219.085H28.142C26.2656 219.085 24.7114 220.055 22.9804 222.305C22.4316 223.018 21.9223 223.6 21.5097 224ZM26.0634 171.224C25.8232 170.338 25.5908 169.842 25.4433 169.99C25.3798 170.053 25.3383 170.229 25.3183 170.493L26.0634 171.224ZM80.6445 201.802C80.7671 202.311 80.8984 202.843 81.039 203.402C81.562 205.484 81.9033 207.981 82.0669 210.812C81.9375 211.177 81.8022 211.443 81.667 211.578C80.5498 212.695 80.3154 211.629 80.6357 206.881C80.7592 205.055 80.4433 204.282 79.75 204.71C77.977 205.806 78.5337 203.711 80.4848 201.945L80.6445 201.802ZM84.4277 188.69C83.9897 188.985 83.5796 189.235 83.2133 189.426C82.9521 189.563 82.706 189.697 82.4736 189.832C82.519 189.692 82.5654 189.551 82.6137 189.408L84.1215 184.95L84.4277 188.69ZM94.3286 178.893L90.8422 182.951C90.4643 183.391 90.0449 183.845 89.6001 184.299C89.8911 180.931 92.2119 175.538 93.4819 175.538C94.4194 175.538 94.7363 177.553 94.3286 178.893ZM110.152 177.52C110.573 177.52 110.751 179.303 110.543 181.483C110.335 183.662 109.989 185.445 109.774 185.445C109.559 185.445 109.383 183.662 109.383 181.483C109.383 179.303 109.729 177.52 110.152 177.52ZM96.7461 162.423L96.7446 162.428C96.4814 163.371 96.185 164.434 95.853 165.631C94.0869 171.997 93.8012 172.438 92.9238 170.151C91.5044 166.452 94.9536 140.864 96.8715 140.864C97.7334 140.864 97.2978 148.05 95.9712 155.725C95.3911 159.081 95.4257 159.128 97.0527 157.211C97.2465 156.982 97.4228 156.765 97.5786 156.573C97.9814 156.077 98.2509 155.746 98.3564 155.791C98.5688 155.884 98.1147 157.512 96.7461 162.423ZM67.5366 136.744C68.4931 135.788 69.0307 135.779 69.9555 136.703C71.5625 138.31 69.7622 140.111 67.7758 138.883C66.6054 138.159 66.5571 137.724 67.5366 136.744ZM62.8813 130.957C63.394 130.957 63.8134 131.403 63.8134 131.948C63.8134 132.493 63.1181 132.939 62.269 132.939C61.4194 132.939 61 132.493 61.3369 131.948C61.6733 131.403 62.3686 130.957 62.8813 130.957ZM42.5966 97.4065C41.7705 96.0696 42.6015 94.5534 43.6084 95.5605C43.9375 95.8897 44.019 96.7219 43.7895 97.4102C43.4541 98.4172 43.2207 98.4165 42.5966 97.4065ZM139.069 69.6511C139.03 76.024 137.227 78.6289 130.929 81.4151C125.763 83.7001 117.043 84.6242 112.734 83.3429C111.035 82.8379 106.957 80.0254 103.671 77.093C99.2055 73.1085 96.4082 71.4524 92.6001 70.5388C87.9653 69.4269 79.4194 69.7086 74.4946 71.1357C72.9765 71.5756 72.915 71.2752 73.9253 68.3524C75.1616 64.7767 81.8979 53.2833 84.4555 50.3863C85.6899 48.988 87.1884 48.6458 91.0317 48.8843C93.7695 49.054 96.455 48.9161 97 48.5776C97.9072 48.014 108.567 50.6839 125.421 55.6959C129.777 56.9912 133.257 58.8068 135.576 60.993C138.781 64.0166 139.099 64.8044 139.069 69.6511ZM83.9184 48.6439C82.8398 49.8019 80.438 53.4024 78.5815 56.6449C76.7246 59.8874 74.8715 62.5548 74.4629 62.5698C73.4101 62.6115 73.539 60.8465 74.6381 60.1672C75.5869 59.5807 76.7802 56.2578 78.6552 48.9772C79.7548 44.7084 81.4638 43.7415 84.5053 45.6677C85.6352 46.3833 85.5312 46.913 83.9184 48.6439ZM85.666 34.8598C86.2426 34.8598 86.4394 35.3056 86.103 35.8505C85.7661 36.3954 85.2939 36.8412 85.0537 36.8412C84.8134 36.8412 84.6167 36.3954 84.6167 35.8505C84.6167 35.3056 85.0888 34.8598 85.666 34.8598ZM80.7324 33.2912C80.7802 32.1371 81.0146 31.9024 81.331 32.6927C81.6171 33.4078 81.582 34.2624 81.2529 34.5916C80.9238 34.9207 80.6894 34.3356 80.7324 33.2912ZM83.1308 22.9715C83.9599 22.2835 84.6167 22.1762 84.6167 22.7289C84.6167 23.2737 83.9482 24.2745 83.1308 24.9529C82.3017 25.6409 81.645 25.7482 81.645 25.1955C81.645 24.6506 82.3134 23.6498 83.1308 22.9715Z" fill="#556FE5"/>
</svg>
