<svg width="588" height="969" viewBox="0 0 588 969" fill="none" xmlns="http://www.w3.org/2000/svg">
<path fill-rule="evenodd" clip-rule="evenodd" d="M323.268 593.482L325.77 592.915C325.44 603.642 325.577 607.094 326.224 604.367C326.417 603.557 326.599 602.859 326.767 602.273L326.87 603.241C326.974 604.217 327.066 605.111 327.145 605.934L326.85 607.776H327.311C327.738 612.965 327.497 614.918 326.475 617.832C322.952 627.878 322.417 634.547 323.334 656.991C323.818 668.858 324.554 680.573 324.968 683.025L325.72 687.483L326.387 683.025C326.753 680.573 327.497 672.994 328.04 666.183C329.344 649.804 331.724 633.07 333.535 627.548C336.208 619.4 340.505 611.927 344.636 607.776H374.182C375.468 608.741 376.664 609.75 377.773 610.807C376.73 609.829 375.611 608.893 374.414 607.995H344.868C340.738 612.147 336.44 619.62 333.768 627.768C331.956 633.29 329.576 650.024 328.272 666.402C327.729 673.213 326.986 680.792 326.619 683.244L326.379 684.85C327.187 710.668 331.79 733.45 338.622 748.823L337.963 748.567L340.621 756.43C342.082 760.754 343.848 765.066 344.546 766.011C345.623 767.47 345.61 767.543 344.459 766.491C341.105 763.426 339.326 766.273 341.961 770.488C342.715 771.695 343.477 773.797 343.653 775.159C343.9 777.064 343.562 777.601 342.191 777.483C340.652 777.351 340.497 777.823 341.058 780.95C341.415 782.942 342.108 784.994 342.598 785.512C343.089 786.03 343.49 787.149 343.49 787.999C343.49 788.849 344.574 790.742 345.899 792.207C348.167 794.713 348.272 795.309 347.688 802.384C347.347 806.518 346.698 810.134 346.246 810.42C345.266 811.041 345.205 818.129 345.928 820.179C344.652 832.898 344.043 847.335 344.354 862.637C345.173 902.937 346.582 925.919 348.586 938.95C348.47 939.599 348.533 939.969 348.76 940.045C349.293 943.309 349.868 945.905 350.483 947.966C349.242 948.575 345.139 948.368 340.091 948.113C337.904 948.003 335.54 947.884 333.155 947.818C331.716 946.99 330.987 947.044 329.512 947.768C324.445 947.778 319.643 948.18 316.637 949.585C308.551 951.27 299.101 954.717 300.965 959.525C301.006 959.608 301.048 959.69 301.091 959.772L304 968.5L374 969V962.671C374.453 961.007 374.477 958.8 374.097 955.96C373.251 949.637 369.77 939.726 367.731 937.544C368.521 938.186 369.581 940.209 370.629 942.828C371.434 937.133 371.608 929.244 371.05 918.69C370.284 904.182 371.282 893.176 375.605 869.513C381.493 842.754 386.253 814.951 375.878 790.451L375.168 791.905C371.218 799.997 363.074 808.506 355.537 812.42C352.466 814.014 349.957 816.162 349.038 817.984C348.214 819.616 347.116 820.951 346.598 820.951C346.492 820.951 346.395 820.87 346.306 820.723C346.315 820.725 346.324 820.727 346.333 820.729C346.344 820.73 346.355 820.731 346.366 820.731C346.884 820.731 347.982 819.396 348.805 817.764C349.724 815.943 352.234 813.794 355.304 812.2C362.842 808.287 370.985 799.777 374.936 791.686L378.316 784.763L376.137 783.649C373.014 782.054 372.485 777.601 374.715 771.692C376.816 766.126 380.317 754.647 380.613 752.356C380.719 751.529 381.138 750.303 381.543 749.631C382.197 748.548 381.593 748.342 380.26 748.765C387.789 731.788 392.604 705.806 392.604 676.685C392.604 665.1 391.842 654.011 390.45 643.788C390.253 643.899 390.091 643.857 389.951 643.615C390.166 643.682 390.428 643.452 390.767 643.032C391.795 641.759 391.981 639.41 391.547 633.214C390.754 621.904 388.084 613.574 383.388 607.776H383.57L383.927 598.364L384.298 603.07C384.875 610.387 386.933 608.999 388.869 599.987C389.79 595.703 391.576 589.127 392.839 585.374L395.135 578.55L403.383 577.941V573.044C403.383 568.24 403.326 568.148 400.344 568.148C397.929 568.148 397.404 567.792 397.784 566.414C398.048 565.46 399.501 558.817 401.013 551.65C403.734 538.76 403.788 538.63 406.114 539.514L406.451 539.643C407.824 540.167 408.455 540.407 408.989 540.271C409.442 540.156 409.827 539.77 410.537 539.057C410.602 538.992 410.671 538.923 410.742 538.851C411.629 537.965 412.299 535.62 412.299 533.403C412.299 529.739 412.125 529.511 409.327 529.511C405.805 529.511 405.781 529.318 407.841 517.622C409.477 508.334 409.67 499.378 408.299 496.322C407.681 494.944 407.505 496.067 407.723 500.017C408.163 507.994 405.907 524.596 404.239 525.648C402.735 526.597 400.475 522.607 400.534 519.108C400.553 518.019 400.792 517.684 401.067 518.365C402.295 521.407 403.257 518.978 403.905 511.208C404.569 503.232 403.903 494.977 402.693 496.187C402.384 496.496 401.33 499.55 400.351 502.975C398.374 509.891 397.9 508.799 399.414 500.816C400.047 497.479 400.057 495.044 399.444 493.993C398.648 492.631 398.483 492.771 398.445 494.836C398.399 497.361 396.886 500.606 396.149 499.761C395.344 498.837 394.537 492.876 395.237 493.021C395.631 493.103 396.753 492.82 397.731 492.394C399.402 491.665 399.387 491.532 397.484 490.199C394.754 488.287 394.628 481.48 397.296 480.052C399.734 478.747 403.232 482.669 405.459 489.204C406.586 492.511 407.274 493.479 407.703 492.361C408.044 491.474 408.705 490.985 409.174 491.274C409.642 491.564 410.79 491.242 411.725 490.558C413.221 489.464 413.284 488.758 412.254 484.666C411.123 480.177 410.972 480.031 407.851 480.431C404.884 480.811 404.47 480.514 402.799 476.808C400.469 471.64 397.536 467.911 396.369 468.632C394.199 469.973 395.698 467.167 397.934 465.702C401.109 463.622 401.054 462.823 397.336 457.029C393.853 451.601 392.4 451.181 389.329 454.713C386.109 458.416 384.224 457.814 381.107 452.085C378.8 447.847 378.529 446.66 379.51 445.09C380.496 443.51 380.22 442.433 377.833 438.554C376.261 435.999 374.251 433.905 373.367 433.897C372.482 433.891 371.242 433.369 370.611 432.738C369.741 431.869 370.392 431.333 373.297 430.526C381.848 428.152 386.395 429.361 393.34 435.858C398.916 441.074 402.838 442.896 410.317 443.746C415.59 444.345 421.342 443.326 430.182 440.228C434.18 438.828 439.619 432.381 441.069 427.325C443.44 419.055 441.18 409.856 435.456 404.487C432.45 401.668 422.673 398.149 404.126 393.212C397.841 391.538 393.476 389.873 393.476 389.149C393.476 388.473 391.582 387.38 389.266 386.719C383.301 385.017 381.843 383.419 380.478 377.08C378.509 367.932 371.058 358.898 362.204 354.925C353.092 350.835 342.005 349.879 332.357 352.351C322.199 354.953 318.305 357.093 313.013 362.978C306.926 369.749 303.823 378.158 303.823 387.887V395.364L298.553 402.072C293.44 408.58 293.329 408.853 294.861 411.19C295.729 412.515 297.372 413.599 298.513 413.599C300.206 413.599 300.462 414.009 299.904 415.828C299.529 417.054 299.26 418.726 299.306 419.544C299.353 420.361 299.383 422.199 299.372 423.628C299.362 425.057 300.03 426.788 300.858 427.474C301.921 428.357 302.063 429.083 301.342 429.952C300.06 431.496 301.103 434.404 302.939 434.404C303.698 434.404 304.319 434.876 304.319 435.453C304.319 436.03 303.761 436.193 303.08 435.814C302.399 435.436 302.96 436.295 304.327 437.723C306.615 440.114 307.116 440.236 310.641 439.263C316.19 437.731 325.412 437.669 328.181 439.145C331.027 440.663 334.447 446.342 337.16 454.056C342.552 469.385 343.523 479.645 340.128 485.4C337.851 489.259 337.296 492.416 339.09 491.308C341.145 490.038 337.931 494.921 334.7 497.979C332.974 499.612 332.23 500.608 333.047 500.191C333.865 499.774 331.413 502.647 327.599 506.575C321.05 513.319 318.921 516.332 318.393 520.585L317.431 519.64L318.012 524.306C318.136 525.296 318.35 526.283 318.621 527.175C319.553 532.72 322.014 538.918 323.613 538.773L323.646 538.771L323.682 538.768C323.976 540.478 324.144 542.29 324.146 544.061C324.15 547.818 323.876 548.319 321.493 548.9C318.594 549.605 315.45 552.003 315.45 553.507C315.45 554.028 316.211 553.529 317.142 552.403C318.072 551.274 320.139 550.222 321.734 550.064L324.635 549.776L325.188 569.095H322.207C319.242 569.095 314.47 573.015 314.493 575.431C314.501 576.033 315.618 575.076 316.981 573.305C318.711 571.055 320.266 570.085 322.142 570.085H324.827L325.414 580.704C326.036 591.953 325.759 592.826 321.558 592.856C320.345 592.864 318.599 594.093 317.449 595.749C314.572 599.889 314.987 600.764 318.108 597.138C319.571 595.439 321.893 593.794 323.268 593.482ZM341.096 957.451C339.703 954.308 337.981 951.672 336.203 950.037C337.94 951.723 339.611 954.35 340.961 957.453L341.096 957.451ZM334.015 952.22C332.421 950.664 330.749 950.036 328.968 950.304C327.667 950.499 326.826 950.515 326.445 950.369C326.513 950.723 327.433 950.789 329.201 950.523C330.895 950.268 332.491 950.825 334.015 952.22ZM348.807 940.057C349.038 940.723 350.14 939.91 351.924 937.454C353.263 935.611 353.417 933.461 353.533 931.83C353.659 930.072 353.742 928.917 355.217 929.397C357.904 930.27 360.711 928.544 361.97 925.242C362.546 923.732 363.771 921.434 364.693 920.135C365.782 918.6 366.153 918.066 365.614 918.11C365.539 918.391 365.139 918.959 364.461 919.915C363.539 921.214 362.314 923.513 361.738 925.023C360.478 928.324 357.671 930.051 354.985 929.177C353.509 928.697 353.427 929.853 353.301 931.61C353.184 933.241 353.031 935.391 351.692 937.234C350.255 939.213 349.26 940.125 348.807 940.057ZM351.279 917.772C351.268 917.757 351.258 917.742 351.249 917.727C350.848 917.081 350.483 914.992 350.437 913.085C350.391 911.178 349.942 908.726 349.438 907.637C349.306 907.35 349.195 907.212 349.107 907.224C349.139 907.278 349.171 907.343 349.206 907.417C349.71 908.507 350.159 910.959 350.205 912.866C350.25 914.773 350.616 916.862 351.017 917.508C351.074 917.599 351.162 917.688 351.279 917.772ZM350.308 921.632C350.372 921.745 350.436 921.815 350.498 921.836C350.687 921.902 350.851 921.988 350.988 922.092C350.823 921.897 350.598 921.739 350.308 921.632ZM319.443 520.99C319.591 520.842 319.823 521.338 320.063 522.224L319.319 521.493C319.339 521.229 319.38 521.053 319.443 520.99ZM375.515 577.541C375.607 576.67 375.69 575.81 375.763 574.963C375.007 575.703 374.021 576.752 372.816 578.104C363.344 588.736 362.057 590.711 368.328 584.989C371.208 582.363 374.203 579.245 375.515 577.541ZM375.039 554.402C374.899 553.843 374.767 553.311 374.645 552.802C374.591 552.849 374.538 552.897 374.485 552.945C372.534 554.711 371.977 556.806 373.75 555.71C374.444 555.282 374.759 556.055 374.636 557.881C374.315 562.629 374.55 563.695 375.667 562.578C375.802 562.443 375.938 562.177 376.067 561.812C375.903 558.981 375.562 556.484 375.039 554.402ZM377.213 540.426C377.58 540.235 377.99 539.985 378.428 539.69L378.121 535.95L376.614 540.408C376.566 540.551 376.519 540.692 376.474 540.832C376.706 540.697 376.952 540.563 377.213 540.426ZM384.842 533.951L388.328 529.893C388.737 528.553 388.42 526.538 387.482 526.538C386.212 526.538 383.891 531.931 383.6 535.299C384.045 534.845 384.464 534.391 384.842 533.951ZM384.106 595.953C383.747 595.372 382.979 594.896 382.4 594.896C381.743 594.896 381.818 595.465 382.599 596.406C383.958 598.044 385.172 597.678 384.106 595.953ZM365.716 591.543C365.728 591.061 364.847 591.8 363.757 593.185C362.667 594.571 361.786 596.08 361.798 596.539C361.828 597.621 365.687 592.698 365.716 591.543ZM386.542 586.971C385.756 586.485 384.89 586.311 384.618 586.583C384.345 586.856 384.766 587.476 385.551 587.961C386.337 588.447 387.203 588.621 387.475 588.349C387.748 588.076 387.328 587.456 386.542 586.971ZM404.543 532.483C404.751 530.303 404.573 528.52 404.152 528.52C403.729 528.52 403.383 530.303 403.383 532.483C403.383 534.662 403.559 536.445 403.774 536.445C403.989 536.445 404.335 534.662 404.543 532.483ZM390.744 513.428C392.115 508.513 392.569 506.884 392.356 506.791C392.251 506.746 391.981 507.077 391.579 507.573C391.423 507.765 391.247 507.982 391.053 508.211C389.426 510.128 389.391 510.081 389.971 506.725C391.298 499.05 391.733 491.864 390.872 491.864C388.953 491.864 385.504 517.452 386.924 521.151C387.801 523.438 388.087 522.997 389.853 516.631C390.185 515.434 390.481 514.371 390.744 513.428ZM363.955 487.703C363.031 486.779 362.493 486.788 361.537 487.744C360.557 488.724 360.606 489.159 361.776 489.883C363.762 491.111 365.563 489.31 363.955 487.703ZM357.813 482.948C357.813 482.403 357.394 481.957 356.881 481.957C356.369 481.957 355.674 482.403 355.337 482.948C355 483.493 355.42 483.939 356.269 483.939C357.118 483.939 357.813 483.493 357.813 482.948ZM337.608 446.56C336.601 445.553 335.77 447.07 336.597 448.407C337.221 449.416 337.454 449.417 337.79 448.41C338.019 447.722 337.937 446.89 337.608 446.56ZM424.929 432.415C431.227 429.629 433.03 427.024 433.069 420.651C433.099 415.804 432.781 415.017 429.575 411.993C427.258 409.807 423.777 407.991 419.421 406.696C402.567 401.684 391.907 399.014 391 399.578C390.455 399.916 387.769 400.054 385.032 399.884C381.188 399.646 379.69 399.988 378.455 401.386C375.898 404.283 369.162 415.777 367.925 419.352C366.915 422.275 366.976 422.576 368.495 422.136C373.419 420.709 381.965 420.427 386.6 421.539C390.408 422.452 393.205 424.108 397.671 428.093C400.957 431.025 405.035 433.838 406.734 434.343C411.043 435.624 419.763 434.7 424.929 432.415ZM372.581 407.645C374.438 404.402 376.84 400.802 377.919 399.644C379.531 397.913 379.635 397.383 378.505 396.668C375.464 394.742 373.755 395.708 372.655 399.977C370.78 407.258 369.587 410.581 368.638 411.167C367.539 411.847 367.41 413.612 368.463 413.57C368.872 413.555 370.725 410.887 372.581 407.645ZM380.103 386.85C380.439 386.306 380.243 385.86 379.666 385.86C379.089 385.86 378.617 386.306 378.617 386.85C378.617 387.395 378.813 387.841 379.054 387.841C379.294 387.841 379.766 387.395 380.103 386.85ZM375.331 383.693C375.015 382.902 374.78 383.137 374.732 384.291C374.689 385.336 374.924 385.921 375.253 385.592C375.582 385.262 375.617 384.408 375.331 383.693ZM378.617 373.729C378.617 373.176 377.96 373.284 377.131 373.972C376.314 374.65 375.645 375.651 375.645 376.196C375.645 376.748 376.302 376.641 377.131 375.953C377.948 375.275 378.617 374.274 378.617 373.729ZM355.228 923.979C355.098 923.819 355.043 923.651 355.083 923.488C355.371 922.308 357.404 922.248 358.441 923.075C357.514 922.026 355.162 921.992 354.851 923.268C354.792 923.509 354.938 923.759 355.228 923.979ZM352.454 794.23C352.663 792.187 352.834 793.859 352.834 797.945C352.834 802.032 352.663 803.704 352.454 801.66C352.246 799.617 352.246 796.273 352.454 794.23ZM367.029 793.983C366.462 791.803 366.325 790.02 366.725 790.02C367.125 790.02 367.716 791.093 368.037 792.404C368.358 793.716 368.887 795.499 369.212 796.367C369.537 797.235 369.411 797.945 368.932 797.945C368.454 797.945 367.597 796.162 367.029 793.983ZM355.568 780.931C354.567 779.905 355.951 776.405 357.617 775.75C359.876 774.862 362.828 776.94 362.828 779.419C362.828 781.275 362.301 781.625 359.524 781.613C357.707 781.606 355.927 781.298 355.568 780.931ZM359.192 674.328C360.318 674.328 360.971 674.774 360.643 675.319C360.314 675.864 359.661 676.309 359.192 676.309C358.723 676.309 358.07 675.864 357.742 675.319C357.413 674.774 358.066 674.328 359.192 674.328ZM362.355 673.729C362.676 673.4 363.51 673.365 364.208 673.651C364.979 673.967 364.75 674.202 363.624 674.25C362.604 674.293 362.033 674.059 362.355 673.729ZM353.149 673.674C353.814 673.399 354.901 673.399 355.566 673.674C356.231 673.948 355.687 674.173 354.358 674.173C353.028 674.173 352.484 673.948 353.149 673.674ZM359.676 666.404C360.473 666.404 361.126 666.85 361.126 667.395C361.126 667.94 360.473 668.386 359.676 668.386C358.878 668.386 358.225 667.94 358.225 667.395C358.225 666.85 358.878 666.404 359.676 666.404ZM362.355 666.797C362.676 666.467 363.51 666.432 364.208 666.718C364.979 667.035 364.75 667.269 363.624 667.317C362.604 667.36 362.033 667.126 362.355 666.797ZM351.215 664.661C352.146 665.506 353.777 666.415 354.841 666.681L356.775 667.164L354.841 667.247C352.819 667.334 349.523 665.266 349.523 663.911C349.523 663.478 350.285 663.815 351.215 664.661ZM371.278 655.53L368.378 656.959C365.357 658.447 353.838 659.03 353.057 657.734C352.81 657.325 355.286 656.991 358.559 656.991C361.832 656.991 366.033 656.662 367.894 656.26L371.278 655.53ZM348.501 652.231C349.595 652.524 350.49 653.158 350.49 653.639C350.49 654.975 348.929 654.682 347.653 653.106C346.717 651.951 346.869 651.794 348.501 652.231ZM365.96 633.073C365.96 634.98 365.277 637.241 364.441 638.097C361.939 640.66 358.47 640.04 356.8 636.731C355.988 635.123 355.325 632.993 355.325 631.998C355.325 631.002 354.494 629.458 353.478 628.567C351.039 626.427 351.201 618.527 353.694 618.035C354.861 617.805 355.359 618.439 355.446 620.263C355.512 621.665 355.621 623.359 355.687 624.027C355.754 624.694 357.027 625.68 358.518 626.217C362.156 627.528 364.381 625.983 364.993 621.719C365.286 619.684 366.026 618.354 366.866 618.354C368.787 618.354 369.154 626.333 367.32 628.212C366.572 628.978 365.96 631.166 365.96 633.073Z" fill="#556FE5"/>
<path fill-rule="evenodd" clip-rule="evenodd" d="M29.2684 593.482L31.7696 592.915C31.4397 603.642 31.5768 607.094 32.2243 604.367C32.4165 603.557 32.5988 602.859 32.7668 602.273L32.87 603.241C32.974 604.217 33.0657 605.111 33.1449 605.934L32.8504 607.776H33.3106C33.7377 612.965 33.497 614.918 32.4749 617.832C28.9519 627.878 28.417 634.547 29.3338 656.991C29.8184 668.858 30.5537 680.573 30.9675 683.025L31.7201 687.483L32.3869 683.025C32.7534 680.573 33.4971 672.994 34.0395 666.183C35.3438 649.804 37.7243 633.07 39.5354 627.548C42.2078 619.4 46.5053 611.927 50.6363 607.776H80.1822C81.4677 608.741 82.6638 609.75 83.7725 610.807C82.7295 609.829 81.6106 608.893 80.4144 607.995H50.8685C46.7375 612.147 42.44 619.62 39.7676 627.768C37.9565 633.29 35.576 650.024 34.2717 666.402C33.7293 673.213 32.9856 680.792 32.6191 683.244L32.3789 684.85C33.1868 710.668 37.7899 733.45 44.622 748.823L43.9634 748.567L46.6207 756.43C48.0822 760.754 49.8485 765.066 50.5458 766.011C51.623 767.47 51.6098 767.543 50.4586 766.491C47.105 763.426 45.3263 766.273 47.9608 770.488C48.7151 771.695 49.4765 773.797 49.6529 775.159C49.8996 777.064 49.5619 777.601 48.1911 777.483C46.6517 777.351 46.4972 777.823 47.0577 780.95C47.4149 782.942 48.108 784.994 48.5984 785.512C49.0888 786.03 49.49 787.149 49.49 787.999C49.49 788.849 50.5742 790.742 51.8992 792.207C54.1674 794.713 54.2721 795.309 53.6884 802.384C53.3473 806.518 52.6984 810.134 52.2461 810.42C51.2661 811.041 51.2048 818.129 51.9285 820.179C50.6521 832.898 50.0434 847.335 50.3542 862.637C51.1727 902.937 52.5819 925.919 54.5862 938.95C54.4697 939.599 54.533 939.969 54.7598 940.045C55.2935 943.309 55.8679 945.905 56.4832 947.966C55.2424 948.575 51.1389 948.368 46.0906 948.113C43.9039 948.003 41.54 947.884 39.1547 947.818C37.716 946.99 36.987 947.044 35.5122 947.768C30.4447 947.778 25.6431 948.18 22.6374 949.585C14.551 951.27 5.10147 954.717 6.96516 959.525C7.00609 959.608 7.04788 959.69 7.09054 959.772L10 968.5L80 969V962.671C80.4525 961.007 80.4767 958.8 80.0968 955.96C79.2509 949.637 75.7705 939.726 73.7314 937.544C74.5211 938.186 75.5815 940.209 76.6291 942.828C77.4344 937.133 77.6083 929.244 77.0504 918.69C76.2835 904.182 77.2823 893.176 81.6051 869.513C87.4928 842.754 92.2535 814.951 81.8782 790.451L81.1681 791.905C77.2176 799.997 69.074 808.506 61.5365 812.42C58.4661 814.014 55.9569 816.162 55.0376 817.984C54.2141 819.616 53.1163 820.951 52.5981 820.951C52.492 820.951 52.3947 820.87 52.3064 820.723C52.3152 820.725 52.3242 820.727 52.3331 820.729C52.344 820.73 52.3549 820.731 52.3659 820.731C52.8841 820.731 53.9815 819.396 54.8051 817.764C55.7244 815.943 58.2339 813.794 61.3044 812.2C68.8418 808.287 76.9854 799.777 80.9359 791.686L84.3162 784.763L82.1366 783.649C79.0139 782.054 78.4845 777.601 80.715 771.692C82.8156 766.126 86.317 754.647 86.6128 752.356C86.7195 751.529 87.1383 750.303 87.5434 749.631C88.1969 748.548 87.5935 748.342 86.2596 748.765C93.7887 731.788 98.604 705.806 98.604 676.685C98.604 665.1 97.8418 654.011 96.4498 643.788C96.2532 643.899 96.0914 643.857 95.9507 643.615C96.1657 643.682 96.428 643.452 96.7674 643.032C97.7948 641.759 97.9811 639.41 97.5467 633.214C96.7539 621.904 94.0842 613.574 89.3882 607.776H89.5702L89.9274 598.364L90.2985 603.07C90.8754 610.387 92.9326 608.999 94.8691 599.987C95.7896 595.703 97.576 589.127 98.839 585.374L101.135 578.55L109.383 577.941V573.044C109.383 568.24 109.326 568.148 106.344 568.148C103.929 568.148 103.404 567.792 103.784 566.414C104.048 565.46 105.501 558.817 107.013 551.65C109.734 538.76 109.788 538.63 112.114 539.514L112.451 539.643C113.824 540.167 114.455 540.407 114.989 540.271C115.442 540.156 115.827 539.77 116.537 539.057C116.602 538.992 116.671 538.923 116.742 538.851C117.629 537.965 118.299 535.62 118.299 533.403C118.299 529.739 118.125 529.511 115.327 529.511C111.805 529.511 111.781 529.318 113.841 517.622C115.477 508.334 115.67 499.378 114.299 496.322C113.681 494.944 113.505 496.067 113.723 500.017C114.163 507.994 111.907 524.596 110.239 525.648C108.735 526.597 106.475 522.607 106.534 519.108C106.553 518.019 106.792 517.684 107.067 518.365C108.295 521.407 109.257 518.978 109.905 511.208C110.569 503.232 109.903 494.977 108.693 496.187C108.384 496.496 107.33 499.55 106.351 502.975C104.374 509.891 103.9 508.799 105.414 500.816C106.047 497.479 106.057 495.044 105.444 493.993C104.648 492.631 104.483 492.771 104.445 494.836C104.399 497.361 102.886 500.606 102.149 499.761C101.344 498.837 100.537 492.876 101.237 493.021C101.631 493.103 102.753 492.82 103.731 492.394C105.402 491.665 105.387 491.532 103.484 490.199C100.754 488.287 100.628 481.48 103.296 480.052C105.734 478.747 109.232 482.669 111.459 489.204C112.586 492.511 113.274 493.479 113.703 492.361C114.044 491.474 114.705 490.985 115.174 491.274C115.642 491.564 116.79 491.242 117.725 490.558C119.221 489.464 119.284 488.758 118.254 484.666C117.123 480.177 116.972 480.031 113.851 480.431C110.884 480.811 110.47 480.514 108.799 476.808C106.469 471.64 103.536 467.911 102.369 468.632C100.199 469.973 101.698 467.167 103.934 465.702C107.109 463.622 107.054 462.823 103.336 457.029C99.8527 451.601 98.3999 451.181 95.3286 454.713C92.1091 458.416 90.2245 457.814 87.1068 452.085C84.8001 447.847 84.5292 446.66 85.5098 445.09C86.4963 443.51 86.2201 442.433 83.8331 438.554C82.2613 435.999 80.2515 433.905 79.3668 433.897C78.4822 433.891 77.242 433.369 76.6109 432.738C75.7414 431.869 76.3921 431.333 79.2971 430.526C87.8478 428.152 92.3945 429.361 99.3395 435.858C104.916 441.074 108.838 442.896 116.317 443.746C121.59 444.345 127.342 443.326 136.182 440.228C140.18 438.828 145.619 432.381 147.069 427.325C149.44 419.055 147.18 409.856 141.456 404.487C138.45 401.668 128.673 398.149 110.126 393.212C103.841 391.538 99.4764 389.873 99.4764 389.149C99.4764 388.473 97.5818 387.38 95.2662 386.719C89.3006 385.017 87.8432 383.419 86.4783 377.08C84.5086 367.932 77.0577 358.898 68.2045 354.925C59.0917 350.835 48.0048 349.879 38.3573 352.351C28.1989 354.953 24.3048 357.093 19.0134 362.978C12.9257 369.749 9.82328 378.158 9.82328 387.887V395.364L4.55268 402.072C-0.560064 408.58 -0.67065 408.853 0.860596 411.19C1.7288 412.515 3.37243 413.599 4.51312 413.599C6.20575 413.599 6.46159 414.009 5.90449 415.828C5.52904 417.054 5.25992 418.726 5.3065 419.544C5.35308 420.361 5.38266 422.199 5.37217 423.628C5.36174 425.057 6.03014 426.788 6.8575 427.474C7.92076 428.357 8.06275 429.083 7.34183 429.952C6.05989 431.496 7.1027 434.404 8.93865 434.404C9.69764 434.404 10.3186 434.876 10.3186 435.453C10.3186 436.03 9.76141 436.193 9.08034 435.814C8.39927 435.436 8.96039 436.295 10.3273 437.723C12.6154 440.114 13.1162 440.236 16.6407 439.263C22.1896 437.731 31.4124 437.669 34.1812 439.145C37.0268 440.663 40.4469 446.342 43.1601 454.056C48.5517 469.385 49.523 479.645 46.1276 485.4C43.8507 489.259 43.2962 492.416 45.0899 491.308C47.1448 490.038 43.931 494.921 40.6998 497.979C38.9737 499.612 38.23 500.608 39.0473 500.191C39.8646 499.774 37.4127 502.647 33.5987 506.575C27.0502 513.319 24.9212 516.332 24.3932 520.585L23.431 519.64L24.0122 524.306C24.1356 525.296 24.35 526.283 24.6213 527.175C25.5532 532.72 28.0141 538.918 29.6128 538.773L29.6464 538.771L29.6821 538.768C29.9758 540.478 30.1439 542.29 30.1462 544.061C30.1498 547.818 29.8762 548.319 27.4926 548.9C24.5943 549.605 21.4495 552.003 21.4495 553.507C21.4495 554.028 22.211 553.529 23.1416 552.403C24.0722 551.274 26.139 550.222 27.7343 550.064L30.635 549.776L31.1884 569.095H28.2065C25.2423 569.095 20.4695 573.015 20.4932 575.431C20.5007 576.033 21.6184 575.076 22.9805 573.305C24.7115 571.055 26.2655 570.085 28.1421 570.085H30.827L31.4139 580.704C32.0356 591.953 31.7587 592.826 27.5583 592.856C26.3447 592.864 24.5994 594.093 23.449 595.749C20.5718 599.889 20.9871 600.764 24.1084 597.138C25.5708 595.439 27.8928 593.794 29.2684 593.482ZM47.0955 957.451C45.7027 954.308 43.9808 951.672 42.2033 950.037C43.9396 951.723 45.6111 954.35 46.9605 957.453L47.0955 957.451ZM40.0155 952.22C38.4213 950.664 36.7488 950.036 34.9684 950.304C33.6672 950.499 32.8256 950.515 32.4445 950.369C32.5131 950.723 33.4326 950.789 35.2006 950.523C36.8948 950.268 38.4912 950.825 40.0155 952.22ZM54.8069 940.057C55.0383 940.723 56.1398 939.91 57.9242 937.454C59.2629 935.611 59.4167 933.461 59.5333 931.83C59.659 930.072 59.7416 928.917 61.217 929.397C63.9037 930.27 66.7107 928.544 67.9699 925.242C68.5458 923.732 69.7712 921.434 70.6931 920.135C71.782 918.6 72.1531 918.066 71.6136 918.11C71.5389 918.391 71.1391 918.959 70.4609 919.915C69.539 921.214 68.3135 923.513 67.7377 925.023C66.4785 928.324 63.6715 930.051 60.9848 929.177C59.5094 928.697 59.4268 929.853 59.3011 931.61C59.1845 933.241 59.0307 935.391 57.692 937.234C56.2545 939.213 55.2602 940.125 54.8069 940.057ZM57.2794 917.772C57.2684 917.757 57.2581 917.742 57.2488 917.727C56.8479 917.081 56.4826 914.992 56.4371 913.085C56.3914 911.178 55.942 908.726 55.4381 907.637C55.3055 907.35 55.1953 907.212 55.1072 907.224C55.1386 907.278 55.1715 907.343 55.2059 907.417C55.7098 908.507 56.1592 910.959 56.2049 912.866C56.2504 914.773 56.6157 916.862 57.0166 917.508C57.0735 917.599 57.1623 917.688 57.2794 917.772ZM56.3076 921.632C56.3722 921.745 56.4358 921.815 56.4976 921.836C56.6875 921.902 56.8506 921.988 56.9881 922.092C56.8232 921.897 56.598 921.739 56.3076 921.632ZM25.4434 520.99C25.591 520.842 25.8234 521.338 26.0634 522.224L25.3186 521.493C25.3386 521.229 25.3798 521.053 25.4434 520.99ZM81.5147 577.541C81.6069 576.67 81.6897 575.81 81.7628 574.963C81.0069 575.703 80.0211 576.752 78.816 578.104C69.3438 588.736 68.0566 590.711 74.3283 584.989C77.2078 582.363 80.2032 579.245 81.5147 577.541ZM81.039 554.402C80.8987 553.843 80.7671 553.311 80.6446 552.802C80.5914 552.849 80.538 552.897 80.4848 552.945C78.5336 554.711 77.977 556.806 79.7502 555.71C80.4436 555.282 80.7591 556.055 80.6358 557.881C80.3153 562.629 80.5497 563.695 81.6669 562.578C81.8022 562.443 81.9375 562.177 82.0667 561.812C81.9033 558.981 81.5621 556.484 81.039 554.402ZM83.2132 540.426C83.5798 540.235 83.9896 539.985 84.4277 539.69L84.1214 535.95L82.6138 540.408C82.5656 540.551 82.519 540.692 82.4739 540.832C82.706 540.697 82.9523 540.563 83.2132 540.426ZM90.8424 533.951L94.3284 529.893C94.7365 528.553 94.4195 526.538 93.4819 526.538C92.2117 526.538 89.8911 531.931 89.6001 535.299C90.0451 534.845 90.4642 534.391 90.8424 533.951ZM90.1061 595.953C89.7471 595.372 88.9791 594.896 88.3997 594.896C87.7427 594.896 87.8179 595.465 88.5992 596.406C89.9579 598.044 91.1723 597.678 90.1061 595.953ZM71.7165 591.543C71.7277 591.061 70.8469 591.8 69.7572 593.185C68.6675 594.571 67.7859 596.08 67.7979 596.539C67.8279 597.621 71.6875 592.698 71.7165 591.543ZM92.542 586.971C91.7563 586.485 90.8905 586.311 90.6181 586.583C90.3455 586.856 90.7656 587.476 91.5513 587.961C92.337 588.447 93.2028 588.621 93.4753 588.349C93.7479 588.076 93.3278 587.456 92.542 586.971ZM110.543 532.483C110.751 530.303 110.573 528.52 110.152 528.52C109.729 528.52 109.383 530.303 109.383 532.483C109.383 534.662 109.559 536.445 109.774 536.445C109.989 536.445 110.335 534.662 110.543 532.483ZM96.7444 513.428C98.1149 508.513 98.5691 506.884 98.3562 506.791C98.2507 506.746 97.9815 507.077 97.5787 507.573C97.4229 507.765 97.2466 507.982 97.0526 508.211C95.4256 510.128 95.391 510.081 95.9712 506.725C97.298 499.05 97.7334 491.864 96.8716 491.864C94.9535 491.864 91.5043 517.452 92.9237 521.151C93.8013 523.438 94.0869 522.997 95.8528 516.631C96.1849 515.434 96.4815 514.371 96.7444 513.428ZM69.9553 487.703C69.0308 486.779 68.4932 486.788 67.5366 487.744C66.5569 488.724 66.6057 489.159 67.7758 489.883C69.7624 491.111 71.5625 489.31 69.9553 487.703ZM63.8134 482.948C63.8134 482.403 63.3939 481.957 62.8812 481.957C62.3685 481.957 61.6735 482.403 61.3368 482.948C61.0002 483.493 61.4195 483.939 62.2689 483.939C63.1184 483.939 63.8134 483.493 63.8134 482.948ZM43.6084 446.56C42.6014 445.553 41.7705 447.07 42.5967 448.407C43.2209 449.416 43.4542 449.417 43.7897 448.41C44.0193 447.722 43.9375 446.89 43.6084 446.56ZM130.929 432.415C137.227 429.629 139.03 427.024 139.069 420.651C139.099 415.804 138.781 415.017 135.575 411.993C133.258 409.807 129.777 407.991 125.421 406.696C108.567 401.684 97.9071 399.014 96.9999 399.578C96.455 399.916 93.7693 400.054 91.0316 399.884C87.1883 399.646 85.6897 399.988 84.4554 401.386C81.8979 404.283 75.1615 415.777 73.9254 419.352C72.915 422.275 72.9764 422.576 74.4945 422.136C79.4193 420.709 87.9653 420.427 92.6002 421.539C96.4082 422.452 99.2054 424.108 103.671 428.093C106.957 431.025 111.035 433.838 112.734 434.343C117.043 435.624 125.763 434.7 130.929 432.415ZM78.5814 407.645C80.438 404.402 82.8398 400.802 83.9186 399.644C85.531 397.913 85.6355 397.383 84.5055 396.668C81.4641 394.742 79.755 395.708 78.6554 399.977C76.7801 407.258 75.5871 410.581 74.6381 411.167C73.5391 411.847 73.4102 413.612 74.4629 413.57C74.8716 413.555 76.7248 410.887 78.5814 407.645ZM86.1028 386.85C86.4394 386.306 86.2428 385.86 85.666 385.86C85.089 385.86 84.6169 386.306 84.6169 386.85C84.6169 387.395 84.8134 387.841 85.0537 387.841C85.2941 387.841 85.7661 387.395 86.1028 386.85ZM81.331 383.693C81.0146 382.902 80.78 383.137 80.7325 384.291C80.6894 385.336 80.9238 385.921 81.2528 385.592C81.5819 385.262 81.617 384.408 81.331 383.693ZM84.6169 373.729C84.6169 373.176 83.9598 373.284 83.1309 373.972C82.3136 374.65 81.6449 375.651 81.6449 376.196C81.6449 376.748 82.302 376.641 83.1309 375.953C83.9482 375.275 84.6169 374.274 84.6169 373.729ZM61.2281 923.979C61.0979 923.819 61.0431 923.651 61.083 923.488C61.3709 922.308 63.4038 922.248 64.4412 923.075C63.5144 922.026 61.1621 921.992 60.8508 923.268C60.7921 923.509 60.9384 923.759 61.2281 923.979ZM58.4544 794.23C58.663 792.187 58.8337 793.859 58.8337 797.945C58.8337 802.032 58.663 803.704 58.4544 801.66C58.2459 799.617 58.2459 796.273 58.4544 794.23ZM73.0294 793.983C72.4617 791.803 72.3246 790.02 72.725 790.02C73.1253 790.02 73.7156 791.093 74.0369 792.404C74.3581 793.716 74.887 795.499 75.2121 796.367C75.5374 797.235 75.4113 797.945 74.9324 797.945C74.4535 797.945 73.5972 796.162 73.0294 793.983ZM61.5684 780.931C60.5669 779.905 61.9506 776.405 63.6166 775.75C65.8757 774.862 68.8277 776.94 68.8277 779.419C68.8277 781.275 68.3006 781.625 65.5243 781.613C63.7073 781.606 61.9272 781.298 61.5684 780.931ZM65.1924 674.328C66.3185 674.328 66.9711 674.774 66.6427 675.319C66.314 675.864 65.6614 676.309 65.1924 676.309C64.7233 676.309 64.0704 675.864 63.742 675.319C63.4134 674.774 64.066 674.328 65.1924 674.328ZM68.3547 673.729C68.676 673.4 69.5099 673.365 70.2079 673.651C70.9792 673.967 70.7501 674.202 69.6237 674.25C68.6045 674.293 68.0335 674.059 68.3547 673.729ZM59.149 673.674C59.8138 673.399 60.9015 673.399 61.5662 673.674C62.231 673.948 61.6871 674.173 60.3576 674.173C59.0281 674.173 58.4843 673.948 59.149 673.674ZM65.6756 666.404C66.4733 666.404 67.1259 666.85 67.1259 667.395C67.1259 667.94 66.4733 668.386 65.6756 668.386C64.8779 668.386 64.2252 667.94 64.2252 667.395C64.2252 666.85 64.8779 666.404 65.6756 666.404ZM68.3547 666.797C68.676 666.467 69.5099 666.432 70.2079 666.718C70.9792 667.035 70.7501 667.269 69.6237 667.317C68.6045 667.36 68.0335 667.126 68.3547 666.797ZM57.2152 664.661C58.1459 665.506 59.7775 666.415 60.8411 666.681L62.7749 667.164L60.8411 667.247C58.8192 667.334 55.5232 665.266 55.5232 663.911C55.5232 663.478 56.2846 663.815 57.2152 664.661ZM77.2784 655.53L74.3777 656.959C71.3568 658.447 59.8383 659.03 59.0567 657.734C58.8102 657.325 61.2864 656.991 64.5593 656.991C67.8322 656.991 72.0329 656.662 73.8942 656.26L77.2784 655.53ZM54.501 652.231C55.595 652.524 56.4901 653.158 56.4901 653.639C56.4901 654.975 54.929 654.682 53.6525 653.106C52.7167 651.951 52.8689 651.794 54.501 652.231ZM71.9604 633.073C71.9604 634.98 71.2767 637.241 70.441 638.097C67.9392 640.66 64.47 640.04 62.7997 636.731C61.9884 635.123 61.3246 632.993 61.3246 631.998C61.3246 631.002 60.4937 629.458 59.4781 628.567C57.0392 626.427 57.2008 618.527 59.6938 618.035C60.8608 617.805 61.3592 618.439 61.4457 620.263C61.5116 621.665 61.6205 623.359 61.6872 624.027C61.7536 624.694 63.0275 625.68 64.518 626.217C68.1561 627.528 70.3809 625.983 70.9935 621.719C71.2858 619.684 72.0261 618.354 72.8662 618.354C74.7869 618.354 75.1544 626.333 73.3202 628.212C72.5723 628.978 71.9604 631.166 71.9604 633.073Z" fill="#556FE5"/>
<path d="M380.617 373.729C380.617 373.176 379.96 373.284 379.131 373.971C378.314 374.65 377.645 375.651 377.645 376.196C377.645 376.748 378.302 376.641 379.131 375.953C379.948 375.275 380.617 374.274 380.617 373.729Z" fill="#FFEB39"/>
<path d="M376.732 384.291C376.78 383.137 377.015 382.902 377.331 383.693C377.617 384.408 377.582 385.262 377.253 385.592C376.924 385.921 376.689 385.336 376.732 384.291Z" fill="#FFEB39"/>
<path d="M382.103 386.85C382.439 386.306 382.243 385.86 381.666 385.86C381.089 385.86 380.617 386.306 380.617 386.85C380.617 387.395 380.813 387.841 381.054 387.841C381.294 387.841 381.766 387.395 382.103 386.85Z" fill="#FFEB39"/>
<path d="M379.919 399.644C378.84 400.802 376.438 404.402 374.581 407.645C372.725 410.887 370.872 413.555 370.463 413.57C369.41 413.612 369.539 411.847 370.638 411.167C371.587 410.581 372.78 407.258 374.655 399.977C375.755 395.708 377.464 394.742 380.505 396.668C381.635 397.383 381.531 397.913 379.919 399.644Z" fill="#FFEB39"/>
<path d="M426.929 432.415C433.227 429.629 435.03 427.024 435.069 420.651C435.099 415.804 434.781 415.017 431.575 411.993C429.258 409.807 425.777 407.991 421.421 406.696C404.567 401.684 393.907 399.014 393 399.578C392.455 399.916 389.769 400.054 387.032 399.884C383.188 399.646 381.69 399.988 380.455 401.386C377.898 404.283 371.162 415.777 369.925 419.352C368.915 422.275 368.976 422.576 370.495 422.136C375.419 420.709 383.965 420.427 388.6 421.539C392.408 422.452 395.205 424.109 399.671 428.093C402.957 431.025 407.035 433.838 408.734 434.343C413.043 435.624 421.763 434.7 426.929 432.415Z" fill="#FFEB39"/>
<path d="M338.597 448.406C337.77 447.07 338.601 445.553 339.608 446.56C339.938 446.89 340.019 447.722 339.79 448.41C339.454 449.417 339.221 449.417 338.597 448.406Z" fill="#FFEB39"/>
<path d="M359.813 482.948C359.813 482.403 359.394 481.957 358.881 481.957C358.368 481.957 357.674 482.403 357.337 482.948C357 483.493 357.42 483.939 358.269 483.939C359.118 483.939 359.813 483.493 359.813 482.948Z" fill="#FFEB39"/>
<path d="M363.537 487.744C364.493 486.788 365.031 486.779 365.955 487.703C367.563 489.31 365.762 491.111 363.776 489.883C362.606 489.159 362.557 488.724 363.537 487.744Z" fill="#FFEB39"/>
<path d="M392.744 513.428C394.115 508.513 394.569 506.884 394.356 506.791C394.251 506.746 393.981 507.077 393.579 507.573L393.576 507.577C393.421 507.768 393.245 507.983 393.053 508.211C391.426 510.128 391.391 510.081 391.971 506.724C393.298 499.05 393.733 491.864 392.872 491.864C390.953 491.864 387.504 517.452 388.924 521.151C389.801 523.438 390.087 522.997 391.853 516.631C392.183 515.439 392.479 514.38 392.741 513.44L392.744 513.428Z" fill="#FFEB39"/>
<path d="M322.063 522.224C321.823 521.338 321.591 520.842 321.443 520.99C321.38 521.053 321.339 521.229 321.319 521.493L322.063 522.224Z" fill="#FFEB39"/>
<path d="M377.515 577.542C377.607 576.67 377.69 575.81 377.763 574.963C377.007 575.703 376.021 576.752 374.816 578.104C365.344 588.736 364.057 590.711 370.328 584.989C373.208 582.363 376.203 579.245 377.515 577.542Z" fill="#FFEB39"/>
<path d="M376.645 552.802C376.767 553.311 376.899 553.844 377.039 554.402C377.562 556.484 377.903 558.981 378.067 561.812C377.938 562.177 377.802 562.443 377.667 562.578C376.55 563.695 376.315 562.629 376.636 557.881C376.759 556.055 376.444 555.282 375.75 555.71C373.977 556.806 374.534 554.711 376.485 552.945C376.538 552.897 376.591 552.849 376.645 552.802Z" fill="#FFEB39"/>
<path d="M379.213 540.426C379.58 540.235 379.99 539.985 380.428 539.69L380.121 535.95L378.614 540.408L378.572 540.533L378.543 540.619C378.52 540.69 378.497 540.761 378.474 540.832C378.706 540.697 378.952 540.563 379.213 540.426Z" fill="#FFEB39"/>
<path d="M390.328 529.893L386.842 533.951C386.464 534.391 386.045 534.845 385.6 535.299C385.891 531.931 388.212 526.538 389.482 526.538C390.42 526.538 390.737 528.553 390.328 529.893Z" fill="#FFEB39"/>
<path d="M386.106 595.953C385.747 595.372 384.979 594.896 384.4 594.896C383.743 594.896 383.818 595.465 384.599 596.406C385.958 598.044 387.172 597.678 386.106 595.953Z" fill="#FFEB39"/>
<path d="M365.757 593.185C366.847 591.8 367.728 591.061 367.716 591.543C367.687 592.698 363.828 597.621 363.798 596.539C363.786 596.08 364.667 594.571 365.757 593.185Z" fill="#FFEB39"/>
<path d="M388.542 586.971C387.756 586.485 386.89 586.311 386.618 586.583C386.345 586.856 386.766 587.476 387.551 587.961C388.337 588.447 389.203 588.621 389.475 588.349C389.748 588.076 389.328 587.456 388.542 586.971Z" fill="#FFEB39"/>
<path d="M406.152 528.52C406.573 528.52 406.751 530.303 406.543 532.483C406.335 534.662 405.989 536.445 405.774 536.445C405.559 536.445 405.383 534.662 405.383 532.483C405.383 530.303 405.729 528.52 406.152 528.52Z" fill="#FFEB39"/>
<path fill-rule="evenodd" clip-rule="evenodd" d="M370.5 0L588 969H376V962.671C376.453 961.007 376.477 958.8 376.097 955.96C375.251 949.637 371.77 939.726 369.731 937.544C370.521 938.186 371.581 940.209 372.629 942.828C373.434 937.133 373.608 929.244 373.05 918.69C372.284 904.182 373.282 893.177 377.605 869.513C383.493 842.754 388.253 814.951 377.878 790.451L377.168 791.906C373.218 799.997 365.074 808.506 357.537 812.42C354.466 814.014 351.957 816.162 351.038 817.984C350.214 819.616 349.116 820.951 348.598 820.951C348.492 820.951 348.395 820.87 348.306 820.723C348.315 820.725 348.324 820.727 348.333 820.729C348.344 820.73 348.355 820.731 348.366 820.731C348.884 820.731 349.982 819.396 350.805 817.764C351.724 815.943 354.234 813.794 357.304 812.2C364.842 808.287 372.985 799.777 376.936 791.686L380.316 784.763L378.137 783.649C375.014 782.054 374.485 777.601 376.715 771.692C378.816 766.126 382.317 754.647 382.613 752.356C382.719 751.529 383.138 750.303 383.543 749.631C384.197 748.548 383.593 748.342 382.26 748.765C384.428 743.876 386.371 738.241 388.038 732H334.817C336.492 738.266 338.444 743.921 340.622 748.823L339.963 748.567L342.621 756.429C344.082 760.754 345.848 765.066 346.546 766.011C347.623 767.47 347.61 767.543 346.459 766.491C343.105 763.427 341.326 766.273 343.961 770.488C344.715 771.695 345.477 773.797 345.653 775.159C345.9 777.064 345.562 777.601 344.191 777.483C342.652 777.351 342.497 777.823 343.058 780.95C343.415 782.942 344.108 784.994 344.598 785.512C345.089 786.03 345.49 787.149 345.49 787.999C345.49 788.849 346.574 790.742 347.899 792.207C350.167 794.713 350.272 795.309 349.688 802.384C349.347 806.518 348.698 810.134 348.246 810.42C347.266 811.041 347.205 818.129 347.928 820.179C346.652 832.898 346.043 847.335 346.354 862.637C347.173 902.937 348.582 925.919 350.586 938.95C350.47 939.599 350.533 939.969 350.76 940.045C351.293 943.309 351.868 945.905 352.483 947.966C351.242 948.575 347.139 948.368 342.091 948.113C339.904 948.003 337.54 947.884 335.155 947.818C333.716 946.99 332.987 947.044 331.512 947.768C326.445 947.778 321.643 948.18 318.637 949.585C310.551 951.27 301.101 954.717 302.965 959.525C302.984 959.563 303.003 959.6 303.022 959.638C303.044 959.683 303.067 959.727 303.091 959.772L306 968.5L376 969H153L370.5 0ZM325.305 632C325.792 626.657 326.792 622.63 328.475 617.832C329.497 614.918 329.738 612.965 329.311 607.776H328.85L329.145 605.934C329.066 605.111 328.974 604.217 328.87 603.241L328.767 602.273C328.599 602.859 328.417 603.557 328.224 604.367C327.577 607.094 327.44 603.642 327.77 592.915L325.268 593.482C323.893 593.794 321.571 595.439 320.108 597.138C316.987 600.764 316.572 599.889 319.449 595.749C320.599 594.093 322.345 592.864 323.558 592.856C327.759 592.826 328.036 591.953 327.414 580.704L326.827 570.085H324.142C322.266 570.085 320.711 571.055 318.981 573.305C317.618 575.076 316.501 576.033 316.493 575.431C316.47 573.015 321.242 569.095 324.207 569.095H327.188L326.635 549.776L323.734 550.064C322.139 550.222 320.072 551.274 319.142 552.403C318.211 553.529 317.45 554.028 317.45 553.507C317.45 552.003 320.594 549.605 323.493 548.9C325.876 548.319 326.15 547.818 326.146 544.061C326.144 542.29 325.976 540.478 325.682 538.768L325.646 538.771L325.613 538.773C324.014 538.918 321.553 532.719 320.621 527.175C320.35 526.283 320.136 525.297 320.012 524.306L319.431 519.64L320.393 520.585C320.921 516.332 323.05 513.319 329.599 506.575C333.413 502.647 335.865 499.774 335.047 500.191C334.23 500.608 334.974 499.612 336.7 497.979C339.931 494.921 343.145 490.038 341.09 491.308C339.296 492.416 339.851 489.259 342.128 485.4C345.523 479.645 344.552 469.385 339.16 454.056C336.447 446.342 333.027 440.663 330.181 439.145C327.412 437.669 318.19 437.731 312.641 439.263C309.116 440.237 308.615 440.114 306.327 437.723C304.96 436.295 304.399 435.436 305.08 435.814C305.761 436.193 306.319 436.03 306.319 435.453C306.319 434.876 305.698 434.404 304.939 434.404C303.103 434.404 302.06 431.496 303.342 429.952C304.063 429.083 303.921 428.357 302.857 427.474C302.03 426.788 301.362 425.057 301.372 423.628C301.383 422.199 301.353 420.361 301.307 419.544C301.26 418.726 301.529 417.054 301.904 415.828C302.462 414.009 302.206 413.599 300.513 413.599C299.372 413.599 297.729 412.515 296.861 411.19C295.329 408.853 295.44 408.58 300.553 402.072L305.823 395.364V387.887C305.823 378.158 308.926 369.749 315.013 362.978C320.305 357.093 324.199 354.953 334.357 352.351C344.005 349.879 355.092 350.835 364.204 354.925C373.058 358.898 380.509 367.932 382.478 377.079C383.843 383.419 385.301 385.017 391.266 386.719C393.582 387.38 395.476 388.473 395.476 389.149C395.476 389.873 399.841 391.538 406.126 393.212C424.673 398.149 434.45 401.668 437.456 404.487C443.18 409.856 445.44 419.055 443.069 427.325C441.619 432.381 436.18 438.828 432.182 440.228C423.341 443.326 417.59 444.345 412.317 443.746C404.838 442.896 400.916 441.074 395.34 435.858C388.395 429.361 383.848 428.152 375.297 430.526C372.392 431.333 371.741 431.869 372.611 432.738C373.242 433.369 374.482 433.891 375.367 433.897C376.251 433.905 378.261 435.999 379.833 438.554C382.22 442.433 382.496 443.51 381.51 445.09C380.529 446.66 380.8 447.847 383.107 452.085C386.224 457.814 388.109 458.416 391.329 454.713C394.4 451.181 395.853 451.601 399.336 457.029C403.054 462.823 403.109 463.622 399.934 465.702C397.698 467.167 396.199 469.973 398.369 468.632C399.536 467.911 402.469 471.64 404.799 476.808C406.47 480.514 406.884 480.811 409.851 480.431C412.972 480.031 413.123 480.177 414.254 484.666C415.284 488.758 415.221 489.464 413.725 490.558C412.79 491.242 411.642 491.564 411.174 491.274C410.705 490.985 410.044 491.474 409.703 492.361C409.274 493.479 408.586 492.511 407.459 489.204C405.232 482.669 401.734 478.747 399.296 480.052C396.628 481.48 396.754 488.287 399.484 490.199C401.387 491.532 401.402 491.665 399.731 492.394C398.753 492.82 397.631 493.103 397.237 493.021C396.537 492.876 397.344 498.837 398.149 499.761C398.886 500.606 400.399 497.362 400.445 494.836C400.483 492.771 400.648 492.631 401.444 493.993C402.057 495.044 402.047 497.479 401.414 500.816C399.9 508.799 400.374 509.891 402.351 502.975C403.33 499.55 404.384 496.496 404.693 496.187C405.903 494.977 406.569 503.232 405.905 511.208C405.257 518.978 404.295 521.407 403.067 518.365C402.792 517.684 402.553 518.019 402.534 519.108C402.475 522.607 404.735 526.597 406.239 525.648C407.907 524.596 410.163 507.994 409.723 500.017C409.505 496.067 409.681 494.944 410.299 496.322C411.67 499.378 411.477 508.334 409.841 517.622C407.781 529.318 407.805 529.511 411.327 529.511C414.125 529.511 414.299 529.739 414.299 533.403C414.299 535.62 413.629 537.965 412.742 538.851L412.537 539.057C411.827 539.77 411.442 540.156 410.989 540.271C410.455 540.407 409.824 540.167 408.451 539.643L408.114 539.514C405.788 538.63 405.734 538.76 403.013 551.65C401.501 558.817 400.048 565.46 399.784 566.414C399.404 567.792 399.929 568.148 402.344 568.148C405.326 568.148 405.383 568.24 405.383 573.044V577.941L397.135 578.55L394.839 585.374C393.576 589.127 391.79 595.703 390.869 599.987C388.933 608.999 386.875 610.387 386.298 603.07L385.927 598.364L385.57 607.776H385.388C389.915 613.365 392.558 621.306 393.453 632H368.02C368.191 630.407 368.71 628.837 369.32 628.212C371.154 626.333 370.787 618.354 368.866 618.354C368.026 618.354 367.286 619.684 366.993 621.719C366.381 625.983 364.156 627.528 360.518 626.218C359.027 625.68 357.754 624.694 357.687 624.026C357.621 623.359 357.512 621.665 357.446 620.263C357.359 618.438 356.861 617.805 355.694 618.035C353.201 618.527 353.039 626.427 355.478 628.567C356.494 629.458 357.325 631.002 357.325 631.998V632H334.695C335.066 630.244 335.427 628.807 335.768 627.768C338.44 619.62 342.738 612.147 346.868 607.995H376.414C377.611 608.893 378.73 609.829 379.773 610.807C378.664 609.75 377.468 608.741 376.182 607.776H346.636C342.505 611.927 338.208 619.4 335.535 627.548C335.18 628.63 334.804 630.143 334.417 632H325.305Z" fill="#FFEB39"/>
<path d="M353.249 917.727C353.255 917.737 353.262 917.747 353.269 917.757L353.279 917.772C353.162 917.688 353.074 917.599 353.017 917.508C352.616 916.862 352.25 914.773 352.205 912.866C352.159 910.959 351.71 908.507 351.206 907.417C351.171 907.343 351.139 907.278 351.107 907.224C351.195 907.212 351.306 907.35 351.438 907.636C351.942 908.726 352.391 911.178 352.437 913.085C352.483 914.992 352.848 917.081 353.249 917.727Z" fill="#FFEB39"/>
<path d="M350.807 940.057C351.038 940.723 352.14 939.91 353.924 937.454C355.263 935.611 355.417 933.461 355.533 931.83C355.659 930.072 355.742 928.917 357.217 929.397C359.904 930.27 362.711 928.543 363.97 925.242C364.546 923.732 365.771 921.434 366.693 920.135C367.782 918.6 368.153 918.066 367.614 918.11C367.539 918.391 367.139 918.959 366.461 919.915C365.539 921.214 364.314 923.513 363.738 925.023C362.478 928.324 359.671 930.051 356.985 929.177C355.509 928.697 355.427 929.853 355.301 931.61C355.184 933.241 355.031 935.391 353.692 937.234C352.255 939.213 351.26 940.125 350.807 940.057Z" fill="#FFEB39"/>
<path d="M338.203 950.037C339.981 951.672 341.703 954.308 343.096 957.451L342.961 957.453C341.611 954.35 339.94 951.723 338.203 950.037Z" fill="#FFEB39"/>
<path d="M330.968 950.304C332.749 950.036 334.421 950.664 336.015 952.22C334.491 950.825 332.895 950.268 331.201 950.523C329.433 950.789 328.513 950.723 328.445 950.369C328.826 950.515 329.667 950.499 330.968 950.304Z" fill="#FFEB39"/>
<path d="M352.308 921.632C352.372 921.745 352.436 921.815 352.498 921.836C352.687 921.902 352.851 921.988 352.988 922.092C352.823 921.897 352.598 921.739 352.308 921.632Z" fill="#FFEB39"/>
<path d="M357.083 923.488C357.043 923.651 357.098 923.819 357.228 923.979C356.938 923.759 356.792 923.509 356.851 923.268C357.162 921.992 359.514 922.026 360.441 923.075C359.404 922.248 357.371 922.308 357.083 923.488Z" fill="#FFEB39"/>
<path d="M354.454 794.23C354.663 792.187 354.834 793.859 354.834 797.945C354.834 802.032 354.663 803.704 354.454 801.66C354.246 799.617 354.246 796.273 354.454 794.23Z" fill="#FFEB39"/>
<path d="M368.725 790.02C368.325 790.02 368.462 791.803 369.029 793.983C369.597 796.162 370.454 797.945 370.932 797.945C371.411 797.945 371.537 797.235 371.212 796.367C370.887 795.499 370.358 793.716 370.037 792.405C369.716 791.093 369.125 790.02 368.725 790.02Z" fill="#FFEB39"/>
<path d="M357.568 780.931C356.567 779.905 357.951 776.405 359.617 775.75C361.876 774.862 364.828 776.94 364.828 779.419C364.828 781.275 364.301 781.625 361.524 781.613C359.707 781.606 357.927 781.298 357.568 780.931Z" fill="#FFEB39"/>
</svg>
