<svg width="547" height="877" viewBox="0 0 547 877" fill="none" xmlns="http://www.w3.org/2000/svg">
<path d="M96.1741 875.42C94.7188 875.045 99.5298 869.669 118.217 850.786C140.875 827.89 153.365 815.189 220.606 746.655C236.242 730.718 261.29 705.293 276.266 690.155L303.497 662.63L303.516 578.034C303.539 484.145 304.114 492.33 296.705 481.331C293.426 476.465 293.231 475.776 294.311 472.915C295.437 469.93 295.197 469.393 288.623 460.185L281.759 450.571L274.897 448.923C264.788 446.494 262.535 445.456 262.535 443.227C262.535 442.152 263.21 440.598 264.035 439.773C265.3 438.509 265.535 433.711 265.535 409.212V380.151L245.655 380.391C227.335 380.612 225.609 380.481 223.66 378.73C222.496 377.684 218.167 370.639 214.04 363.075C208.643 353.183 206.535 348.311 206.535 345.725C206.535 342.398 206.312 342.13 203.537 342.13C201.046 342.13 200.034 341.327 197.552 337.38C192.455 329.274 188.203 318.093 188.426 313.38L188.627 309.13H184.581C181.651 309.13 180.535 308.717 180.535 307.63C180.535 306.805 180.059 306.13 179.476 306.13C178.894 306.13 178.639 306.49 178.91 306.928C180.507 309.511 176.918 309.984 150.53 310.665C131.988 311.144 118.88 310.994 110.275 310.206L97.5152 309.038L88.6344 312.591C63.495 322.649 37.6636 317.762 18.7888 299.378C1.94372 282.97 -4.3698 256.839 3.11121 234.49C6.33069 224.872 10.9039 217.689 18.9987 209.537C31.5099 196.937 46.0928 190.823 63.5352 190.865C73.8781 190.89 82.6011 192.972 92.5352 197.785C98.3182 200.586 101.989 203.389 108.571 210.024C113.266 214.758 117.73 220.146 118.491 221.998L119.875 225.365L131.455 224.935C143.863 224.475 147.535 223.25 147.535 219.571C147.535 215.278 150.729 206.98 153.669 203.63C157.562 199.197 160.764 198.411 178.035 197.654L192.035 197.039L195.322 201.592C198.525 206.029 198.677 206.108 201.322 204.732C202.814 203.956 205.16 202.11 206.535 200.63C209.601 197.331 213.675 195.133 216.736 195.124C218.247 195.12 219.627 194.077 220.763 192.083C224.155 186.121 224.688 186.06 284.108 184.856L338.324 183.757L343.339 176.194C346.097 172.034 348.867 166.982 349.493 164.968C350.847 160.617 354.801 156.372 359.253 154.49C363.002 152.906 370.301 152.711 373.948 154.097C376.057 154.899 378.793 154.1 389.985 149.415L403.479 143.766L417.257 129.692C424.835 121.952 432.558 113.963 434.419 111.939L437.802 108.26L433.238 102.188C424.156 90.1067 420.162 78.1561 420.185 63.1304C420.223 38.0047 434.277 15.9427 456.761 5.71328C466.695 1.19359 472.288 0 483.535 0C495.315 0 500.599 1.20459 511.535 6.38322C523.543 12.0691 534.583 23.1051 540.294 35.1304C545.439 45.965 546.932 52.4141 546.892 63.6304C546.791 91.3147 528.889 115.649 502.451 124.039L498.867 125.176L497.18 140.903C496.252 149.553 494.596 167.205 493.5 180.13C491.219 207.029 489.137 225.084 486.974 236.736C481.231 267.657 469.438 290.731 453.542 302.144C442.203 310.285 443.163 308.698 442.707 320.05C442.361 328.672 442.563 330.503 444.037 332.132C445.376 333.612 445.629 335.035 445.141 338.341C444.512 342.606 444.54 342.655 450.054 346.9C456.272 351.687 457.535 354.09 457.535 361.13C457.535 367.51 456.14 370.961 453.321 371.559C452.064 371.825 432.81 372.785 410.535 373.692C388.26 374.599 369.91 375.456 369.757 375.598C369.603 375.739 369.477 389.928 369.475 407.129C369.473 433.81 369.698 438.653 371.004 440.096C374.633 444.106 372.432 445.869 359.854 449.029L353.035 450.742L346.307 460.265C339.848 469.406 339.627 469.913 340.768 472.937C341.818 475.719 341.697 476.412 339.737 478.859C338.516 480.383 336.171 484.298 334.526 487.558L331.535 493.485L331.565 576.558L331.596 659.63L348.263 676.63C416.297 746.019 467.589 798.237 494.128 825.128C547.603 879.312 544.959 876.082 535.866 876.115C531.847 876.13 530.776 875.321 506.366 853.827C492.435 841.561 479.237 829.73 477.037 827.536C474.837 825.343 472.801 823.567 472.512 823.589C472.057 823.627 430.041 786.898 405.856 765.325L397.665 758.019L393.351 759.142C390.978 759.76 387.403 760.688 385.406 761.204L381.775 762.144L385.153 768.507L388.532 774.87L384.785 775.489C377.922 776.623 377.176 776.344 374.037 771.455C372.387 768.885 370.767 766.381 370.437 765.89C369.599 764.643 331.537 774.053 331.537 775.507C331.537 776.147 328.425 778.59 324.623 780.937L317.708 785.204L310.653 780.917C306.772 778.559 303.583 776.126 303.567 775.509C303.533 774.258 241.214 758.657 239.254 759.409C238.58 759.668 231.955 765.257 224.533 771.831C192.63 800.084 181.969 809.096 180.911 808.705C180.292 808.476 179.842 808.859 179.911 809.556C180.031 810.762 168.078 821.618 125.088 859.352C107.038 875.195 105.827 876.069 102.037 875.986C99.837 875.938 97.1992 875.683 96.1753 875.42H96.1741ZM493.259 835.357C490.699 832.758 488.588 830.18 488.57 829.63C488.551 829.08 487.973 828.62 487.286 828.608C486.598 828.597 486.167 827.696 486.328 826.608C486.536 825.197 486.367 825.003 485.738 825.929C485.078 826.903 483.939 826.212 481.196 823.177C479.183 820.948 477.536 818.676 477.536 818.128C477.536 817.579 476.931 817.13 476.191 817.13C475.451 817.13 470.633 812.743 465.483 807.38C460.334 802.018 438.098 779.18 416.07 756.63C394.042 734.08 368.34 707.755 358.954 698.13C349.567 688.505 338.599 677.48 334.579 673.63L327.271 666.63L327.954 677.089C328.329 682.841 329.161 688.179 329.801 688.951C330.442 689.723 330.838 691.848 330.68 693.673C330.325 697.803 333.874 700.64 338.245 699.72C340.39 699.268 341.746 699.768 344.109 701.882C345.799 703.393 356.374 712.998 367.609 723.226C389.882 743.502 405.869 757.988 453.036 800.63C470.07 816.03 486.931 831.413 490.505 834.813C498.016 841.957 500.182 842.386 493.259 835.357V835.357ZM333.881 695.587C332.909 693.055 334.25 692.786 336.658 695.03L338.913 697.13H336.693C335.472 697.13 334.207 696.436 333.881 695.587ZM481.536 828.689C481.536 828.447 481.086 827.97 480.536 827.63C479.986 827.291 479.536 827.489 479.536 828.071C479.536 828.654 479.986 829.13 480.536 829.13C481.086 829.13 481.536 828.932 481.536 828.689ZM476.005 824.181C476.327 823.658 475.659 822.731 474.518 822.121C472.598 821.093 472.539 821.163 473.731 823.071C475.21 825.44 475.223 825.446 476.005 824.181V824.181ZM488.536 823.13C488.536 822.58 488.086 822.13 487.536 822.13C486.986 822.13 486.536 822.58 486.536 823.13C486.536 823.68 486.986 824.13 487.536 824.13C488.086 824.13 488.536 823.68 488.536 823.13ZM486.152 818.532C484.253 816.862 482.932 816.334 482.281 816.986C481.737 817.529 480.559 817.742 479.664 817.458C478.288 817.022 478.263 817.103 479.502 817.979C480.491 818.678 481.365 818.687 482.185 818.005C483.042 817.294 483.939 817.582 485.219 818.979C486.218 820.07 487.486 820.986 488.036 821.015C488.586 821.041 487.738 819.925 486.152 818.531V818.532ZM178.72 796.63C191.559 783.98 219.382 756.769 240.55 736.16C296.395 681.79 311.536 666.808 311.536 665.92C311.536 662.284 300.253 672.887 241.018 732.191C204.178 769.074 170.06 803.162 165.202 807.941C160.343 812.72 155.894 817.53 155.316 818.63C154.738 819.73 154.515 820.405 154.821 820.13C155.126 819.855 165.881 809.28 178.72 796.63V796.63ZM312.536 739.63V706.13H310.036H307.536V739.63V773.13H310.036H312.536V739.63ZM317.536 739.547C317.536 716.041 317.213 706.071 316.461 706.322C315.87 706.519 315.419 707.007 315.461 707.406C315.502 707.804 315.536 722.756 315.536 740.631C315.536 761.631 315.889 773.131 316.536 773.131C317.182 773.131 317.536 761.27 317.536 739.547H317.536ZM303.536 734.631C303.536 705.547 303.139 700.728 301.025 704.148C300.679 704.708 293.115 711.547 284.216 719.346C254.802 745.124 245.536 753.436 245.541 754.037C245.545 754.463 294.987 764.808 302.786 766.015C303.198 766.078 303.536 751.956 303.536 734.631V734.631ZM353.325 761.717C359.533 760.435 364.853 759.147 365.146 758.854C365.828 758.172 359.319 748.172 358.177 748.149C357.438 748.133 343.84 758.823 339.572 762.775C338.3 763.952 338.365 764.125 340.072 764.089C341.152 764.066 347.116 762.999 353.325 761.717V761.717ZM343.816 749.801C349.195 745.973 353.782 742.542 354.008 742.175C354.439 741.479 332.92 708.131 332.04 708.131C331.763 708.131 331.536 719.407 331.536 733.19C331.536 752.967 331.799 758.092 332.786 757.505C333.473 757.095 338.437 753.629 343.816 749.801V749.801ZM386.539 755.037C389.344 754.435 391.504 753.577 391.338 753.13C390.934 752.044 364.536 728.889 364.536 729.622C364.536 730.17 367.803 736.372 375.208 749.881C377.092 753.318 379.264 756.131 380.035 756.131C380.806 756.131 383.733 755.638 386.539 755.037V755.037ZM312.536 576.061V496.991L310.286 497.311L308.036 497.631L307.78 576.381L307.524 655.131H310.03H312.536L312.536 576.061ZM317.536 576.13C317.536 524.13 317.194 497.13 316.536 497.13C315.986 497.13 315.533 497.58 315.53 498.13C315.526 498.68 315.522 534.005 315.522 576.63C315.522 619.255 315.525 654.355 315.53 654.63C315.533 654.906 315.986 655.13 316.536 655.13C317.194 655.13 317.536 628.13 317.536 576.13V576.13ZM310.536 489.302C310.536 488.283 304.66 479.325 303.536 478.631C303.089 478.355 302.933 477.326 303.19 476.345C303.606 474.755 304.974 474.566 315.846 474.596C322.55 474.615 329.948 474.235 332.286 473.753C336.248 472.934 336.536 473.021 336.536 475.042C336.536 476.235 335.617 479.105 334.493 481.42L332.451 485.63L334.971 482.643C340.432 476.166 340.878 470.326 335.814 471.597C326.877 473.84 311.85 473.847 301.834 471.612C298.982 470.976 298.563 471.172 298.004 473.4C297.528 475.295 298.243 477.109 300.956 480.885C302.925 483.625 304.536 486.286 304.536 486.798C304.536 488.326 306.809 490.129 308.736 490.129C309.726 490.129 310.536 489.756 310.536 489.3L310.536 489.302ZM304.369 470.347C304.186 469.916 301.591 466.091 298.602 461.847C294.514 456.042 292.6 454.13 290.872 454.13C288.764 454.13 289.047 454.785 294.305 462.075C297.457 466.445 300.711 470.218 301.536 470.459C304.043 471.193 304.718 471.167 304.369 470.347V470.347ZM342.778 461.64C345.387 457.868 347.32 454.581 347.075 454.336C346.83 454.091 345.595 454.172 344.332 454.516C342.695 454.962 341.106 457.173 338.797 462.216C336.984 466.177 336.103 469.115 336.797 468.894C337.478 468.676 340.17 465.411 342.778 461.64V461.64ZM346.036 448.692C357.712 446.687 370.536 443.119 370.536 441.875C370.536 441.337 369.523 441.186 368.286 441.54C359.34 444.094 344.673 447.223 337.562 448.093C315.793 450.758 289.215 448.304 266.286 441.514C265.11 441.165 264.536 441.544 264.536 442.67C264.536 443.768 265.067 444.141 266.08 443.752C266.929 443.426 271.775 444.238 276.848 445.556C281.922 446.875 289.665 448.44 294.055 449.035C298.444 449.63 303.386 450.31 305.036 450.545C310.97 451.392 337.221 450.205 346.036 448.692V448.692ZM332.286 440.845C333.759 440.789 334.001 439.13 332.536 439.13C331.901 439.13 331.536 431.356 331.536 417.806V396.481L319.786 394.303C313.323 393.105 307.259 392.126 306.308 392.127C304.713 392.13 304.598 393.985 304.808 416.38L305.036 440.63L316.536 441.172C322.861 441.471 328.711 441.53 329.536 441.303C330.361 441.077 331.598 440.871 332.286 440.845L332.286 440.845ZM295.303 415.129C295.136 399.52 294.66 390.035 294.036 389.879C292.997 389.621 291.971 436.216 292.959 438.79C293.241 439.527 293.945 440.13 294.522 440.13C295.232 440.13 295.484 432.072 295.303 415.129V415.129ZM290.536 414.237C290.536 387.612 290.634 388.13 285.591 388.13C283.936 388.13 283.796 389.871 283.617 412.642L283.424 437.154L285.73 438.079C290.665 440.058 290.536 440.697 290.536 414.237V414.237ZM279.303 411.88L279.036 386.63L276.286 386.314L273.536 385.998V410.995V435.991L275.786 436.425C277.023 436.663 278.381 436.92 278.803 436.994C279.225 437.069 279.45 425.768 279.303 411.881L279.303 411.88ZM360.118 436.13C361.286 436.13 361.536 433.139 361.536 419.13C361.536 405.122 361.286 402.13 360.118 402.13C359.337 402.13 357.988 401.857 357.118 401.523C355.711 400.984 355.536 402.933 355.536 419.13C355.536 435.328 355.711 437.277 357.118 436.737C357.988 436.404 359.337 436.13 360.118 436.13ZM337.825 429.131C338.113 428.032 337.94 426.88 337.442 426.572C336.943 426.264 336.536 427.164 336.536 428.571C336.536 431.635 337.106 431.883 337.825 429.131V429.131ZM335.536 429.13C335.536 428.58 335.112 428.13 334.595 428.13C334.077 428.13 333.376 428.58 333.036 429.13C332.696 429.68 333.119 430.13 333.977 430.13C334.834 430.13 335.536 429.68 335.536 429.13ZM337.219 422.943C336.9 422.145 336.663 422.382 336.615 423.547C336.571 424.601 336.808 425.192 337.14 424.86C337.472 424.527 337.508 423.665 337.219 422.943V422.943ZM334.516 420.606C333.82 419.768 333.045 419.288 332.793 419.54C332.1 420.233 333.509 422.13 334.717 422.13C335.38 422.13 335.305 421.557 334.516 420.606H334.516ZM346.116 369.255C404.461 366.616 452.725 364.132 453.369 363.733C454.229 363.202 454.253 362.471 453.459 360.987C452.452 359.105 452.291 359.083 451.126 360.676C450 362.216 439.394 362.87 344.955 367.223C287.25 369.882 237.336 372.074 234.036 372.093L228.036 372.127L225.165 367.583C223.586 365.083 222.097 363.235 221.857 363.475C221.617 363.716 222.835 366.211 224.564 369.021L227.707 374.13L233.872 374.09C237.262 374.068 287.772 371.892 346.116 369.254V369.255ZM344.536 361.587C399.261 359.136 445.512 357.13 447.317 357.13C453.247 357.131 452.153 353.056 445.135 348.998C443.47 348.035 443.515 348.292 445.494 351.072C446.737 352.818 447.592 354.39 447.395 354.565C447.197 354.741 397.986 357.151 338.036 359.92C243.953 364.267 228.82 364.762 227.457 363.543C224.753 361.123 224.062 361.997 226.569 364.666C228.842 367.085 229.32 367.175 236.993 366.623C241.417 366.305 289.811 364.039 344.536 361.587V361.587ZM230.463 356.496C231.603 355.046 232.536 353.082 232.536 352.13C232.536 351.179 231.603 349.214 230.463 347.765C226.4 342.599 218.536 345.59 218.536 352.302C218.536 359.043 226.309 361.777 230.463 356.496ZM222.926 353.704C222.016 351.333 223.303 348.939 225.283 349.32C226.39 349.533 227.036 350.569 227.036 352.13C227.036 354.981 223.88 356.19 222.926 353.704V353.704ZM294.137 352.543C295.718 348.759 294.778 344.95 291.841 343.242C290.848 342.664 290.452 342.178 290.96 342.161C291.468 342.146 290.827 341.005 289.536 339.63C284.692 334.474 274.536 337.992 274.536 344.826C274.536 347.531 277.381 353.619 278.242 352.757C278.55 352.45 279.651 353.278 280.688 354.597C284.33 359.226 291.823 358.082 294.137 352.543ZM287.786 352.5C288.748 352.216 289.536 351.054 289.536 349.918C289.536 348.781 288.748 347.214 287.786 346.436C286.215 345.165 286.272 345.135 288.346 346.143C291.33 347.593 291.102 352.506 288.036 352.815C286.477 352.972 286.422 352.902 287.786 352.5L287.786 352.5ZM277.626 349.457C277.531 347.166 281.977 341.131 283.759 341.131C284.335 341.131 283.625 342.059 282.183 343.193C280.74 344.328 279.145 346.691 278.638 348.443C277.952 350.814 277.693 351.074 277.626 349.457V349.457ZM282.536 349.42C282.536 348.845 283.323 347.758 284.286 347.003C285.905 345.733 285.926 345.78 284.569 347.63C283.762 348.73 282.975 349.818 282.819 350.047C282.663 350.276 282.536 349.994 282.536 349.42ZM268.918 354.481C273.832 354.065 276.466 353.435 276.225 352.731C275.971 351.992 270.623 351.63 259.965 351.63H244.084L237.06 339.64C231.327 329.853 229.981 328.12 229.736 330.212C229.475 332.449 233.643 340.699 241.188 352.88C242.472 354.953 243.316 355.13 251.908 355.13C257.037 355.13 264.692 354.838 268.918 354.481V354.481ZM220.233 345.298C222.33 343.422 223.544 343.085 226.438 343.576L230.036 344.188L226.909 341.283C225.19 339.686 223.349 338.211 222.82 338.005C222.29 337.799 219.929 333.909 217.574 329.36C211.578 317.781 210.12 316.13 205.886 316.13C201.521 316.13 196.536 320.659 196.536 324.623C196.536 327.864 201.8 335.762 204.539 336.631C207.026 337.421 211.536 343.205 211.536 345.607C211.536 346.59 212.526 348.997 213.737 350.956L215.938 354.517L216.782 351.074C217.247 349.18 218.8 346.581 220.233 345.298V345.298ZM256.964 345.559C259.062 343.462 258.905 342.17 256.142 338.792C254.52 336.81 253.099 336.056 251.428 336.292C247.891 336.792 247.676 341.18 251.025 344.529C254.052 347.556 254.832 347.691 256.964 345.559V345.559ZM323.477 344.555C330.602 342.44 337.576 335.538 340.018 328.185C345.633 311.278 333.084 294.218 314.982 294.153C303.541 294.111 293.565 301.55 290.042 312.75C286.666 323.482 291.525 335.883 301.434 341.825C308.98 346.35 314.946 347.089 323.477 344.555ZM306.286 341.968C304.773 341.416 303.536 340.326 303.536 339.547C303.536 337.547 305.194 337.789 307.536 340.131C308.636 341.231 309.536 341.661 309.536 341.087C309.536 339.952 312.692 340.171 313.586 341.367C313.89 341.772 316.589 341.208 319.585 340.113C323.204 338.79 325.155 338.489 325.397 339.215C325.598 339.817 326.299 339.257 326.954 337.97C327.61 336.683 328.861 335.752 329.733 335.9C330.708 336.065 331.265 335.509 331.178 334.458C331.1 333.517 332.088 332.21 333.375 331.552C334.662 330.895 335.199 330.185 334.568 329.975C333.019 329.458 334.382 326.131 336.143 326.131C336.909 326.131 337.536 325.654 337.536 325.072C337.536 324.489 337.023 324.329 336.397 324.716C335.587 325.217 335.446 324.424 335.907 321.966C336.29 319.923 335.957 316.525 335.092 313.65C334.287 310.977 333.902 308.346 334.237 307.805C334.571 307.264 334.385 307.105 333.824 307.452C333.262 307.799 331.998 307.194 331.014 306.107C329.993 304.978 329.721 304.13 330.381 304.13C331.016 304.13 331.536 303.59 331.536 302.93C331.536 302.057 331.236 302.03 330.435 302.832C329.633 303.633 328.371 303.28 325.795 301.532C323.849 300.211 321.532 299.124 320.646 299.115C319.283 299.104 319.258 298.959 320.484 298.184C321.433 297.583 320.399 297.434 317.484 297.75C308.608 298.714 306.678 299.223 303.354 301.479C301.493 302.742 299.411 303.664 298.728 303.528C298.005 303.384 297.94 303.501 298.572 303.809C299.276 304.152 299.062 304.996 297.963 306.21C297.031 307.24 295.848 307.824 295.335 307.506C294.822 307.189 294.485 307.537 294.587 308.28C295.011 311.366 294.446 313.13 293.036 313.13C291.118 313.13 291.145 312.811 293.444 308.34C295.951 303.466 301.008 298.686 302.609 299.676C303.388 300.157 303.59 300.027 303.155 299.323C302.712 298.606 304.496 297.616 308.137 296.558C328.45 290.653 346.053 311.485 336.504 330.13C334.132 334.761 328.916 339.662 324.318 341.58C320.181 343.305 310.517 343.513 306.286 341.968L306.286 341.968ZM297.82 336.29C295.284 333.83 293.146 330.473 292.092 327.298C290.177 321.534 290.351 315.011 292.438 314.324C293.508 313.972 293.7 314.559 293.251 316.808C292.927 318.428 293.122 321.526 293.685 323.692C294.247 325.858 294.766 328.397 294.836 329.333C294.907 330.269 295.165 330.835 295.411 330.589C296.276 329.724 298.642 334.15 297.93 335.302C297.466 336.053 297.728 336.271 298.664 335.912C300.648 335.15 303.589 337.427 302.629 338.981C302.088 339.855 300.683 339.069 297.82 336.29H297.82ZM310.915 338.123C304.375 337.183 298.649 332.641 295.958 326.258C292.253 317.473 296.315 306.377 304.87 301.91C309.909 299.28 318.56 299.047 323.137 301.421C327.484 303.674 332.236 309.388 333.476 313.853C334.78 318.55 334.782 319.705 333.491 324.35C330.915 333.626 321.135 339.592 310.914 338.123H310.915ZM309.02 315.352C314.427 314.456 316.284 314.573 321.217 316.122C326.284 317.712 326.616 317.96 323.786 318.039C321.998 318.09 320.536 318.53 320.536 319.017C320.536 319.979 326.56 321.171 327.786 320.453C328.198 320.211 328.536 319.224 328.536 318.26C328.536 315.366 314.635 312.641 307.038 314.046C303.81 314.642 301.104 315.131 301.025 315.131C300.947 315.131 301.131 316.593 301.435 318.381C301.949 321.401 302.011 321.446 302.315 319.02C302.612 316.646 303.22 316.313 309.02 315.352ZM316.536 319.083C316.536 318.624 316.047 317.946 315.449 317.577C314.06 316.719 312.103 318.621 312.955 320C313.665 321.148 316.536 320.413 316.536 319.083ZM436.336 337.634C439.25 337.247 441.489 336.491 441.31 335.955C440.931 334.816 440.568 334.801 434.261 335.668C430.211 336.225 429.243 336.803 427.884 339.478L426.281 342.631L428.659 340.485C430.107 339.178 433.106 338.064 436.336 337.634V337.634ZM366.999 338.171C370.018 334.835 366.339 327.131 361.727 327.131C356.029 327.131 354.406 333.819 359.161 337.707C362.696 340.599 364.695 340.717 366.999 338.171ZM418.709 336.524C419.164 336.242 419.536 332.65 419.536 328.54C419.536 322.733 419.192 320.936 417.995 320.477C417.148 320.152 409.836 320.278 401.745 320.758L387.036 321.63L386.425 328.63C386.089 332.48 386.05 336.258 386.337 337.024C386.769 338.175 389.563 338.298 402.371 337.726C410.903 337.346 418.254 336.804 418.709 336.523L418.709 336.524ZM380.613 326.208C384.449 322.372 384.409 318.85 380.487 314.928C378.518 312.959 378.075 312.104 379.237 312.512C380.257 312.871 379.622 311.843 377.77 310.138C369.471 302.496 357.816 311.391 363.197 321.259L365.036 324.631L365.356 320.631C365.649 316.965 368.668 312.131 370.665 312.131C371.094 312.131 370.34 313.235 368.99 314.585C365.551 318.025 365.636 323.392 369.182 326.678C372.82 330.05 376.939 329.881 380.613 326.208V326.208ZM372.101 323.202C369.991 320.871 370.773 317.508 373.635 316.599C375.708 315.941 378.536 317.583 378.536 319.444C378.536 320.032 377.926 319.679 377.18 318.659C376.34 317.511 375.191 317.049 374.158 317.445C371.592 318.43 371.104 320.996 373.07 323.168C374.046 324.247 374.621 325.131 374.346 325.131C374.071 325.131 373.06 324.263 372.101 323.202V323.202ZM376.746 322.731C377.456 321.962 378.193 321.482 378.386 321.665C378.979 322.228 377.476 324.131 376.437 324.131C375.898 324.131 376.037 323.501 376.746 322.731H376.746ZM373.286 311.468C373.973 311.191 375.098 311.191 375.786 311.468C376.473 311.746 375.911 311.973 374.536 311.973C373.161 311.973 372.598 311.745 373.286 311.468V311.468ZM199.8 315.179C202.163 313.684 209.249 312.009 213.678 311.898C216.289 311.833 216.329 311.721 217.018 302.531C217.401 297.415 217.464 292.824 217.158 292.328C216.496 291.258 207.592 287.74 207.012 288.32C206.791 288.541 206.229 292.301 205.762 296.676L204.912 304.63L204.106 292.907C203.303 281.245 203.288 281.191 201.191 282.659C199.837 283.607 197.946 283.923 195.907 283.54L192.731 282.945L192.139 288.788C191.813 292.001 191.503 297.441 191.451 300.877C191.399 304.312 190.947 307.376 190.446 307.686C189.945 307.995 189.542 308.784 189.551 309.439C189.558 310.155 189.953 310.032 190.536 309.13C191.245 308.033 191.509 308.779 191.52 311.912C191.528 314.268 192.248 317.868 193.118 319.912L194.701 323.63L196.133 320.112C196.92 318.176 198.571 315.957 199.8 315.179L199.8 315.179ZM196.635 303.821C196.572 298.18 196.895 295.235 197.536 295.63C198.703 296.352 198.703 306.486 197.536 310.13C196.995 311.818 196.703 309.769 196.635 303.821V303.821ZM252.536 320.63C252.536 319.153 249.797 317.851 248.446 318.686C247.116 319.508 247.335 321.894 248.786 322.4C250.599 323.032 252.536 322.119 252.536 320.63H252.536ZM220.496 320.678C221.165 319.872 221.404 318.29 221.033 317.12C220.055 314.04 215.163 314.733 214.698 318.017C214.178 321.697 218.141 323.516 220.496 320.678V320.678ZM343.901 259.497C344.2 256.086 343.931 251.647 343.294 249.497L342.15 245.63L341.593 249.13L341.036 252.63L286.823 254.13L232.611 255.63L232.323 248.63C231.961 239.802 230.036 239.786 230.036 248.612V255.075L224.883 249.984C219.996 245.154 217.536 244.406 217.536 247.749C217.536 248.575 219.851 251.698 222.681 254.69L227.826 260.131H239.598C250.861 260.131 295.855 258.833 326.536 257.624L341.036 257.052L340.696 282.205C340.509 296.039 340.715 308.995 341.15 310.994C341.672 313.382 342.188 306.221 342.654 290.131C343.044 276.656 343.606 262.87 343.901 259.497L343.901 259.497ZM228.977 256.556C227.909 255.691 227.695 255.327 228.502 255.749C229.308 256.171 231.558 256.827 233.502 257.208C237.017 257.897 237.019 257.901 233.977 258.015C232.295 258.079 230.045 257.422 228.977 256.556ZM260.286 256.393C263.173 256.191 267.898 256.191 270.786 256.393C273.673 256.595 271.311 256.761 265.536 256.761C259.761 256.761 257.398 256.595 260.286 256.393ZM299.286 255.398C301.623 255.188 305.448 255.188 307.786 255.398C310.123 255.609 308.211 255.781 303.536 255.781C298.861 255.781 296.948 255.609 299.286 255.398ZM329.286 254.425C330.523 254.186 332.548 254.186 333.786 254.425C335.023 254.663 334.011 254.858 331.536 254.858C329.061 254.858 328.048 254.663 329.286 254.425ZM337.786 254.441C338.748 254.189 340.323 254.189 341.286 254.441C342.248 254.693 341.461 254.898 339.536 254.898C337.611 254.898 336.823 254.693 337.786 254.441V254.441ZM89.1443 309.166C91.4039 308.177 94.4413 305.81 95.8942 303.905C99.9394 298.601 99.0335 298.283 94.5122 303.42C89.9984 308.548 85.9013 310.297 78.2312 310.372C74.0829 310.413 73.6404 310.558 76.0357 311.093C79.9857 311.976 84.1095 311.37 89.1443 309.166V309.166ZM83.4107 308.505C85.1295 308.162 86.5358 307.593 86.5358 307.243C86.5358 306.892 83.645 305.777 80.1118 304.766C76.5786 303.754 71.4037 301.868 68.6119 300.574C62.6466 297.81 62.0709 299.013 67.0921 303.748C71.8893 308.273 77.0511 309.777 83.4107 308.505V308.505ZM365.964 306.559C367.823 304.7 367.839 304.566 366.501 302.065C364.641 298.589 358.536 300.173 358.536 304.13C358.536 307.883 363.136 309.387 365.964 306.559V306.559ZM290.945 306.278C291.768 304.946 288.976 301.74 287.687 302.537C285.738 303.741 286.321 307.13 288.477 307.13C289.544 307.13 290.655 306.747 290.945 306.278V306.278ZM183.12 304.409C187.533 303.954 188.536 303.506 188.536 301.99C188.536 300.967 189.076 300.13 189.736 300.13C190.669 300.13 190.669 299.863 189.736 298.93C188.073 297.267 188.237 295.119 190.191 292.959C191.181 291.865 191.382 291.13 190.691 291.13C189.993 291.13 189.536 289.396 189.536 286.753C189.536 284.082 188.951 281.89 188.036 281.13C185.885 279.345 186.151 274.513 188.491 272.874C190.388 271.545 190.315 271.252 185.991 262.923L181.536 254.342L169.088 254.879L156.64 255.417L154.903 251.774C152.915 247.606 153.059 247.628 141.036 249.65C126.497 252.096 127.892 251.124 127.094 259.367C125.732 273.429 119.437 287.589 110.083 297.634C107.596 300.305 105.697 302.625 105.864 302.792C107.779 304.707 168.014 305.969 183.12 304.41V304.409ZM368.567 282.629C384.633 281.94 385.536 281.795 385.536 279.899C385.536 278.22 385.092 278.005 382.786 278.564C381.273 278.93 373.736 279.446 366.036 279.711L352.036 280.192L352.344 268.161C352.614 257.655 352.868 256.129 354.345 256.122C355.275 256.117 358.375 255.832 361.235 255.488L366.433 254.864L366.792 261.247L367.15 267.63L367.523 260.63L367.897 253.63L368.536 261.13L369.176 268.63L369.356 261.38L369.536 254.13L376.536 254.005C384.955 253.855 385.17 253.83 386.12 252.88C386.532 252.468 382.97 252.13 378.203 252.13H369.536V247.13V242.13H375.411C378.643 242.13 382.693 241.849 384.411 241.505C386.886 241.01 387.536 241.219 387.536 242.505C387.536 243.701 388.477 244.13 391.094 244.13H394.651L394.344 239.916C394.058 236.005 393.79 235.652 390.613 235.007C388.73 234.625 386.113 234.721 384.797 235.221C383.482 235.721 380.41 236.13 377.971 236.13C375.532 236.13 373.536 236.58 373.536 237.13C373.536 237.68 372.186 238.13 370.536 238.13C368.027 238.13 367.536 237.733 367.536 235.704C367.536 232.34 362.742 230.13 355.442 230.13C349.615 230.13 347.365 231.359 349.423 233.417C350.19 234.185 350.603 245.576 350.75 270.08C350.868 289.633 351.107 300.619 351.282 294.494L351.6 283.357L368.567 282.629ZM352.536 248.744V243.13H359.536H366.536V248.13C366.536 252.216 366.216 253.135 364.786 253.155C363.823 253.168 360.673 253.444 357.786 253.768L352.536 254.357V248.744ZM367.822 247.63C367.829 244.88 368.024 243.874 368.253 245.394C368.483 246.914 368.477 249.164 368.238 250.394C368.001 251.624 367.813 250.38 367.82 247.63H367.822ZM352.536 237.63C352.536 235.202 352.736 235.13 359.536 235.13C366.336 235.13 366.536 235.202 366.536 237.63C366.536 240.059 366.336 240.13 359.536 240.13C352.736 240.13 352.536 240.059 352.536 237.63ZM427.527 299.422C429.923 298.796 429.185 297.13 426.512 297.13C424.206 297.13 422.123 300.647 423.059 302.958C423.633 304.377 423.873 304.275 424.639 302.286C425.135 300.997 426.435 299.708 427.527 299.422V299.422ZM231.816 294.381C231.696 289.568 231.583 280.343 231.567 273.88C231.548 266.734 231.144 262.13 230.536 262.13C229.447 262.13 229.115 296.957 230.166 300.88C231.387 305.437 232.03 302.905 231.817 294.381H231.816ZM406.081 300.676C409.205 297.552 409.187 294.553 406.016 289.888C402.87 285.257 400.248 283.815 396.478 284.643C391.393 285.76 389.036 291.459 391.643 296.331C392.439 297.818 392.965 298.054 393.511 297.171C394.023 296.342 394.47 296.734 394.882 298.373C396.075 303.126 402.342 304.415 406.081 300.676H406.081ZM398.506 297.595C396.851 295.6 398.289 292.757 401.143 292.382C402.527 292.199 402.411 292.4 400.711 293.127C399.282 293.738 398.517 294.792 398.723 295.864C399.143 298.044 402.476 298.784 403.742 296.979C404.503 295.894 404.609 295.924 404.284 297.13C403.712 299.249 400.119 299.538 398.506 297.595V297.595ZM393.551 294.055C393.532 292.126 397.629 288.125 399.6 288.145C400.39 288.153 399.92 288.725 398.555 289.415C397.191 290.105 395.51 291.786 394.82 293.15C394.05 294.672 393.56 295.022 393.551 294.055V294.055ZM238.465 294.381L238.536 290.131L243.786 290.119C246.673 290.112 261.186 289.689 276.036 289.179C290.886 288.669 308.661 288.112 315.536 287.942L328.036 287.632L328.654 291.132L329.273 294.632L329.404 291.211C329.477 289.329 330.28 286.966 331.191 285.961C333.229 283.708 337.391 283.737 284.036 285.635C261.486 286.437 240.786 287.116 238.036 287.144C233.662 287.189 233.255 287.362 234.786 288.524C236.115 289.533 236.552 291.387 236.606 296.242C236.685 303.446 238.343 301.788 238.465 294.382L238.465 294.381ZM338.221 297.483C337.331 296.593 335.536 298.116 335.536 299.761C335.536 301.067 335.757 301.052 337.155 299.654C338.045 298.764 338.525 297.787 338.221 297.483V297.483ZM97.2545 295.574C98.064 293.263 98.3734 290.201 98.0022 288.177C97.1806 283.697 93.8433 277.186 92.008 276.482C91.1853 276.166 88.6157 277.651 85.9999 279.953C83.486 282.166 79.4298 284.799 76.9862 285.804C74.5425 286.808 72.5416 287.865 72.5395 288.15C72.5282 289.861 92.7875 300.364 94.9546 299.77C95.46 299.631 96.495 297.743 97.2545 295.574V295.574ZM40.3042 297.583C45.7844 295.293 51.6826 288.886 51.4915 285.43C51.4689 284.99 50.5993 286.235 49.5628 288.195C48.5262 290.156 45.7704 293.081 43.4386 294.695C39.6956 297.287 38.3442 297.631 31.9037 297.631C27.8913 297.631 25.3796 297.936 26.3221 298.31C29.4045 299.533 36.5234 299.163 40.3042 297.583ZM39.2206 295.067C42.397 293.867 47.5375 289.307 47.5324 287.693C47.5304 287.109 44.4247 283.423 40.6306 279.502C35.307 274.002 33.2148 270.956 31.4665 266.161C29.2558 260.098 29.1272 259.962 26.1459 260.559C22.4338 261.301 16.7969 266.466 14.9166 270.848C11.2436 279.408 15.6726 291.002 24.0358 294.719C27.6816 296.339 35.3857 296.516 39.2206 295.067V295.067ZM376.639 292.332C374.754 291.703 372.536 292.941 372.536 294.622C372.536 295.984 372.862 295.963 375.172 294.449C376.622 293.499 377.283 292.546 376.639 292.332ZM455.909 286.749C463.207 281.53 467.249 276.69 472.485 266.902C475.832 260.645 479.966 248.881 481.91 240.079C483.6 232.43 485.885 213.578 488.081 189.152C491.292 153.446 493.551 136.152 496.059 128.088C496.473 126.756 494.866 126.544 484.287 126.535C473.007 126.525 471.288 126.262 462.602 123.219C454.654 120.435 452.999 120.136 452.102 121.325C442.561 133.952 416.902 165.769 413.416 169.294C408.089 174.681 400.987 178.568 394.536 179.628C392.061 180.034 388.713 181.045 387.095 181.873C384.265 183.322 384.228 183.431 386.095 184.762C390.972 188.239 394.629 192.747 395.639 196.524C396.947 201.416 397.887 203.548 400.656 207.893C404.67 214.192 402.565 222.131 396.881 222.131C394.971 222.131 394.536 222.658 394.536 224.97C394.536 227.072 395.225 228.123 397.19 229.019C404.933 232.547 418.113 243.503 422.299 249.892C423.172 251.225 427.853 254.982 432.7 258.241C443.315 265.378 445.096 267.772 444.866 274.589C444.737 278.399 445.18 280.152 446.682 281.766C448.248 283.449 448.526 284.668 447.991 287.516C447.092 292.312 448.293 292.196 455.909 286.749V286.749ZM442.422 285.536C443.547 285.173 443.491 284.739 442.124 283.228C441.198 282.204 439.99 279.739 439.441 277.749L438.442 274.131H430.93C426.328 274.131 423.65 274.507 424.018 275.101C424.983 276.663 421.628 282.306 420.244 281.45C419.061 280.719 413.444 280.925 412.615 281.73C412.384 281.954 413.189 283.196 414.404 284.49C416.538 286.761 417.028 286.826 428.824 286.412C435.541 286.176 441.66 285.782 442.422 285.536L442.422 285.536ZM76.0357 282.633C78.7857 281.382 81.9357 279.635 83.0357 278.75C84.1358 277.866 81.9655 278.716 78.2131 280.636C73.4113 283.096 70.0616 284.131 66.9041 284.131C64.3787 284.131 62.6701 284.539 62.9951 285.065C63.8452 286.44 70.3201 285.233 76.0357 282.633ZM49.5358 281.763C49.5358 281.562 47.7357 280.205 45.5357 278.749C43.3358 277.293 41.5358 276.317 41.5358 276.58C41.5358 277.02 48.656 282.131 49.2679 282.131C49.4153 282.131 49.5359 281.965 49.5359 281.764L49.5358 281.763ZM74.0357 280.088C76.2357 278.993 77.1357 278.398 76.0357 278.766C74.9358 279.133 71.5607 280.003 68.5357 280.698C63.771 281.794 63.5036 281.971 66.5357 282.021C68.4607 282.051 71.8357 281.182 74.0357 280.088ZM391.016 280.958C392.985 280.061 393.866 280.061 394.763 280.958C395.408 281.603 397.421 282.131 399.236 282.131C402.833 282.131 403.47 280.599 401.311 277.142C399.807 274.735 401.498 272.518 404.082 273.51C405.286 273.972 405.57 274.79 405.085 276.393C403.747 280.813 403.983 281.624 406.7 281.939C408.669 282.166 409.534 281.71 410.017 280.189C410.472 278.754 411.522 278.131 413.481 278.131C415.026 278.131 416.825 277.487 417.478 276.7C419.209 274.614 415.299 272.765 410.902 273.59C408.291 274.079 406.862 273.745 404.873 272.181C401.406 269.454 398.933 269.594 396.944 272.631C395.044 275.53 393.989 275.727 391.843 273.581C389.017 270.754 387.064 272.209 386.731 277.39C386.406 282.444 386.883 282.841 391.016 280.958V280.958ZM70.7496 278.088C72.7922 277.521 74.7079 276.661 75.0065 276.178C75.5075 275.367 71.8542 276.296 67.0357 278.203C64.1194 279.358 66.4357 279.286 70.7496 278.088V278.088ZM380.56 277.601C381.531 276.431 381.565 275.49 380.704 273.601C378.877 269.591 372.536 270.778 372.536 275.131C372.536 278.876 378.085 280.584 380.561 277.601H380.56ZM198.045 268.055C198.667 263.089 198.855 258.828 198.465 258.587C197.619 258.064 196.83 262.115 195.927 271.631C194.971 281.703 196.704 278.777 198.045 268.055ZM442.522 274.822C442.492 269.783 441.127 268.125 432.137 262.197C427.077 258.861 422.427 256.131 421.804 256.131C421.18 256.131 420.407 255.301 420.086 254.288C418.591 249.578 398.997 233.131 394.881 233.131C393.199 233.131 393.205 233.268 395.03 236.766C397.226 240.977 396.987 245.2 394.517 245.846C392.726 246.314 392.571 246.915 393.137 251.184L393.775 255.996L389.906 256.313L386.036 256.631L385.731 262.538L385.427 268.445L400.878 267.841C415.614 267.266 416.354 267.328 416.839 269.184C417.301 270.951 418.282 271.131 427.458 271.131H437.568L439.217 274.588C440.982 278.288 442.544 278.399 442.522 274.822V274.822ZM268.355 274.37C268.748 271.621 266.982 271.427 265.571 274.065C264.128 276.761 264.269 277.328 266.286 276.944C267.248 276.76 268.18 275.602 268.355 274.37V274.37ZM265.926 270.952C265.252 269.863 262.777 271.06 262.11 272.798C261.031 275.61 262.766 276.477 264.601 274.045C265.579 272.748 266.175 271.356 265.926 270.952ZM112.628 271.803C116.994 269.497 122.46 263.021 122.48 260.131C122.487 259.306 121.759 260.115 120.864 261.93C118.655 266.413 111.954 271.961 107.811 272.739C104.395 273.379 97.7632 272.892 94.0358 271.726C92.9358 271.382 93.3857 271.764 95.0357 272.57C99.7005 274.856 107.491 274.516 112.628 271.803V271.803ZM195.104 263.459C196.718 252.066 196.903 247.323 195.679 248.68C194.833 249.62 192.536 266.468 192.536 271.739C192.536 277.019 193.727 273.178 195.104 263.459ZM111.667 269.548C113.114 268.808 115.464 266.816 116.89 265.121C119.436 262.095 122.342 254.603 121.353 253.614C121.076 253.337 115.766 253.903 109.553 254.871L98.257 256.631L97.0793 261.131C96.4316 263.606 95.5702 266.624 95.1649 267.838C94.5349 269.725 94.9072 270.187 97.7319 271.02C101.563 272.149 107.887 271.482 111.667 269.548ZM60.3367 265.442C62.4603 262.116 62.6888 259.12 60.8172 259.138C59.9018 259.147 55.5358 266.538 55.5358 268.079C55.5358 270.313 58.1397 268.883 60.3367 265.442V265.442ZM67.6131 258.053C68.8058 256.86 69.4349 255.31 69.0904 254.412C68.7605 253.552 69.1365 251.863 69.926 250.658C71.9295 247.6 70.2646 244.751 68.1579 247.632C67.0919 249.09 66.9924 249.976 67.7868 250.933C68.6757 252.004 68.3895 252.021 66.2081 251.027C63.9438 249.995 63.2431 250.085 61.5399 251.627C59.1025 253.833 58.9957 255.876 61.1906 258.302C63.3413 260.678 65.0543 260.612 67.613 258.053L67.6131 258.053ZM63.5358 257.489C64.3608 257.165 65.6387 256.165 66.3756 255.265C67.5878 253.786 67.6821 253.821 67.3654 255.63C67.1397 256.92 66.1304 257.71 64.5255 257.854C63.1561 257.977 62.7108 257.813 63.5358 257.489V257.489ZM189.347 254.13C187.319 249.251 187.168 249.13 183.058 249.13C173.064 249.13 157.536 250.513 157.536 251.403C157.536 252.017 162.847 252.107 172.036 251.647C180.011 251.249 186.537 251.307 186.54 251.776C186.543 252.833 190.334 259.13 190.966 259.13C191.218 259.13 190.49 256.88 189.347 254.13V254.13ZM203.286 255.88C202.656 253.988 199.536 253.719 199.536 255.557C199.536 256.485 200.391 257.13 201.619 257.13C202.841 257.13 203.53 256.614 203.286 255.88V255.88ZM39.3256 253.228C42.9135 251.388 45.6672 248.801 48.4789 244.63C49.2205 243.53 48.299 244.277 46.4315 246.29C41.3615 251.754 38.0437 253.414 30.6901 254.166L24.0358 254.846L29.8256 254.988C33.7799 255.085 36.7917 254.527 39.3256 253.228V253.228ZM215.536 254.13C215.536 253.58 214.523 253.124 213.286 253.117C212.048 253.109 210.033 252.834 208.807 252.506C206.617 251.919 206.574 251.59 206.307 233.352C206.106 219.594 205.713 214.688 204.786 214.38C203.814 214.056 203.536 218.392 203.536 233.88C203.536 244.835 203.836 254.097 204.202 254.464C205.272 255.533 215.536 255.231 215.536 254.13V254.13ZM29.9022 248.241C31.0153 241.279 34.3877 235.102 40.1418 229.484C45.592 224.163 45.6944 223.963 43.9549 222.041C40.2351 217.931 35.5558 215.867 30.0671 215.917C24.1203 215.97 20.3154 217.599 16.3494 221.791C7.0103 231.662 11.8744 248.32 25.1842 252.048C28.9061 253.09 29.1594 252.886 29.9022 248.241V248.241ZM245.846 247.722C249.25 247.417 266.661 246.71 284.536 246.151C302.411 245.593 321.198 244.868 326.286 244.54L335.536 243.944L335.685 246.787L335.835 249.63L336.245 246.954C336.47 245.481 337.302 243.739 338.095 243.081C339.866 241.611 339.986 240.05 338.285 240.591C337.598 240.809 314.31 241.757 286.535 242.696C258.76 243.635 235.811 244.603 235.537 244.848C235.263 245.093 235.825 245.869 236.787 246.572C237.749 247.276 238.597 248.926 238.671 250.241C238.8 252.486 238.833 252.499 239.231 250.454C239.597 248.576 240.505 248.201 245.845 247.722H245.846ZM162.966 244.244C163.718 243.026 160.871 240.805 159.58 241.603C157.937 242.618 158.362 244.411 160.088 243.749C160.978 243.407 161.379 243.575 161.029 244.142C160.693 244.686 160.868 245.13 161.418 245.13C161.968 245.13 162.664 244.731 162.966 244.244V244.244ZM218.536 226.678C218.536 212.193 218.782 209.25 220.036 208.769C220.861 208.452 221.536 207.543 221.536 206.749C221.536 205.564 221.005 205.504 218.581 206.419C216.304 207.279 215.876 207.835 216.714 208.845C217.466 209.752 217.587 215.578 217.106 227.741C216.619 240.063 216.729 245.129 217.473 244.669C218.157 244.246 218.536 237.835 218.536 226.678V226.678ZM195.536 234.939C195.536 232.383 195.859 232.13 199.119 232.13C201.539 232.13 202.569 231.724 202.291 230.88C201.784 229.342 192.648 228.618 191.26 230.006C189.747 231.519 190.04 239.203 191.649 240.218C193.494 241.382 195.536 238.608 195.536 234.939ZM289.609 239.129C311.374 238.58 332.138 238.13 335.752 238.13C340.086 238.13 342.485 237.705 342.8 236.88C343.422 235.257 340.511 226.13 339.371 226.13C338.891 226.13 338.736 227.143 339.027 228.38C340.132 233.079 340.026 233.095 300.971 234.102C280.657 234.625 256.517 235.322 247.327 235.651L230.618 236.247L226.121 232.102C223.648 229.823 221.155 228.248 220.58 228.603C218.448 229.921 219.657 232.987 223.82 236.825L228.105 240.775L239.071 240.451C245.101 240.273 267.844 239.678 289.609 239.129V239.129ZM226.941 235.88C225.052 233.65 225.053 233.644 227.036 235.25C228.136 236.141 229.711 237.118 230.536 237.421C231.809 237.889 231.794 237.984 230.441 238.051C229.564 238.095 227.988 237.118 226.941 235.88V235.88ZM241.319 237.392C244.225 237.189 248.725 237.192 251.319 237.397C253.913 237.602 251.536 237.768 246.036 237.765C240.536 237.762 238.413 237.595 241.319 237.392V237.392ZM276.822 236.39C280.005 236.191 284.955 236.193 287.822 236.395C290.69 236.596 288.086 236.759 282.036 236.756C275.986 236.754 273.64 236.59 276.822 236.39V236.39ZM313.822 235.39C317.005 235.191 321.955 235.193 324.822 235.395C327.69 235.596 325.086 235.759 319.036 235.756C312.986 235.754 310.64 235.589 313.822 235.39V235.39ZM84.6834 235.651C88.3602 233.218 92.5283 227.894 92.5283 225.63C92.5283 225.08 91.573 226.197 90.4054 228.113C86.9229 233.825 81.8773 236.949 74.0744 238.223L69.0358 239.046L74.8943 238.649C79.0551 238.368 81.892 237.499 84.6834 235.651V235.651ZM68.2649 237.526C67.9327 237.194 67.0701 237.158 66.3483 237.447C65.5505 237.767 65.7875 238.004 66.9524 238.052C68.0066 238.095 68.5972 237.859 68.2649 237.526V237.526ZM45.6633 233.38C46.9072 231.794 46.8719 231.759 45.2858 233.003C43.62 234.309 43.0903 235.13 43.9133 235.13C44.1208 235.13 44.9085 234.343 45.6633 233.38V233.38ZM180.89 232.678C184.345 229.476 184.423 224.927 181.081 221.585C178.082 218.585 174.666 218.454 171.171 221.203C167.632 223.987 167.549 229.235 170.99 232.676C174.111 235.796 177.525 235.797 180.89 232.678L180.89 232.678ZM177.536 232.701C177.536 232.426 178.436 231.719 179.536 231.13C180.636 230.542 181.536 230.285 181.536 230.56C181.536 230.835 180.636 231.542 179.536 232.131C178.436 232.719 177.536 232.976 177.536 232.701ZM232.77 221.652L233.036 212.673L237.536 211.998C240.011 211.626 262.437 210.794 287.371 210.148C329.939 209.046 332.823 209.08 334.621 210.707C335.692 211.677 336.536 211.942 336.536 211.309C336.536 210.686 335.461 209.472 334.148 208.612C332.012 207.212 327.185 207.156 288.398 208.079C240.71 209.213 233.162 209.671 231.62 211.529C230.36 213.048 229.989 232.461 231.185 234.313C232.202 235.888 232.395 234.35 232.77 221.652H232.77ZM68.2858 233.441C67.3233 233.19 65.7482 233.19 64.7857 233.441C63.8232 233.693 64.6107 233.898 66.5357 233.898C68.4607 233.898 69.2483 233.693 68.2858 233.441V233.441ZM74.5357 232.131C73.7107 231.597 72.5858 231.161 72.0358 231.161C71.4858 231.161 71.7108 231.597 72.5358 232.131C73.3608 232.664 74.4857 233.1 75.0357 233.1C75.5857 233.1 75.3608 232.664 74.5357 232.131ZM79.5358 231.111C74.8681 227.423 59.7047 224.417 58.1938 226.88C57.941 227.293 60.804 227.664 64.5563 227.705C69.8931 227.763 72.4302 228.344 76.2073 230.371C82.0901 233.528 82.7928 233.684 79.5358 231.111V231.111ZM22.3985 211.899C35.0064 200.005 43.8274 196.284 62.0358 195.177L74.0357 194.447L64.5358 194.304C52.825 194.127 44.5071 195.991 35.1388 200.892C26.2266 205.554 15.2285 216.334 10.7762 224.77C6.20028 233.441 6.76104 234.075 11.4802 225.566C13.9804 221.059 17.9315 216.113 22.3985 211.899V211.899ZM138.209 231.05C147.799 230.862 148.876 230.48 155.38 224.945C161.373 219.846 158.237 219.63 150.812 224.63C145.652 228.105 145.535 228.13 134.575 228.13C126.042 228.13 123.536 228.433 123.536 229.464C123.536 231.491 124.758 232.291 127.006 231.734C128.122 231.457 133.164 231.149 138.209 231.05V231.05ZM45.6633 229.38C46.9072 227.794 46.8719 227.759 45.2858 229.003C43.62 230.309 43.0903 231.13 43.9133 231.13C44.1208 231.13 44.9085 230.343 45.6633 229.38V229.38ZM64.1795 229.336C63.1586 229.12 61.887 229.379 61.3537 229.912C60.7276 230.539 61.384 230.678 63.2099 230.306C65.3029 229.879 65.5543 229.628 64.1795 229.336ZM69.7857 230.468C69.0982 230.191 67.9733 230.191 67.2858 230.468C66.5983 230.746 67.1606 230.973 68.5357 230.973C69.9107 230.973 70.4732 230.746 69.7857 230.468ZM82.4751 229.557C79.5878 226.078 73.1265 223.79 64.9179 223.339C60.4532 223.094 56.5468 223.304 56.2369 223.805C55.9115 224.331 58.2853 224.551 61.8547 224.325C68.4097 223.909 78.4631 226.629 81.4637 229.63C83.4412 231.607 84.1351 231.558 82.4751 229.557V229.557ZM385.439 226.38C388.857 223.565 389.689 218.912 387.437 215.208C385.147 211.443 385.019 210.456 387.036 212.13C387.861 212.815 388.536 213.847 388.536 214.424C388.536 218.398 395.909 220.614 398.964 217.559C402.841 213.682 397.983 204.13 392.135 204.13C389.574 204.13 386.198 206.643 385.353 209.178C385.038 210.123 384.057 209.836 381.741 208.124C379.991 206.831 378.267 206.066 377.907 206.425C377.548 206.785 375.978 205.065 374.417 202.604C371.285 197.665 367.79 196.685 364.365 199.785C361.392 202.476 362.086 206.169 366.286 210.002C368.348 211.884 369.473 213.107 368.786 212.718C366.971 211.694 367.151 218.239 369.004 220.689C370.433 222.579 370.473 222.569 370.504 220.341C370.534 218.154 373.181 212.321 375.591 209.13C376.569 207.837 376.651 207.861 376.189 209.308C375.74 210.716 376.246 210.92 379.345 210.575L383.036 210.165L379.551 211.069C375.357 212.158 371.536 216.302 371.536 219.763C371.536 223.316 376.606 228.13 380.348 228.13C381.979 228.13 384.27 227.343 385.439 226.38L385.439 226.38ZM377.978 222.712C376.912 221.932 376.263 221.09 376.537 220.841C376.811 220.592 377.902 221.23 378.961 222.259C381.238 224.473 380.716 224.714 377.978 222.712V222.712ZM382.625 221.315C383.909 219.208 383.824 218.827 381.675 217.065C380.377 216.001 379.782 215.13 380.354 215.13C381.82 215.13 384.536 218.02 384.536 219.579C384.536 220.298 383.788 221.503 382.875 222.258C381.353 223.516 381.332 223.438 382.625 221.315H382.625ZM391.536 213.689C391.536 212.897 391.944 211.996 392.443 211.688C392.941 211.38 393.114 212.028 392.826 213.129C392.215 215.464 391.536 215.759 391.536 213.689V213.689ZM395.408 211.38C394.164 209.794 394.2 209.759 395.786 211.003C397.452 212.309 397.981 213.13 397.158 213.13C396.951 213.13 396.163 212.343 395.408 211.38V211.38ZM388.536 210.753C388.536 210.545 389.323 209.758 390.286 209.003C391.872 207.759 391.907 207.794 390.663 209.38C389.357 211.046 388.536 211.576 388.536 210.753L388.536 210.753ZM364.536 205.452C364.536 204.896 365.548 203.583 366.786 202.535L369.036 200.63L367.046 203.13C365.952 204.505 364.94 205.818 364.796 206.047C364.653 206.276 364.536 206.009 364.536 205.452H364.536ZM90.4379 223.981C95.8371 208.493 79.7393 194.013 65.0353 201.131C59.0197 204.043 55.1709 209.701 55.093 215.747L55.0359 220.181L64.1 220.406C72.1493 220.605 73.8288 220.987 79.1 223.819C86.8654 227.99 89.0299 228.021 90.438 223.981L90.4379 223.981ZM367.394 220.386C366.332 218.321 365.662 215.843 365.905 214.88C366.171 213.833 365.784 213.13 364.942 213.13C364.169 213.13 363.536 213.817 363.536 214.655C363.536 215.494 362.411 216.608 361.036 217.13C358.175 218.218 358.205 218.129 359.537 221.632C360.301 223.644 361.004 224.117 362.516 223.637C363.605 223.291 365.282 223.449 366.244 223.987C369.078 225.573 369.455 224.393 367.394 220.386V220.386ZM306.806 222.481C336.046 221.761 337.89 221.399 335.792 216.793C335.151 215.387 333.488 213.49 332.096 212.578C329.768 211.052 326.439 211.017 290.301 212.138C268.705 212.808 247.103 213.417 242.295 213.493C237.488 213.569 233.55 213.898 233.545 214.225C233.541 214.553 234.422 215.622 235.505 216.602C237.374 218.294 239.893 218.325 285.159 217.222C311.385 216.582 333.336 215.784 333.939 215.448C334.701 215.024 334.695 215.208 333.921 216.049C333.105 216.936 319.86 217.564 284.669 218.386C237.517 219.487 236.504 219.47 235.067 217.57C233.705 215.77 233.597 215.76 233.568 217.428C233.549 218.417 234.774 220.386 236.286 221.804L239.036 224.383L259.536 223.761C270.811 223.42 292.083 222.844 306.806 222.481H306.806ZM155.298 219.88C155.852 219.193 156.605 217.224 156.972 215.506C158.384 208.895 164.099 205.948 176.501 205.436C181.745 205.219 187.531 204.81 189.359 204.527C192.214 204.085 192.503 203.796 191.408 202.476C190.35 201.202 187.996 201.009 177.584 201.346C158.819 201.954 153.628 204.975 152.729 215.811C152.294 221.064 153.195 222.491 155.298 219.88V219.88ZM164.304 218.23C165.484 216.634 168.508 214.543 171.025 213.581C174.931 212.09 176.201 212.013 179.697 213.061C181.949 213.735 185.084 215.702 186.664 217.432C188.243 219.161 189.536 220.221 189.536 219.788C189.536 218.445 187.385 214.739 185.237 212.38L183.187 210.13H188.278C191.078 210.13 193.519 210.53 193.702 211.018C193.886 211.507 198.086 212.069 203.036 212.268C211.682 212.616 212.048 212.544 212.349 210.426C212.785 207.363 207.146 205.695 203.668 207.858C200.994 209.522 194.599 209.837 193.657 208.352C192.54 206.591 170.22 208.546 166.489 210.73C162.359 213.149 159.084 217.512 159.867 219.552C160.747 221.844 161.882 221.506 164.304 218.23V218.23ZM220.095 203.649C221.775 202.368 221.834 202.034 220.536 201.165C218.484 199.792 212.815 199.869 211.942 201.282C211.124 202.606 214.137 205.13 216.536 205.13C217.425 205.13 219.027 204.464 220.095 203.649V203.649ZM214.202 203.464C212.769 202.03 213.669 201.13 216.536 201.13C219.741 201.13 220.566 202.521 217.954 203.523C215.921 204.304 215.028 204.29 214.202 203.464ZM225.958 193.63C226.601 191.904 226.418 191.954 224.619 193.991C223.304 195.482 222.536 197.724 222.536 200.075C222.536 205.7 223.956 205.971 224.625 200.473C224.949 197.809 225.549 194.73 225.958 193.63V193.63ZM264.642 200.065C279.159 199.628 300.572 198.96 312.227 198.581L333.419 197.89L335.474 201.26C337.274 204.213 337.529 204.352 337.532 202.38C337.536 199.294 334.108 196.126 330.786 196.15C329.273 196.16 307.564 196.823 282.543 197.622C241.711 198.926 236.921 199.251 235.793 200.794C235.101 201.739 234.546 203.214 234.558 204.072C234.573 205.193 235.095 204.96 236.415 203.245C238.236 200.876 238.436 200.854 264.642 200.065V200.065ZM350.027 201.158C351.123 197.706 358.408 192.363 363.874 191.004C366.713 190.297 372.973 189.7 377.785 189.675C382.597 189.65 386.535 189.527 386.535 189.401C386.535 189.274 384.629 188.198 382.298 187.009C378.256 184.947 377.623 184.904 368.616 186.083C357.431 187.546 354.968 188.375 351.2 191.944C347.333 195.607 346.375 197.642 347.12 200.61C347.878 203.629 349.166 203.872 350.027 201.158V201.158ZM93.5358 201.737C93.5358 201.521 92.8374 201.076 91.9839 200.749C91.0939 200.407 90.6925 200.575 91.0428 201.142C91.63 202.092 93.5358 202.547 93.5358 201.737ZM82.2649 196.526C81.9327 196.194 81.0701 196.158 80.3483 196.447C79.5505 196.767 79.7875 197.004 80.9524 197.052C82.0066 197.095 82.5972 196.859 82.2649 196.526V196.526ZM294.036 195.083C315.486 194.482 334.386 193.67 336.036 193.279C338.384 192.722 339.108 191.944 339.367 189.7L339.697 186.833L325.366 187.466C317.485 187.813 293.036 188.615 271.036 189.246C249.036 189.877 230.814 190.594 230.542 190.839C230.271 191.084 231.621 192.621 233.542 194.254C236.982 197.179 237.174 197.216 246.036 196.699C250.986 196.411 272.586 195.683 294.036 195.083H294.036ZM77.7857 195.468C77.0982 195.191 75.9733 195.191 75.2858 195.468C74.5983 195.746 75.1606 195.973 76.5358 195.973C77.9107 195.973 78.4732 195.746 77.7857 195.468V195.468ZM349.588 178.141C352.418 173.226 353.507 172.15 355.665 172.141C357.642 172.133 358.603 171.381 359.547 169.104C361.01 165.571 365.422 162.13 368.49 162.13C371.625 162.13 376.029 164.673 378.4 167.852C381.33 171.781 381.046 169.162 378.066 164.77C376.707 162.768 376.104 161.13 376.725 161.13C377.762 161.13 399.075 154.751 402.536 153.404C403.82 152.905 403.802 152.764 402.411 152.427C401.518 152.21 395.059 153.675 388.058 155.682C376.488 159.001 374.945 159.225 371.099 158.148C365.894 156.691 359.881 158.048 356.825 161.369C354.65 163.734 344.557 184.13 345.562 184.13C345.879 184.13 347.691 181.435 349.588 178.141H349.588ZM373.536 174.13C374.494 172.34 374.296 172.13 371.653 172.13C367.083 172.13 365.253 173.084 366.633 174.747C368.33 176.792 372.301 176.438 373.536 174.13V174.13ZM373.476 170.465C373.719 170.255 373.173 169.339 372.263 168.429C370.905 167.071 370.157 166.982 368.073 167.932C366.678 168.567 365.536 169.744 365.536 170.546C365.536 171.668 366.402 171.871 369.286 171.426C371.348 171.108 373.234 170.675 373.476 170.465V170.465ZM423.023 133.13C431.684 123.505 439.472 115.073 440.33 114.391C441.188 113.709 441.536 112.809 441.104 112.391C440.672 111.973 436.655 115.542 432.177 120.322C427.7 125.103 419.412 133.949 413.76 139.98C407.508 146.652 403.984 151.129 404.76 151.413C405.462 151.67 406.315 151.599 406.656 151.255C406.997 150.912 414.362 142.755 423.023 133.13ZM477.036 121.611C473.736 120.252 470.823 119.138 470.564 119.135C469.47 119.124 474.275 121.923 477.036 122.905C482.927 125.001 482.927 124.038 477.036 121.611ZM492.036 122.25C494.236 121.239 496.933 119.337 498.029 118.022L500.022 115.63L497.468 117.877C496.063 119.113 492.467 120.992 489.475 122.054C486.484 123.116 484.936 124.007 486.036 124.035C487.136 124.063 489.836 123.26 492.036 122.25V122.25ZM493.18 118.599C498.181 115.668 499.301 113.898 501.138 106.023C502.136 101.746 502.206 99.4814 501.41 97.1999C500.268 93.9227 499.456 93.5677 496.6 95.0962C493.233 96.8982 483.643 97.8444 477.89 96.9422C472.304 96.0663 472.213 96.092 469.425 99.3436C465.702 103.687 465.175 105.506 466.487 109.481C469.833 119.622 483.48 124.283 493.18 118.599H493.18ZM530.764 96.0718C532.814 94.7291 534.729 93.0264 535.018 92.2882C535.307 91.5499 534.204 92.0737 532.565 93.4522C526.253 98.7636 516.77 99.4222 508.957 95.0918C505.111 92.9599 505.084 92.9586 507.536 95.0228C513.188 99.7806 524.332 100.284 530.764 96.0718V96.0718ZM528.481 94.1583C535.484 90.5856 539.176 83.5044 538.263 75.3976C537.401 67.7502 530.251 60.6014 522.387 59.5235L517.775 58.8914L517.386 65.7799C517.115 70.5768 516.192 74.3327 514.346 78.1494C511.194 84.6647 509.192 91.7645 510.094 93.2236C512.133 96.5227 522.785 97.0643 528.481 94.1583ZM494.036 92.5451L497.036 91.2134L494.036 91.9219C489.977 92.8806 475.633 92.8211 472.536 91.8327C470.494 91.1811 470.358 91.2366 471.792 92.1359C476.519 95.099 487.815 95.3068 494.036 92.5451V92.5451ZM450.11 93.0074C452.563 92.3898 454.77 91.5601 455.015 91.1637C455.26 90.7672 453.197 91.0302 450.43 91.7479C443.796 93.4689 437.524 92.1489 431.481 87.7598C430.626 87.1387 431.247 87.8371 432.861 89.3119C435.447 91.6745 440.421 93.717 444.343 94.0271C445.062 94.0839 447.657 93.6251 450.11 93.0074V93.0074ZM450.678 90.1077C456.934 88.3701 457.283 87.0117 453.425 79.4172C450.43 73.5206 449.996 71.6623 449.689 63.4375L449.343 54.1304H444.899C440.205 54.1304 434.182 56.6507 431.324 59.8106C426.861 64.7463 425.351 73.4327 427.917 79.4126C431.8 88.4616 441.015 92.7917 450.678 90.1077V90.1077ZM493.036 89.5797L496.036 88.1191L493.036 88.8614C488.928 89.878 477.588 89.8208 474.536 88.768C472.846 88.1852 472.36 88.2348 473.036 88.9209C475.436 91.3578 488.5 91.7881 493.036 89.5796V89.5797ZM459.536 87.6304C460.828 86.2554 461.66 85.1304 461.385 85.1304C461.109 85.1304 459.828 86.2554 458.536 87.6304C457.244 89.0054 456.412 90.1304 456.687 90.1304C456.963 90.1304 458.244 89.0054 459.536 87.6304ZM488.749 87.3102C489.691 86.9363 487.12 86.6304 483.036 86.6304C478.952 86.6304 476.381 86.9363 477.323 87.3102C478.265 87.684 480.836 87.9899 483.036 87.9899C485.236 87.9899 487.807 87.684 488.749 87.3102ZM486.602 68.0953C487.665 67.5259 488.572 66.2884 488.615 65.3453C488.663 64.3023 488.892 64.1202 489.198 64.8804C489.927 66.6857 494.536 66.4699 494.536 64.6304C494.536 63.6304 493.536 63.1304 491.536 63.1304C489.886 63.1304 488.536 62.6963 488.536 62.1656C488.536 60.6033 484.624 58.9676 482.5 59.6417C479.682 60.5361 478.883 64.7514 481.072 67.1707C483.097 69.4085 483.898 69.5423 486.602 68.0953V68.0953ZM483.536 66.4892C484.361 66.1653 485.639 65.1646 486.376 64.2654C487.588 62.7862 487.682 62.821 487.366 64.6304C487.14 65.9196 486.131 66.71 484.526 66.8542C483.156 66.9773 482.711 66.813 483.536 66.4892ZM478.536 64.7355C478.536 63.8419 477.12 63.2055 474.597 62.9649C469.796 62.507 468.536 62.8705 468.536 64.7138C468.536 65.7471 469.889 66.1304 473.536 66.1304C477.146 66.1304 478.536 65.7428 478.536 64.7355ZM514.703 53.26C517.086 52.2313 519.933 50.3188 521.029 49.01L523.022 46.6304L520.398 48.9423C517.581 51.4258 509.848 54.1366 505.627 54.1207C504.202 54.1158 500.673 53.011 497.786 51.6667C494.898 50.3224 492.536 49.4475 492.536 49.7225C492.536 49.9975 494.898 51.3224 497.786 52.6667C504.09 55.6015 508.889 55.7699 514.703 53.26V53.26ZM469.991 50.4504C473.17 48.9345 473.776 48.8971 474.58 50.167C475.387 51.4433 475.522 51.4386 475.639 50.1304C475.713 49.3054 475.71 48.2635 475.631 47.8152C475.269 45.7068 479.813 41.1304 482.27 41.1304C485.447 41.1304 484.499 39.9027 481.036 39.5335C479.66 39.3868 478.535 39.7412 478.535 40.321C478.535 41.0543 478.144 41.0509 477.251 40.3101C476.438 39.6348 475.431 39.5843 474.501 40.1723C473.314 40.923 473.416 41.1036 475.035 41.1201C476.781 41.1378 476.654 41.4664 474.035 43.7077C472.385 45.1198 471.656 45.9549 472.415 45.5635C475.389 44.0299 472.753 47.6826 469.526 49.5674C467.175 50.9406 464.476 51.4915 460.461 51.4178C454.447 51.3073 451.532 50.2449 447.729 46.779C446.191 45.3768 445.619 45.1864 446.011 46.2068C446.667 47.9174 451.335 50.9079 455.377 52.207C458.973 53.3627 465.538 52.5735 469.99 50.4504L469.991 50.4504ZM473.536 44.7374C473.536 44.5213 474.234 44.0764 475.088 43.7489C475.978 43.4074 476.379 43.575 476.029 44.1419C475.442 45.0921 473.536 45.5473 473.536 44.7374ZM478.933 50.9638C478.65 50.5054 477.994 50.1304 477.477 50.1304C476.959 50.1304 476.536 50.5054 476.536 50.9638C476.536 51.4221 477.191 51.7971 477.992 51.7971C478.793 51.7971 479.216 51.4221 478.933 50.9638ZM485.033 50.134C486.512 48.4995 487.114 48.3635 488.352 49.384C489.672 50.4724 489.711 50.3451 488.664 48.3804C487.53 46.2511 487.855 45.669 489.955 46.0684C490.461 46.1646 490.412 45.6554 489.846 44.9369C489.28 44.2183 488.53 42.117 488.179 40.2673C487.566 37.0373 487.65 36.9228 490.288 37.3758C491.8 37.6353 493.936 38.1425 495.036 38.5029C496.136 38.8633 494.82 38.1022 492.111 36.8115C489.295 35.4699 487.662 34.1705 488.298 33.7777C489.681 32.9226 499.021 36.3944 501.881 38.827C503.927 40.5669 503.952 40.5665 502.591 38.8145C501.816 37.8158 499.799 36.2751 498.109 35.3908C494.08 33.2827 484.536 31.0536 484.536 32.2207C484.536 32.721 485.171 33.1305 485.948 33.1305C486.928 33.1305 487.225 33.9707 486.919 35.8805C486.368 39.3147 486.37 39.9433 486.938 43.5447C487.299 45.8363 486.748 47.0647 484.361 49.2947C482.691 50.8544 481.753 52.1305 482.276 52.1305C482.799 52.1305 484.04 51.232 485.034 50.134L485.033 50.134ZM524.674 37.967C525.647 34.2774 525.648 32.4469 524.675 29.2005C523.165 24.1594 518.162 18.2898 513.834 16.4815C504.855 12.73 492.969 17.559 489.656 26.3042C488.67 28.9091 488.787 29.0234 494.228 30.7347C501.303 32.9602 508.743 38.8112 512.725 45.2825L515.821 50.3156L519.632 46.473C522.075 44.01 523.885 40.9561 524.674 37.967V37.967ZM454.554 45.0856C456.507 40.3713 465.142 33.452 472.256 30.9006C479.285 28.3798 479.624 27.6011 476.269 21.7055C470.831 12.1476 456.371 10.2102 448.197 17.9441C443.97 21.9433 442.393 25.6901 442.393 31.7353C442.393 37.6792 444.715 42.5525 449.242 46.114C452.616 48.7677 453.065 48.6807 454.554 45.0856V45.0856ZM492.536 40.1304C491.711 39.5973 490.586 39.1611 490.036 39.1611C489.486 39.1611 489.711 39.5973 490.536 40.1304C491.361 40.6636 492.486 41.0998 493.036 41.0998C493.586 41.0998 493.361 40.6636 492.536 40.1304V40.1304ZM474.718 34.4853C478.774 33.8367 480.994 32.1304 477.782 32.1304C475.235 32.1304 466.271 36.5402 464.514 38.6571C463.717 39.617 464.8 39.2121 466.973 37.7379C469.108 36.2887 472.594 34.825 474.718 34.4853V34.4853ZM475.536 37.6304C477.828 36.7479 478.346 36.2686 477.036 36.2419C475.936 36.2196 473.911 36.8444 472.536 37.6304C469.419 39.4123 470.909 39.4123 475.536 37.6304V37.6304ZM483.265 30.5263C482.933 30.194 482.07 30.1584 481.348 30.4473C480.551 30.7666 480.788 31.0035 481.953 31.0515C483.007 31.0949 483.597 30.8586 483.265 30.5263V30.5263ZM456.036 10.5815C466.817 5.29796 474.178 3.80496 486.523 4.3987C501.235 5.10625 511.475 9.08369 523.536 18.7747L528.036 22.3905L523.536 18.244C512.74 8.29624 499.125 3.13043 483.702 3.13043C467.439 3.13043 453.948 8.30899 442.847 18.812L437.036 24.3096L443.036 19.1609C446.336 16.3291 452.186 12.4684 456.036 10.5815V10.5815Z" fill="#FFEB39"/>
</svg>
