<?xml version="1.0" encoding="UTF-8" standalone="no"?>
<!-- Created with Inkscape (http://www.inkscape.org/) -->

<svg
   width="210mm"
   height="297mm"
   viewBox="0 0 210 297"
   version="1.1"
   id="svg5"
   inkscape:version="1.1 (1:1.1+202106032008+af4d65493e)"
   sodipodi:docname="drawing.svg"
   xmlns:inkscape="http://www.inkscape.org/namespaces/inkscape"
   xmlns:sodipodi="http://sodipodi.sourceforge.net/DTD/sodipodi-0.dtd"
   xmlns="http://www.w3.org/2000/svg"
   xmlns:svg="http://www.w3.org/2000/svg">
  <sodipodi:namedview
     id="namedview7"
     pagecolor="#ffffff"
     bordercolor="#666666"
     borderopacity="1.0"
     inkscape:pageshadow="2"
     inkscape:pageopacity="0.0"
     inkscape:pagecheckerboard="0"
     inkscape:document-units="mm"
     showgrid="false"
     inkscape:zoom="0.3901936"
     inkscape:cx="397.2387"
     inkscape:cy="559.97843"
     inkscape:window-width="1366"
     inkscape:window-height="709"
     inkscape:window-x="0"
     inkscape:window-y="0"
     inkscape:window-maximized="1"
     inkscape:current-layer="layer1" />
  <defs
     id="defs2" />
  <g
     inkscape:label="Layer 1"
     inkscape:groupmode="layer"
     id="layer1">
    <path
       style="fill:#000000;stroke-width:0.264583"
       id="path59"
       d="" />
    <path
       style="fill:#000000;stroke-width:0.264583"
       id="path21"
       d="" />
    <path
       style="fill:#000000;stroke-width:0.264583"
       d="m 160.06463,138.93505 c -2.14453,-0.49194 -3.82012,-1.39962 -5.56377,-3.01393 l -1.55137,-1.4363 -0.26271,1.00744 c -0.14449,0.5541 -0.36681,1.42416 -0.49404,1.93349 l -0.23134,0.92604 -7.59005,0.0702 -7.59006,0.0702 v -32.5478 -32.547805 h 8.0698 8.06979 v 10.451041 c 0,5.748073 0.077,10.451042 0.171,10.451042 0.094,0 0.73198,-0.524735 1.41762,-1.166075 2.49786,-2.336453 5.31719,-3.188954 9.92075,-2.999803 6.25269,0.25691 9.56845,3.007093 10.19497,8.455975 0.33526,2.915815 0.32382,27.211375 -0.0142,30.238025 -0.40607,3.63555 -0.92072,4.98676 -2.58335,6.7826 -0.99627,1.07609 -2.02334,1.84099 -3.35715,2.50019 -1.73181,0.85591 -2.18015,0.96013 -4.5362,1.05453 -1.55224,0.0622 -3.20567,-0.0309 -4.06965,-0.22906 z m -2.51692,-9.77753 c 0.59818,-0.5179 0.71991,-0.90497 0.9361,-2.97657 0.32634,-3.12719 0.32554,-20.27004 -0.001,-23.15104 -0.31595,-2.78688 -0.86852,-3.439575 -2.91187,-3.439575 -1.41599,0 -1.99486,0.3844 -2.31885,1.539855 -0.26341,0.93938 -0.25752,25.89906 0.006,26.84343 0.34004,1.21709 1.10648,1.77921 2.42591,1.77921 0.8393,0 1.37268,-0.1704 1.86347,-0.59531 z m -144.790895,-23.15105 0.0672,-32.477594 8.40052,-0.06986 8.40052,-0.06986 v 32.547454 32.54747 h -8.46771 -8.46771 z m 22.42448,-0.0661 V 73.396585 h 10.98021 c 6.03911,0 10.98021,0.08221 10.98021,0.182697 0,0.360844 3.97593,28.009428 4.11591,28.621958 0.0787,0.34459 0.19117,0.57854 0.24982,0.51988 0.0929,-0.0929 0.72886,-4.941483 3.03059,-23.106827 0.29502,-2.328333 0.60747,-4.679818 0.69434,-5.225521 l 0.15793,-0.992187 h 10.956946 10.95696 v 32.543745 32.54375 h -7.40834 -7.40833 l -0.0314,-20.96823 c -0.0189,-12.58024 -0.12196,-20.439012 -0.25775,-19.645307 -0.25098,1.467082 -2.27791,16.370937 -4.08412,30.030207 -0.64463,4.87494 -1.23943,9.25049 -1.32178,9.72343 l -0.14973,0.8599 h -5.244406 -5.24441 l -0.29004,-2.18281 c -1.07876,-8.11854 -5.36707,-37.519615 -5.56675,-38.166144 -0.15566,-0.504039 -0.255,6.714614 -0.27215,19.777594 l -0.027,20.57136 h -7.40833 -7.40834 z m 57.811726,32.24041 c -0.075,-0.19697 -0.10579,-14.82421 -0.0684,-32.50499 l 0.0681,-32.146874 10.186459,0.01638 c 13.5853,0.02183 17.34598,0.427649 21.15799,2.283182 3.0605,1.489726 5.34175,4.452303 6.07309,7.886906 0.65947,3.097094 0.86526,10.602677 0.73631,26.855206 -0.1397,17.60739 -0.2555,19.23221 -1.5704,22.03365 -1.19072,2.53689 -3.8658,4.41379 -7.48389,5.25088 -2.58143,0.59724 -28.883679,0.89161 -29.099279,0.32567 z m 19.831399,-11.44852 c 1.35216,-0.56497 1.69966,-1.32999 2.01148,-4.42821 0.4021,-3.99532 0.22086,-34.764915 -0.21055,-35.744283 -0.48213,-1.094505 -1.81164,-1.783908 -3.4425,-1.78507 l -1.38906,-9.89e-4 v 21.166662 21.16667 h 1.06683 c 0.58676,0 1.47047,-0.16865 1.9638,-0.37478 z"
       id="path203"
       sodipodi:nodetypes="sscsscccccccssssssssssscsssscscccccccccccccssscsscccccccsssscccsssccccsscsssssssssssscccss" />
  </g>
</svg>
