<svg width="1274" height="969" viewBox="0 0 1274 969" fill="none" xmlns="http://www.w3.org/2000/svg">
<path d="M818.822 510.859C818.822 511.631 818.694 512.402 818.438 513.174C818.309 513.817 818.245 514.525 818.245 515.296C817.604 515.682 816.898 516.068 816.129 516.454C815.488 516.711 814.782 516.84 814.013 516.84C813.243 516.84 812.474 516.518 811.704 515.875C811.063 515.103 810.742 514.267 810.742 513.367C810.742 512.338 811.127 511.373 811.896 510.473C812.666 509.573 813.628 509.122 814.782 509.122H815.937C816.706 509.765 817.091 510.28 817.091 510.666C817.091 511.052 817.668 511.116 818.822 510.859ZM821.131 533.818L819.977 536.712C819.72 536.97 819.271 537.356 818.63 537.87C818.117 538.385 817.604 538.642 817.091 538.642C816.578 538.642 816.129 538.642 815.744 538.642C815.488 538.513 815.167 538.513 814.782 538.642C814.269 537.999 813.82 537.42 813.436 536.905C813.051 536.262 812.858 535.491 812.858 534.59C812.858 534.204 812.858 533.818 812.858 533.433C812.987 533.047 813.051 532.661 813.051 532.275C813.692 531.889 814.333 531.503 814.975 531.117C815.616 530.731 816.321 530.538 817.091 530.538C817.347 530.538 817.604 530.603 817.86 530.731C818.245 530.731 818.566 530.731 818.822 530.731C819.079 531.375 819.399 531.953 819.784 532.468C820.297 532.854 820.746 533.304 821.131 533.818ZM807.664 526.294C807.408 526.937 807.023 527.644 806.51 528.416C806.125 529.188 805.42 529.574 804.394 529.574H803.432C802.021 529.574 800.931 529.188 800.161 528.416C800.161 527.773 800.161 527.259 800.161 526.873C800.161 526.358 800.033 525.779 799.776 525.136C800.289 524.493 800.867 523.786 801.508 523.014C802.149 522.242 802.919 521.856 803.816 521.856C804.329 521.856 804.842 521.985 805.355 522.242C805.74 522.885 806.189 523.593 806.702 524.364C807.343 525.008 807.664 525.651 807.664 526.294ZM820.554 553.884C820.554 555.299 820.169 556.521 819.399 557.55C818.758 558.45 817.732 558.9 816.321 558.9C815.039 558.9 814.013 558.579 813.243 557.936C813.243 557.421 813.115 556.971 812.858 556.585C812.73 556.071 812.666 555.556 812.666 555.042C812.666 554.527 812.794 554.013 813.051 553.498L812.281 552.34C812.923 552.083 813.628 551.826 814.397 551.569C815.167 551.311 815.937 551.183 816.706 551.183C817.732 551.183 818.438 551.504 818.822 552.148C819.335 552.662 819.912 553.241 820.554 553.884ZM798.045 539.221C797.917 540.636 797.724 541.665 797.468 542.308C797.34 542.951 796.762 543.787 795.736 544.816C795.352 544.816 794.967 544.88 794.582 545.009C794.197 545.009 793.813 545.009 793.428 545.009C793.299 545.009 793.171 545.009 793.043 545.009C792.915 544.88 792.786 544.816 792.658 544.816C791.76 544.687 791.119 544.366 790.734 543.851C790.35 543.208 790.093 542.565 789.965 541.922C789.837 541.15 789.837 540.314 789.965 539.414C790.221 539.156 790.606 538.835 791.119 538.449C791.376 538.192 791.696 537.934 792.081 537.677C792.594 537.42 792.979 537.163 793.235 536.905C794.261 537.163 795.159 537.356 795.929 537.484C796.826 537.613 797.532 538.192 798.045 539.221ZM819.784 574.721C819.784 576.779 819.079 578.13 817.668 578.773C816.129 578.644 815.103 578.387 814.59 578.001C814.077 577.487 813.307 576.844 812.281 576.072V575.107C812.281 574.078 812.602 573.242 813.243 572.599C814.013 571.827 814.782 571.12 815.552 570.477C816.193 570.605 816.834 570.798 817.476 571.055C818.117 571.184 818.758 571.313 819.399 571.441C819.656 572.728 819.784 573.821 819.784 574.721ZM789.58 555.042C789.067 556.071 788.554 556.907 788.041 557.55C787.528 558.064 786.63 558.322 785.348 558.322C783.937 558.322 782.847 557.936 782.077 557.164C782.077 556.521 782.077 556.006 782.077 555.62C782.077 555.106 781.949 554.527 781.692 553.884C782.077 553.241 782.59 552.533 783.231 551.762C783.873 550.99 784.642 550.604 785.54 550.604C785.797 550.604 786.117 550.668 786.502 550.797C786.887 550.926 787.207 551.054 787.464 551.183C787.72 551.697 788.105 552.34 788.618 553.112C789.259 553.755 789.58 554.398 789.58 555.042ZM819.977 594.401C819.977 595.173 819.72 595.816 819.207 596.33C818.694 596.716 818.245 597.231 817.86 597.874C817.476 598.003 817.091 598.131 816.706 598.26C816.321 598.388 815.937 598.453 815.552 598.453C814.782 598.453 814.205 598.324 813.82 598.067C813.564 597.681 813.115 597.488 812.474 597.488C812.345 596.974 812.217 596.523 812.089 596.137C811.961 595.752 811.896 595.301 811.896 594.787C811.896 594.144 812.025 593.501 812.281 592.857C812.666 592.214 812.858 591.571 812.858 590.928L813.82 590.542C814.333 590.542 814.782 590.542 815.167 590.542C815.68 590.414 816.129 590.349 816.514 590.349H817.476C818.117 590.992 818.694 591.636 819.207 592.279C819.72 592.922 819.977 593.629 819.977 594.401ZM779.576 570.477C779.576 571.377 779.256 572.213 778.614 572.985C778.101 573.757 777.652 574.528 777.268 575.3C777.011 575.043 776.626 574.786 776.113 574.528C775.857 574.528 775.6 574.593 775.344 574.721C775.087 574.721 774.831 574.721 774.574 574.721C773.42 573.95 772.586 573.306 772.073 572.792C771.688 572.149 771.496 571.12 771.496 569.705C771.496 568.676 771.881 567.904 772.65 567.39C773.42 566.875 774.318 566.618 775.344 566.618C776.37 566.618 777.588 567.068 778.999 567.968V568.74C779.127 568.997 779.256 569.319 779.384 569.705C779.512 569.962 779.576 570.219 779.576 570.477ZM820.169 613.309C820.169 614.209 819.848 614.917 819.207 615.431C818.566 615.946 818.117 616.525 817.86 617.168H815.552C815.167 617.168 814.59 617.039 813.82 616.782C813.436 616.139 812.987 615.56 812.474 615.045C812.089 614.531 811.768 613.952 811.512 613.309C811.64 612.409 811.961 611.637 812.474 610.994C812.987 610.222 813.692 609.836 814.59 609.836C814.846 609.836 815.039 609.9 815.167 610.029C815.295 610.029 815.488 610.029 815.744 610.029L817.091 609.45C817.476 609.836 818.053 610.415 818.822 611.187C819.72 611.958 820.169 612.666 820.169 613.309ZM820.554 632.024C820.169 632.667 819.784 633.31 819.399 633.953C819.015 634.596 818.694 635.24 818.438 635.883C817.283 636.269 816.129 636.462 814.975 636.462C813.82 636.462 812.923 636.204 812.281 635.69C812.153 634.918 812.089 634.275 812.089 633.76C812.217 633.246 811.961 632.667 811.319 632.024C811.961 631.381 812.602 630.738 813.243 630.095C813.884 629.451 814.654 629.13 815.552 629.13H817.091C817.86 629.902 818.373 630.48 818.63 630.866C818.886 631.124 819.528 631.509 820.554 632.024ZM769.188 586.491C769.188 587.52 768.739 588.227 767.841 588.613C767.071 588.87 766.43 589.449 765.917 590.349C765.147 589.835 764.378 589.449 763.608 589.192C762.839 588.934 762.133 588.484 761.492 587.841C761.364 587.198 761.236 586.748 761.107 586.491C761.107 586.233 760.851 585.847 760.338 585.333C761.107 584.561 761.749 583.725 762.262 582.825C762.775 581.796 763.737 581.281 765.147 581.281C765.66 581.538 766.302 582.053 767.071 582.825C767.969 583.468 768.546 583.982 768.803 584.368C769.059 585.14 769.188 585.847 769.188 586.491ZM706.086 523.786V528.223C705.188 528.223 704.675 528.288 704.547 528.416C704.419 528.545 704.098 528.931 703.585 529.574C703.328 529.445 702.944 529.381 702.431 529.381C702.174 529.381 701.854 529.445 701.469 529.574C701.212 529.574 700.956 529.574 700.699 529.574C700.058 529.059 699.417 528.545 698.775 528.03C698.262 527.387 698.006 526.615 698.006 525.715C698.006 524.943 698.391 524.043 699.16 523.014C699.93 521.856 700.763 521.277 701.661 521.277C701.918 521.277 702.174 521.342 702.431 521.47C702.815 521.47 703.136 521.47 703.393 521.47C703.777 522.113 704.098 522.564 704.354 522.821C704.739 522.95 705.06 523.142 705.316 523.4C705.573 523.657 705.829 523.786 706.086 523.786ZM693.581 514.139C693.581 514.653 693.453 515.168 693.196 515.682C693.068 516.068 693.004 516.518 693.004 517.033C692.234 517.676 691.465 517.997 690.695 517.997C689.926 517.997 689.156 518.19 688.387 518.576C687.361 517.547 686.591 516.711 686.078 516.068C685.565 515.425 685.309 514.332 685.309 512.788C686.078 512.145 686.848 511.566 687.617 511.052C688.387 510.409 689.285 510.087 690.311 510.087C690.567 510.087 691.016 510.216 691.657 510.473C692.299 510.602 692.812 510.73 693.196 510.859V513.753L693.581 514.139ZM716.475 540.764C716.09 541.665 715.641 542.565 715.128 543.465C714.743 544.366 713.974 544.816 712.819 544.816C712.306 544.816 711.793 544.752 711.28 544.623C710.896 544.494 710.447 544.43 709.934 544.43C709.421 543.53 709.1 542.629 708.972 541.729C708.843 540.828 708.587 539.928 708.202 539.028C709.228 538.385 710.19 537.934 711.088 537.677C712.114 537.291 713.204 537.034 714.358 536.905C714.615 537.549 714.871 538.192 715.128 538.835C715.384 539.478 715.833 540.121 716.475 540.764ZM726.863 554.077C726.863 554.849 726.543 555.813 725.901 556.971C725.26 558 724.491 558.514 723.593 558.514C722.951 558.514 722.503 558.45 722.246 558.322C721.99 558.193 721.541 558 720.899 557.743C720.002 556.971 719.104 556.264 718.206 555.62C718.334 555.363 718.463 555.042 718.591 554.656C718.847 554.141 719.104 553.82 719.36 553.691C719.232 553.434 719.168 553.241 719.168 553.112C719.168 552.984 719.104 552.791 718.976 552.533C719.745 552.019 720.386 551.697 720.899 551.569C721.412 551.311 721.861 551.183 722.246 551.183C722.631 551.183 723.016 551.183 723.4 551.183C723.785 551.054 724.298 550.861 724.939 550.604C725.324 551.247 725.709 551.826 726.094 552.34C726.607 552.855 726.863 553.434 726.863 554.077ZM819.784 652.668C819.784 653.955 819.399 654.855 818.63 655.369C817.86 655.884 817.091 656.463 816.321 657.106C815.039 656.591 813.756 655.884 812.474 654.984C812.345 654.083 812.281 653.247 812.281 652.475C812.281 651.575 812.217 650.675 812.089 649.774C813.115 649.774 813.884 649.581 814.397 649.195C814.91 648.81 815.68 648.552 816.706 648.424C817.347 649.195 817.989 649.839 818.63 650.353C819.399 650.739 819.784 651.511 819.784 652.668ZM736.482 568.74C736.482 569.383 736.418 570.091 736.29 570.863C736.29 571.506 736.226 572.149 736.098 572.792C735.713 573.178 735.264 573.499 734.751 573.757C734.366 573.885 733.981 574.142 733.597 574.528C732.442 574.4 731.352 574.078 730.326 573.564C729.3 572.921 728.787 571.892 728.787 570.477C728.787 569.448 729.108 568.547 729.749 567.776C730.39 567.004 731.288 566.618 732.442 566.618C733.981 566.618 735.328 567.325 736.482 568.74ZM748.025 585.526C748.025 586.169 747.833 586.748 747.448 587.262C747.192 587.777 746.935 588.291 746.679 588.806C746.166 588.806 745.717 588.87 745.332 588.999C744.947 589.127 744.498 589.192 743.985 589.192C743.601 589.192 743.023 589.063 742.254 588.806C741.741 588.163 741.228 587.584 740.715 587.069C740.33 586.426 740.138 585.719 740.138 584.947C740.651 584.175 741.1 583.146 741.484 581.86C741.869 581.731 742.254 581.603 742.639 581.474C743.023 581.346 743.408 581.281 743.793 581.281C744.306 581.281 744.755 581.346 745.14 581.474C745.524 581.474 745.909 581.474 746.294 581.474C746.679 582.117 747.063 582.76 747.448 583.404C747.833 584.047 748.025 584.754 748.025 585.526ZM692.234 533.433L690.695 536.905C690.182 536.905 689.733 536.97 689.349 537.098C688.964 537.227 688.515 537.291 688.002 537.291C687.232 537.291 686.527 536.97 685.886 536.327C685.244 535.683 684.603 535.169 683.962 534.783L683.77 531.889L686.078 529.96L688.771 529.381C689.669 529.895 690.439 530.41 691.08 530.924C691.85 531.31 692.234 532.146 692.234 533.433ZM757.645 601.347C757.645 602.247 757.324 603.148 756.683 604.048C756.17 604.948 755.4 605.398 754.374 605.398C753.733 605.398 753.156 605.013 752.643 604.241C752.001 603.984 751.424 603.662 750.911 603.276C750.398 602.762 750.142 602.054 750.142 601.154C750.142 600.253 750.462 599.353 751.104 598.453C751.873 597.424 752.771 596.909 753.797 596.909C755.079 596.909 756.041 597.424 756.683 598.453C757.324 599.353 757.645 600.318 757.645 601.347ZM692.427 552.726C692.427 553.884 691.978 554.849 691.08 555.62C690.311 556.264 689.349 556.585 688.194 556.585C686.912 556.585 685.757 556.071 684.731 555.042V554.077C684.731 553.82 684.603 553.498 684.347 553.112C684.218 552.726 684.154 552.276 684.154 551.762C684.796 550.861 685.309 550.09 685.693 549.446C686.078 548.803 686.848 548.482 688.002 548.482C688.9 548.482 689.798 548.803 690.695 549.446C690.952 549.832 691.208 550.218 691.465 550.604C691.85 550.861 692.17 551.119 692.427 551.376V552.726ZM692.812 571.248L691.272 574.528C690.631 574.914 689.99 575.364 689.349 575.879C688.836 576.265 688.194 576.458 687.425 576.458C686.655 576.458 686.014 576.265 685.501 575.879C684.86 575.236 684.411 574.464 684.154 573.564C684.026 572.535 683.834 571.634 683.577 570.863C684.218 570.477 684.988 569.962 685.886 569.319C686.912 568.676 687.745 568.354 688.387 568.354C688.9 568.354 689.349 568.419 689.733 568.547C690.118 568.676 690.503 568.805 690.888 568.933C691.016 570.219 691.657 570.991 692.812 571.248ZM692.042 593.05C691.657 593.822 691.144 594.594 690.503 595.366C689.862 596.137 689.028 596.523 688.002 596.523C687.489 596.523 687.04 596.459 686.655 596.33C686.271 596.202 685.886 596.137 685.501 596.137C684.603 595.237 684.154 594.015 684.154 592.472C684.154 591.443 684.283 590.735 684.539 590.349C685.309 589.835 685.886 589.449 686.271 589.192C686.784 588.806 687.553 588.613 688.579 588.613C689.733 588.613 690.567 589.127 691.08 590.156C691.593 591.057 691.914 592.021 692.042 593.05ZM691.657 611.958C691.657 613.116 691.272 614.145 690.503 615.045C689.862 615.817 688.964 616.203 687.81 616.203C686.784 616.203 686.078 616.074 685.693 615.817C685.309 615.56 684.988 615.303 684.731 615.045C684.603 614.66 684.411 614.338 684.154 614.081C684.026 613.695 683.641 613.438 683 613.309C683.385 612.28 683.834 611.444 684.347 610.801C684.86 610.029 685.437 609.257 686.078 608.485H688.964C689.605 608.871 690.054 609.322 690.311 609.836C690.695 610.351 691.144 610.801 691.657 611.187V611.958ZM692.042 630.866C691.529 631.895 691.08 633.053 690.695 634.339C690.439 635.625 689.477 636.269 687.81 636.269C686.912 636.269 686.142 636.011 685.501 635.497C684.86 634.982 684.218 634.532 683.577 634.146C683.577 633.503 683.641 632.796 683.77 632.024C683.898 631.252 684.154 630.673 684.539 630.288C684.796 630.03 685.373 629.644 686.271 629.13C687.168 628.615 687.81 628.358 688.194 628.358C688.451 628.358 688.707 628.422 688.964 628.551C689.349 628.551 689.669 628.551 689.926 628.551C690.182 629.194 690.503 629.644 690.888 629.902C691.272 630.159 691.657 630.48 692.042 630.866ZM691.465 651.125C691.465 652.926 690.695 654.469 689.156 655.755C688.9 655.755 688.643 655.755 688.387 655.755C688.13 655.884 687.874 655.948 687.617 655.948C686.848 655.948 686.142 655.691 685.501 655.177C684.86 654.662 684.218 654.212 683.577 653.826C683.834 653.311 683.898 652.797 683.77 652.282C683.77 651.768 683.77 651.189 683.77 650.546C684.154 650.032 684.411 649.646 684.539 649.388C684.796 649.131 684.86 648.681 684.731 648.038C686.014 647.781 686.976 647.652 687.617 647.652C688.771 647.652 689.926 648.102 691.08 649.003C691.208 649.388 691.272 649.774 691.272 650.16C691.401 650.417 691.465 650.739 691.465 651.125Z" fill="#FFEB39"/>
<path d="M972.151 538.256C971.51 539.285 970.933 540.121 970.42 540.764C970.035 541.279 969.394 541.986 968.496 542.887H967.342C966.829 542.887 966.38 542.887 965.995 542.887C965.61 542.758 965.226 542.758 964.841 542.887C964.584 542.115 964.135 541.536 963.494 541.15C962.853 540.636 962.532 539.928 962.532 539.028C962.532 537.613 962.853 536.777 963.494 536.52C964.264 536.262 965.161 536.005 966.188 535.748C966.957 535.491 967.598 535.362 968.111 535.362C968.368 535.362 968.945 535.812 969.843 536.712C970.869 537.484 971.638 537.999 972.151 538.256ZM957.146 525.329C957.146 526.101 956.825 526.873 956.184 527.644C955.671 528.288 955.286 528.995 955.029 529.767C953.747 529.509 952.4 529.252 950.989 528.995C949.578 528.609 948.873 527.516 948.873 525.715C948.873 525.201 948.937 524.75 949.065 524.364C949.322 523.85 949.45 523.335 949.45 522.821C950.733 521.921 952.015 521.47 953.298 521.47C953.939 521.47 954.516 521.663 955.029 522.049C955.671 522.306 956.312 522.628 956.953 523.014C956.953 523.4 956.953 523.786 956.953 524.171C957.081 524.557 957.146 524.943 957.146 525.329ZM940.601 513.174C940.472 513.817 940.28 514.46 940.023 515.103C939.895 515.747 939.446 516.197 938.677 516.454C938.677 518.255 937.779 519.155 935.983 519.155C935.214 519.155 934.38 518.962 933.482 518.576C933.226 517.933 932.905 517.354 932.521 516.84C932.136 516.197 931.943 515.554 931.943 514.91C931.943 514.396 932.072 513.881 932.328 513.367L934.444 511.631H935.599C936.496 511.631 937.458 512.016 938.484 512.788L940.601 513.174ZM981.193 560.444C980.424 561.859 979.205 562.566 977.538 562.566C976.512 562.566 975.678 562.438 975.037 562.18C974.524 561.794 973.883 561.28 973.113 560.637V558.129C973.113 557.485 973.177 556.971 973.306 556.585C973.947 556.199 974.524 555.813 975.037 555.427C975.678 554.913 976.384 554.656 977.153 554.656C977.41 554.656 977.923 554.784 978.692 555.042C979.718 556.328 980.231 557.228 980.231 557.743C980.231 558.257 980.552 559.158 981.193 560.444ZM918.477 512.595C918.477 513.753 917.835 514.589 916.553 515.103C915.398 515.489 914.372 515.747 913.475 515.875C912.705 515.232 912.064 514.718 911.551 514.332C911.166 513.946 910.461 513.624 909.435 513.367C909.691 512.981 909.883 512.595 910.012 512.209C910.268 511.695 910.396 511.245 910.396 510.859C910.396 510.216 910.974 509.573 912.128 508.929C913.41 508.286 914.244 507.643 914.629 507C915.27 507.643 915.847 508.222 916.36 508.736C916.873 509.122 917.451 509.508 918.092 509.894C918.092 510.409 918.156 510.859 918.284 511.245C918.412 511.631 918.477 512.081 918.477 512.595ZM984.849 581.281C983.823 583.211 982.219 584.175 980.039 584.175C979.783 584.175 979.462 584.175 979.077 584.175C978.692 584.047 978.372 583.982 978.115 583.982C977.73 583.339 977.346 582.696 976.961 582.053C976.576 581.41 976.384 580.767 976.384 580.124C976.384 579.352 976.64 578.451 977.153 577.422C977.795 576.908 978.5 576.651 979.27 576.651C980.039 576.651 980.744 576.458 981.386 576.072C982.027 576.715 982.989 577.165 984.271 577.422L984.849 581.281ZM982.925 604.627C982.925 605.013 982.797 605.591 982.54 606.363C981.514 607.392 980.296 607.907 978.885 607.907C978.372 607.907 977.859 607.842 977.346 607.714C976.961 607.585 976.512 607.456 975.999 607.328C975.743 606.813 975.486 606.363 975.229 605.977C975.101 605.463 975.037 604.884 975.037 604.241C975.037 603.855 975.037 603.533 975.037 603.276C975.165 602.89 975.229 602.504 975.229 602.119C975.614 601.861 975.999 601.668 976.384 601.54C976.897 601.411 977.217 601.025 977.346 600.382C977.859 600.125 978.372 599.996 978.885 599.996C979.526 599.996 980.039 600.189 980.424 600.575C980.809 600.961 981.322 601.218 981.963 601.347C982.219 601.861 982.412 602.376 982.54 602.89C982.797 603.405 982.925 603.984 982.925 604.627ZM895.583 520.699C894.685 521.213 893.916 521.728 893.274 522.242C892.761 522.757 891.992 523.014 890.966 523.014H889.812C889.427 522.628 889.042 522.242 888.657 521.856C888.272 521.47 887.952 521.02 887.695 520.506C887.567 519.991 887.439 519.605 887.311 519.348C887.311 518.962 887.311 518.641 887.311 518.383C887.311 517.869 887.439 517.483 887.695 517.226C887.952 516.84 888.08 516.39 888.08 515.875C889.106 515.361 889.94 515.103 890.581 515.103C891.479 515.103 892.248 515.296 892.89 515.682C893.659 516.068 894.365 516.454 895.006 516.84V517.997C895.006 518.512 895.07 519.026 895.198 519.541C895.327 519.927 895.455 520.313 895.583 520.699ZM972.536 626.622C972.151 629.451 970.676 630.866 968.111 630.866C966.829 630.866 965.995 630.545 965.61 629.902C965.226 629.13 964.777 628.294 964.264 627.393C964.52 626.364 964.969 625.4 965.61 624.499C966.38 623.599 967.342 623.149 968.496 623.149C969.137 623.149 969.971 623.406 970.997 623.921C970.997 624.692 971.125 625.207 971.382 625.464C971.767 625.593 972.151 625.979 972.536 626.622ZM876.152 531.31C876.152 532.725 875.639 533.818 874.613 534.59C873.587 535.362 872.433 535.748 871.15 535.748C870.381 535.748 869.611 535.298 868.842 534.397C868.072 533.497 867.688 532.725 867.688 532.082C867.688 531.182 867.88 530.41 868.265 529.767C868.778 529.124 869.355 528.545 869.996 528.03L871.535 527.837C872.561 528.095 873.587 528.48 874.613 528.995C875.639 529.381 876.152 530.153 876.152 531.31ZM955.606 645.53V647.459C954.965 647.716 954.26 647.909 953.49 648.038C952.849 648.166 952.144 648.231 951.374 648.231C950.476 648.231 949.643 647.974 948.873 647.459C948.232 646.945 947.59 646.43 946.949 645.916C947.462 644.758 948.039 643.665 948.681 642.636C949.45 641.607 950.54 641.092 951.951 641.092C952.977 641.092 953.811 641.607 954.452 642.636C955.222 643.665 955.606 644.629 955.606 645.53ZM862.493 551.955C862.493 552.34 862.429 552.726 862.301 553.112C862.301 553.498 862.301 553.884 862.301 554.27C861.66 554.656 860.954 555.042 860.185 555.427C859.415 555.685 858.646 555.813 857.876 555.813C857.235 555.813 856.529 555.685 855.76 555.427C855.503 554.784 855.247 554.334 854.99 554.077C854.734 553.82 854.413 553.369 854.028 552.726C854.285 551.183 854.734 549.897 855.375 548.868C856.016 548.61 856.658 548.417 857.299 548.289C857.94 548.16 858.581 548.096 859.223 548.096H860.954C861.339 548.739 861.66 549.382 861.916 550.025C862.301 550.54 862.493 551.183 862.493 551.955ZM856.722 573.95C856.722 575.879 856.337 577.487 855.567 578.773C854.926 580.059 853.515 580.702 851.335 580.702C850.822 580.188 850.181 579.738 849.411 579.352C848.77 578.837 848.449 578.194 848.449 577.422C848.449 576.908 848.513 576.458 848.642 576.072C848.77 575.686 848.834 575.3 848.834 574.914C849.475 574.528 850.117 574.014 850.758 573.371C851.399 572.728 852.04 572.406 852.682 572.406C853.323 572.406 853.836 572.663 854.221 573.178C854.605 573.692 855.439 573.95 856.722 573.95ZM931.943 655.369C931.943 656.27 931.815 656.913 931.559 657.299C931.046 657.942 930.404 658.328 929.635 658.456C928.993 658.714 928.352 658.971 927.711 659.228C927.07 658.714 926.493 658.328 925.979 658.071C925.595 657.942 925.082 657.749 924.44 657.492C924.44 657.106 924.376 656.72 924.248 656.334C924.248 656.077 924.248 655.755 924.248 655.369C924.248 654.984 924.376 654.405 924.633 653.633C924.889 653.247 925.338 652.797 925.979 652.282C926.621 651.639 927.198 651.318 927.711 651.318C928.737 651.318 929.314 651.446 929.442 651.704C929.699 651.961 930.212 652.154 930.981 652.282C931.623 653.311 931.943 654.34 931.943 655.369ZM857.491 601.733V602.504C856.85 603.405 856.337 604.177 855.952 604.82C855.696 605.463 854.926 605.784 853.644 605.784C852.104 605.784 850.758 605.206 849.604 604.048C849.347 603.019 849.219 602.119 849.219 601.347C849.219 600.575 849.411 599.932 849.796 599.417C850.309 598.903 850.758 598.324 851.143 597.681C851.656 597.938 852.104 598.003 852.489 597.874C853.002 597.745 853.579 597.745 854.221 597.874C854.862 598.646 855.567 599.096 856.337 599.224C857.106 599.224 857.491 600.061 857.491 601.733ZM908.473 656.334C908.473 657.363 908.088 658.199 907.318 658.842C906.549 659.614 905.651 660 904.625 660C903.471 660 902.637 659.743 902.124 659.228C901.611 658.842 901.226 658.328 900.97 657.685C900.713 657.042 900.521 656.334 900.393 655.562C900.264 654.791 899.944 654.083 899.431 653.44C900.2 653.311 900.777 653.183 901.162 653.054C901.547 652.926 901.868 652.797 902.124 652.668C902.381 652.54 902.573 652.411 902.701 652.282C902.958 652.025 903.407 651.768 904.048 651.511C905.202 651.768 906.228 652.347 907.126 653.247C908.024 654.019 908.473 655.048 908.473 656.334ZM866.148 626.429C866.148 627.072 866.02 627.586 865.764 627.972C865.507 628.358 865.251 628.808 864.994 629.323C864.738 629.451 864.225 629.644 863.455 629.902C862.814 630.159 862.365 630.288 862.108 630.288C861.724 630.288 861.339 630.223 860.954 630.095C860.698 629.837 860.377 629.709 859.992 629.709C859.736 629.709 859.543 629.773 859.415 629.902C859.287 629.902 859.094 629.902 858.838 629.902C858.453 629.001 858.197 628.422 858.068 628.165C858.068 627.779 858.068 627.072 858.068 626.043L857.684 625.271L859.8 622.184C859.928 622.313 860.249 622.506 860.762 622.763C861.018 622.763 861.275 622.763 861.531 622.763C861.788 622.634 862.044 622.57 862.301 622.57C862.686 622.57 863.263 622.827 864.032 623.342C864.93 623.856 865.507 624.242 865.764 624.499C866.02 625.528 866.148 626.171 866.148 626.429ZM884.617 644.565C884.617 645.337 884.361 645.916 883.848 646.301C883.335 646.687 882.95 647.202 882.693 647.845C882.18 648.102 881.731 648.295 881.347 648.424C880.962 648.552 880.513 648.617 880 648.617C879.23 648.617 878.461 648.231 877.691 647.459C877.05 646.687 876.345 646.173 875.575 645.916C875.832 644.887 876.088 643.922 876.345 643.021C876.729 642.121 877.307 641.285 878.076 640.513C879.23 640.513 880.577 640.835 882.116 641.478C883.784 642.121 884.617 643.15 884.617 644.565Z" fill="#FFEB39"/>
<path d="M1115.09 512.788C1115.09 514.846 1114.07 516.325 1112.01 517.226C1111.37 517.097 1110.86 516.968 1110.47 516.84C1110.09 516.711 1109.58 516.776 1108.94 517.033C1108.68 516.39 1108.23 515.618 1107.59 514.718C1107.08 513.817 1106.82 513.045 1106.82 512.402C1107.97 511.373 1108.68 510.602 1108.94 510.087C1109.32 509.444 1109.9 509.122 1110.67 509.122C1111.69 509.122 1112.65 509.444 1113.55 510.087C1114.58 510.73 1115.09 511.631 1115.09 512.788ZM1108.74 530.731C1108.36 531.375 1108.17 531.825 1108.17 532.082C1108.29 532.211 1108.36 532.596 1108.36 533.24C1108.36 534.269 1107.91 535.169 1107.01 535.941C1106.24 536.584 1105.34 536.905 1104.32 536.905C1103.42 536.905 1102.46 536.455 1101.43 535.555C1100.53 534.654 1100.09 533.754 1100.09 532.854C1100.09 532.211 1100.28 531.567 1100.66 530.924C1101.05 530.281 1101.43 529.638 1101.82 528.995C1102.2 528.995 1102.59 528.995 1102.97 528.995C1103.48 528.866 1103.93 528.802 1104.32 528.802C1105.22 528.802 1105.99 529.059 1106.63 529.574C1107.4 529.96 1108.1 530.346 1108.74 530.731ZM1100.66 553.691C1100.66 554.334 1100.53 554.913 1100.28 555.427C1100.02 555.942 1099.77 556.456 1099.51 556.971C1098.74 557.228 1098.03 557.357 1097.39 557.357C1096.75 557.357 1096.05 557.421 1095.28 557.55C1094.76 557.035 1094.19 556.521 1093.54 556.006C1092.9 555.363 1092.58 554.656 1092.58 553.884C1092.58 553.241 1092.71 552.726 1092.97 552.34C1093.22 551.826 1093.42 551.311 1093.54 550.797C1094.57 550.025 1095.53 549.639 1096.43 549.639C1096.69 549.639 1096.94 549.704 1097.2 549.832C1097.58 549.961 1097.97 550.09 1098.35 550.218C1098.87 550.733 1099.38 551.247 1099.89 551.762C1100.41 552.276 1100.66 552.919 1100.66 553.691ZM1093.74 574.335C1093.74 574.593 1093.67 574.85 1093.54 575.107C1093.54 575.236 1093.54 575.429 1093.54 575.686C1093.03 576.201 1092.65 576.715 1092.39 577.23C1092.13 577.744 1091.75 578.259 1091.24 578.773C1090.34 578.773 1089.44 578.709 1088.54 578.58C1087.77 578.323 1086.94 578.194 1086.04 578.194C1086.04 577.551 1085.98 577.101 1085.85 576.844C1085.85 576.458 1085.53 576.072 1084.89 575.686C1085.14 575.171 1085.27 574.657 1085.27 574.142C1085.27 572.985 1085.53 572.213 1086.04 571.827C1086.68 571.441 1087.52 571.12 1088.54 570.863C1088.67 570.734 1088.99 570.67 1089.5 570.67C1090.02 570.67 1090.47 570.798 1090.85 571.055C1091.36 571.184 1091.94 571.313 1092.58 571.441C1092.58 572.084 1092.78 572.599 1093.16 572.985C1093.54 573.242 1093.74 573.692 1093.74 574.335ZM1006.59 514.139C1006.59 514.782 1006.4 515.489 1006.01 516.261C1005.63 516.904 1005.05 517.226 1004.28 517.226C1004.02 517.226 1003.7 517.29 1003.32 517.419C1003.06 517.419 1002.8 517.419 1002.55 517.419C1001.52 517.419 1000.56 517.033 999.662 516.261C998.893 515.361 998.508 514.396 998.508 513.367C998.508 512.467 998.893 511.631 999.662 510.859C1000.43 509.958 1001.27 509.508 1002.16 509.508C1002.93 509.508 1003.57 509.701 1004.09 510.087C1004.73 510.473 1005.37 510.794 1006.01 511.052C1006.4 512.081 1006.59 513.11 1006.59 514.139ZM1086.23 593.436C1085.98 594.465 1085.85 595.301 1085.85 595.945C1085.85 596.33 1085.98 596.909 1086.23 597.681L1079.31 599.224C1079.05 598.067 1078.8 597.424 1078.54 597.295C1078.28 597.038 1077.77 596.588 1077 595.945C1077.26 595.301 1077.51 594.787 1077.77 594.401C1078.03 594.015 1078.15 593.501 1078.15 592.857C1078.8 592.6 1079.5 592.343 1080.27 592.086C1081.04 591.7 1081.81 591.507 1082.58 591.507H1083.35C1084.12 592.15 1084.5 592.6 1084.5 592.857C1084.5 592.986 1085.08 593.179 1086.23 593.436ZM1013.9 533.625L1011.4 536.327H1009.86C1008.58 536.327 1007.55 535.941 1006.78 535.169C1006.52 534.526 1006.27 533.947 1006.01 533.433C1005.75 532.918 1005.63 532.339 1005.63 531.696C1005.63 531.31 1005.63 530.989 1005.63 530.731C1005.75 530.346 1005.88 529.96 1006.01 529.574C1006.65 529.574 1007.1 529.445 1007.36 529.188C1007.74 528.931 1008.19 528.738 1008.7 528.609C1009.22 528.738 1009.73 528.866 1010.24 528.995C1010.76 529.124 1011.14 529.381 1011.4 529.767H1012.55C1013.45 530.667 1013.9 531.953 1013.9 533.625ZM1020.82 553.691C1020.82 554.334 1020.57 554.977 1020.05 555.62C1019.67 556.264 1019.35 556.907 1019.09 557.55C1018.58 557.55 1018.07 557.614 1017.55 557.743C1017.17 557.871 1016.72 557.936 1016.21 557.936C1015.05 557.936 1014.28 557.614 1013.9 556.971C1013.51 556.328 1012.81 555.813 1011.78 555.427C1012.04 554.398 1012.42 553.241 1012.94 551.955C1013.58 550.54 1014.6 549.832 1016.01 549.832C1017.04 549.832 1017.81 550.154 1018.32 550.797C1018.96 551.311 1019.67 551.697 1020.44 551.955C1020.7 552.726 1020.82 553.305 1020.82 553.691ZM1078.35 614.66C1078.35 615.56 1078.09 616.653 1077.58 617.939C1076.94 618.197 1076.29 618.454 1075.65 618.711C1075.14 618.84 1074.56 618.904 1073.92 618.904C1073.15 618.904 1072.38 618.711 1071.61 618.325C1071.36 617.811 1071.16 617.425 1071.04 617.168C1070.91 616.782 1070.52 616.46 1069.88 616.203C1070.01 615.56 1070.07 614.981 1070.07 614.467C1070.2 613.823 1070.27 613.18 1070.27 612.537C1070.52 612.28 1071.04 611.958 1071.81 611.573C1072.7 611.187 1073.28 610.994 1073.54 610.994C1074.43 610.994 1075.2 611.187 1075.85 611.573C1076.49 611.958 1077.19 612.28 1077.96 612.537C1078.09 612.923 1078.15 613.309 1078.15 613.695C1078.28 613.952 1078.35 614.274 1078.35 614.66ZM1027.17 576.651C1026.92 576.908 1026.53 577.23 1026.02 577.615C1025.63 577.873 1025.31 578.13 1025.06 578.387H1023.9C1021.98 578.387 1020.5 577.487 1019.48 575.686C1019.73 573.242 1020.7 571.506 1022.36 570.477C1023.13 570.605 1023.97 570.67 1024.86 570.67C1025.89 570.67 1026.53 571.184 1026.79 572.213C1027.69 573.499 1027.81 574.979 1027.17 576.651ZM1036.21 594.015C1035.96 595.43 1035.51 596.523 1034.87 597.295C1034.23 598.067 1033.14 598.453 1031.6 598.453C1031.08 598.453 1030.64 598.388 1030.25 598.26C1029.87 598.131 1029.48 598.003 1029.1 597.874C1028.84 597.359 1028.58 596.845 1028.33 596.33C1028.07 595.816 1027.94 595.237 1027.94 594.594C1027.94 593.694 1028.2 592.857 1028.71 592.086C1029.35 591.185 1030.12 590.671 1031.02 590.542C1031.92 590.542 1032.56 590.607 1032.94 590.735C1033.33 590.735 1033.59 590.799 1033.71 590.928C1033.84 591.057 1033.97 591.185 1034.1 591.314C1034.23 591.314 1034.61 591.314 1035.25 591.314C1035.25 592.086 1035.25 592.6 1035.25 592.857C1035.38 593.115 1035.7 593.501 1036.21 594.015ZM1070.07 634.918C1070.07 636.076 1069.69 636.912 1068.92 637.426C1068.28 637.941 1067.44 638.198 1066.42 638.198C1065.26 638.198 1064.24 638.005 1063.34 637.619C1062.83 636.847 1062.44 636.14 1062.19 635.497C1061.93 634.725 1061.8 633.825 1061.8 632.796C1062.7 631.895 1063.66 631.317 1064.69 631.059C1065.71 630.673 1066.68 630.159 1067.57 629.516C1067.96 630.545 1068.47 631.445 1069.11 632.217C1069.75 632.989 1070.07 633.889 1070.07 634.918ZM1044.49 613.695L1043.14 616.975L1038.52 618.711C1037.88 618.068 1037.24 617.425 1036.6 616.782C1035.96 616.139 1035.64 615.303 1035.64 614.274C1035.64 613.373 1036.09 612.473 1036.98 611.573C1038.01 610.544 1038.91 610.029 1039.68 610.029C1039.93 610.029 1040.13 610.093 1040.25 610.222C1040.38 610.222 1040.58 610.222 1040.83 610.222C1041.47 610.865 1042.05 611.444 1042.56 611.958C1043.2 612.473 1043.85 613.052 1044.49 613.695ZM1051.99 632.41C1051.99 633.31 1051.86 634.146 1051.61 634.918C1051.35 635.561 1050.84 636.204 1050.07 636.847C1049.43 636.976 1048.85 637.105 1048.33 637.233C1047.95 637.362 1047.44 637.426 1046.8 637.426C1046.41 637.426 1046.09 637.362 1045.83 637.233C1045.58 637.105 1045.32 636.912 1045.06 636.654L1043.72 634.146C1043.85 632.474 1044.36 631.188 1045.26 630.288C1045.64 630.159 1045.9 630.03 1046.03 629.902C1046.28 629.773 1046.67 629.773 1047.18 629.902C1047.95 630.159 1048.53 630.352 1048.91 630.48C1049.3 630.48 1049.62 630.545 1049.87 630.673C1050.13 630.673 1050.39 630.866 1050.64 631.252C1050.9 631.509 1051.35 631.895 1051.99 632.41ZM1060.26 653.247C1060.26 654.405 1059.75 655.241 1058.72 655.755C1057.83 656.398 1056.86 656.72 1055.84 656.72C1055.32 656.72 1054.56 656.591 1053.53 656.334C1053.27 655.691 1053.02 655.112 1052.76 654.598C1052.5 654.083 1052.38 653.504 1052.38 652.861C1052.38 651.832 1052.76 650.932 1053.53 650.16C1054.43 649.388 1055.32 649.003 1056.22 649.003C1056.99 649.003 1057.63 648.938 1058.15 648.81C1058.53 649.581 1058.98 650.289 1059.49 650.932C1060.01 651.575 1060.26 652.347 1060.26 653.247Z" fill="#FFEB39"/>
<path d="M1143.95 512.402C1143.95 512.917 1143.89 513.367 1143.76 513.753C1143.76 514.139 1143.76 514.589 1143.76 515.103C1142.99 515.361 1142.15 515.618 1141.26 515.875C1140.49 516.132 1139.72 516.261 1138.95 516.261C1138.18 515.875 1137.47 515.425 1136.83 514.91C1136.19 514.267 1135.87 513.496 1135.87 512.595C1135.87 511.823 1136.06 511.18 1136.45 510.666C1136.83 510.151 1137.15 509.573 1137.41 508.929C1138.18 508.672 1138.75 508.544 1139.14 508.544C1140.17 508.544 1141.06 508.865 1141.83 509.508C1142.6 510.023 1143.31 510.602 1143.95 511.245V512.402ZM1144.72 528.223C1144.46 528.866 1144.27 529.445 1144.14 529.96C1144.01 530.346 1143.95 530.86 1143.95 531.503C1143.31 531.889 1142.67 532.275 1142.03 532.661C1141.38 532.918 1140.68 533.047 1139.91 533.047C1138.88 533.047 1138.11 532.854 1137.6 532.468C1137.09 531.953 1136.7 531.375 1136.45 530.731C1136.32 530.088 1136.19 529.445 1136.06 528.802C1136.06 528.03 1136 527.323 1135.87 526.68C1136.64 526.422 1137.28 526.101 1137.79 525.715C1138.43 525.329 1139.14 525.136 1139.91 525.136C1140.81 525.651 1141.64 526.101 1142.41 526.487C1143.31 526.744 1144.08 527.323 1144.72 528.223ZM1143.76 547.324C1143.76 548.482 1143.37 549.446 1142.6 550.218C1141.58 550.604 1140.61 550.797 1139.72 550.797H1138.56C1137.92 550.282 1137.34 549.768 1136.83 549.253C1136.32 548.739 1136.06 548.096 1136.06 547.324C1136.06 547.067 1136.13 546.745 1136.25 546.359C1136.38 545.974 1136.51 545.652 1136.64 545.395C1137.28 545.137 1137.92 544.88 1138.56 544.623C1139.2 544.237 1139.85 544.044 1140.49 544.044C1141.13 544.044 1141.64 544.237 1142.03 544.623C1142.54 545.009 1143.12 545.33 1143.76 545.588V547.324ZM1143.37 563.531C1143.37 564.946 1143.24 566.039 1142.99 566.811C1142.86 567.583 1142.47 568.547 1141.83 569.705C1140.81 569.576 1139.97 569.576 1139.33 569.705C1138.69 569.705 1137.86 569.512 1136.83 569.126C1136.83 568.354 1136.7 567.647 1136.45 567.004C1136.19 566.232 1136.06 565.525 1136.06 564.881V563.531C1136.57 563.274 1137.09 563.016 1137.6 562.759C1138.11 562.502 1138.63 562.373 1139.14 562.373C1140.04 562.373 1140.74 562.566 1141.26 562.952C1141.9 563.338 1142.6 563.531 1143.37 563.531ZM1143.37 584.175C1143.37 584.818 1143.12 585.397 1142.6 585.912C1142.22 586.426 1141.9 587.005 1141.64 587.648C1140.61 587.905 1139.78 588.034 1139.14 588.034C1138.11 588.034 1137.22 587.648 1136.45 586.876C1135.68 585.976 1135.29 585.011 1135.29 583.982C1135.29 583.339 1135.48 582.825 1135.87 582.439C1136.25 581.924 1136.7 581.538 1137.22 581.281C1137.73 580.895 1138.37 580.702 1139.14 580.702C1140.04 580.702 1141 581.024 1142.03 581.667C1142.15 582.182 1142.41 582.567 1142.79 582.825C1143.18 583.082 1143.37 583.532 1143.37 584.175ZM1143.56 601.733C1143.56 602.89 1143.12 604.048 1142.22 605.206C1141.45 605.591 1140.61 605.784 1139.72 605.784C1138.31 605.784 1137.15 605.334 1136.25 604.434C1136 603.919 1135.87 603.148 1135.87 602.119C1135.87 601.475 1136.06 600.704 1136.45 599.803C1136.96 598.774 1137.66 598.26 1138.56 598.26C1138.82 598.26 1139.01 598.324 1139.14 598.453C1139.27 598.453 1139.4 598.453 1139.52 598.453L1140.1 597.681C1140.74 598.324 1141.19 598.774 1141.45 599.032C1141.83 599.289 1142.41 599.546 1143.18 599.803C1143.44 600.575 1143.56 601.218 1143.56 601.733ZM1144.53 621.026C1143.63 621.541 1142.79 621.991 1142.03 622.377C1141.26 622.763 1140.36 622.956 1139.33 622.956H1137.6C1136.96 622.441 1136.38 621.927 1135.87 621.412C1135.36 620.898 1134.97 620.319 1134.71 619.676C1135.23 618.776 1135.74 618.004 1136.25 617.361C1136.9 616.718 1137.47 616.01 1137.99 615.238C1138.11 615.367 1138.43 615.56 1138.95 615.817C1139.2 615.817 1139.4 615.817 1139.52 615.817C1139.78 615.689 1140.04 615.624 1140.29 615.624C1140.68 615.624 1141 615.689 1141.26 615.817C1141.64 616.846 1142.35 617.425 1143.37 617.554C1143.37 618.454 1143.44 619.097 1143.56 619.483C1143.95 619.74 1144.27 620.255 1144.53 621.026ZM1143.37 637.619C1143.37 638.52 1142.86 639.163 1141.83 639.549C1140.94 639.934 1140.17 640.127 1139.52 640.127C1138.88 640.127 1138.31 640.127 1137.79 640.127C1137.41 639.999 1136.96 639.934 1136.45 639.934C1136.32 639.291 1136.13 638.712 1135.87 638.198C1135.61 637.683 1135.48 637.105 1135.48 636.462C1136.13 635.304 1136.64 634.596 1137.02 634.339C1137.41 634.082 1137.99 633.567 1138.75 632.796C1139.27 633.053 1139.72 633.31 1140.1 633.567C1140.49 633.696 1141 633.76 1141.64 633.76C1141.9 634.404 1142.22 635.047 1142.6 635.69C1143.12 636.333 1143.37 636.976 1143.37 637.619ZM1143.76 653.44C1143.5 653.955 1143.12 654.405 1142.6 654.791C1142.09 655.305 1141.83 655.884 1141.83 656.527C1140.81 656.784 1140.04 656.913 1139.52 656.913C1138.5 656.913 1137.6 656.591 1136.83 655.948C1136.19 655.434 1135.61 654.791 1135.1 654.019C1135.36 653.376 1135.48 652.861 1135.48 652.475C1135.48 651.961 1135.48 651.446 1135.48 650.932C1136.13 650.675 1136.77 650.353 1137.41 649.967C1138.05 649.581 1138.69 649.388 1139.33 649.388C1139.85 649.388 1140.29 649.581 1140.68 649.967C1141.06 650.224 1141.45 650.417 1141.83 650.546C1142.22 651.189 1142.41 651.768 1142.41 652.282C1142.54 652.797 1142.99 653.183 1143.76 653.44Z" fill="#FFEB39"/>
<path d="M1274 513.753C1274 514.782 1273.49 515.747 1272.46 516.647C1271.43 517.547 1270.41 517.997 1269.38 517.997H1268.23C1267.72 517.354 1267.27 516.776 1266.88 516.261C1266.5 515.618 1266.11 514.975 1265.73 514.332C1265.98 513.56 1266.11 513.11 1266.11 512.981C1266.24 512.724 1266.18 512.209 1265.92 511.438C1267.84 510.537 1269.58 510.023 1271.11 509.894C1272.14 510.923 1272.97 511.566 1273.62 511.823C1273.87 512.852 1274 513.496 1274 513.753ZM1257.26 513.946V515.103C1256.36 515.489 1255.85 516.132 1255.72 517.033C1255.21 517.161 1254.7 517.29 1254.18 517.419C1253.8 517.547 1253.29 517.612 1252.65 517.612C1252.26 517.612 1251.88 517.547 1251.49 517.419C1251.11 517.29 1250.66 517.226 1250.14 517.226C1250.14 516.583 1250.02 516.068 1249.76 515.682C1249.63 515.168 1249.57 514.653 1249.57 514.139C1249.57 513.238 1249.95 512.467 1250.72 511.823C1251.62 511.052 1252.39 510.473 1253.03 510.087C1253.67 510.216 1254.12 510.409 1254.38 510.666C1254.63 510.923 1255.08 510.923 1255.72 510.666C1255.98 511.18 1256.3 511.695 1256.69 512.209C1257.07 512.724 1257.26 513.303 1257.26 513.946ZM1241.29 514.139L1238.6 517.997C1237.83 517.869 1237.19 517.805 1236.68 517.805C1236.16 517.805 1235.72 517.805 1235.33 517.805C1234.95 517.676 1234.56 517.483 1234.18 517.226C1233.79 516.84 1233.28 516.197 1232.64 515.296V513.753C1232.64 513.238 1232.7 512.852 1232.83 512.595C1232.96 512.338 1233.15 512.016 1233.41 511.631C1233.92 511.116 1234.43 510.73 1234.95 510.473C1235.59 510.216 1236.23 509.958 1236.87 509.701C1237.51 510.087 1238.02 510.473 1238.41 510.859C1238.79 511.245 1239.31 511.502 1239.95 511.631L1241.29 514.139ZM1222.44 512.402C1222.44 513.817 1222.06 515.039 1221.29 516.068C1220.65 517.097 1219.56 517.612 1218.02 517.612H1216.29C1215.39 516.325 1214.94 515.103 1214.94 513.946V512.402C1215.71 511.759 1216.16 511.245 1216.29 510.859C1216.54 510.344 1217.25 510.087 1218.4 510.087C1219.3 510.087 1220 510.344 1220.52 510.859C1221.16 511.245 1221.8 511.759 1222.44 512.402ZM1205.32 513.753C1205.32 515.039 1205.13 516.068 1204.74 516.84C1204.36 517.612 1203.46 517.997 1202.05 517.997C1201.41 517.997 1200.83 517.869 1200.32 517.612C1199.8 517.226 1199.23 516.84 1198.59 516.454C1198.46 516.197 1198.33 515.939 1198.2 515.682C1198.07 515.296 1198.01 514.91 1198.01 514.525C1198.01 513.367 1198.46 512.467 1199.36 511.823C1200.38 511.18 1201.41 510.859 1202.43 510.859C1202.69 510.859 1202.95 510.923 1203.2 511.052C1203.59 511.052 1203.97 511.052 1204.36 511.052C1204.49 511.566 1204.68 512.016 1204.93 512.402C1205.19 512.788 1205.32 513.238 1205.32 513.753ZM1255.92 580.509C1255.92 580.895 1255.79 581.346 1255.53 581.86C1254.51 582.889 1253.67 583.532 1253.03 583.789C1252.52 583.918 1251.56 584.047 1250.14 584.175C1249.5 583.661 1249.12 583.146 1248.99 582.632C1248.86 581.989 1248.48 581.41 1247.84 580.895L1249.57 577.422H1250.72C1250.98 577.294 1251.3 577.165 1251.68 577.037C1252.07 576.779 1252.45 576.651 1252.84 576.651C1253.09 576.651 1253.61 576.779 1254.38 577.037C1254.63 577.68 1254.95 578.259 1255.34 578.773C1255.72 579.288 1255.92 579.866 1255.92 580.509ZM1189.54 514.718C1189.29 515.361 1189.03 515.939 1188.77 516.454C1188.52 516.84 1188.39 517.419 1188.39 518.19H1187.24C1186.98 518.448 1186.79 518.769 1186.66 519.155C1186.66 519.412 1186.53 519.67 1186.27 519.927C1185.25 519.67 1184.03 519.284 1182.62 518.769C1181.34 518.126 1180.69 517.097 1180.69 515.682C1180.69 514.525 1181.08 513.624 1181.85 512.981C1182.62 512.209 1183.52 511.823 1184.54 511.823C1185.06 511.823 1185.7 511.952 1186.47 512.209C1186.72 512.852 1187.17 513.303 1187.81 513.56C1188.45 513.817 1189.03 514.203 1189.54 514.718ZM1239.18 580.702C1239.18 581.474 1238.92 582.182 1238.41 582.825C1238.02 583.339 1237.51 583.789 1236.87 584.175L1236.1 583.789C1235.84 583.789 1235.65 583.854 1235.52 583.982C1235.52 583.982 1235.4 583.982 1235.14 583.982C1234.11 583.982 1233.28 583.596 1232.64 582.825C1232.12 582.053 1231.87 581.153 1231.87 580.124C1231.87 578.837 1232.38 577.808 1233.41 577.037C1234.05 577.037 1235.01 576.908 1236.29 576.651C1237.06 577.037 1237.7 577.551 1238.22 578.194C1238.86 578.837 1239.18 579.673 1239.18 580.702ZM1186.27 529.574C1186.27 530.217 1186.21 530.796 1186.08 531.31C1185.95 531.825 1185.82 532.339 1185.7 532.854H1183.96C1183.58 532.854 1183.07 533.175 1182.43 533.818C1180.37 532.918 1178.96 531.439 1178.19 529.381C1178.83 528.866 1179.48 528.352 1180.12 527.837C1180.89 527.323 1181.53 526.744 1182.04 526.101C1182.94 526.23 1183.84 526.551 1184.73 527.066C1185.76 527.58 1186.27 528.416 1186.27 529.574ZM1188.58 545.588C1187.94 546.488 1187.43 547.581 1187.04 548.868C1186.4 548.739 1185.76 548.739 1185.12 548.868C1184.61 548.996 1184.03 549.061 1183.39 549.061C1182.49 549.061 1181.78 548.868 1181.27 548.482C1181.01 547.839 1180.69 547.26 1180.31 546.745C1179.92 546.231 1179.73 545.652 1179.73 545.009C1179.73 544.752 1179.86 544.237 1180.12 543.465C1180.63 542.951 1181.21 542.565 1181.85 542.308C1182.49 542.05 1183.07 541.665 1183.58 541.15C1184.48 541.279 1185.18 541.536 1185.7 541.922C1186.21 542.179 1186.79 542.501 1187.43 542.887C1187.68 543.401 1187.88 543.916 1188 544.43C1188.13 544.816 1188.33 545.202 1188.58 545.588ZM1220.13 579.738C1219.75 580.895 1219.24 581.989 1218.59 583.018C1218.08 584.047 1217.05 584.561 1215.52 584.561C1215 584.304 1214.43 584.111 1213.78 583.982C1213.27 583.854 1212.82 583.596 1212.44 583.211C1212.05 582.439 1211.86 581.603 1211.86 580.702C1211.86 580.317 1211.92 579.995 1212.05 579.738C1212.18 579.48 1212.31 579.159 1212.44 578.773L1214.94 576.844L1216.86 576.651C1217.38 577.165 1217.89 577.68 1218.4 578.194C1219.04 578.58 1219.62 579.095 1220.13 579.738ZM1189.35 562.759C1189.1 563.788 1188.71 564.689 1188.2 565.46C1187.68 566.232 1187.49 567.197 1187.62 568.354C1186.98 568.354 1186.4 568.354 1185.89 568.354C1185.38 568.226 1184.86 568.161 1184.35 568.161C1184.22 568.161 1184.03 568.226 1183.77 568.354C1183.52 568.354 1183.39 568.419 1183.39 568.547C1182.75 568.033 1182.3 567.711 1182.04 567.583C1181.78 567.325 1181.27 567.068 1180.5 566.811C1180.5 566.296 1180.5 565.91 1180.5 565.653C1180.63 565.267 1180.76 564.817 1180.89 564.303C1180.89 564.174 1180.76 563.852 1180.5 563.338C1181.01 562.695 1181.59 562.116 1182.23 561.602C1183 560.958 1183.9 560.637 1184.93 560.637C1185.82 560.637 1186.59 561.087 1187.24 561.987L1189.35 562.759ZM1201.66 581.667C1200.51 583.468 1198.97 584.368 1197.05 584.368C1196.53 584.368 1195.76 584.24 1194.74 583.982C1194.61 583.468 1194.42 583.018 1194.16 582.632C1193.9 582.246 1193.78 581.731 1193.78 581.088V580.124C1194.03 579.48 1194.29 578.966 1194.55 578.58C1194.93 578.066 1195.12 577.487 1195.12 576.844C1196.15 576.844 1197.11 577.037 1198.01 577.422C1198.91 577.68 1199.87 577.937 1200.89 578.194C1201.15 578.837 1201.28 579.416 1201.28 579.931C1201.28 580.445 1201.41 581.024 1201.66 581.667ZM1272.08 654.212C1271.18 655.112 1270.28 655.627 1269.38 655.755C1268.49 656.013 1267.52 656.334 1266.5 656.72C1264.7 655.562 1263.8 654.083 1263.8 652.282C1263.8 651.511 1264.25 650.675 1265.15 649.774C1266.05 648.745 1266.95 648.231 1267.84 648.231C1268.87 648.231 1269.51 648.488 1269.77 649.003C1270.02 649.388 1270.47 649.646 1271.11 649.774C1271.63 650.546 1271.82 651.125 1271.69 651.511C1271.69 651.768 1271.69 652.282 1271.69 653.054C1271.69 653.569 1271.82 653.955 1272.08 654.212ZM1188.39 580.317C1188 581.088 1187.56 581.924 1187.04 582.825C1186.66 583.596 1186.08 584.24 1185.31 584.754C1184.67 584.754 1184.03 584.818 1183.39 584.947C1182.75 584.947 1182.11 584.947 1181.46 584.947C1181.46 584.047 1181.21 583.468 1180.69 583.211C1180.18 582.953 1179.92 582.246 1179.92 581.088C1179.92 580.445 1180.12 579.866 1180.5 579.352C1180.89 578.709 1181.34 578.13 1181.85 577.615H1182.62C1182.87 577.615 1183.07 577.615 1183.2 577.615C1183.45 577.487 1183.71 577.422 1183.96 577.422H1185.12L1188.39 580.317ZM1255.92 653.44C1255.92 653.955 1255.79 654.405 1255.53 654.791C1255.27 655.177 1255.02 655.627 1254.76 656.141C1253.48 656.784 1251.94 657.106 1250.14 657.106C1249.63 656.591 1249.18 656.077 1248.8 655.562C1248.54 655.048 1248.22 654.533 1247.84 654.019C1247.84 653.376 1247.9 652.797 1248.03 652.282C1248.16 651.639 1248.22 650.996 1248.22 650.353C1248.99 650.353 1249.44 650.16 1249.57 649.774C1249.7 649.388 1249.82 648.874 1249.95 648.231C1251.23 648.745 1252.13 649.131 1252.65 649.388C1253.29 649.517 1253.99 650.16 1254.76 651.318C1255.02 651.704 1255.27 652.025 1255.53 652.282C1255.79 652.54 1255.92 652.926 1255.92 653.44ZM1187.24 596.716C1187.24 597.745 1187.11 598.71 1186.85 599.61C1186.59 600.382 1186.47 601.218 1186.47 602.119C1185.82 602.376 1185.18 602.633 1184.54 602.89C1183.9 603.148 1183.26 603.276 1182.62 603.276H1180.69C1180.44 602.247 1180.12 601.604 1179.73 601.347C1179.48 600.961 1179.35 600.061 1179.35 598.646C1179.35 598.003 1179.41 597.552 1179.54 597.295L1183.77 594.787C1184.41 595.301 1184.93 595.687 1185.31 595.945C1185.82 596.202 1186.47 596.459 1187.24 596.716ZM1239.56 652.282C1239.18 653.054 1238.92 653.762 1238.79 654.405C1238.79 655.048 1238.54 655.691 1238.02 656.334C1237 656.72 1236.1 656.913 1235.33 656.913C1234.31 656.913 1233.41 656.527 1232.64 655.755C1232 654.984 1231.68 654.083 1231.68 653.054C1231.68 652.668 1231.8 652.218 1232.06 651.704C1232.32 651.446 1232.64 651.189 1233.02 650.932C1233.41 650.546 1233.73 650.16 1233.98 649.774L1234.56 649.195C1236.49 649.195 1237.51 649.388 1237.64 649.774C1237.9 650.16 1238.54 650.996 1239.56 652.282ZM1188 616.203C1187.75 617.103 1187.49 617.682 1187.24 617.939C1186.98 618.197 1186.91 618.776 1187.04 619.676C1186.4 619.933 1185.76 620.19 1185.12 620.448C1184.48 620.705 1183.84 620.834 1183.2 620.834C1182.81 620.834 1182.43 620.834 1182.04 620.834C1181.66 620.705 1181.27 620.641 1180.89 620.641C1180.63 619.997 1180.31 619.419 1179.92 618.904C1179.54 618.39 1179.35 617.747 1179.35 616.975V615.817C1180.25 614.016 1181.4 613.116 1182.81 613.116C1183.45 613.116 1184.03 613.18 1184.54 613.309C1185.18 613.438 1185.82 613.502 1186.47 613.502C1186.72 614.016 1186.91 614.531 1187.04 615.045C1187.3 615.431 1187.62 615.817 1188 616.203ZM1221.86 653.247C1221.86 654.276 1221.54 655.241 1220.9 656.141C1220.26 657.042 1219.36 657.492 1218.21 657.492C1217.18 657.492 1216.22 657.106 1215.32 656.334C1214.55 655.691 1214.17 654.791 1214.17 653.633C1214.17 652.604 1214.43 651.897 1214.94 651.511C1215.45 650.996 1216.03 650.417 1216.67 649.774C1217.7 649.903 1218.59 650.096 1219.36 650.353C1220.26 650.61 1221.03 651.125 1221.67 651.897C1221.8 652.154 1221.86 652.604 1221.86 653.247ZM1187.62 632.796C1187.49 633.439 1187.3 634.082 1187.04 634.725C1186.91 635.24 1186.59 635.69 1186.08 636.076C1184.8 636.59 1183.77 636.847 1183 636.847C1181.72 636.847 1180.82 636.462 1180.31 635.69C1179.92 634.789 1179.67 633.825 1179.54 632.796C1180.18 631.509 1181.27 630.095 1182.81 628.551C1183.45 629.194 1184.03 629.516 1184.54 629.516C1185.06 629.387 1185.63 629.644 1186.27 630.288C1186.27 630.673 1186.4 631.124 1186.66 631.638C1187.04 631.767 1187.36 632.153 1187.62 632.796ZM1204.93 655.369C1203.91 655.627 1203.14 655.948 1202.63 656.334C1202.24 656.72 1201.54 656.913 1200.51 656.913C1199.61 656.913 1198.91 656.656 1198.39 656.141C1198.14 655.627 1197.82 655.177 1197.43 654.791C1197.18 654.405 1197.05 653.89 1197.05 653.247C1197.05 652.733 1197.11 652.282 1197.24 651.897C1197.5 651.511 1197.69 651.125 1197.82 650.739C1198.46 650.353 1199.03 649.967 1199.55 649.581C1200.19 649.067 1200.96 648.81 1201.86 648.81C1202.63 648.81 1203.2 648.874 1203.59 649.003C1203.72 649.903 1203.97 650.482 1204.36 650.739C1204.74 650.868 1204.93 651.253 1204.93 651.897C1204.93 652.282 1204.81 652.668 1204.55 653.054C1204.42 653.311 1204.36 653.569 1204.36 653.826C1204.36 654.083 1204.42 654.34 1204.55 654.598C1204.68 654.855 1204.81 655.112 1204.93 655.369ZM1186.08 650.932C1185.95 653.247 1184.93 655.048 1183 656.334C1182.23 655.82 1181.34 655.691 1180.31 655.948C1179.92 655.562 1179.54 655.112 1179.16 654.598C1178.9 654.083 1178.51 653.697 1178 653.44V652.09C1178 651.575 1178.07 651.125 1178.19 650.739C1178.32 650.353 1178.39 649.967 1178.39 649.581C1179.03 649.195 1179.67 648.874 1180.31 648.617C1181.08 648.359 1181.78 647.974 1182.43 647.459C1183.58 647.974 1184.22 648.552 1184.35 649.195C1184.61 649.71 1185.18 650.289 1186.08 650.932Z" fill="#FFEB39"/>
<path fill-rule="evenodd" clip-rule="evenodd" d="M29.2684 593.482L31.7696 592.915C31.4397 603.642 31.5768 607.094 32.2243 604.367C32.4165 603.557 32.5988 602.859 32.7668 602.273L32.87 603.241C32.974 604.217 33.0657 605.111 33.1449 605.934L32.8504 607.776H33.3106C33.7377 612.965 33.497 614.918 32.4749 617.832C28.9519 627.878 28.417 634.547 29.3338 656.991C29.8184 668.858 30.5537 680.573 30.9675 683.025L31.7201 687.483L32.3869 683.025C32.7534 680.573 33.4971 672.994 34.0395 666.183C35.3438 649.804 37.7243 633.07 39.5354 627.548C42.2078 619.4 46.5053 611.927 50.6363 607.776H80.1822C81.4677 608.741 82.6638 609.75 83.7725 610.807C82.7295 609.829 81.6106 608.893 80.4144 607.995H50.8685C46.7375 612.147 42.44 619.62 39.7676 627.768C37.9565 633.29 35.576 650.024 34.2717 666.402C33.7293 673.213 32.9856 680.792 32.6191 683.244L32.3789 684.85C33.1868 710.668 37.7899 733.45 44.622 748.823L43.9634 748.567L46.6207 756.43C48.0822 760.754 49.8485 765.066 50.5458 766.011C51.623 767.47 51.6098 767.543 50.4586 766.491C47.105 763.426 45.3263 766.273 47.9608 770.488C48.7151 771.695 49.4765 773.797 49.6529 775.159C49.8996 777.064 49.5619 777.601 48.1911 777.483C46.6517 777.351 46.4972 777.823 47.0577 780.95C47.4149 782.942 48.108 784.994 48.5984 785.512C49.0888 786.03 49.49 787.149 49.49 787.999C49.49 788.849 50.5742 790.742 51.8992 792.207C54.1674 794.713 54.2721 795.309 53.6884 802.384C53.3473 806.518 52.6984 810.134 52.2461 810.42C51.2661 811.041 51.2048 818.129 51.9285 820.179C50.6521 832.898 50.0434 847.335 50.3542 862.637C51.1727 902.937 52.5819 925.919 54.5862 938.95C54.4697 939.599 54.533 939.969 54.7598 940.045C55.2935 943.309 55.8679 945.905 56.4832 947.966C55.2424 948.575 51.1389 948.368 46.0906 948.113C43.9039 948.003 41.54 947.884 39.1547 947.818C37.716 946.99 36.987 947.044 35.5122 947.768C30.4447 947.778 25.6431 948.18 22.6374 949.585C14.551 951.27 5.10147 954.717 6.96516 959.525C7.00609 959.608 7.04788 959.69 7.09054 959.772L10 968.5L80 969V962.671C80.4525 961.007 80.4767 958.8 80.0968 955.96C79.2509 949.637 75.7705 939.726 73.7314 937.544C74.5211 938.186 75.5815 940.209 76.6291 942.828C77.4344 937.133 77.6083 929.244 77.0504 918.69C76.2835 904.182 77.2823 893.176 81.6051 869.513C87.4928 842.754 92.2535 814.951 81.8782 790.451L81.1681 791.905C77.2176 799.997 69.074 808.506 61.5365 812.42C58.4661 814.014 55.9569 816.162 55.0376 817.984C54.2141 819.616 53.1163 820.951 52.5981 820.951C52.492 820.951 52.3947 820.87 52.3064 820.723C52.3152 820.725 52.3242 820.727 52.3331 820.729C52.344 820.73 52.3549 820.731 52.3659 820.731C52.8841 820.731 53.9815 819.396 54.8051 817.764C55.7244 815.943 58.2339 813.794 61.3044 812.2C68.8418 808.287 76.9854 799.777 80.9359 791.686L84.3162 784.763L82.1366 783.649C79.0139 782.054 78.4845 777.601 80.715 771.692C82.8156 766.126 86.317 754.647 86.6128 752.356C86.7195 751.529 87.1383 750.303 87.5434 749.631C88.1969 748.548 87.5935 748.342 86.2596 748.765C93.7887 731.788 98.604 705.806 98.604 676.685C98.604 665.1 97.8418 654.011 96.4498 643.788C96.2532 643.899 96.0914 643.857 95.9507 643.615C96.1657 643.682 96.428 643.452 96.7674 643.032C97.7948 641.759 97.9811 639.41 97.5467 633.214C96.7539 621.904 94.0842 613.574 89.3882 607.776H89.5702L89.9274 598.364L90.2985 603.07C90.8754 610.387 92.9326 608.999 94.8691 599.987C95.7896 595.703 97.576 589.127 98.839 585.374L101.135 578.55L109.383 577.941V573.044C109.383 568.24 109.326 568.148 106.344 568.148C103.929 568.148 103.404 567.792 103.784 566.414C104.048 565.46 105.501 558.817 107.013 551.65C109.734 538.76 109.788 538.63 112.114 539.514L112.451 539.643C113.824 540.167 114.455 540.407 114.989 540.271C115.442 540.156 115.827 539.77 116.537 539.057C116.602 538.992 116.671 538.923 116.742 538.851C117.629 537.965 118.299 535.62 118.299 533.403C118.299 529.739 118.125 529.511 115.327 529.511C111.805 529.511 111.781 529.318 113.841 517.622C115.477 508.334 115.67 499.378 114.299 496.322C113.681 494.944 113.505 496.067 113.723 500.017C114.163 507.994 111.907 524.596 110.239 525.648C108.735 526.597 106.475 522.607 106.534 519.108C106.553 518.019 106.792 517.684 107.067 518.365C108.295 521.407 109.257 518.978 109.905 511.208C110.569 503.232 109.903 494.977 108.693 496.187C108.384 496.496 107.33 499.55 106.351 502.975C104.374 509.891 103.9 508.799 105.414 500.816C106.047 497.479 106.057 495.044 105.444 493.993C104.648 492.631 104.483 492.771 104.445 494.836C104.399 497.361 102.886 500.606 102.149 499.761C101.344 498.837 100.537 492.876 101.237 493.021C101.631 493.103 102.753 492.82 103.731 492.394C105.402 491.665 105.387 491.532 103.484 490.199C100.754 488.287 100.628 481.48 103.296 480.052C105.734 478.747 109.232 482.669 111.459 489.204C112.586 492.511 113.274 493.479 113.703 492.361C114.044 491.474 114.705 490.985 115.174 491.274C115.642 491.564 116.79 491.242 117.725 490.558C119.221 489.464 119.284 488.758 118.254 484.666C117.123 480.177 116.972 480.031 113.851 480.431C110.884 480.811 110.47 480.514 108.799 476.808C106.469 471.64 103.536 467.911 102.369 468.632C100.199 469.973 101.698 467.167 103.934 465.702C107.109 463.622 107.054 462.823 103.336 457.029C99.8527 451.601 98.3999 451.181 95.3286 454.713C92.1091 458.416 90.2245 457.814 87.1068 452.085C84.8001 447.847 84.5292 446.66 85.5098 445.09C86.4963 443.51 86.2201 442.433 83.8331 438.554C82.2613 435.999 80.2515 433.905 79.3668 433.897C78.4822 433.891 77.242 433.369 76.6109 432.738C75.7414 431.869 76.3921 431.333 79.2971 430.526C87.8478 428.152 92.3945 429.361 99.3395 435.858C104.916 441.074 108.838 442.896 116.317 443.746C121.59 444.345 127.342 443.326 136.182 440.228C140.18 438.828 145.619 432.381 147.069 427.325C149.44 419.055 147.18 409.856 141.456 404.487C138.45 401.668 128.673 398.149 110.126 393.212C103.841 391.538 99.4764 389.873 99.4764 389.149C99.4764 388.473 97.5818 387.38 95.2662 386.719C89.3006 385.017 87.8432 383.419 86.4783 377.08C84.5086 367.932 77.0577 358.898 68.2045 354.925C59.0917 350.835 48.0048 349.879 38.3573 352.351C28.1989 354.953 24.3048 357.093 19.0134 362.978C12.9257 369.749 9.82328 378.158 9.82328 387.887V395.364L4.55268 402.072C-0.560064 408.58 -0.67065 408.853 0.860596 411.19C1.7288 412.515 3.37243 413.599 4.51312 413.599C6.20575 413.599 6.46159 414.009 5.90449 415.828C5.52904 417.054 5.25992 418.726 5.3065 419.544C5.35308 420.361 5.38266 422.199 5.37217 423.628C5.36174 425.057 6.03014 426.788 6.8575 427.474C7.92076 428.357 8.06275 429.083 7.34183 429.952C6.05989 431.496 7.1027 434.404 8.93865 434.404C9.69764 434.404 10.3186 434.876 10.3186 435.453C10.3186 436.03 9.76141 436.193 9.08034 435.814C8.39927 435.436 8.96039 436.295 10.3273 437.723C12.6154 440.114 13.1162 440.236 16.6407 439.263C22.1896 437.731 31.4124 437.669 34.1812 439.145C37.0268 440.663 40.4469 446.342 43.1601 454.056C48.5517 469.385 49.523 479.645 46.1276 485.4C43.8507 489.259 43.2962 492.416 45.0899 491.308C47.1448 490.038 43.931 494.921 40.6998 497.979C38.9737 499.612 38.23 500.608 39.0473 500.191C39.8646 499.774 37.4127 502.647 33.5987 506.575C27.0502 513.319 24.9212 516.332 24.3932 520.585L23.431 519.64L24.0122 524.306C24.1356 525.296 24.35 526.283 24.6213 527.175C25.5532 532.72 28.0141 538.918 29.6128 538.773L29.6464 538.771L29.6821 538.768C29.9758 540.478 30.1439 542.29 30.1462 544.061C30.1498 547.818 29.8762 548.319 27.4926 548.9C24.5943 549.605 21.4495 552.003 21.4495 553.507C21.4495 554.028 22.211 553.529 23.1416 552.403C24.0722 551.274 26.139 550.222 27.7343 550.064L30.635 549.776L31.1884 569.095H28.2065C25.2423 569.095 20.4695 573.015 20.4932 575.431C20.5007 576.033 21.6184 575.076 22.9805 573.305C24.7115 571.055 26.2655 570.085 28.1421 570.085H30.827L31.4139 580.704C32.0356 591.953 31.7587 592.826 27.5583 592.856C26.3447 592.864 24.5994 594.093 23.449 595.749C20.5718 599.889 20.9871 600.764 24.1084 597.138C25.5708 595.439 27.8928 593.794 29.2684 593.482ZM47.0955 957.451C45.7027 954.308 43.9808 951.672 42.2033 950.037C43.9396 951.723 45.6111 954.35 46.9605 957.453L47.0955 957.451ZM40.0155 952.22C38.4213 950.664 36.7488 950.036 34.9684 950.304C33.6672 950.499 32.8256 950.515 32.4445 950.369C32.5131 950.723 33.4326 950.789 35.2006 950.523C36.8948 950.268 38.4912 950.825 40.0155 952.22ZM54.8069 940.057C55.0383 940.723 56.1398 939.91 57.9242 937.454C59.2629 935.611 59.4167 933.461 59.5333 931.83C59.659 930.072 59.7416 928.917 61.217 929.397C63.9037 930.27 66.7107 928.544 67.9699 925.242C68.5458 923.732 69.7712 921.434 70.6931 920.135C71.782 918.6 72.1531 918.066 71.6136 918.11C71.5389 918.391 71.1391 918.959 70.4609 919.915C69.539 921.214 68.3135 923.513 67.7377 925.023C66.4785 928.324 63.6715 930.051 60.9848 929.177C59.5094 928.697 59.4268 929.853 59.3011 931.61C59.1845 933.241 59.0307 935.391 57.692 937.234C56.2545 939.213 55.2602 940.125 54.8069 940.057ZM57.2794 917.772C57.2684 917.757 57.2581 917.742 57.2488 917.727C56.8479 917.081 56.4826 914.992 56.4371 913.085C56.3914 911.178 55.942 908.726 55.4381 907.637C55.3055 907.35 55.1953 907.212 55.1072 907.224C55.1386 907.278 55.1715 907.343 55.2059 907.417C55.7098 908.507 56.1592 910.959 56.2049 912.866C56.2504 914.773 56.6157 916.862 57.0166 917.508C57.0735 917.599 57.1623 917.688 57.2794 917.772ZM56.3076 921.632C56.3722 921.745 56.4358 921.815 56.4976 921.836C56.6875 921.902 56.8506 921.988 56.9881 922.092C56.8232 921.897 56.598 921.739 56.3076 921.632ZM25.4434 520.99C25.591 520.842 25.8234 521.338 26.0634 522.224L25.3186 521.493C25.3386 521.229 25.3798 521.053 25.4434 520.99ZM81.5147 577.541C81.6069 576.67 81.6897 575.81 81.7628 574.963C81.0069 575.703 80.0211 576.752 78.816 578.104C69.3438 588.736 68.0566 590.711 74.3283 584.989C77.2078 582.363 80.2032 579.245 81.5147 577.541ZM81.039 554.402C80.8987 553.843 80.7671 553.311 80.6446 552.802C80.5914 552.849 80.538 552.897 80.4848 552.945C78.5336 554.711 77.977 556.806 79.7502 555.71C80.4436 555.282 80.7591 556.055 80.6358 557.881C80.3153 562.629 80.5497 563.695 81.6669 562.578C81.8022 562.443 81.9375 562.177 82.0667 561.812C81.9033 558.981 81.5621 556.484 81.039 554.402ZM83.2132 540.426C83.5798 540.235 83.9896 539.985 84.4277 539.69L84.1214 535.95L82.6138 540.408C82.5656 540.551 82.519 540.692 82.4739 540.832C82.706 540.697 82.9523 540.563 83.2132 540.426ZM90.8424 533.951L94.3284 529.893C94.7365 528.553 94.4195 526.538 93.4819 526.538C92.2117 526.538 89.8911 531.931 89.6001 535.299C90.0451 534.845 90.4642 534.391 90.8424 533.951ZM90.1061 595.953C89.7471 595.372 88.9791 594.896 88.3997 594.896C87.7427 594.896 87.8179 595.465 88.5992 596.406C89.9579 598.044 91.1723 597.678 90.1061 595.953ZM71.7165 591.543C71.7277 591.061 70.8469 591.8 69.7572 593.185C68.6675 594.571 67.7859 596.08 67.7979 596.539C67.8279 597.621 71.6875 592.698 71.7165 591.543ZM92.542 586.971C91.7563 586.485 90.8905 586.311 90.6181 586.583C90.3455 586.856 90.7656 587.476 91.5513 587.961C92.337 588.447 93.2028 588.621 93.4753 588.349C93.7479 588.076 93.3278 587.456 92.542 586.971ZM110.543 532.483C110.751 530.303 110.573 528.52 110.152 528.52C109.729 528.52 109.383 530.303 109.383 532.483C109.383 534.662 109.559 536.445 109.774 536.445C109.989 536.445 110.335 534.662 110.543 532.483ZM96.7444 513.428C98.1149 508.513 98.5691 506.884 98.3562 506.791C98.2507 506.746 97.9815 507.077 97.5787 507.573C97.4229 507.765 97.2466 507.982 97.0526 508.211C95.4256 510.128 95.391 510.081 95.9712 506.725C97.298 499.05 97.7334 491.864 96.8716 491.864C94.9535 491.864 91.5043 517.452 92.9237 521.151C93.8013 523.438 94.0869 522.997 95.8528 516.631C96.1849 515.434 96.4815 514.371 96.7444 513.428ZM69.9553 487.703C69.0308 486.779 68.4932 486.788 67.5366 487.744C66.5569 488.724 66.6057 489.159 67.7758 489.883C69.7624 491.111 71.5625 489.31 69.9553 487.703ZM63.8134 482.948C63.8134 482.403 63.3939 481.957 62.8812 481.957C62.3685 481.957 61.6735 482.403 61.3368 482.948C61.0002 483.493 61.4195 483.939 62.2689 483.939C63.1184 483.939 63.8134 483.493 63.8134 482.948ZM43.6084 446.56C42.6014 445.553 41.7705 447.07 42.5967 448.407C43.2209 449.416 43.4542 449.417 43.7897 448.41C44.0193 447.722 43.9375 446.89 43.6084 446.56ZM130.929 432.415C137.227 429.629 139.03 427.024 139.069 420.651C139.099 415.804 138.781 415.017 135.575 411.993C133.258 409.807 129.777 407.991 125.421 406.696C108.567 401.684 97.9071 399.014 96.9999 399.578C96.455 399.916 93.7693 400.054 91.0316 399.884C87.1883 399.646 85.6897 399.988 84.4554 401.386C81.8979 404.283 75.1615 415.777 73.9254 419.352C72.915 422.275 72.9764 422.576 74.4945 422.136C79.4193 420.709 87.9653 420.427 92.6002 421.539C96.4082 422.452 99.2054 424.108 103.671 428.093C106.957 431.025 111.035 433.838 112.734 434.343C117.043 435.624 125.763 434.7 130.929 432.415ZM78.5814 407.645C80.438 404.402 82.8398 400.802 83.9186 399.644C85.531 397.913 85.6355 397.383 84.5055 396.668C81.4641 394.742 79.755 395.708 78.6554 399.977C76.7801 407.258 75.5871 410.581 74.6381 411.167C73.5391 411.847 73.4102 413.612 74.4629 413.57C74.8716 413.555 76.7248 410.887 78.5814 407.645ZM86.1028 386.85C86.4394 386.306 86.2428 385.86 85.666 385.86C85.089 385.86 84.6169 386.306 84.6169 386.85C84.6169 387.395 84.8134 387.841 85.0537 387.841C85.2941 387.841 85.7661 387.395 86.1028 386.85ZM81.331 383.693C81.0146 382.902 80.78 383.137 80.7325 384.291C80.6894 385.336 80.9238 385.921 81.2528 385.592C81.5819 385.262 81.617 384.408 81.331 383.693ZM84.6169 373.729C84.6169 373.176 83.9598 373.284 83.1309 373.972C82.3136 374.65 81.6449 375.651 81.6449 376.196C81.6449 376.748 82.302 376.641 83.1309 375.953C83.9482 375.275 84.6169 374.274 84.6169 373.729ZM61.2281 923.979C61.0979 923.819 61.0431 923.651 61.083 923.488C61.3709 922.308 63.4038 922.248 64.4412 923.075C63.5144 922.026 61.1621 921.992 60.8508 923.268C60.7921 923.509 60.9384 923.759 61.2281 923.979ZM58.4544 794.23C58.663 792.187 58.8337 793.859 58.8337 797.945C58.8337 802.032 58.663 803.704 58.4544 801.66C58.2459 799.617 58.2459 796.273 58.4544 794.23ZM73.0294 793.983C72.4617 791.803 72.3246 790.02 72.725 790.02C73.1253 790.02 73.7156 791.093 74.0369 792.404C74.3581 793.716 74.887 795.499 75.2121 796.367C75.5374 797.235 75.4113 797.945 74.9324 797.945C74.4535 797.945 73.5972 796.162 73.0294 793.983ZM61.5684 780.931C60.5669 779.905 61.9506 776.405 63.6166 775.75C65.8757 774.862 68.8277 776.94 68.8277 779.419C68.8277 781.275 68.3006 781.625 65.5243 781.613C63.7073 781.606 61.9272 781.298 61.5684 780.931ZM65.1924 674.328C66.3185 674.328 66.9711 674.774 66.6427 675.319C66.314 675.864 65.6614 676.309 65.1924 676.309C64.7233 676.309 64.0704 675.864 63.742 675.319C63.4134 674.774 64.066 674.328 65.1924 674.328ZM68.3547 673.729C68.676 673.4 69.5099 673.365 70.2079 673.651C70.9792 673.967 70.7501 674.202 69.6237 674.25C68.6045 674.293 68.0335 674.059 68.3547 673.729ZM59.149 673.674C59.8138 673.399 60.9015 673.399 61.5662 673.674C62.231 673.948 61.6871 674.173 60.3576 674.173C59.0281 674.173 58.4843 673.948 59.149 673.674ZM65.6756 666.404C66.4733 666.404 67.1259 666.85 67.1259 667.395C67.1259 667.94 66.4733 668.386 65.6756 668.386C64.8779 668.386 64.2252 667.94 64.2252 667.395C64.2252 666.85 64.8779 666.404 65.6756 666.404ZM68.3547 666.797C68.676 666.467 69.5099 666.432 70.2079 666.718C70.9792 667.035 70.7501 667.269 69.6237 667.317C68.6045 667.36 68.0335 667.126 68.3547 666.797ZM57.2152 664.661C58.1459 665.506 59.7775 666.415 60.8411 666.681L62.7749 667.164L60.8411 667.247C58.8192 667.334 55.5232 665.266 55.5232 663.911C55.5232 663.478 56.2846 663.815 57.2152 664.661ZM77.2784 655.53L74.3777 656.959C71.3568 658.447 59.8383 659.03 59.0567 657.734C58.8102 657.325 61.2864 656.991 64.5593 656.991C67.8322 656.991 72.0329 656.662 73.8942 656.26L77.2784 655.53ZM54.501 652.231C55.595 652.524 56.4901 653.158 56.4901 653.639C56.4901 654.975 54.929 654.682 53.6525 653.106C52.7167 651.951 52.8689 651.794 54.501 652.231ZM71.9604 633.073C71.9604 634.98 71.2767 637.241 70.441 638.097C67.9392 640.66 64.47 640.04 62.7997 636.731C61.9884 635.123 61.3246 632.993 61.3246 631.998C61.3246 631.002 60.4937 629.458 59.4781 628.567C57.0392 626.427 57.2008 618.527 59.6938 618.035C60.8608 617.805 61.3592 618.439 61.4457 620.263C61.5116 621.665 61.6205 623.359 61.6872 624.027C61.7536 624.694 63.0275 625.68 64.518 626.217C68.1561 627.528 70.3809 625.983 70.9935 621.719C71.2858 619.684 72.0261 618.354 72.8662 618.354C74.7869 618.354 75.1544 626.333 73.3202 628.212C72.5723 628.978 71.9604 631.166 71.9604 633.073Z" fill="#556FE5"/>
<path d="M380.617 373.729C380.617 373.176 379.96 373.284 379.131 373.971C378.314 374.65 377.645 375.651 377.645 376.196C377.645 376.748 378.302 376.641 379.131 375.953C379.948 375.275 380.617 374.274 380.617 373.729Z" fill="#FFEB39"/>
<path d="M376.732 384.291C376.78 383.137 377.015 382.902 377.331 383.693C377.617 384.408 377.582 385.262 377.253 385.592C376.924 385.921 376.689 385.336 376.732 384.291Z" fill="#FFEB39"/>
<path d="M382.103 386.85C382.439 386.306 382.243 385.86 381.666 385.86C381.089 385.86 380.617 386.306 380.617 386.85C380.617 387.395 380.813 387.841 381.054 387.841C381.294 387.841 381.766 387.395 382.103 386.85Z" fill="#FFEB39"/>
<path d="M379.919 399.644C378.84 400.802 376.438 404.402 374.581 407.645C372.725 410.887 370.872 413.555 370.463 413.57C369.41 413.612 369.539 411.847 370.638 411.167C371.587 410.581 372.78 407.258 374.655 399.977C375.755 395.708 377.464 394.742 380.505 396.668C381.635 397.383 381.531 397.913 379.919 399.644Z" fill="#FFEB39"/>
<path d="M426.929 432.415C433.227 429.629 435.03 427.024 435.069 420.651C435.099 415.804 434.781 415.017 431.575 411.993C429.258 409.807 425.777 407.991 421.421 406.696C404.567 401.684 393.907 399.014 393 399.578C392.455 399.916 389.769 400.054 387.032 399.884C383.188 399.646 381.69 399.988 380.455 401.386C377.898 404.283 371.162 415.777 369.925 419.352C368.915 422.275 368.976 422.576 370.495 422.136C375.419 420.709 383.965 420.427 388.6 421.539C392.408 422.452 395.205 424.109 399.671 428.093C402.957 431.025 407.035 433.838 408.734 434.343C413.043 435.624 421.763 434.7 426.929 432.415Z" fill="#FFEB39"/>
<path d="M338.597 448.406C337.77 447.07 338.601 445.553 339.608 446.56C339.938 446.89 340.019 447.722 339.79 448.41C339.454 449.417 339.221 449.417 338.597 448.406Z" fill="#FFEB39"/>
<path d="M359.813 482.948C359.813 482.403 359.394 481.957 358.881 481.957C358.368 481.957 357.674 482.403 357.337 482.948C357 483.493 357.42 483.939 358.269 483.939C359.118 483.939 359.813 483.493 359.813 482.948Z" fill="#FFEB39"/>
<path d="M363.537 487.744C364.493 486.788 365.031 486.779 365.955 487.703C367.563 489.31 365.762 491.111 363.776 489.883C362.606 489.159 362.557 488.724 363.537 487.744Z" fill="#FFEB39"/>
<path d="M392.744 513.428C394.115 508.513 394.569 506.884 394.356 506.791C394.251 506.746 393.981 507.077 393.579 507.573L393.576 507.577C393.421 507.768 393.245 507.983 393.053 508.211C391.426 510.128 391.391 510.081 391.971 506.724C393.298 499.05 393.733 491.864 392.872 491.864C390.953 491.864 387.504 517.452 388.924 521.151C389.801 523.438 390.087 522.997 391.853 516.631C392.183 515.439 392.479 514.38 392.741 513.44L392.744 513.428Z" fill="#FFEB39"/>
<path d="M322.063 522.224C321.823 521.338 321.591 520.842 321.443 520.99C321.38 521.053 321.339 521.229 321.319 521.493L322.063 522.224Z" fill="#FFEB39"/>
<path d="M377.515 577.542C377.607 576.67 377.69 575.81 377.763 574.963C377.007 575.703 376.021 576.752 374.816 578.104C365.344 588.736 364.057 590.711 370.328 584.989C373.208 582.363 376.203 579.245 377.515 577.542Z" fill="#FFEB39"/>
<path d="M376.645 552.802C376.767 553.311 376.899 553.844 377.039 554.402C377.562 556.484 377.903 558.981 378.067 561.812C377.938 562.177 377.802 562.443 377.667 562.578C376.55 563.695 376.315 562.629 376.636 557.881C376.759 556.055 376.444 555.282 375.75 555.71C373.977 556.806 374.534 554.711 376.485 552.945C376.538 552.897 376.591 552.849 376.645 552.802Z" fill="#FFEB39"/>
<path d="M379.213 540.426C379.58 540.235 379.99 539.985 380.428 539.69L380.121 535.95L378.614 540.408L378.572 540.533L378.543 540.619C378.52 540.69 378.497 540.761 378.474 540.832C378.706 540.697 378.952 540.563 379.213 540.426Z" fill="#FFEB39"/>
<path d="M390.328 529.893L386.842 533.951C386.464 534.391 386.045 534.845 385.6 535.299C385.891 531.931 388.212 526.538 389.482 526.538C390.42 526.538 390.737 528.553 390.328 529.893Z" fill="#FFEB39"/>
<path d="M386.106 595.953C385.747 595.372 384.979 594.896 384.4 594.896C383.743 594.896 383.818 595.465 384.599 596.406C385.958 598.044 387.172 597.678 386.106 595.953Z" fill="#FFEB39"/>
<path d="M365.757 593.185C366.847 591.8 367.728 591.061 367.716 591.543C367.687 592.698 363.828 597.621 363.798 596.539C363.786 596.08 364.667 594.571 365.757 593.185Z" fill="#FFEB39"/>
<path d="M388.542 586.971C387.756 586.485 386.89 586.311 386.618 586.583C386.345 586.856 386.766 587.476 387.551 587.961C388.337 588.447 389.203 588.621 389.475 588.349C389.748 588.076 389.328 587.456 388.542 586.971Z" fill="#FFEB39"/>
<path d="M406.152 528.52C406.573 528.52 406.751 530.303 406.543 532.483C406.335 534.662 405.989 536.445 405.774 536.445C405.559 536.445 405.383 534.662 405.383 532.483C405.383 530.303 405.729 528.52 406.152 528.52Z" fill="#FFEB39"/>
<path fill-rule="evenodd" clip-rule="evenodd" d="M370.5 0L588 969H376V962.671C376.453 961.007 376.477 958.8 376.097 955.96C375.251 949.637 371.77 939.726 369.731 937.544C370.521 938.186 371.581 940.209 372.629 942.828C373.434 937.133 373.608 929.244 373.05 918.69C372.284 904.182 373.282 893.177 377.605 869.513C383.493 842.754 388.253 814.951 377.878 790.451L377.168 791.906C373.218 799.997 365.074 808.506 357.537 812.42C354.466 814.014 351.957 816.162 351.038 817.984C350.214 819.616 349.116 820.951 348.598 820.951C348.492 820.951 348.395 820.87 348.306 820.723C348.315 820.725 348.324 820.727 348.333 820.729C348.344 820.73 348.355 820.731 348.366 820.731C348.884 820.731 349.982 819.396 350.805 817.764C351.724 815.943 354.234 813.794 357.304 812.2C364.842 808.287 372.985 799.777 376.936 791.686L380.316 784.763L378.137 783.649C375.014 782.054 374.485 777.601 376.715 771.692C378.816 766.126 382.317 754.647 382.613 752.356C382.719 751.529 383.138 750.303 383.543 749.631C384.197 748.548 383.593 748.342 382.26 748.765C384.428 743.876 386.371 738.241 388.038 732H334.817C336.492 738.266 338.444 743.921 340.622 748.823L339.963 748.567L342.621 756.429C344.082 760.754 345.848 765.066 346.546 766.011C347.623 767.47 347.61 767.543 346.459 766.491C343.105 763.427 341.326 766.273 343.961 770.488C344.715 771.695 345.477 773.797 345.653 775.159C345.9 777.064 345.562 777.601 344.191 777.483C342.652 777.351 342.497 777.823 343.058 780.95C343.415 782.942 344.108 784.994 344.598 785.512C345.089 786.03 345.49 787.149 345.49 787.999C345.49 788.849 346.574 790.742 347.899 792.207C350.167 794.713 350.272 795.309 349.688 802.384C349.347 806.518 348.698 810.134 348.246 810.42C347.266 811.041 347.205 818.129 347.928 820.179C346.652 832.898 346.043 847.335 346.354 862.637C347.173 902.937 348.582 925.919 350.586 938.95C350.47 939.599 350.533 939.969 350.76 940.045C351.293 943.309 351.868 945.905 352.483 947.966C351.242 948.575 347.139 948.368 342.091 948.113C339.904 948.003 337.54 947.884 335.155 947.818C333.716 946.99 332.987 947.044 331.512 947.768C326.445 947.778 321.643 948.18 318.637 949.585C310.551 951.27 301.101 954.717 302.965 959.525C302.984 959.563 303.003 959.6 303.022 959.638C303.044 959.683 303.067 959.727 303.091 959.772L306 968.5L376 969H153L370.5 0ZM325.305 632C325.792 626.657 326.792 622.63 328.475 617.832C329.497 614.918 329.738 612.965 329.311 607.776H328.85L329.145 605.934C329.066 605.111 328.974 604.217 328.87 603.241L328.767 602.273C328.599 602.859 328.417 603.557 328.224 604.367C327.577 607.094 327.44 603.642 327.77 592.915L325.268 593.482C323.893 593.794 321.571 595.439 320.108 597.138C316.987 600.764 316.572 599.889 319.449 595.749C320.599 594.093 322.345 592.864 323.558 592.856C327.759 592.826 328.036 591.953 327.414 580.704L326.827 570.085H324.142C322.266 570.085 320.711 571.055 318.981 573.305C317.618 575.076 316.501 576.033 316.493 575.431C316.47 573.015 321.242 569.095 324.207 569.095H327.188L326.635 549.776L323.734 550.064C322.139 550.222 320.072 551.274 319.142 552.403C318.211 553.529 317.45 554.028 317.45 553.507C317.45 552.003 320.594 549.605 323.493 548.9C325.876 548.319 326.15 547.818 326.146 544.061C326.144 542.29 325.976 540.478 325.682 538.768L325.646 538.771L325.613 538.773C324.014 538.918 321.553 532.719 320.621 527.175C320.35 526.283 320.136 525.297 320.012 524.306L319.431 519.64L320.393 520.585C320.921 516.332 323.05 513.319 329.599 506.575C333.413 502.647 335.865 499.774 335.047 500.191C334.23 500.608 334.974 499.612 336.7 497.979C339.931 494.921 343.145 490.038 341.09 491.308C339.296 492.416 339.851 489.259 342.128 485.4C345.523 479.645 344.552 469.385 339.16 454.056C336.447 446.342 333.027 440.663 330.181 439.145C327.412 437.669 318.19 437.731 312.641 439.263C309.116 440.237 308.615 440.114 306.327 437.723C304.96 436.295 304.399 435.436 305.08 435.814C305.761 436.193 306.319 436.03 306.319 435.453C306.319 434.876 305.698 434.404 304.939 434.404C303.103 434.404 302.06 431.496 303.342 429.952C304.063 429.083 303.921 428.357 302.857 427.474C302.03 426.788 301.362 425.057 301.372 423.628C301.383 422.199 301.353 420.361 301.307 419.544C301.26 418.726 301.529 417.054 301.904 415.828C302.462 414.009 302.206 413.599 300.513 413.599C299.372 413.599 297.729 412.515 296.861 411.19C295.329 408.853 295.44 408.58 300.553 402.072L305.823 395.364V387.887C305.823 378.158 308.926 369.749 315.013 362.978C320.305 357.093 324.199 354.953 334.357 352.351C344.005 349.879 355.092 350.835 364.204 354.925C373.058 358.898 380.509 367.932 382.478 377.079C383.843 383.419 385.301 385.017 391.266 386.719C393.582 387.38 395.476 388.473 395.476 389.149C395.476 389.873 399.841 391.538 406.126 393.212C424.673 398.149 434.45 401.668 437.456 404.487C443.18 409.856 445.44 419.055 443.069 427.325C441.619 432.381 436.18 438.828 432.182 440.228C423.341 443.326 417.59 444.345 412.317 443.746C404.838 442.896 400.916 441.074 395.34 435.858C388.395 429.361 383.848 428.152 375.297 430.526C372.392 431.333 371.741 431.869 372.611 432.738C373.242 433.369 374.482 433.891 375.367 433.897C376.251 433.905 378.261 435.999 379.833 438.554C382.22 442.433 382.496 443.51 381.51 445.09C380.529 446.66 380.8 447.847 383.107 452.085C386.224 457.814 388.109 458.416 391.329 454.713C394.4 451.181 395.853 451.601 399.336 457.029C403.054 462.823 403.109 463.622 399.934 465.702C397.698 467.167 396.199 469.973 398.369 468.632C399.536 467.911 402.469 471.64 404.799 476.808C406.47 480.514 406.884 480.811 409.851 480.431C412.972 480.031 413.123 480.177 414.254 484.666C415.284 488.758 415.221 489.464 413.725 490.558C412.79 491.242 411.642 491.564 411.174 491.274C410.705 490.985 410.044 491.474 409.703 492.361C409.274 493.479 408.586 492.511 407.459 489.204C405.232 482.669 401.734 478.747 399.296 480.052C396.628 481.48 396.754 488.287 399.484 490.199C401.387 491.532 401.402 491.665 399.731 492.394C398.753 492.82 397.631 493.103 397.237 493.021C396.537 492.876 397.344 498.837 398.149 499.761C398.886 500.606 400.399 497.362 400.445 494.836C400.483 492.771 400.648 492.631 401.444 493.993C402.057 495.044 402.047 497.479 401.414 500.816C399.9 508.799 400.374 509.891 402.351 502.975C403.33 499.55 404.384 496.496 404.693 496.187C405.903 494.977 406.569 503.232 405.905 511.208C405.257 518.978 404.295 521.407 403.067 518.365C402.792 517.684 402.553 518.019 402.534 519.108C402.475 522.607 404.735 526.597 406.239 525.648C407.907 524.596 410.163 507.994 409.723 500.017C409.505 496.067 409.681 494.944 410.299 496.322C411.67 499.378 411.477 508.334 409.841 517.622C407.781 529.318 407.805 529.511 411.327 529.511C414.125 529.511 414.299 529.739 414.299 533.403C414.299 535.62 413.629 537.965 412.742 538.851L412.537 539.057C411.827 539.77 411.442 540.156 410.989 540.271C410.455 540.407 409.824 540.167 408.451 539.643L408.114 539.514C405.788 538.63 405.734 538.76 403.013 551.65C401.501 558.817 400.048 565.46 399.784 566.414C399.404 567.792 399.929 568.148 402.344 568.148C405.326 568.148 405.383 568.24 405.383 573.044V577.941L397.135 578.55L394.839 585.374C393.576 589.127 391.79 595.703 390.869 599.987C388.933 608.999 386.875 610.387 386.298 603.07L385.927 598.364L385.57 607.776H385.388C389.915 613.365 392.558 621.306 393.453 632H368.02C368.191 630.407 368.71 628.837 369.32 628.212C371.154 626.333 370.787 618.354 368.866 618.354C368.026 618.354 367.286 619.684 366.993 621.719C366.381 625.983 364.156 627.528 360.518 626.218C359.027 625.68 357.754 624.694 357.687 624.026C357.621 623.359 357.512 621.665 357.446 620.263C357.359 618.438 356.861 617.805 355.694 618.035C353.201 618.527 353.039 626.427 355.478 628.567C356.494 629.458 357.325 631.002 357.325 631.998V632H334.695C335.066 630.244 335.427 628.807 335.768 627.768C338.44 619.62 342.738 612.147 346.868 607.995H376.414C377.611 608.893 378.73 609.829 379.773 610.807C378.664 609.75 377.468 608.741 376.182 607.776H346.636C342.505 611.927 338.208 619.4 335.535 627.548C335.18 628.63 334.804 630.143 334.417 632H325.305Z" fill="#FFEB39"/>
<path d="M353.249 917.727C353.255 917.737 353.262 917.747 353.269 917.757L353.279 917.772C353.162 917.688 353.074 917.599 353.017 917.508C352.616 916.862 352.25 914.773 352.205 912.866C352.159 910.959 351.71 908.507 351.206 907.417C351.171 907.343 351.139 907.278 351.107 907.224C351.195 907.212 351.306 907.35 351.438 907.636C351.942 908.726 352.391 911.178 352.437 913.085C352.483 914.992 352.848 917.081 353.249 917.727Z" fill="#FFEB39"/>
<path d="M350.807 940.057C351.038 940.723 352.14 939.91 353.924 937.454C355.263 935.611 355.417 933.461 355.533 931.83C355.659 930.072 355.742 928.917 357.217 929.397C359.904 930.27 362.711 928.543 363.97 925.242C364.546 923.732 365.771 921.434 366.693 920.135C367.782 918.6 368.153 918.066 367.614 918.11C367.539 918.391 367.139 918.959 366.461 919.915C365.539 921.214 364.314 923.513 363.738 925.023C362.478 928.324 359.671 930.051 356.985 929.177C355.509 928.697 355.427 929.853 355.301 931.61C355.184 933.241 355.031 935.391 353.692 937.234C352.255 939.213 351.26 940.125 350.807 940.057Z" fill="#FFEB39"/>
<path d="M338.203 950.037C339.981 951.672 341.703 954.308 343.096 957.451L342.961 957.453C341.611 954.35 339.94 951.723 338.203 950.037Z" fill="#FFEB39"/>
<path d="M330.968 950.304C332.749 950.036 334.421 950.664 336.015 952.22C334.491 950.825 332.895 950.268 331.201 950.523C329.433 950.789 328.513 950.723 328.445 950.369C328.826 950.515 329.667 950.499 330.968 950.304Z" fill="#FFEB39"/>
<path d="M352.308 921.632C352.372 921.745 352.436 921.815 352.498 921.836C352.687 921.902 352.851 921.988 352.988 922.092C352.823 921.897 352.598 921.739 352.308 921.632Z" fill="#FFEB39"/>
<path d="M357.083 923.488C357.043 923.651 357.098 923.819 357.228 923.979C356.938 923.759 356.792 923.509 356.851 923.268C357.162 921.992 359.514 922.026 360.441 923.075C359.404 922.248 357.371 922.308 357.083 923.488Z" fill="#FFEB39"/>
<path d="M354.454 794.23C354.663 792.187 354.834 793.859 354.834 797.945C354.834 802.032 354.663 803.704 354.454 801.66C354.246 799.617 354.246 796.273 354.454 794.23Z" fill="#FFEB39"/>
<path d="M368.725 790.02C368.325 790.02 368.462 791.803 369.029 793.983C369.597 796.162 370.454 797.945 370.932 797.945C371.411 797.945 371.537 797.235 371.212 796.367C370.887 795.499 370.358 793.716 370.037 792.405C369.716 791.093 369.125 790.02 368.725 790.02Z" fill="#FFEB39"/>
<path d="M357.568 780.931C356.567 779.905 357.951 776.405 359.617 775.75C361.876 774.862 364.828 776.94 364.828 779.419C364.828 781.275 364.301 781.625 361.524 781.613C359.707 781.606 357.927 781.298 357.568 780.931Z" fill="#FFEB39"/>
</svg>
