<svg width="591" height="153" viewBox="0 0 591 153" fill="none" xmlns="http://www.w3.org/2000/svg">
<path d="M135.822 3.85876C135.822 4.63052 135.694 5.40227 135.438 6.17402C135.309 6.81715 135.245 7.52459 135.245 8.29634C134.604 8.68222 133.898 9.0681 133.129 9.45397C132.488 9.71122 131.782 9.83985 131.013 9.83985C130.243 9.83985 129.474 9.51828 128.704 8.87516C128.063 8.1034 127.742 7.26734 127.742 6.36696C127.742 5.33796 128.127 4.37327 128.896 3.47289C129.666 2.57251 130.628 2.12232 131.782 2.12232H132.937C133.706 2.76545 134.091 3.27995 134.091 3.66583C134.091 4.0517 134.668 4.11601 135.822 3.85876ZM138.131 26.8184L136.977 29.7125C136.72 29.9697 136.271 30.3556 135.63 30.8701C135.117 31.3846 134.604 31.6419 134.091 31.6419C133.578 31.6419 133.129 31.6419 132.744 31.6419C132.488 31.5132 132.167 31.5132 131.782 31.6419C131.269 30.9987 130.82 30.4199 130.436 29.9054C130.051 29.2623 129.858 28.4905 129.858 27.5902C129.858 27.2043 129.858 26.8184 129.858 26.4325C129.987 26.0467 130.051 25.6608 130.051 25.2749C130.692 24.889 131.333 24.5032 131.975 24.1173C132.616 23.7314 133.321 23.5385 134.091 23.5385C134.347 23.5385 134.604 23.6028 134.86 23.7314C135.245 23.7314 135.566 23.7314 135.822 23.7314C136.079 24.3745 136.399 24.9533 136.784 25.4678C137.297 25.8537 137.746 26.3039 138.131 26.8184ZM124.664 19.2938C124.408 19.9369 124.023 20.6444 123.51 21.4161C123.125 22.1879 122.42 22.5738 121.394 22.5738H120.432C119.021 22.5738 117.931 22.1879 117.161 21.4161C117.161 20.773 117.161 20.2585 117.161 19.8726C117.161 19.3581 117.033 18.7793 116.776 18.1362C117.289 17.4931 117.867 16.7856 118.508 16.0139C119.149 15.2421 119.919 14.8562 120.816 14.8562C121.329 14.8562 121.842 14.9849 122.355 15.2421C122.74 15.8852 123.189 16.5927 123.702 17.3644C124.343 18.0076 124.664 18.6507 124.664 19.2938ZM137.554 46.884C137.554 48.2989 137.169 49.5208 136.399 50.5498C135.758 51.4502 134.732 51.9004 133.321 51.9004C132.039 51.9004 131.013 51.5788 130.243 50.9357C130.243 50.4212 130.115 49.971 129.858 49.5851C129.73 49.0706 129.666 48.5561 129.666 48.0416C129.666 47.5271 129.794 47.0126 130.051 46.4981L129.281 45.3405C129.923 45.0832 130.628 44.826 131.397 44.5687C132.167 44.3115 132.937 44.1828 133.706 44.1828C134.732 44.1828 135.438 44.5044 135.822 45.1475C136.335 45.662 136.912 46.2409 137.554 46.884ZM115.045 32.2207C114.917 33.6356 114.724 34.6646 114.468 35.3077C114.34 35.9508 113.762 36.7869 112.736 37.8159C112.352 37.8159 111.967 37.8802 111.582 38.0088C111.197 38.0088 110.813 38.0088 110.428 38.0088C110.299 38.0088 110.171 38.0088 110.043 38.0088C109.915 37.8802 109.786 37.8159 109.658 37.8159C108.76 37.6873 108.119 37.3657 107.734 36.8512C107.35 36.2081 107.093 35.5649 106.965 34.9218C106.837 34.1501 106.837 33.314 106.965 32.4136C107.221 32.1564 107.606 31.8348 108.119 31.4489C108.376 31.1917 108.696 30.9344 109.081 30.6772C109.594 30.4199 109.979 30.1627 110.235 29.9054C111.261 30.1627 112.159 30.3556 112.929 30.4842C113.826 30.6129 114.532 31.1917 115.045 32.2207ZM136.784 67.7213C136.784 69.7793 136.079 71.1299 134.668 71.773C133.129 71.6444 132.103 71.3871 131.59 71.0013C131.077 70.4868 130.307 69.8436 129.281 69.0719V68.1072C129.281 67.0782 129.602 66.2421 130.243 65.599C131.013 64.8272 131.782 64.1198 132.552 63.4767C133.193 63.6053 133.834 63.7982 134.476 64.0555C135.117 64.1841 135.758 64.3127 136.399 64.4414C136.656 65.7276 136.784 66.8209 136.784 67.7213ZM106.58 48.0416C106.067 49.0706 105.554 49.9067 105.041 50.5498C104.528 51.0643 103.63 51.3216 102.348 51.3216C100.937 51.3216 99.8467 50.9357 99.0772 50.1639C99.0772 49.5208 99.0772 49.0063 99.0772 48.6204C99.0772 48.1059 98.9489 47.5271 98.6924 46.884C99.0772 46.2409 99.5902 45.5334 100.231 44.7617C100.873 43.9899 101.642 43.604 102.54 43.604C102.797 43.604 103.117 43.6683 103.502 43.797C103.887 43.9256 104.207 44.0542 104.464 44.1828C104.72 44.6973 105.105 45.3405 105.618 46.1122C106.259 46.7554 106.58 47.3985 106.58 48.0416ZM136.977 87.401C136.977 88.1728 136.72 88.8159 136.207 89.3304C135.694 89.7163 135.245 90.2308 134.86 90.8739C134.476 91.0025 134.091 91.1311 133.706 91.2598C133.321 91.3884 132.937 91.4527 132.552 91.4527C131.782 91.4527 131.205 91.3241 130.82 91.0668C130.564 90.681 130.115 90.488 129.474 90.488C129.345 89.9735 129.217 89.5233 129.089 89.1374C128.961 88.7516 128.896 88.3014 128.896 87.7869C128.896 87.1438 129.025 86.5006 129.281 85.8575C129.666 85.2144 129.858 84.5712 129.858 83.9281L130.82 83.5422C131.333 83.5422 131.782 83.5422 132.167 83.5422C132.68 83.4136 133.129 83.3493 133.514 83.3493H134.476C135.117 83.9924 135.694 84.6356 136.207 85.2787C136.72 85.9218 136.977 86.6293 136.977 87.401ZM96.5762 63.4767C96.5762 64.377 96.2555 65.2131 95.6143 65.9849C95.1012 66.7566 94.6523 67.5284 94.2676 68.3001C94.0111 68.0429 93.6263 67.7856 93.1133 67.5284C92.8568 67.5284 92.6003 67.5927 92.3438 67.7213C92.0872 67.7213 91.8307 67.7213 91.5742 67.7213C90.4199 66.9496 89.5863 66.3064 89.0732 65.7919C88.6885 65.1488 88.4961 64.1198 88.4961 62.7049C88.4961 61.6759 88.8809 60.9042 89.6504 60.3897C90.4199 59.8752 91.3177 59.6179 92.3438 59.6179C93.3698 59.6179 94.5882 60.0681 95.999 60.9685V61.7402C96.1273 61.9975 96.2555 62.319 96.3838 62.7049C96.512 62.9622 96.5762 63.2194 96.5762 63.4767ZM137.169 106.309C137.169 107.209 136.848 107.917 136.207 108.431C135.566 108.946 135.117 109.525 134.86 110.168H132.552C132.167 110.168 131.59 110.039 130.82 109.782C130.436 109.139 129.987 108.56 129.474 108.045C129.089 107.531 128.768 106.952 128.512 106.309C128.64 105.409 128.961 104.637 129.474 103.994C129.987 103.222 130.692 102.836 131.59 102.836C131.846 102.836 132.039 102.9 132.167 103.029C132.295 103.029 132.488 103.029 132.744 103.029L134.091 102.45C134.476 102.836 135.053 103.415 135.822 104.187C136.72 104.958 137.169 105.666 137.169 106.309ZM137.554 125.024C137.169 125.667 136.784 126.31 136.399 126.953C136.015 127.596 135.694 128.24 135.438 128.883C134.283 129.269 133.129 129.462 131.975 129.462C130.82 129.462 129.923 129.204 129.281 128.69C129.153 127.918 129.089 127.275 129.089 126.76C129.217 126.246 128.961 125.667 128.319 125.024C128.961 124.381 129.602 123.738 130.243 123.095C130.884 122.451 131.654 122.13 132.552 122.13H134.091C134.86 122.902 135.373 123.48 135.63 123.866C135.886 124.124 136.528 124.509 137.554 125.024ZM86.1875 79.4905C86.1875 80.5195 85.7386 81.227 84.8408 81.6129C84.0713 81.8701 83.43 82.4489 82.917 83.3493C82.1475 82.8348 81.3779 82.4489 80.6084 82.1917C79.8389 81.9344 79.1335 81.4842 78.4922 80.8411C78.3639 80.198 78.2357 79.7478 78.1074 79.4905C78.1074 79.2333 77.8509 78.8474 77.3379 78.3329C78.1074 77.5612 78.7487 76.7251 79.2617 75.8247C79.7747 74.7957 80.7367 74.2812 82.1475 74.2812C82.6605 74.5385 83.3018 75.053 84.0713 75.8247C84.9691 76.4678 85.5462 76.9823 85.8027 77.3682C86.0592 78.14 86.1875 78.8474 86.1875 79.4905ZM23.0859 16.7856V21.2232C22.1882 21.2232 21.6751 21.2875 21.5469 21.4161C21.4186 21.5448 21.098 21.9306 20.585 22.5738C20.3285 22.4451 19.9437 22.3808 19.4307 22.3808C19.1742 22.3808 18.8535 22.4451 18.4688 22.5738C18.2122 22.5738 17.9557 22.5738 17.6992 22.5738C17.0579 22.0593 16.4167 21.5448 15.7754 21.0303C15.2624 20.3871 15.0059 19.6154 15.0059 18.715C15.0059 17.9433 15.3906 17.0429 16.1602 16.0139C16.9297 14.8562 17.7633 14.2774 18.6611 14.2774C18.9176 14.2774 19.1742 14.3417 19.4307 14.4704C19.8154 14.4704 20.1361 14.4704 20.3926 14.4704C20.7773 15.1135 21.098 15.5637 21.3545 15.8209C21.7393 15.9496 22.0599 16.1425 22.3164 16.3997C22.5729 16.657 22.8294 16.7856 23.0859 16.7856ZM10.5811 7.13871C10.5811 7.65322 10.4528 8.16772 10.1963 8.68222C10.068 9.0681 10.0039 9.51828 10.0039 10.0328C9.23438 10.6759 8.46484 10.9975 7.69531 10.9975C6.92578 10.9975 6.15625 11.1904 5.38672 11.5763C4.36068 10.5473 3.59115 9.71122 3.07813 9.0681C2.5651 8.42497 2.30859 7.33165 2.30859 5.78815C3.07813 5.14502 3.84766 4.5662 4.61719 4.0517C5.38672 3.40857 6.28451 3.08701 7.31055 3.08701C7.56706 3.08701 8.01595 3.21564 8.65723 3.47289C9.2985 3.60151 9.81152 3.73014 10.1963 3.85876V6.75284L10.5811 7.13871ZM33.4746 33.7642C33.0898 34.6646 32.641 35.5649 32.1279 36.4653C31.7432 37.3657 30.9736 37.8159 29.8193 37.8159C29.3063 37.8159 28.7933 37.7516 28.2803 37.6229C27.8955 37.4943 27.4466 37.43 26.9336 37.43C26.4206 36.5296 26.0999 35.6293 25.9717 34.7289C25.8434 33.8285 25.5869 32.9281 25.2021 32.0277C26.2282 31.3846 27.1901 30.9344 28.0879 30.6772C29.1139 30.2913 30.2041 30.034 31.3584 29.9054C31.6149 30.5485 31.8714 31.1917 32.1279 31.8348C32.3844 32.4779 32.8333 33.1211 33.4746 33.7642ZM43.8633 47.0769C43.8633 47.8487 43.5426 48.8134 42.9014 49.971C42.2601 51 41.4906 51.5145 40.5928 51.5145C39.9515 51.5145 39.5026 51.4502 39.2461 51.3216C38.9896 51.1929 38.5407 51 37.8994 50.7427C37.0016 49.971 36.1038 49.2636 35.2061 48.6204C35.3343 48.3632 35.4626 48.0416 35.5908 47.6557C35.8473 47.1412 36.1038 46.8197 36.3604 46.691C36.2321 46.4338 36.168 46.2409 36.168 46.1122C36.168 45.9836 36.1038 45.7907 35.9756 45.5334C36.7451 45.0189 37.3864 44.6973 37.8994 44.5687C38.4124 44.3115 38.8613 44.1828 39.2461 44.1828C39.6309 44.1828 40.0156 44.1828 40.4004 44.1828C40.7852 44.0542 41.2982 43.8613 41.9395 43.604C42.3242 44.2472 42.709 44.826 43.0938 45.3405C43.6068 45.855 43.8633 46.4338 43.8633 47.0769ZM136.784 145.668C136.784 146.955 136.399 147.855 135.63 148.369C134.86 148.884 134.091 149.463 133.321 150.106C132.039 149.591 130.756 148.884 129.474 147.984C129.345 147.083 129.281 146.247 129.281 145.475C129.281 144.575 129.217 143.675 129.089 142.774C130.115 142.774 130.884 142.581 131.397 142.195C131.91 141.81 132.68 141.552 133.706 141.424C134.347 142.195 134.989 142.839 135.63 143.353C136.399 143.739 136.784 144.511 136.784 145.668ZM53.4824 61.7402C53.4824 62.3834 53.4183 63.0908 53.29 63.8625C53.29 64.5057 53.2259 65.1488 53.0977 65.7919C52.7129 66.1778 52.264 66.4994 51.751 66.7566C51.3662 66.8852 50.9814 67.1425 50.5967 67.5284C49.4424 67.3997 48.3522 67.0782 47.3262 66.5637C46.3001 65.9206 45.7871 64.8915 45.7871 63.4767C45.7871 62.4477 46.1077 61.5473 46.749 60.7755C47.3903 60.0038 48.2881 59.6179 49.4424 59.6179C50.9814 59.6179 52.3281 60.3253 53.4824 61.7402ZM65.0254 78.5258C65.0254 79.169 64.833 79.7478 64.4482 80.2623C64.1917 80.7768 63.9352 81.2913 63.6787 81.8058C63.1657 81.8058 62.7168 81.8701 62.332 81.9987C61.9473 82.1274 61.4984 82.1917 60.9854 82.1917C60.6006 82.1917 60.0234 82.063 59.2539 81.8058C58.7409 81.1627 58.2279 80.5839 57.7148 80.0694C57.3301 79.4262 57.1377 78.7188 57.1377 77.947C57.6507 77.1753 58.0996 76.1463 58.4844 74.86C58.8691 74.7314 59.2539 74.6028 59.6387 74.4741C60.0234 74.3455 60.4082 74.2812 60.793 74.2812C61.306 74.2812 61.7549 74.3455 62.1396 74.4741C62.5244 74.4741 62.9092 74.4741 63.2939 74.4741C63.6787 75.1173 64.0635 75.7604 64.4482 76.4035C64.833 77.0467 65.0254 77.7541 65.0254 78.5258ZM9.23438 26.4325L7.69531 29.9054C7.18229 29.9054 6.7334 29.9697 6.34863 30.0984C5.96387 30.227 5.51497 30.2913 5.00195 30.2913C4.23242 30.2913 3.52702 29.9697 2.88574 29.3266C2.24447 28.6835 1.60319 28.169 0.961914 27.7831L0.769531 24.889L3.07813 22.9596L5.77148 22.3808C6.66927 22.8953 7.4388 23.4098 8.08008 23.9243C8.84961 24.3102 9.23438 25.1463 9.23438 26.4325ZM74.6445 94.3468C74.6445 95.2472 74.3239 96.1475 73.6826 97.0479C73.1696 97.9483 72.4001 98.3985 71.374 98.3985C70.7327 98.3985 70.1556 98.0126 69.6426 97.2409C69.0013 96.9836 68.4242 96.662 67.9111 96.2762C67.3981 95.7617 67.1416 95.0542 67.1416 94.1538C67.1416 93.2535 67.4622 92.3531 68.1035 91.4527C68.873 90.4237 69.7708 89.9092 70.7969 89.9092C72.0794 89.9092 73.0413 90.4237 73.6826 91.4527C74.3239 92.3531 74.6445 93.3178 74.6445 94.3468ZM9.42676 45.7264C9.42676 46.884 8.97786 47.8487 8.08008 48.6204C7.31055 49.2636 6.34863 49.5851 5.19434 49.5851C3.91178 49.5851 2.75749 49.0706 1.73145 48.0416V47.0769C1.73145 46.8197 1.60319 46.4981 1.34668 46.1122C1.21842 45.7264 1.1543 45.2762 1.1543 44.7617C1.79557 43.8613 2.30859 43.0895 2.69336 42.4464C3.07813 41.8033 3.84766 41.4817 5.00195 41.4817C5.89974 41.4817 6.79753 41.8033 7.69531 42.4464C7.95182 42.8323 8.20833 43.2182 8.46484 43.604C8.84961 43.8613 9.17025 44.1185 9.42676 44.3758V45.7264ZM9.81152 64.2484L8.27246 67.5284C7.63119 67.9142 6.98991 68.3644 6.34863 68.8789C5.83561 69.2648 5.19434 69.4578 4.4248 69.4578C3.65527 69.4578 3.014 69.2648 2.50098 68.8789C1.8597 68.2358 1.41081 67.4641 1.1543 66.5637C1.02604 65.5347 0.833659 64.6343 0.577148 63.8625C1.21842 63.4767 1.98796 62.9622 2.88574 62.319C3.91178 61.6759 4.74544 61.3543 5.38672 61.3543C5.89974 61.3543 6.34863 61.4187 6.7334 61.5473C7.11816 61.6759 7.50293 61.8045 7.8877 61.9332C8.01595 63.2194 8.65723 63.9912 9.81152 64.2484ZM9.04199 86.0504C8.65723 86.8222 8.14421 87.5939 7.50293 88.3657C6.86165 89.1374 6.02799 89.5233 5.00195 89.5233C4.48893 89.5233 4.04004 89.459 3.65527 89.3304C3.27051 89.2018 2.88574 89.1374 2.50098 89.1374C1.60319 88.2371 1.1543 87.0151 1.1543 85.4716C1.1543 84.4426 1.28255 83.7352 1.53906 83.3493C2.30859 82.8348 2.88574 82.4489 3.27051 82.1917C3.78353 81.8058 4.55306 81.6129 5.5791 81.6129C6.7334 81.6129 7.56706 82.1274 8.08008 83.1564C8.5931 84.0567 8.91374 85.0214 9.04199 86.0504ZM8.65723 104.958C8.65723 106.116 8.27246 107.145 7.50293 108.045C6.86165 108.817 5.96387 109.203 4.80957 109.203C3.78353 109.203 3.07813 109.074 2.69336 108.817C2.30859 108.56 1.98796 108.303 1.73145 108.045C1.60319 107.66 1.41081 107.338 1.1543 107.081C1.02604 106.695 0.641276 106.438 0 106.309C0.384766 105.28 0.833659 104.444 1.34668 103.801C1.8597 103.029 2.43685 102.257 3.07813 101.485H5.96387C6.60514 101.871 7.05404 102.322 7.31055 102.836C7.69531 103.351 8.14421 103.801 8.65723 104.187V104.958ZM9.04199 123.866C8.52897 124.895 8.08008 126.053 7.69531 127.339C7.4388 128.625 6.47689 129.269 4.80957 129.269C3.91178 129.269 3.14225 129.011 2.50098 128.497C1.8597 127.982 1.21842 127.532 0.577148 127.146C0.577148 126.503 0.641276 125.796 0.769531 125.024C0.897786 124.252 1.1543 123.673 1.53906 123.288C1.79557 123.03 2.37272 122.644 3.27051 122.13C4.16829 121.615 4.80957 121.358 5.19434 121.358C5.45085 121.358 5.70736 121.422 5.96387 121.551C6.34863 121.551 6.66927 121.551 6.92578 121.551C7.18229 122.194 7.50293 122.644 7.8877 122.902C8.27246 123.159 8.65723 123.48 9.04199 123.866ZM8.46484 144.125C8.46484 145.926 7.69531 147.469 6.15625 148.755C5.89974 148.755 5.64323 148.755 5.38672 148.755C5.13021 148.884 4.8737 148.948 4.61719 148.948C3.84766 148.948 3.14225 148.691 2.50098 148.177C1.8597 147.662 1.21842 147.212 0.577148 146.826C0.833659 146.311 0.897786 145.797 0.769531 145.282C0.769531 144.768 0.769531 144.189 0.769531 143.546C1.1543 143.032 1.41081 142.646 1.53906 142.388C1.79557 142.131 1.8597 141.681 1.73145 141.038C3.014 140.781 3.97591 140.652 4.61719 140.652C5.77148 140.652 6.92578 141.102 8.08008 142.003C8.20833 142.388 8.27246 142.774 8.27246 143.16C8.40072 143.417 8.46484 143.739 8.46484 144.125Z" fill="#FFEB39"/>
<path d="M289.151 31.256C288.51 32.285 287.933 33.1211 287.42 33.7642C287.035 34.2787 286.394 34.9861 285.496 35.8865H284.342C283.829 35.8865 283.38 35.8865 282.995 35.8865C282.61 35.7579 282.226 35.7579 281.841 35.8865C281.584 35.1148 281.135 34.5359 280.494 34.1501C279.853 33.6356 279.532 32.9281 279.532 32.0277C279.532 30.6129 279.853 29.7768 280.494 29.5195C281.264 29.2623 282.161 29.005 283.188 28.7478C283.957 28.4905 284.598 28.3619 285.111 28.3619C285.368 28.3619 285.945 28.8121 286.843 29.7125C287.869 30.4842 288.638 30.9987 289.151 31.256ZM274.146 18.3291C274.146 19.1009 273.825 19.8726 273.184 20.6444C272.671 21.2875 272.286 21.995 272.029 22.7667C270.747 22.5095 269.4 22.2522 267.989 21.995C266.578 21.6091 265.873 20.5158 265.873 18.715C265.873 18.2005 265.937 17.7503 266.065 17.3644C266.322 16.8499 266.45 16.3354 266.45 15.8209C267.733 14.9206 269.015 14.4704 270.298 14.4704C270.939 14.4704 271.516 14.6633 272.029 15.0492C272.671 15.3064 273.312 15.628 273.953 16.0139C273.953 16.3997 273.953 16.7856 273.953 17.1715C274.081 17.5574 274.146 17.9433 274.146 18.3291ZM257.601 6.17402C257.472 6.81715 257.28 7.46028 257.023 8.1034C256.895 8.74653 256.446 9.19672 255.677 9.45397C255.677 11.2547 254.779 12.1551 252.983 12.1551C252.214 12.1551 251.38 11.9622 250.482 11.5763C250.226 10.9332 249.905 10.3544 249.521 9.83985C249.136 9.19672 248.943 8.55359 248.943 7.91047C248.943 7.39596 249.072 6.88146 249.328 6.36696L251.444 4.63052H252.599C253.496 4.63052 254.458 5.01639 255.484 5.78815L257.601 6.17402ZM298.193 53.4439C297.424 54.8588 296.205 55.5662 294.538 55.5662C293.512 55.5662 292.678 55.4376 292.037 55.1803C291.524 54.7944 290.883 54.2799 290.113 53.6368V51.1286C290.113 50.4855 290.177 49.971 290.306 49.5851C290.947 49.1992 291.524 48.8134 292.037 48.4275C292.678 47.913 293.384 47.6557 294.153 47.6557C294.41 47.6557 294.923 47.7844 295.692 48.0416C296.718 49.3279 297.231 50.2282 297.231 50.7427C297.231 51.2572 297.552 52.1576 298.193 53.4439ZM235.477 5.59521C235.477 6.75284 234.835 7.5889 233.553 8.1034C232.398 8.48928 231.372 8.74653 230.475 8.87516C229.705 8.23203 229.064 7.71753 228.551 7.33165C228.166 6.94578 227.461 6.62421 226.435 6.36696C226.691 5.98108 226.883 5.59521 227.012 5.20933C227.268 4.69483 227.396 4.24464 227.396 3.85876C227.396 3.21564 227.974 2.57251 229.128 1.92938C230.41 1.28625 231.244 0.643127 231.629 0C232.27 0.643127 232.847 1.22194 233.36 1.73644C233.873 2.12232 234.451 2.5082 235.092 2.89407C235.092 3.40857 235.156 3.85876 235.284 4.24464C235.412 4.63052 235.477 5.08071 235.477 5.59521ZM301.849 74.2812C300.823 76.2106 299.219 77.1753 297.039 77.1753C296.783 77.1753 296.462 77.1753 296.077 77.1753C295.692 77.0467 295.372 76.9823 295.115 76.9823C294.73 76.3392 294.346 75.6961 293.961 75.053C293.576 74.4098 293.384 73.7667 293.384 73.1236C293.384 72.3518 293.64 71.4514 294.153 70.4224C294.795 69.9079 295.5 69.6507 296.27 69.6507C297.039 69.6507 297.744 69.4578 298.386 69.0719C299.027 69.715 299.989 70.1652 301.271 70.4224L301.849 74.2812ZM299.925 97.6267C299.925 98.0126 299.797 98.5914 299.54 99.3632C298.514 100.392 297.296 100.907 295.885 100.907C295.372 100.907 294.859 100.842 294.346 100.714C293.961 100.585 293.512 100.456 292.999 100.328C292.743 99.8134 292.486 99.3632 292.229 98.9773C292.101 98.4628 292.037 97.884 292.037 97.2409C292.037 96.855 292.037 96.5334 292.037 96.2762C292.165 95.8903 292.229 95.5044 292.229 95.1185C292.614 94.8613 292.999 94.6683 293.384 94.5397C293.897 94.4111 294.217 94.0252 294.346 93.3821C294.859 93.1248 295.372 92.9962 295.885 92.9962C296.526 92.9962 297.039 93.1892 297.424 93.575C297.809 93.9609 298.322 94.2182 298.963 94.3468C299.219 94.8613 299.412 95.3758 299.54 95.8903C299.797 96.4048 299.925 96.9836 299.925 97.6267ZM212.583 13.6986C211.685 14.2131 210.916 14.7276 210.274 15.2421C209.761 15.7566 208.992 16.0139 207.966 16.0139H206.812C206.427 15.628 206.042 15.2421 205.657 14.8562C205.272 14.4704 204.952 14.0202 204.695 13.5057C204.567 12.9912 204.439 12.6053 204.311 12.348C204.311 11.9622 204.311 11.6406 204.311 11.3834C204.311 10.8689 204.439 10.483 204.695 10.2257C204.952 9.83985 205.08 9.38966 205.08 8.87516C206.106 8.36066 206.94 8.1034 207.581 8.1034C208.479 8.1034 209.248 8.29634 209.89 8.68222C210.659 9.0681 211.365 9.45397 212.006 9.83985V10.9975C212.006 11.512 212.07 12.0265 212.198 12.541C212.327 12.9269 212.455 13.3127 212.583 13.6986ZM289.536 119.622C289.151 122.451 287.676 123.866 285.111 123.866C283.829 123.866 282.995 123.545 282.61 122.902C282.226 122.13 281.777 121.294 281.264 120.393C281.52 119.364 281.969 118.4 282.61 117.499C283.38 116.599 284.342 116.149 285.496 116.149C286.137 116.149 286.971 116.406 287.997 116.921C287.997 117.692 288.125 118.207 288.382 118.464C288.767 118.593 289.151 118.979 289.536 119.622ZM193.152 24.3102C193.152 25.7251 192.639 26.8184 191.613 27.5902C190.587 28.3619 189.433 28.7478 188.15 28.7478C187.381 28.7478 186.611 28.2976 185.842 27.3972C185.072 26.4968 184.688 25.7251 184.688 25.082C184.688 24.1816 184.88 23.4098 185.265 22.7667C185.778 22.1236 186.355 21.5448 186.996 21.0303L188.535 20.8373C189.561 21.0946 190.587 21.4805 191.613 21.995C192.639 22.3808 193.152 23.1526 193.152 24.3102ZM272.606 138.53V140.459C271.965 140.716 271.26 140.909 270.49 141.038C269.849 141.166 269.144 141.231 268.374 141.231C267.476 141.231 266.643 140.974 265.873 140.459C265.232 139.945 264.59 139.43 263.949 138.916C264.462 137.758 265.039 136.665 265.681 135.636C266.45 134.607 267.54 134.092 268.951 134.092C269.977 134.092 270.811 134.607 271.452 135.636C272.222 136.665 272.606 137.629 272.606 138.53ZM179.493 44.9546C179.493 45.3405 179.429 45.7264 179.301 46.1122C179.301 46.4981 179.301 46.884 179.301 47.2699C178.66 47.6557 177.954 48.0416 177.185 48.4275C176.415 48.6847 175.646 48.8134 174.876 48.8134C174.235 48.8134 173.529 48.6847 172.76 48.4275C172.503 47.7844 172.247 47.3342 171.99 47.0769C171.734 46.8197 171.413 46.3695 171.028 45.7264C171.285 44.1828 171.734 42.8966 172.375 41.8676C173.016 41.6103 173.658 41.4174 174.299 41.2888C174.94 41.1601 175.581 41.0958 176.223 41.0958H177.954C178.339 41.739 178.66 42.3821 178.916 43.0252C179.301 43.5397 179.493 44.1828 179.493 44.9546ZM173.722 66.9496C173.722 68.8789 173.337 70.4868 172.567 71.773C171.926 73.0593 170.515 73.7024 168.335 73.7024C167.822 73.1879 167.181 72.7377 166.411 72.3518C165.77 71.8373 165.449 71.1942 165.449 70.4224C165.449 69.9079 165.513 69.4578 165.642 69.0719C165.77 68.686 165.834 68.3001 165.834 67.9142C166.475 67.5284 167.117 67.0139 167.758 66.3707C168.399 65.7276 169.04 65.4061 169.682 65.4061C170.323 65.4061 170.836 65.6633 171.221 66.1778C171.605 66.6923 172.439 66.9496 173.722 66.9496ZM248.943 148.369C248.943 149.27 248.815 149.913 248.559 150.299C248.046 150.942 247.404 151.328 246.635 151.456C245.993 151.714 245.352 151.971 244.711 152.228C244.07 151.714 243.493 151.328 242.979 151.071C242.595 150.942 242.082 150.749 241.44 150.492C241.44 150.106 241.376 149.72 241.248 149.334C241.248 149.077 241.248 148.755 241.248 148.369C241.248 147.984 241.376 147.405 241.633 146.633C241.889 146.247 242.338 145.797 242.979 145.282C243.621 144.639 244.198 144.318 244.711 144.318C245.737 144.318 246.314 144.446 246.442 144.704C246.699 144.961 247.212 145.154 247.981 145.282C248.623 146.311 248.943 147.34 248.943 148.369ZM174.491 94.7327V95.5044C173.85 96.4048 173.337 97.1765 172.952 97.8197C172.696 98.4628 171.926 98.7844 170.644 98.7844C169.104 98.7844 167.758 98.2055 166.604 97.0479C166.347 96.0189 166.219 95.1185 166.219 94.3468C166.219 93.575 166.411 92.9319 166.796 92.4174C167.309 91.9029 167.758 91.3241 168.143 90.681C168.656 90.9382 169.104 91.0025 169.489 90.8739C170.002 90.7453 170.579 90.7453 171.221 90.8739C171.862 91.6456 172.567 92.0958 173.337 92.2245C174.106 92.2245 174.491 93.0605 174.491 94.7327ZM225.473 149.334C225.473 150.363 225.088 151.199 224.318 151.842C223.549 152.614 222.651 153 221.625 153C220.471 153 219.637 152.743 219.124 152.228C218.611 151.842 218.226 151.328 217.97 150.685C217.713 150.042 217.521 149.334 217.393 148.562C217.264 147.791 216.944 147.083 216.431 146.44C217.2 146.311 217.777 146.183 218.162 146.054C218.547 145.926 218.868 145.797 219.124 145.668C219.381 145.54 219.573 145.411 219.701 145.282C219.958 145.025 220.407 144.768 221.048 144.511C222.202 144.768 223.228 145.347 224.126 146.247C225.024 147.019 225.473 148.048 225.473 149.334ZM183.148 119.429C183.148 120.072 183.02 120.586 182.764 120.972C182.507 121.358 182.251 121.808 181.994 122.323C181.738 122.451 181.225 122.644 180.455 122.902C179.814 123.159 179.365 123.288 179.108 123.288C178.724 123.288 178.339 123.223 177.954 123.095C177.698 122.837 177.377 122.709 176.992 122.709C176.736 122.709 176.543 122.773 176.415 122.902C176.287 122.902 176.094 122.902 175.838 122.902C175.453 122.001 175.197 121.422 175.068 121.165C175.068 120.779 175.068 120.072 175.068 119.043L174.684 118.271L176.8 115.184C176.928 115.313 177.249 115.506 177.762 115.763C178.018 115.763 178.275 115.763 178.531 115.763C178.788 115.634 179.044 115.57 179.301 115.57C179.686 115.57 180.263 115.827 181.032 116.342C181.93 116.856 182.507 117.242 182.764 117.499C183.02 118.528 183.148 119.171 183.148 119.429ZM201.617 137.565C201.617 138.337 201.361 138.916 200.848 139.301C200.335 139.687 199.95 140.202 199.693 140.845C199.18 141.102 198.731 141.295 198.347 141.424C197.962 141.552 197.513 141.617 197 141.617C196.23 141.617 195.461 141.231 194.691 140.459C194.05 139.687 193.345 139.173 192.575 138.916C192.832 137.887 193.088 136.922 193.345 136.021C193.729 135.121 194.307 134.285 195.076 133.513C196.23 133.513 197.577 133.835 199.116 134.478C200.784 135.121 201.617 136.15 201.617 137.565Z" fill="#FFEB39"/>
<path d="M432.092 5.78815C432.092 7.84615 431.066 9.32535 429.014 10.2257C428.372 10.0971 427.859 9.96847 427.475 9.83985C427.09 9.71122 426.577 9.77554 425.936 10.0328C425.679 9.38966 425.23 8.61791 424.589 7.71753C424.076 6.81715 423.819 6.0454 423.819 5.40227C424.974 4.37327 425.679 3.60151 425.936 3.08701C426.32 2.44388 426.897 2.12232 427.667 2.12232C428.693 2.12232 429.655 2.44388 430.553 3.08701C431.579 3.73014 432.092 4.63052 432.092 5.78815ZM425.743 23.7314C425.358 24.3745 425.166 24.8247 425.166 25.082C425.294 25.2106 425.358 25.5965 425.358 26.2396C425.358 27.2686 424.91 28.169 424.012 28.9407C423.242 29.5839 422.344 29.9054 421.318 29.9054C420.421 29.9054 419.459 29.4552 418.433 28.5549C417.535 27.6545 417.086 26.7541 417.086 25.8537C417.086 25.2106 417.278 24.5675 417.663 23.9243C418.048 23.2812 418.433 22.6381 418.817 21.995C419.202 21.995 419.587 21.995 419.972 21.995C420.485 21.8663 420.934 21.802 421.318 21.802C422.216 21.802 422.986 22.0593 423.627 22.5738C424.396 22.9596 425.102 23.3455 425.743 23.7314ZM417.663 46.691C417.663 47.3342 417.535 47.913 417.278 48.4275C417.022 48.942 416.765 49.4565 416.509 49.971C415.739 50.2282 415.034 50.3569 414.393 50.3569C413.751 50.3569 413.046 50.4212 412.276 50.5498C411.763 50.0353 411.186 49.5208 410.545 49.0063C409.904 48.3632 409.583 47.6557 409.583 46.884C409.583 46.2409 409.711 45.7264 409.968 45.3405C410.224 44.826 410.417 44.3115 410.545 43.797C411.571 43.0252 412.533 42.6393 413.431 42.6393C413.687 42.6393 413.944 42.7037 414.2 42.8323C414.585 42.9609 414.97 43.0895 415.355 43.2182C415.868 43.7327 416.381 44.2472 416.894 44.7617C417.407 45.2762 417.663 45.9193 417.663 46.691ZM410.737 67.3354C410.737 67.5927 410.673 67.8499 410.545 68.1072C410.545 68.2358 410.545 68.4287 410.545 68.686C410.032 69.2005 409.647 69.715 409.391 70.2295C409.134 70.744 408.749 71.2585 408.236 71.773C407.339 71.773 406.441 71.7087 405.543 71.5801C404.773 71.3228 403.94 71.1942 403.042 71.1942C403.042 70.5511 402.978 70.1009 402.85 69.8436C402.85 69.4578 402.529 69.0719 401.888 68.686C402.144 68.1715 402.272 67.657 402.272 67.1425C402.272 65.9849 402.529 65.2131 403.042 64.8272C403.683 64.4414 404.517 64.1198 405.543 63.8625C405.671 63.7339 405.992 63.6696 406.505 63.6696C407.018 63.6696 407.467 63.7982 407.852 64.0555C408.365 64.1841 408.942 64.3127 409.583 64.4414C409.583 65.0845 409.775 65.599 410.16 65.9849C410.545 66.2421 410.737 66.6923 410.737 67.3354ZM323.588 7.13871C323.588 7.78184 323.396 8.48928 323.011 9.26103C322.626 9.90416 322.049 10.2257 321.279 10.2257C321.023 10.2257 320.702 10.29 320.317 10.4187C320.061 10.4187 319.804 10.4187 319.548 10.4187C318.522 10.4187 317.56 10.0328 316.662 9.26103C315.893 8.36066 315.508 7.39596 315.508 6.36696C315.508 5.46658 315.893 4.63052 316.662 3.85876C317.432 2.95839 318.265 2.5082 319.163 2.5082C319.933 2.5082 320.574 2.70113 321.087 3.08701C321.728 3.47289 322.369 3.79445 323.011 4.0517C323.396 5.08071 323.588 6.10971 323.588 7.13871ZM403.234 86.4363C402.978 87.4653 402.85 88.3014 402.85 88.9445C402.85 89.3304 402.978 89.9092 403.234 90.681L396.309 92.2245C396.052 91.0668 395.796 90.4237 395.539 90.2951C395.283 90.0378 394.77 89.5876 394 88.9445C394.257 88.3014 394.513 87.7869 394.77 87.401C395.026 87.0151 395.154 86.5006 395.154 85.8575C395.796 85.6002 396.501 85.343 397.271 85.0857C398.04 84.6999 398.81 84.5069 399.579 84.5069H400.349C401.118 85.1501 401.503 85.6002 401.503 85.8575C401.503 85.9861 402.08 86.1791 403.234 86.4363ZM330.898 26.6255L328.397 29.3266H326.858C325.576 29.3266 324.55 28.9407 323.78 28.169C323.524 27.5259 323.267 26.947 323.011 26.4325C322.754 25.918 322.626 25.3392 322.626 24.6961C322.626 24.3102 322.626 23.9886 322.626 23.7314C322.754 23.3455 322.882 22.9596 323.011 22.5738C323.652 22.5738 324.101 22.4451 324.357 22.1879C324.742 21.9306 325.191 21.7377 325.704 21.6091C326.217 21.7377 326.73 21.8663 327.243 21.995C327.756 22.1236 328.141 22.3808 328.397 22.7667H329.552C330.45 23.6671 330.898 24.9533 330.898 26.6255ZM337.824 46.691C337.824 47.3342 337.568 47.9773 337.055 48.6204C336.67 49.2636 336.349 49.9067 336.093 50.5498C335.58 50.5498 335.067 50.6141 334.554 50.7427C334.169 50.8714 333.72 50.9357 333.207 50.9357C332.053 50.9357 331.283 50.6141 330.898 49.971C330.514 49.3279 329.808 48.8134 328.782 48.4275C329.039 47.3985 329.424 46.2409 329.937 44.9546C330.578 43.5397 331.604 42.8323 333.015 42.8323C334.041 42.8323 334.81 43.1538 335.323 43.797C335.965 44.3115 336.67 44.6973 337.439 44.9546C337.696 45.7264 337.824 46.3052 337.824 46.691ZM395.347 107.66C395.347 108.56 395.09 109.653 394.577 110.939C393.936 111.197 393.295 111.454 392.653 111.711C392.14 111.84 391.563 111.904 390.922 111.904C390.152 111.904 389.383 111.711 388.613 111.325C388.357 110.811 388.164 110.425 388.036 110.168C387.908 109.782 387.523 109.46 386.882 109.203C387.01 108.56 387.074 107.981 387.074 107.467C387.202 106.823 387.267 106.18 387.267 105.537C387.523 105.28 388.036 104.958 388.806 104.573C389.703 104.187 390.281 103.994 390.537 103.994C391.435 103.994 392.204 104.187 392.846 104.573C393.487 104.958 394.192 105.28 394.962 105.537C395.09 105.923 395.154 106.309 395.154 106.695C395.283 106.952 395.347 107.274 395.347 107.66ZM344.173 69.6507C343.916 69.9079 343.532 70.2295 343.019 70.6154C342.634 70.8726 342.313 71.1299 342.057 71.3871H340.902C338.979 71.3871 337.504 70.4868 336.478 68.686C336.734 66.2421 337.696 64.5057 339.363 63.4767C340.133 63.6053 340.966 63.6696 341.864 63.6696C342.89 63.6696 343.532 64.1841 343.788 65.2131C344.686 66.4994 344.814 67.9786 344.173 69.6507ZM353.215 87.0151C352.958 88.43 352.509 89.5233 351.868 90.2951C351.227 91.0668 350.137 91.4527 348.598 91.4527C348.085 91.4527 347.636 91.3884 347.251 91.2598C346.866 91.1311 346.481 91.0025 346.097 90.8739C345.84 90.3594 345.584 89.8449 345.327 89.3304C345.071 88.8159 344.942 88.2371 344.942 87.5939C344.942 86.6936 345.199 85.8575 345.712 85.0857C346.353 84.1854 347.123 83.6709 348.021 83.5422C348.918 83.5422 349.56 83.6066 349.944 83.7352C350.329 83.7352 350.586 83.7995 350.714 83.9281C350.842 84.0567 350.97 84.1854 351.099 84.314C351.227 84.314 351.612 84.314 352.253 84.314C352.253 85.0857 352.253 85.6002 352.253 85.8575C352.381 86.1148 352.702 86.5006 353.215 87.0151ZM387.074 127.918C387.074 129.076 386.689 129.912 385.92 130.426C385.279 130.941 384.445 131.198 383.419 131.198C382.265 131.198 381.239 131.005 380.341 130.619C379.828 129.847 379.443 129.14 379.187 128.497C378.93 127.725 378.802 126.825 378.802 125.796C379.7 124.895 380.661 124.317 381.688 124.059C382.714 123.673 383.675 123.159 384.573 122.516C384.958 123.545 385.471 124.445 386.112 125.217C386.754 125.989 387.074 126.889 387.074 127.918ZM361.487 106.695L360.141 109.975L355.523 111.711C354.882 111.068 354.241 110.425 353.6 109.782C352.958 109.139 352.638 108.303 352.638 107.274C352.638 106.373 353.087 105.473 353.984 104.573C355.01 103.544 355.908 103.029 356.678 103.029C356.934 103.029 357.127 103.093 357.255 103.222C357.383 103.222 357.576 103.222 357.832 103.222C358.473 103.865 359.05 104.444 359.563 104.958C360.205 105.473 360.846 106.052 361.487 106.695ZM368.99 125.41C368.99 126.31 368.862 127.146 368.605 127.918C368.349 128.561 367.836 129.204 367.066 129.847C366.425 129.976 365.848 130.105 365.335 130.233C364.95 130.362 364.437 130.426 363.796 130.426C363.411 130.426 363.091 130.362 362.834 130.233C362.577 130.105 362.321 129.912 362.064 129.654L360.718 127.146C360.846 125.474 361.359 124.188 362.257 123.288C362.642 123.159 362.898 123.03 363.026 122.902C363.283 122.773 363.668 122.773 364.181 122.902C364.95 123.159 365.527 123.352 365.912 123.48C366.297 123.48 366.618 123.545 366.874 123.673C367.131 123.673 367.387 123.866 367.644 124.252C367.9 124.509 368.349 124.895 368.99 125.41ZM377.263 146.247C377.263 147.405 376.75 148.241 375.724 148.755C374.826 149.398 373.864 149.72 372.838 149.72C372.325 149.72 371.555 149.591 370.529 149.334C370.273 148.691 370.016 148.112 369.76 147.598C369.503 147.083 369.375 146.504 369.375 145.861C369.375 144.832 369.76 143.932 370.529 143.16C371.427 142.388 372.325 142.003 373.223 142.003C373.992 142.003 374.633 141.938 375.146 141.81C375.531 142.581 375.98 143.289 376.493 143.932C377.006 144.575 377.263 145.347 377.263 146.247Z" fill="#FFEB39"/>
<path d="M460.949 5.40227C460.949 5.91677 460.885 6.36696 460.757 6.75284C460.757 7.13871 460.757 7.5889 460.757 8.1034C459.987 8.36066 459.154 8.61791 458.256 8.87516C457.486 9.13241 456.717 9.26103 455.947 9.26103C455.178 8.87516 454.472 8.42497 453.831 7.91047C453.19 7.26734 452.869 6.49559 452.869 5.59521C452.869 4.82346 453.062 4.18033 453.446 3.66583C453.831 3.15132 454.152 2.57251 454.408 1.92938C455.178 1.67213 455.755 1.54351 456.14 1.54351C457.166 1.54351 458.063 1.86507 458.833 2.5082C459.603 3.0227 460.308 3.60151 460.949 4.24464V5.40227ZM461.719 21.2232C461.462 21.8663 461.27 22.4451 461.142 22.9596C461.013 23.3455 460.949 23.86 460.949 24.5032C460.308 24.889 459.667 25.2749 459.025 25.6608C458.384 25.918 457.679 26.0467 456.909 26.0467C455.883 26.0467 455.114 25.8537 454.601 25.4678C454.088 24.9533 453.703 24.3745 453.446 23.7314C453.318 23.0883 453.19 22.4451 453.062 21.802C453.062 21.0303 452.997 20.3228 452.869 19.6797C453.639 19.4224 454.28 19.1009 454.793 18.715C455.434 18.3291 456.14 18.1362 456.909 18.1362C457.807 18.6507 458.641 19.1009 459.41 19.4868C460.308 19.744 461.077 20.3228 461.719 21.2232ZM460.757 40.3241C460.757 41.4817 460.372 42.4464 459.603 43.2182C458.577 43.604 457.615 43.797 456.717 43.797H455.563C454.921 43.2825 454.344 42.768 453.831 42.2535C453.318 41.739 453.062 41.0958 453.062 40.3241C453.062 40.0668 453.126 39.7453 453.254 39.3594C453.382 38.9735 453.51 38.652 453.639 38.3947C454.28 38.1375 454.921 37.8802 455.563 37.6229C456.204 37.2371 456.845 37.0441 457.486 37.0441C458.128 37.0441 458.641 37.2371 459.025 37.6229C459.538 38.0088 460.116 38.3304 460.757 38.5876V40.3241ZM460.372 56.5309C460.372 57.9458 460.244 59.0391 459.987 59.8108C459.859 60.5826 459.474 61.5473 458.833 62.7049C457.807 62.5763 456.973 62.5763 456.332 62.7049C455.691 62.7049 454.857 62.512 453.831 62.1261C453.831 61.3543 453.703 60.6469 453.446 60.0038C453.19 59.232 453.062 58.5246 453.062 57.8815V56.5309C453.575 56.2736 454.088 56.0164 454.601 55.7591C455.114 55.5019 455.627 55.3733 456.14 55.3733C457.037 55.3733 457.743 55.5662 458.256 55.9521C458.897 56.338 459.603 56.5309 460.372 56.5309ZM460.372 77.1753C460.372 77.8184 460.116 78.3972 459.603 78.9117C459.218 79.4262 458.897 80.005 458.641 80.6482C457.615 80.9054 456.781 81.034 456.14 81.034C455.114 81.034 454.216 80.6482 453.446 79.8764C452.677 78.976 452.292 78.0113 452.292 76.9823C452.292 76.3392 452.484 75.8247 452.869 75.4388C453.254 74.9243 453.703 74.5385 454.216 74.2812C454.729 73.8953 455.37 73.7024 456.14 73.7024C457.037 73.7024 457.999 74.024 459.025 74.6671C459.154 75.1816 459.41 75.5675 459.795 75.8247C460.18 76.082 460.372 76.5322 460.372 77.1753ZM460.564 94.7327C460.564 95.8903 460.116 97.0479 459.218 98.2055C458.448 98.5914 457.615 98.7844 456.717 98.7844C455.306 98.7844 454.152 98.3342 453.254 97.4338C452.997 96.9193 452.869 96.1475 452.869 95.1185C452.869 94.4754 453.062 93.7037 453.446 92.8033C453.959 91.7743 454.665 91.2598 455.563 91.2598C455.819 91.2598 456.011 91.3241 456.14 91.4527C456.268 91.4527 456.396 91.4527 456.524 91.4527L457.102 90.681C457.743 91.3241 458.192 91.7743 458.448 92.0315C458.833 92.2888 459.41 92.546 460.18 92.8033C460.436 93.575 460.564 94.2182 460.564 94.7327ZM461.526 114.026C460.629 114.541 459.795 114.991 459.025 115.377C458.256 115.763 457.358 115.956 456.332 115.956H454.601C453.959 115.441 453.382 114.927 452.869 114.412C452.356 113.898 451.971 113.319 451.715 112.676C452.228 111.776 452.741 111.004 453.254 110.361C453.895 109.718 454.472 109.01 454.985 108.238C455.114 108.367 455.434 108.56 455.947 108.817C456.204 108.817 456.396 108.817 456.524 108.817C456.781 108.689 457.037 108.624 457.294 108.624C457.679 108.624 457.999 108.689 458.256 108.817C458.641 109.846 459.346 110.425 460.372 110.554C460.372 111.454 460.436 112.097 460.564 112.483C460.949 112.74 461.27 113.255 461.526 114.026ZM460.372 130.619C460.372 131.52 459.859 132.163 458.833 132.549C457.935 132.934 457.166 133.127 456.524 133.127C455.883 133.127 455.306 133.127 454.793 133.127C454.408 132.999 453.959 132.934 453.446 132.934C453.318 132.291 453.126 131.712 452.869 131.198C452.613 130.683 452.484 130.105 452.484 129.462C453.126 128.304 453.639 127.596 454.023 127.339C454.408 127.082 454.985 126.567 455.755 125.796C456.268 126.053 456.717 126.31 457.102 126.567C457.486 126.696 457.999 126.76 458.641 126.76C458.897 127.404 459.218 128.047 459.603 128.69C460.116 129.333 460.372 129.976 460.372 130.619ZM460.757 146.44C460.5 146.955 460.116 147.405 459.603 147.791C459.09 148.305 458.833 148.884 458.833 149.527C457.807 149.784 457.037 149.913 456.524 149.913C455.498 149.913 454.601 149.591 453.831 148.948C453.19 148.434 452.613 147.791 452.1 147.019C452.356 146.376 452.484 145.861 452.484 145.475C452.484 144.961 452.484 144.446 452.484 143.932C453.126 143.675 453.767 143.353 454.408 142.967C455.049 142.581 455.691 142.388 456.332 142.388C456.845 142.388 457.294 142.581 457.679 142.967C458.063 143.224 458.448 143.417 458.833 143.546C459.218 144.189 459.41 144.768 459.41 145.282C459.538 145.797 459.987 146.183 460.757 146.44Z" fill="#FFEB39"/>
<path d="M591 6.75284C591 7.78184 590.487 8.74653 589.461 9.64691C588.435 10.5473 587.409 10.9975 586.383 10.9975H585.229C584.716 10.3544 584.267 9.77554 583.882 9.26103C583.497 8.61791 583.112 7.97478 582.728 7.33165C582.984 6.5599 583.112 6.10971 583.112 5.98108C583.241 5.72383 583.176 5.20933 582.92 4.43758C584.844 3.5372 586.575 3.0227 588.114 2.89407C589.14 3.92308 589.974 4.5662 590.615 4.82346C590.872 5.85246 591 6.49559 591 6.75284ZM574.263 6.94578V8.1034C573.365 8.48928 572.852 9.13241 572.724 10.0328C572.211 10.1614 571.698 10.29 571.185 10.4187C570.8 10.5473 570.287 10.6116 569.646 10.6116C569.261 10.6116 568.876 10.5473 568.491 10.4187C568.106 10.29 567.658 10.2257 567.145 10.2257C567.145 9.5826 567.016 9.0681 566.76 8.68222C566.632 8.16772 566.567 7.65322 566.567 7.13871C566.567 6.23834 566.952 5.46658 567.722 4.82346C568.619 4.0517 569.389 3.47289 570.03 3.08701C570.672 3.21564 571.12 3.40857 571.377 3.66583C571.633 3.92308 572.082 3.92308 572.724 3.66583C572.98 4.18033 573.301 4.69483 573.686 5.20933C574.07 5.72383 574.263 6.30265 574.263 6.94578ZM558.295 7.13871L555.602 10.9975C554.832 10.8689 554.191 10.8045 553.678 10.8045C553.165 10.8045 552.716 10.8045 552.331 10.8045C551.946 10.6759 551.562 10.483 551.177 10.2257C550.792 9.83985 550.279 9.19672 549.638 8.29634V6.75284C549.638 6.23834 549.702 5.85246 549.83 5.59521C549.958 5.33796 550.151 5.01639 550.407 4.63052C550.92 4.11601 551.433 3.73014 551.946 3.47289C552.588 3.21564 553.229 2.95839 553.87 2.70113C554.511 3.08701 555.024 3.47289 555.409 3.85876C555.794 4.24464 556.307 4.50189 556.948 4.63052L558.295 7.13871ZM539.441 5.40227C539.441 6.81715 539.057 8.03909 538.287 9.0681C537.646 10.0971 536.556 10.6116 535.017 10.6116H533.285C532.387 9.32535 531.938 8.1034 531.938 6.94578V5.40227C532.708 4.75914 533.157 4.24464 533.285 3.85876C533.542 3.34426 534.247 3.08701 535.401 3.08701C536.299 3.08701 537.005 3.34426 537.518 3.85876C538.159 4.24464 538.8 4.75914 539.441 5.40227ZM522.319 6.75284C522.319 8.03909 522.127 9.0681 521.742 9.83985C521.357 10.6116 520.46 10.9975 519.049 10.9975C518.408 10.9975 517.83 10.8689 517.317 10.6116C516.804 10.2257 516.227 9.83985 515.586 9.45397C515.458 9.19672 515.329 8.93947 515.201 8.68222C515.073 8.29634 515.009 7.91047 515.009 7.52459C515.009 6.36696 515.458 5.46658 516.355 4.82346C517.382 4.18033 518.408 3.85876 519.434 3.85876C519.69 3.85876 519.947 3.92308 520.203 4.0517C520.588 4.0517 520.973 4.0517 521.357 4.0517C521.486 4.5662 521.678 5.01639 521.935 5.40227C522.191 5.78815 522.319 6.23834 522.319 6.75284ZM572.916 73.5095C572.916 73.8953 572.788 74.3455 572.531 74.86C571.505 75.889 570.672 76.5322 570.03 76.7894C569.517 76.918 568.555 77.0467 567.145 77.1753C566.503 76.6608 566.119 76.1463 565.99 75.6318C565.862 74.9886 565.477 74.4098 564.836 73.8953L566.567 70.4224H567.722C567.978 70.2938 568.299 70.1652 568.684 70.0366C569.068 69.7793 569.453 69.6507 569.838 69.6507C570.094 69.6507 570.607 69.7793 571.377 70.0366C571.633 70.6797 571.954 71.2585 572.339 71.773C572.724 72.2875 572.916 72.8663 572.916 73.5095ZM506.544 7.71753C506.287 8.36066 506.031 8.93947 505.774 9.45397C505.518 9.83985 505.39 10.4187 505.39 11.1904H504.235C503.979 11.4477 503.786 11.7692 503.658 12.1551C503.658 12.4124 503.53 12.6696 503.273 12.9269C502.247 12.6696 501.029 12.2837 499.618 11.7692C498.336 11.1261 497.694 10.0971 497.694 8.68222C497.694 7.52459 498.079 6.62421 498.849 5.98108C499.618 5.20933 500.516 4.82346 501.542 4.82346C502.055 4.82346 502.696 4.95208 503.466 5.20933C503.722 5.85246 504.171 6.30265 504.813 6.5599C505.454 6.81715 506.031 7.20303 506.544 7.71753ZM556.179 73.7024C556.179 74.4741 555.922 75.1816 555.409 75.8247C555.024 76.3392 554.511 76.7894 553.87 77.1753L553.101 76.7894C552.844 76.7894 552.652 76.8537 552.523 76.9823C552.523 76.9823 552.395 76.9823 552.139 76.9823C551.113 76.9823 550.279 76.5965 549.638 75.8247C549.125 75.053 548.868 74.1526 548.868 73.1236C548.868 71.8373 549.381 70.8083 550.407 70.0366C551.049 70.0366 552.01 69.9079 553.293 69.6507C554.063 70.0366 554.704 70.5511 555.217 71.1942C555.858 71.8373 556.179 72.6734 556.179 73.7024ZM503.273 22.5738C503.273 23.2169 503.209 23.7957 503.081 24.3102C502.953 24.8247 502.825 25.3392 502.696 25.8537H500.965C500.58 25.8537 500.067 26.1753 499.426 26.8184C497.374 25.918 495.963 24.4388 495.193 22.3808C495.835 21.8663 496.476 21.3518 497.117 20.8373C497.887 20.3228 498.528 19.744 499.041 19.1009C499.939 19.2295 500.837 19.5511 501.734 20.0656C502.76 20.5801 503.273 21.4161 503.273 22.5738ZM505.582 38.5876C504.941 39.488 504.428 40.5813 504.043 41.8676C503.402 41.739 502.76 41.739 502.119 41.8676C501.606 41.9962 501.029 42.0605 500.388 42.0605C499.49 42.0605 498.785 41.8676 498.271 41.4817C498.015 40.8386 497.694 40.2598 497.31 39.7453C496.925 39.2308 496.732 38.652 496.732 38.0088C496.732 37.7516 496.861 37.2371 497.117 36.4653C497.63 35.9508 498.207 35.5649 498.849 35.3077C499.49 35.0504 500.067 34.6646 500.58 34.1501C501.478 34.2787 502.183 34.5359 502.696 34.9218C503.209 35.1791 503.786 35.5006 504.428 35.8865C504.684 36.401 504.877 36.9155 505.005 37.43C505.133 37.8159 505.326 38.2018 505.582 38.5876ZM537.133 72.7377C536.748 73.8953 536.235 74.9886 535.594 76.0177C535.081 77.0467 534.055 77.5612 532.516 77.5612C532.003 77.3039 531.425 77.111 530.784 76.9823C530.271 76.8537 529.822 76.5965 529.438 76.2106C529.053 75.4388 528.86 74.6028 528.86 73.7024C528.86 73.3165 528.924 72.995 529.053 72.7377C529.181 72.4805 529.309 72.1589 529.438 71.773L531.938 69.8436L533.862 69.6507C534.375 70.1652 534.888 70.6797 535.401 71.1942C536.043 71.5801 536.62 72.0946 537.133 72.7377ZM506.352 55.7591C506.095 56.7881 505.71 57.6885 505.197 58.4603C504.684 59.232 504.492 60.1967 504.62 61.3543C503.979 61.3543 503.402 61.3543 502.889 61.3543C502.376 61.2257 501.863 61.1614 501.35 61.1614C501.221 61.1614 501.029 61.2257 500.772 61.3543C500.516 61.3543 500.388 61.4187 500.388 61.5473C499.746 61.0328 499.298 60.7112 499.041 60.5826C498.785 60.3253 498.271 60.0681 497.502 59.8108C497.502 59.2963 497.502 58.9105 497.502 58.6532C497.63 58.2673 497.758 57.8171 497.887 57.3026C497.887 57.174 497.758 56.8525 497.502 56.338C498.015 55.6948 498.592 55.116 499.233 54.6015C500.003 53.9584 500.901 53.6368 501.927 53.6368C502.825 53.6368 503.594 54.087 504.235 54.9874L506.352 55.7591ZM518.664 74.6671C517.51 76.4678 515.971 77.3682 514.047 77.3682C513.534 77.3682 512.764 77.2396 511.738 76.9823C511.61 76.4678 511.418 76.0177 511.161 75.6318C510.905 75.2459 510.776 74.7314 510.776 74.0883V73.1236C511.033 72.4805 511.289 71.9659 511.546 71.5801C511.931 71.0656 512.123 70.4868 512.123 69.8436C513.149 69.8436 514.111 70.0366 515.009 70.4224C515.907 70.6797 516.868 70.9369 517.895 71.1942C518.151 71.8373 518.279 72.4161 518.279 72.9306C518.279 73.4451 518.408 74.024 518.664 74.6671ZM589.076 147.212C588.178 148.112 587.281 148.627 586.383 148.755C585.485 149.013 584.523 149.334 583.497 149.72C581.702 148.562 580.804 147.083 580.804 145.282C580.804 144.511 581.253 143.675 582.15 142.774C583.048 141.745 583.946 141.231 584.844 141.231C585.87 141.231 586.511 141.488 586.768 142.003C587.024 142.388 587.473 142.646 588.114 142.774C588.627 143.546 588.82 144.125 588.691 144.511C588.691 144.768 588.691 145.282 588.691 146.054C588.691 146.569 588.82 146.955 589.076 147.212ZM505.39 73.3165C505.005 74.0883 504.556 74.9243 504.043 75.8247C503.658 76.5965 503.081 77.2396 502.312 77.7541C501.67 77.7541 501.029 77.8184 500.388 77.947C499.746 77.947 499.105 77.947 498.464 77.947C498.464 77.0467 498.207 76.4678 497.694 76.2106C497.181 75.9533 496.925 75.2459 496.925 74.0883C496.925 73.4451 497.117 72.8663 497.502 72.3518C497.887 71.7087 498.336 71.1299 498.849 70.6154H499.618C499.875 70.6154 500.067 70.6154 500.195 70.6154C500.452 70.4868 500.708 70.4224 500.965 70.4224H502.119L505.39 73.3165ZM572.916 146.44C572.916 146.955 572.788 147.405 572.531 147.791C572.275 148.177 572.018 148.627 571.762 149.141C570.479 149.784 568.94 150.106 567.145 150.106C566.632 149.591 566.183 149.077 565.798 148.562C565.541 148.048 565.221 147.533 564.836 147.019C564.836 146.376 564.9 145.797 565.028 145.282C565.157 144.639 565.221 143.996 565.221 143.353C565.99 143.353 566.439 143.16 566.567 142.774C566.696 142.388 566.824 141.874 566.952 141.231C568.235 141.745 569.132 142.131 569.646 142.388C570.287 142.517 570.992 143.16 571.762 144.318C572.018 144.704 572.275 145.025 572.531 145.282C572.788 145.54 572.916 145.926 572.916 146.44ZM504.235 89.7163C504.235 90.7453 504.107 91.71 503.851 92.6103C503.594 93.3821 503.466 94.2182 503.466 95.1185C502.825 95.3758 502.183 95.633 501.542 95.8903C500.901 96.1475 500.259 96.2762 499.618 96.2762H497.694C497.438 95.2472 497.117 94.604 496.732 94.3468C496.476 93.9609 496.348 93.0605 496.348 91.6456C496.348 91.0025 496.412 90.5523 496.54 90.2951L500.772 87.7869C501.414 88.3014 501.927 88.6873 502.312 88.9445C502.825 89.2018 503.466 89.459 504.235 89.7163ZM556.563 145.282C556.179 146.054 555.922 146.762 555.794 147.405C555.794 148.048 555.537 148.691 555.024 149.334C553.998 149.72 553.101 149.913 552.331 149.913C551.305 149.913 550.407 149.527 549.638 148.755C548.996 147.984 548.676 147.083 548.676 146.054C548.676 145.668 548.804 145.218 549.061 144.704C549.317 144.446 549.638 144.189 550.022 143.932C550.407 143.546 550.728 143.16 550.984 142.774L551.562 142.195C553.485 142.195 554.511 142.388 554.64 142.774C554.896 143.16 555.537 143.996 556.563 145.282ZM505.005 109.203C504.748 110.103 504.492 110.682 504.235 110.939C503.979 111.197 503.915 111.776 504.043 112.676C503.402 112.933 502.76 113.19 502.119 113.448C501.478 113.705 500.837 113.834 500.195 113.834C499.811 113.834 499.426 113.834 499.041 113.834C498.656 113.705 498.271 113.641 497.887 113.641C497.63 112.997 497.31 112.419 496.925 111.904C496.54 111.39 496.348 110.747 496.348 109.975V108.817C497.245 107.016 498.4 106.116 499.811 106.116C500.452 106.116 501.029 106.18 501.542 106.309C502.183 106.438 502.825 106.502 503.466 106.502C503.722 107.016 503.915 107.531 504.043 108.045C504.299 108.431 504.62 108.817 505.005 109.203ZM538.864 146.247C538.864 147.276 538.544 148.241 537.902 149.141C537.261 150.042 536.363 150.492 535.209 150.492C534.183 150.492 533.221 150.106 532.323 149.334C531.554 148.691 531.169 147.791 531.169 146.633C531.169 145.604 531.425 144.897 531.938 144.511C532.452 143.996 533.029 143.417 533.67 142.774C534.696 142.903 535.594 143.096 536.363 143.353C537.261 143.61 538.031 144.125 538.672 144.897C538.8 145.154 538.864 145.604 538.864 146.247ZM504.62 125.796C504.492 126.439 504.299 127.082 504.043 127.725C503.915 128.24 503.594 128.69 503.081 129.076C501.799 129.59 500.772 129.847 500.003 129.847C498.72 129.847 497.823 129.462 497.31 128.69C496.925 127.789 496.668 126.825 496.54 125.796C497.181 124.509 498.271 123.095 499.811 121.551C500.452 122.194 501.029 122.516 501.542 122.516C502.055 122.387 502.632 122.644 503.273 123.288C503.273 123.673 503.402 124.124 503.658 124.638C504.043 124.767 504.364 125.153 504.62 125.796ZM521.935 148.369C520.909 148.627 520.139 148.948 519.626 149.334C519.241 149.72 518.536 149.913 517.51 149.913C516.612 149.913 515.907 149.656 515.394 149.141C515.137 148.627 514.816 148.177 514.432 147.791C514.175 147.405 514.047 146.89 514.047 146.247C514.047 145.733 514.111 145.282 514.239 144.897C514.496 144.511 514.688 144.125 514.816 143.739C515.458 143.353 516.035 142.967 516.548 142.581C517.189 142.067 517.959 141.81 518.856 141.81C519.626 141.81 520.203 141.874 520.588 142.003C520.716 142.903 520.973 143.482 521.357 143.739C521.742 143.868 521.935 144.253 521.935 144.897C521.935 145.282 521.806 145.668 521.55 146.054C521.422 146.311 521.357 146.569 521.357 146.826C521.357 147.083 521.422 147.34 521.55 147.598C521.678 147.855 521.806 148.112 521.935 148.369ZM503.081 143.932C502.953 146.247 501.927 148.048 500.003 149.334C499.233 148.82 498.336 148.691 497.31 148.948C496.925 148.562 496.54 148.112 496.155 147.598C495.899 147.083 495.514 146.697 495.001 146.44V145.09C495.001 144.575 495.065 144.125 495.193 143.739C495.322 143.353 495.386 142.967 495.386 142.581C496.027 142.195 496.668 141.874 497.31 141.617C498.079 141.359 498.785 140.974 499.426 140.459C500.58 140.974 501.221 141.552 501.35 142.195C501.606 142.71 502.183 143.289 503.081 143.932Z" fill="#FFEB39"/>
</svg>
